<svg width="12" height="12" viewBox="0 0 12 12" fill="none" xmlns="http://www.w3.org/2000/svg">
<path d="M10.9453 4.94531H7.05469L7.05469 1.05469C7.05469 0.472195 6.58249 0 6 0C5.41751 0 4.94531 0.472195 4.94531 1.05469L4.94531 4.94531L1.05469 4.94531C0.472195 4.94531 0 5.41751 0 6C0 6.58249 0.472195 7.05469 1.05469 7.05469L4.94531 7.05469V10.9453C4.94531 11.5278 5.41751 12 6 12C6.58249 12 7.05469 11.5278 7.05469 10.9453V7.05469H10.9453C11.5278 7.05469 12 6.58249 12 6C12 5.41751 11.5278 4.94531 10.9453 4.94531Z" fill="white"/>
</svg>
