<svg width="41" height="24" viewBox="0 0 41 24" fill="none" xmlns="http://www.w3.org/2000/svg">
<path d="M3.58496 23.9996L4.20443 17.4951L9.77966 20.5925L3.58496 23.9996Z" fill="#DB00FF"/>
<rect width="40.3723" height="20.6348" rx="10.3174" fill="#DB00FF"/>
<path d="M17.8385 6.85738C17.8385 7.65072 17.5585 8.33672 16.9985 8.91538C16.4385 9.48472 15.6219 9.89538 14.5485 10.1474C15.1272 10.306 15.5659 10.5674 15.8645 10.9314C16.1632 11.286 16.3125 11.6967 16.3125 12.1634C16.3125 12.9007 16.0792 13.54 15.6125 14.0814C15.1552 14.6227 14.4832 15.0427 13.5965 15.3414C12.7099 15.6307 11.6412 15.7754 10.3905 15.7754C9.92386 15.7754 9.55052 15.7614 9.27052 15.7334C9.26119 15.9947 9.14919 16.1907 8.93452 16.3214C8.71986 16.452 8.44452 16.5174 8.10852 16.5174C7.77252 16.5174 7.53919 16.4427 7.40852 16.2934C7.28719 16.144 7.23586 15.9247 7.25452 15.6354C7.33852 14.3287 7.50186 12.9614 7.74452 11.5334C7.98719 10.096 8.29519 8.71005 8.66852 7.37538C8.73386 7.14205 8.86452 6.97872 9.06052 6.88538C9.25652 6.79205 9.51319 6.74538 9.83052 6.74538C10.3999 6.74538 10.6845 6.90405 10.6845 7.22138C10.6845 7.35205 10.6565 7.50138 10.6005 7.66938C10.3579 8.39738 10.1152 9.38672 9.87252 10.6374C9.62986 11.8787 9.45719 13.064 9.35452 14.1934C9.80252 14.2307 10.1665 14.2494 10.4465 14.2494C11.7532 14.2494 12.7099 14.0627 13.3165 13.6894C13.9325 13.3067 14.2405 12.8214 14.2405 12.2334C14.2405 11.8227 14.0632 11.4774 13.7085 11.1974C13.3632 10.9174 12.7799 10.7634 11.9585 10.7354C11.7719 10.726 11.6412 10.6794 11.5665 10.5954C11.4919 10.5114 11.4545 10.376 11.4545 10.1894C11.4545 9.91872 11.5105 9.69938 11.6225 9.53138C11.7345 9.36338 11.9399 9.27472 12.2385 9.26538C12.9012 9.24672 13.4985 9.14872 14.0305 8.97138C14.5719 8.79405 14.9965 8.54672 15.3045 8.22938C15.6125 7.90272 15.7665 7.52472 15.7665 7.09538C15.7665 6.55405 15.5005 6.12938 14.9685 5.82138C14.4365 5.50405 13.6199 5.34538 12.5185 5.34538C11.5199 5.34538 10.5539 5.47605 9.62052 5.73738C8.68719 5.98938 7.89386 6.31138 7.24052 6.70338C6.94186 6.88072 6.68986 6.96938 6.48452 6.96938C6.31652 6.96938 6.18586 6.91338 6.09252 6.80138C6.00852 6.68005 5.96652 6.53072 5.96652 6.35338C5.96652 6.12005 6.01319 5.91938 6.10652 5.75138C6.20919 5.58338 6.44719 5.39205 6.82052 5.17738C7.60452 4.72938 8.52386 4.37938 9.57852 4.12738C10.6332 3.87538 11.7112 3.74938 12.8125 3.74938C14.5019 3.74938 15.7619 4.03405 16.5925 4.60338C17.4232 5.17272 17.8385 5.92405 17.8385 6.85738ZM23.6904 12.6954C23.8117 12.6954 23.9051 12.7514 23.9704 12.8634C24.0451 12.9754 24.0824 13.1294 24.0824 13.3254C24.0824 13.6987 23.9937 13.988 23.8164 14.1934C23.4711 14.6134 22.9811 15.0007 22.3464 15.3554C21.7211 15.71 21.0491 15.8874 20.3304 15.8874C19.3504 15.8874 18.5897 15.6214 18.0484 15.0894C17.5071 14.5574 17.2364 13.8294 17.2364 12.9054C17.2364 12.2614 17.3717 11.664 17.6424 11.1134C17.9131 10.5534 18.2864 10.11 18.7624 9.78338C19.2477 9.45672 19.7937 9.29338 20.4004 9.29338C20.9417 9.29338 21.3757 9.45672 21.7024 9.78338C22.0291 10.1007 22.1924 10.5347 22.1924 11.0854C22.1924 11.7294 21.9591 12.2847 21.4924 12.7514C21.0351 13.2087 20.2557 13.5727 19.1544 13.8434C19.3877 14.2727 19.8311 14.4874 20.4844 14.4874C20.9044 14.4874 21.3804 14.3427 21.9124 14.0534C22.4537 13.7547 22.9204 13.3674 23.3124 12.8914C23.4244 12.7607 23.5504 12.6954 23.6904 12.6954ZM20.1624 10.6654C19.8171 10.6654 19.5231 10.866 19.2804 11.2674C19.0471 11.6687 18.9304 12.154 18.9304 12.7234V12.7514C19.4811 12.6207 19.9151 12.4247 20.2324 12.1634C20.5497 11.902 20.7084 11.5987 20.7084 11.2534C20.7084 11.076 20.6571 10.936 20.5544 10.8334C20.4611 10.7214 20.3304 10.6654 20.1624 10.6654ZM29.1865 12.6954C29.3078 12.6954 29.4012 12.7514 29.4665 12.8634C29.5412 12.9754 29.5785 13.1294 29.5785 13.3254C29.5785 13.6987 29.4898 13.988 29.3125 14.1934C28.9112 14.688 28.4725 15.094 27.9965 15.4114C27.5205 15.7287 26.9745 15.8874 26.3585 15.8874C24.4545 15.8874 23.5025 14.548 23.5025 11.8694C23.5025 11.4587 23.5165 11.0434 23.5445 10.6234H22.9985C22.7185 10.6234 22.5272 10.572 22.4245 10.4694C22.3312 10.3667 22.2845 10.2034 22.2845 9.97938C22.2845 9.45672 22.4945 9.19538 22.9145 9.19538H23.7125C23.8712 8.16872 24.1138 7.23072 24.4405 6.38138C24.7672 5.53205 25.1592 4.85538 25.6165 4.35138C26.0832 3.84738 26.5825 3.59538 27.1145 3.59538C27.5065 3.59538 27.8145 3.76805 28.0385 4.11338C28.2625 4.45872 28.3745 4.89272 28.3745 5.41538C28.3745 6.86205 27.7678 8.12205 26.5545 9.19538H28.1225C28.2718 9.19538 28.3792 9.22805 28.4445 9.29338C28.5098 9.35872 28.5425 9.48005 28.5425 9.65738C28.5425 10.3014 28.0152 10.6234 26.9605 10.6234H25.2525C25.2338 11.09 25.2245 11.454 25.2245 11.7154C25.2245 12.686 25.3365 13.3674 25.5605 13.7594C25.7938 14.1514 26.1578 14.3474 26.6525 14.3474C27.0538 14.3474 27.4085 14.226 27.7165 13.9834C28.0245 13.7407 28.3885 13.3767 28.8085 12.8914C28.9205 12.7607 29.0465 12.6954 29.1865 12.6954ZM26.7365 4.93938C26.5965 4.93938 26.4378 5.11672 26.2605 5.47138C26.0925 5.81672 25.9292 6.30205 25.7705 6.92738C25.6212 7.54338 25.4952 8.22938 25.3925 8.98538C25.9432 8.50938 26.3538 7.97738 26.6245 7.38938C26.9045 6.79205 27.0445 6.25072 27.0445 5.76538C27.0445 5.21472 26.9418 4.93938 26.7365 4.93938ZM30.0486 15.8874C29.5166 15.8874 29.0826 15.6774 28.7466 15.2574C28.4199 14.8374 28.2566 14.2867 28.2566 13.6054C28.2566 12.8587 28.4293 12.154 28.7746 11.4914C29.1199 10.8194 29.5773 10.2827 30.1466 9.88138C30.7253 9.47072 31.3366 9.26538 31.9806 9.26538C32.1859 9.26538 32.3213 9.30738 32.3866 9.39138C32.4613 9.46605 32.5219 9.60605 32.5686 9.81138C32.7459 9.77405 32.9419 9.75538 33.1566 9.75538C33.3806 9.75538 33.5533 9.81138 33.6746 9.92338C33.7959 10.0354 33.8566 10.194 33.8566 10.3994C33.8566 10.614 33.8099 10.9874 33.7166 11.5194C33.6139 12.0887 33.5346 12.6347 33.4786 13.1574C33.4226 13.6707 33.3946 14.2494 33.3946 14.8934C33.3946 15.248 33.3199 15.5047 33.1706 15.6634C33.0306 15.8127 32.7973 15.8874 32.4706 15.8874C32.1533 15.8874 31.9153 15.8127 31.7566 15.6634C31.6073 15.5047 31.5326 15.2527 31.5326 14.9074L31.5466 14.6834C31.2573 15.486 30.7579 15.8874 30.0486 15.8874ZM30.5946 14.4734C30.8559 14.4734 31.0939 14.2914 31.3086 13.9274C31.5233 13.5634 31.7146 12.9147 31.8826 11.9814L32.1486 10.5674C31.7659 10.5767 31.4113 10.726 31.0846 11.0154C30.7579 11.2954 30.4966 11.6687 30.3006 12.1354C30.1046 12.602 30.0066 13.0967 30.0066 13.6194C30.0066 13.8994 30.0579 14.114 30.1606 14.2634C30.2726 14.4034 30.4173 14.4734 30.5946 14.4734Z" fill="white"/>
</svg>
