<svg width="18" height="18" viewBox="0 0 18 18" fill="none" xmlns="http://www.w3.org/2000/svg">
<path fill-rule="evenodd" clip-rule="evenodd" d="M9.25936 3.01268C11.1862 3.01268 12.9018 3.91872 14.0002 5.32866L11.7542 5.16172C11.4195 5.13685 11.128 5.38738 11.1031 5.72132C11.0782 6.05526 11.3293 6.34613 11.6639 6.37101L15.1123 6.62731C15.275 6.6394 15.4356 6.58578 15.5582 6.47851C15.6808 6.37125 15.755 6.21933 15.7642 6.0569L15.962 2.5669C15.981 2.23258 15.7246 1.94623 15.3896 1.92733C15.0545 1.90842 14.7675 2.16413 14.7486 2.49846L14.6513 4.21482C13.3299 2.73378 11.4042 1.80005 9.25936 1.80005C5.27385 1.80005 2.04297 5.0236 2.04297 9.00005C2.04297 12.9765 5.27385 16.2 9.25936 16.2C11.0157 16.2 12.6269 15.5732 13.8782 14.5323C14.1359 14.3178 14.1706 13.9355 13.9557 13.6783C13.7408 13.4212 13.3576 13.3865 13.0998 13.6009C12.0589 14.4669 10.7208 14.9874 9.25936 14.9874C5.94509 14.9874 3.25836 12.3068 3.25836 9.00005C3.25836 5.69331 5.94509 3.01268 9.25936 3.01268Z" fill="#A0A3AD"/>
</svg>
