<svg width="28" height="28" viewBox="0 0 28 28" fill="none" xmlns="http://www.w3.org/2000/svg">
<g clip-path="url(#clip0_2428_4406)">
<path d="M13.8809 0.666992L6.71191 9.90499L10.2972 18.6193L17.4662 9.38099L13.8809 0.666992Z" fill="#2470ED"/>
<path d="M13.7686 1.49699L16.9852 9.31599L10.4099 17.789L7.19291 9.97033L13.7686 1.49699ZM13.8809 0.666992L6.71191 9.90499L10.2972 18.6193L17.4662 9.38133L13.8809 0.666992Z" fill="#05274C"/>
<path d="M11.6729 8.58594L16.0889 19.4136L25.4282 20.6656L21.0122 9.83794L11.6729 8.58594Z" fill="white"/>
<path d="M12.3355 9.0986L20.7152 10.2223L24.7655 20.1529L16.3859 19.0296L12.3355 9.0986ZM11.6729 8.58594L16.0889 19.4136L25.4282 20.6656L21.0122 9.83794L11.6729 8.58594Z" fill="#05274C"/>
<path d="M25.4278 7.3325L13.8428 5.74316L8.08984 13.2052L19.6738 14.7958L25.4278 7.3325Z" fill="#85BCFA"/>
<path d="M14.0268 6.19216L24.6525 7.64983L19.4898 14.3455L8.86384 12.8878L14.0268 6.19216ZM13.8428 5.74316L8.08984 13.2052L19.6738 14.7958L25.4275 7.3325L13.8428 5.74316Z" fill="#05274C"/>
<path d="M19.674 14.7931L8.08929 13.2051L2.33496 20.6671L13.92 22.2564L19.674 14.7931Z" fill="#85BCFA"/>
<path d="M8.27296 13.6541L18.8983 15.1121L13.736 21.8074L3.11029 20.3497L8.27296 13.6541ZM8.08896 13.2051L2.33496 20.6671L13.92 22.2564L19.674 14.7931L8.08896 13.2051Z" fill="#05274C"/>
<path d="M17.4662 9.38086L10.2969 18.6189L13.8825 27.3332L21.0512 18.0952L17.4662 9.38086Z" fill="#2470ED"/>
<path d="M17.3535 10.2109L20.5702 18.0299L13.9949 26.5032L10.7779 18.6839L17.3535 10.2109ZM17.4659 9.38086L10.2969 18.6189L13.8822 27.3332L21.0512 18.0952L17.4659 9.38086Z" fill="#05274C"/>
<path d="M2.33203 7.33398L6.74936 18.1613L16.0887 19.4133L11.6727 8.58598L2.33203 7.33398Z" fill="white"/>
<path d="M2.99603 7.84665L11.3757 8.96998L15.426 18.901L7.04636 17.7777L2.99603 7.84665ZM2.33203 7.33398L6.74936 18.1617L16.0887 19.4137L11.6727 8.58598L2.33203 7.33398Z" fill="#05274C"/>
<path d="M13.8382 13.9583L13.6898 13.55L13.8715 13.5746L11.9305 8.91164L11.8485 9.01798L11.6515 8.62864L11.6315 8.62598L8.08984 13.2073L13.8382 13.9583Z" fill="#85BCFA"/>
<path d="M11.8482 9.01798L11.6722 8.58665L11.6522 8.58398L8.08984 13.2057L13.8815 14.0003L13.6975 13.5513L8.86418 12.888L11.8482 9.01798Z" fill="#05274C"/>
</g>
<defs>
<clipPath id="clip0_2428_4406">
<rect width="26.6667" height="26.6667" fill="white" transform="translate(0.666992 0.666992)"/>
</clipPath>
</defs>
</svg>
