<svg width="16" height="16" viewBox="0 0 16 16" fill="none" xmlns="http://www.w3.org/2000/svg">
<g clip-path="url(#clip0_2551_101025)">
<rect width="16" height="16" rx="2" fill="white"/>
<g clip-path="url(#clip1_2551_101025)">
<path d="M7.93997 1.33301L4.35547 5.95201L6.14814 10.3092L9.73264 5.69001L7.93997 1.33301Z" fill="#2470ED"/>
<path d="M7.8838 1.74801L9.49214 5.65751L6.20447 9.89401L4.59597 5.98467L7.8838 1.74801ZM7.93997 1.33301L4.35547 5.95201L6.14814 10.3092L9.73264 5.69017L7.93997 1.33301Z" fill="#05274C"/>
<path d="M6.83594 5.29297L9.04394 10.7068L13.7136 11.3328L11.5056 5.91897L6.83594 5.29297Z" fill="white"/>
<path d="M7.16727 5.5493L11.3571 6.11114L13.3823 11.0765L9.19244 10.5148L7.16727 5.5493ZM6.83594 5.29297L9.04394 10.7068L13.7136 11.3328L11.5056 5.91897L6.83594 5.29297Z" fill="#05274C"/>
<path d="M13.7139 4.66576L7.92142 3.87109L5.04492 7.60209L10.8369 8.39743L13.7139 4.66576Z" fill="#85BCFA"/>
<path d="M8.01342 4.09559L13.3263 4.82443L10.7449 8.17226L5.43192 7.44343L8.01342 4.09559ZM7.92142 3.87109L5.04492 7.60209L10.8369 8.39743L13.7138 4.66576L7.92142 3.87109Z" fill="#05274C"/>
<path d="M10.8365 8.39556L5.04416 7.60156L2.16699 11.3326L7.95949 12.1272L10.8365 8.39556Z" fill="#85BCFA"/>
<path d="M5.13599 7.82606L10.4487 8.55506L7.86749 11.9027L2.55466 11.1739L5.13599 7.82606ZM5.04399 7.60156L2.16699 11.3326L7.95949 12.1272L10.8365 8.39556L5.04399 7.60156Z" fill="#05274C"/>
<path d="M9.73311 5.69043L6.14844 10.3094L7.94127 14.6666L11.5256 10.0476L9.73311 5.69043Z" fill="#2470ED"/>
<path d="M9.67677 6.10543L11.2851 10.0149L7.99744 14.2516L6.38894 10.3419L9.67677 6.10543ZM9.73294 5.69043L6.14844 10.3094L7.9411 14.6666L11.5256 10.0476L9.73294 5.69043Z" fill="#05274C"/>
<path d="M2.16602 4.66699L4.37468 10.0807L9.04435 10.7067L6.83635 5.29299L2.16602 4.66699Z" fill="white"/>
<path d="M2.49802 4.92333L6.68785 5.48499L8.71302 10.4505L4.52318 9.88883L2.49802 4.92333ZM2.16602 4.66699L4.37468 10.0808L9.04435 10.7068L6.83635 5.29299L2.16602 4.66699Z" fill="#05274C"/>
<path d="M7.91909 7.97867L7.84492 7.7745L7.93576 7.78683L6.96526 5.45533L6.92426 5.5085L6.82576 5.31383L6.81576 5.3125L5.04492 7.60317L7.91909 7.97867Z" fill="#85BCFA"/>
<path d="M6.92409 5.50802L6.83609 5.29235L6.82609 5.29102L5.04492 7.60185L7.94076 7.99918L7.84876 7.77468L5.43209 7.44302L6.92409 5.50802Z" fill="#05274C"/>
</g>
</g>
<defs>
<clipPath id="clip0_2551_101025">
<rect width="16" height="16" rx="2" fill="white"/>
</clipPath>
<clipPath id="clip1_2551_101025">
<rect width="13.3333" height="13.3333" fill="white" transform="translate(1.33301 1.33301)"/>
</clipPath>
</defs>
</svg>
