<svg width="16" height="16" viewBox="0 0 16 16" fill="none" xmlns="http://www.w3.org/2000/svg">
<g clip-path="url(#clip0_2453_4430)">
<path d="M8 2C4.6838 2 2 4.6835 2 8C2 11.3161 4.6835 14 8 14C11.3162 14 14 11.3165 14 8C14 4.6838 11.3165 2 8 2ZM8 13.1628C5.15323 13.1628 2.83721 10.8468 2.83721 8C2.83721 5.15321 5.15323 2.83721 8 2.83721C10.8468 2.83721 13.1628 5.15321 13.1628 8C13.1628 10.8468 10.8468 13.1628 8 13.1628Z" fill="#A0A3AD"/>
<path d="M7.82191 9.5918C7.4902 9.5918 7.22168 9.86822 7.22168 10.1999C7.22168 10.5237 7.4823 10.8081 7.82191 10.8081C8.16152 10.8081 8.43002 10.5237 8.43002 10.1999C8.43002 9.86822 8.1536 9.5918 7.82191 9.5918Z" fill="#A0A3AD"/>
<path d="M7.92502 4.9873C6.8588 4.9873 6.36914 5.61916 6.36914 6.04562C6.36914 6.35364 6.62977 6.49581 6.843 6.49581C7.26949 6.49581 7.09575 5.88766 7.90132 5.88766C8.2962 5.88766 8.61213 6.06142 8.61213 6.42473C8.61213 6.8512 8.16984 7.09602 7.90922 7.31716C7.68016 7.51457 7.38007 7.83841 7.38007 8.51763C7.38007 8.9283 7.49065 9.04677 7.81444 9.04677C8.20141 9.04677 8.2804 8.87303 8.2804 8.72294C8.2804 8.31227 8.2883 8.07534 8.72269 7.73573C8.93592 7.56988 9.60722 7.03281 9.60722 6.29043C9.60722 5.54805 8.93592 4.9873 7.92502 4.9873Z" fill="#A0A3AD"/>
</g>
<defs>
<clipPath id="clip0_2453_4430">
<rect width="12" height="12" fill="white" transform="translate(2 2)"/>
</clipPath>
</defs>
</svg>
