<svg width="16" height="16" viewBox="0 0 16 16" fill="none" xmlns="http://www.w3.org/2000/svg">
<path fill-rule="evenodd" clip-rule="evenodd" d="M7.11606 12.1163C6.62791 11.6282 6.62791 10.8367 7.11606 10.3485L12.3483 5.11631C12.8365 4.62815 13.6279 4.62815 14.1161 5.11631C14.6042 5.60446 14.6042 6.39592 14.1161 6.88407L8.88383 12.1163C8.39567 12.6045 7.60422 12.6045 7.11606 12.1163Z" fill="white"/>
<path fill-rule="evenodd" clip-rule="evenodd" d="M1.88394 5.11631C2.37209 4.62815 3.16355 4.62815 3.65171 5.11631L8.88394 10.3485C9.37209 10.8367 9.37209 11.6282 8.88394 12.1163C8.39578 12.6045 7.60433 12.6045 7.11617 12.1163L1.88394 6.88407C1.39578 6.39592 1.39578 5.60446 1.88394 5.11631Z" fill="white"/>
</svg>
