<svg width="18" height="18" viewBox="0 0 18 18" fill="none" xmlns="http://www.w3.org/2000/svg">
<g clip-path="url(#clip0_1385_906)">
<path d="M16.418 7.41797H10.582V1.58203C10.582 0.708293 9.87374 0 9 0C8.12626 0 7.41797 0.708293 7.41797 1.58203V7.41797H1.58203C0.708293 7.41797 0 8.12626 0 9C0 9.87374 0.708293 10.582 1.58203 10.582H7.41797V16.418C7.41797 17.2917 8.12626 18 9 18C9.87374 18 10.582 17.2917 10.582 16.418V10.582H16.418C17.2917 10.582 18 9.87374 18 9C18 8.12626 17.2917 7.41797 16.418 7.41797Z" fill="white"/>
</g>
<defs>
<clipPath id="clip0_1385_906">
<rect width="18" height="18" fill="white"/>
</clipPath>
</defs>
</svg>
