<svg width="30" height="20" viewBox="0 0 30 20" fill="none" xmlns="http://www.w3.org/2000/svg">
<path fill-rule="evenodd" clip-rule="evenodd" d="M29.5 10C29.5 10.6846 29.2066 11.3345 28.6977 11.7773L20.4564 18.9471C19.4997 19.7793 18.0666 19.6583 17.2554 18.6768C16.4443 17.6952 16.5622 16.2248 17.5189 15.3925L21.0388 12.3302L2.77109 12.3302C1.5168 12.3302 0.500001 11.2869 0.500002 10C0.500002 8.71308 1.5168 7.66982 2.77109 7.66982L21.0388 7.66982L17.5189 4.6075C16.5622 3.77521 16.4443 2.3048 17.2554 1.32323C18.0666 0.341671 19.4997 0.22066 20.4564 1.05295L28.6977 8.22273C29.2066 8.66547 29.5 9.31542 29.5 10Z" fill="white"/>
</svg>