<svg width="14" height="14" viewBox="0 0 14 14" fill="none" xmlns="http://www.w3.org/2000/svg">
<path fill-rule="evenodd" clip-rule="evenodd" d="M7.77348 10.6015C8.20061 10.1744 8.20061 9.48186 7.77348 9.05473L3.19527 4.47652C2.76814 4.04939 2.07561 4.04939 1.64848 4.47652C1.22134 4.90366 1.22134 5.59618 1.64848 6.02332L6.22668 10.6015C6.65382 11.0287 7.34634 11.0287 7.77348 10.6015Z" fill="#565B72"/>
<path fill-rule="evenodd" clip-rule="evenodd" d="M12.3515 4.47652C11.9244 4.04939 11.2319 4.04939 10.8047 4.47652L6.22652 9.05473C5.79939 9.48186 5.79939 10.1744 6.22652 10.6015C6.65366 11.0287 7.34618 11.0287 7.77332 10.6015L12.3515 6.02332C12.7787 5.59618 12.7787 4.90366 12.3515 4.47652Z" fill="#565B72"/>
</svg>
