<svg width="20" height="20" viewBox="0 0 20 20" fill="none" xmlns="http://www.w3.org/2000/svg">
<g id="frame">
<path id="Vector (Stroke)" fill-rule="evenodd" clip-rule="evenodd" d="M7.24726 1.11524C7.7359 1.6029 7.73669 2.39436 7.24902 2.883L2.23902 7.903C1.75135 8.39164 0.959897 8.39243 0.471255 7.90476C-0.0173863 7.4171 -0.0181754 6.62564 0.469493 6.137L5.47949 1.117C5.96716 0.628356 6.75862 0.627567 7.24726 1.11524Z" fill="#F7F8FA"/>
<path id="Vector (Stroke)_2" fill-rule="evenodd" clip-rule="evenodd" d="M19.6045 7.01953C19.6045 7.70989 19.0448 8.26953 18.3545 8.26953L1.35449 8.26953C0.664137 8.26953 0.104492 7.70989 0.104492 7.01953C0.104492 6.32917 0.664137 5.76953 1.35449 5.76953L18.3545 5.76953C19.0448 5.76953 19.6045 6.32918 19.6045 7.01953Z" fill="#F7F8FA"/>
<path id="Vector (Stroke)_3" fill-rule="evenodd" clip-rule="evenodd" d="M19.2375 12.1152C19.7261 12.6029 19.7269 13.3944 19.2393 13.883L14.2293 18.903C13.7416 19.3916 12.9501 19.3924 12.4615 18.9048C11.9728 18.4171 11.9721 17.6256 12.4597 17.137L17.4697 12.117C17.9574 11.6284 18.7489 11.6276 19.2375 12.1152Z" fill="#F7F8FA"/>
<path id="Vector (Stroke)_4" fill-rule="evenodd" clip-rule="evenodd" d="M19.6045 13C19.6045 13.6904 19.0448 14.25 18.3545 14.25L1.35449 14.25C0.664137 14.25 0.104492 13.6904 0.104492 13C0.104492 12.3096 0.664137 11.75 1.35449 11.75L18.3545 11.75C19.0448 11.75 19.6045 12.3096 19.6045 13Z" fill="#F7F8FA"/>
</g>
</svg>
