<svg width="16" height="16" viewBox="0 0 16 16" fill="none" xmlns="http://www.w3.org/2000/svg">
<path fill-rule="evenodd" clip-rule="evenodd" d="M6.59518 2.07699C6.92094 2.4021 6.92147 2.92974 6.59635 3.2555L3.25635 6.60216C2.93124 6.92793 2.4036 6.92845 2.07784 6.60334C1.75208 6.27823 1.75155 5.75059 2.07667 5.42483L5.41667 2.07816C5.74178 1.7524 6.26942 1.75187 6.59518 2.07699Z" fill="#F7F8FA"/>
<path fill-rule="evenodd" clip-rule="evenodd" d="M14.833 6.01302C14.833 6.47326 14.4599 6.84635 13.9997 6.84635L2.66634 6.84635C2.2061 6.84635 1.83301 6.47326 1.83301 6.01302C1.83301 5.55278 2.2061 5.17969 2.66634 5.17969L13.9997 5.17969C14.4599 5.17969 14.833 5.55278 14.833 6.01302Z" fill="#F7F8FA"/>
<path fill-rule="evenodd" clip-rule="evenodd" d="M14.5883 9.41048C14.9141 9.73559 14.9146 10.2632 14.5895 10.589L11.2495 13.9357C10.9244 14.2614 10.3968 14.2619 10.071 13.9368C9.74524 13.6117 9.74472 13.0841 10.0698 12.7583L13.4098 9.41166C13.7349 9.0859 14.2626 9.08537 14.5883 9.41048Z" fill="#F7F8FA"/>
<path fill-rule="evenodd" clip-rule="evenodd" d="M14.833 10.0003C14.833 10.4606 14.4599 10.8337 13.9997 10.8337L2.66634 10.8337C2.2061 10.8337 1.83301 10.4606 1.83301 10.0003C1.83301 9.54009 2.2061 9.16699 2.66634 9.16699L13.9997 9.16699C14.4599 9.16699 14.833 9.54009 14.833 10.0003Z" fill="#F7F8FA"/>
</svg>
