<svg width="40" height="40" viewBox="0 0 40 40" fill="none" xmlns="http://www.w3.org/2000/svg">
<path fill-rule="evenodd" clip-rule="evenodd" d="M26.9581 11.1056H22.0038C21.2458 11.1056 20.6312 10.485 20.6312 9.71947C20.6312 8.95395 21.2458 8.33337 22.0038 8.33337H30.2935C31.0042 8.33337 31.5887 8.8788 31.659 9.57775C31.6637 9.62435 31.6661 9.67163 31.6661 9.71947V17.9821C31.6661 18.7476 31.0515 19.3682 30.2935 19.3682C29.5354 19.3682 28.9209 18.7476 28.9209 17.9821V13.0439L19.5043 22.5533C18.9682 23.0946 18.0992 23.0946 17.5632 22.5533C17.0271 22.012 17.0271 21.1344 17.5632 20.593L26.9581 11.1056Z" fill="white"/>
<path fill-rule="evenodd" clip-rule="evenodd" d="M11.0918 28.8707L26.2646 28.8707C27.0264 28.8707 27.644 29.4882 27.644 30.25C27.644 31.0118 27.0264 31.6294 26.2646 31.6294L9.71236 31.6294H8.33301V28.8707H8.33308V14.7063C8.33308 13.9445 8.95064 13.3269 9.71244 13.3269C10.4742 13.3269 11.0918 13.9445 11.0918 14.7063V28.8707Z" fill="white"/>
</svg>
