<svg width="16" height="16" viewBox="0 0 16 16" fill="none" xmlns="http://www.w3.org/2000/svg">
<g clip-path="url(#clip0_1061_4171)">
<g clip-path="url(#clip1_1061_4171)">
<path d="M8.56815 2.46875H2.63478C2.45041 2.46875 2.29956 2.6196 2.29956 2.80397V6.72603C2.29956 6.9104 2.45041 7.06125 2.63478 7.06125H8.56815C8.75253 7.06125 8.90337 6.9104 8.90337 6.72603V2.80397C8.90337 2.6196 8.75253 2.46875 8.56815 2.46875ZM8.23294 6.39081H2.97V3.13919H8.23294V6.39081Z" fill="#A0A3AD"/>
<path d="M15.6614 14.5031H10.0432V9.1396H10.5896C11.0857 9.1396 11.488 9.54522 11.4846 10.0413C11.4846 10.0447 11.4846 10.0447 11.4846 10.048V10.9766C11.4846 11.9588 12.2791 12.7533 13.2613 12.7533C14.2435 12.7533 15.0379 11.9588 15.0379 10.9766V5.67344C15.0379 5.12368 14.8334 4.59403 14.458 4.18842L11.8366 1.20162L11.3338 1.64411L13.3652 3.96047C12.6311 4.0845 12.1349 4.7784 12.259 5.51253C12.3662 6.16286 12.9294 6.63887 13.5898 6.63887C13.868 6.63552 14.1395 6.55171 14.3675 6.39081V10.9766C14.3675 11.5867 13.8714 12.0828 13.2613 12.0828C12.6512 12.0828 12.155 11.5867 12.155 10.9766V10.048C12.1584 9.17983 11.4578 8.47252 10.5929 8.46916H10.5896H10.0432V2.22403C10.0432 1.45974 9.42636 0.826172 8.66206 0.826172H2.43369C1.66939 0.826172 1.05929 1.46309 1.05929 2.22403V14.5031H0.335219C0.150849 14.5031 0 14.654 0 14.8383C0 15.0227 0.150849 15.1735 0.335219 15.1735H15.6648C15.8492 15.1735 16 15.0227 16 14.8383C16 14.654 15.8492 14.5031 15.6614 14.5031ZM13.5898 5.96508C13.2143 5.96508 12.9126 5.66003 12.9126 5.28794C12.9126 4.91584 13.2177 4.61079 13.5898 4.61079C13.9652 4.61079 14.2669 4.91584 14.2669 5.28794C14.2669 5.66003 13.9619 5.96508 13.5898 5.96508ZM9.37272 14.5031H1.72973V2.22403C1.72973 1.82848 2.03813 1.49661 2.43369 1.49661H8.66206C9.05762 1.49661 9.37272 1.83183 9.37272 2.22403V14.5031Z" fill="#A0A3AD"/>
</g>
</g>
<defs>
<clipPath id="clip0_1061_4171">
<rect width="16" height="16" fill="white"/>
</clipPath>
<clipPath id="clip1_1061_4171">
<rect width="16" height="16" fill="white"/>
</clipPath>
</defs>
</svg>
