<svg width="14" height="15" viewBox="0 0 14 15" fill="none" xmlns="http://www.w3.org/2000/svg">
<path d="M13.7038 13.19H8.78776V8.49691H9.26587C9.69998 8.49691 10.052 8.85182 10.049 9.28593C10.049 9.28886 10.049 9.28886 10.049 9.2918V10.1043C10.049 10.9637 10.7442 11.6589 11.6036 11.6589C12.463 11.6589 13.1582 10.9637 13.1582 10.1043V5.46401C13.1582 4.98298 12.9793 4.51953 12.6507 4.16462L10.357 1.55117L9.91703 1.93835L11.6945 3.96517C11.0522 4.07369 10.6181 4.68086 10.7266 5.32322C10.8204 5.89226 11.3132 6.30877 11.8911 6.30877C12.1345 6.30583 12.3721 6.2325 12.5715 6.09171V10.1043C12.5715 10.6381 12.1374 11.0722 11.6036 11.0722C11.0698 11.0722 10.6357 10.6381 10.6357 10.1043V9.2918C10.6386 8.53211 10.0256 7.91321 9.2688 7.91027H9.26587H8.78776V2.44579C8.78776 1.77702 8.24806 1.22266 7.5793 1.22266H2.12948C1.46072 1.22266 0.92688 1.77996 0.92688 2.44579V13.19H0.293317C0.131992 13.19 0 13.322 0 13.4833C0 13.6446 0.131992 13.7766 0.293317 13.7766H13.7067C13.868 13.7766 14 13.6446 14 13.4833C14 13.322 13.868 13.19 13.7038 13.19ZM11.8911 5.7192C11.5625 5.7192 11.2986 5.45228 11.2986 5.1267C11.2986 4.80112 11.5655 4.5342 11.8911 4.5342C12.2196 4.5342 12.4836 4.80112 12.4836 5.1267C12.4836 5.45228 12.2166 5.7192 11.8911 5.7192Z" fill="#A0A3AD"/>
<path d="M7.49674 2.66016H2.30504C2.14371 2.66016 2.01172 2.79215 2.01172 2.95347V6.38528C2.01172 6.5466 2.14371 6.67859 2.30504 6.67859H7.49674C7.65806 6.67859 7.79006 6.5466 7.79006 6.38528V2.95347C7.79006 2.79215 7.65806 2.66016 7.49674 2.66016Z" fill="#15161D"/>
</svg>
