<svg width="16" height="17" viewBox="0 0 16 17" fill="none" xmlns="http://www.w3.org/2000/svg">
<path d="M14.7038 14.1902H9.78776V9.49715H10.2659C10.7 9.49715 11.052 9.85206 11.049 10.2862C11.049 10.2891 11.049 10.2891 11.049 10.292V11.1045C11.049 11.9639 11.7442 12.6591 12.6036 12.6591C13.463 12.6591 14.1582 11.9639 14.1582 11.1045V6.46426C14.1582 5.98322 13.9793 5.51978 13.6507 5.16487L11.357 2.55141L10.917 2.93859L12.6945 4.96541C12.0522 5.07394 11.6181 5.6811 11.7266 6.32347C11.8204 6.8925 12.3132 7.30901 12.8911 7.30901C13.1345 7.30608 13.3721 7.23275 13.5715 7.09196V11.1045C13.5715 11.6384 13.1374 12.0725 12.6036 12.0725C12.0698 12.0725 11.6357 11.6384 11.6357 11.1045V10.292C11.6386 9.53235 11.0256 8.91345 10.2688 8.91052H10.2659H9.78776V3.44603C9.78776 2.77727 9.24806 2.2229 8.5793 2.2229H3.12948C2.46072 2.2229 1.92688 2.7802 1.92688 3.44603V14.1902H1.29332C1.13199 14.1902 1 14.3222 1 14.4835C1 14.6449 1.13199 14.7768 1.29332 14.7768H14.7067C14.868 14.7768 15 14.6449 15 14.4835C15 14.3222 14.868 14.1902 14.7038 14.1902ZM12.8911 6.71944C12.5625 6.71944 12.2986 6.45253 12.2986 6.12694C12.2986 5.80136 12.5655 5.53444 12.8911 5.53444C13.2196 5.53444 13.4836 5.80136 13.4836 6.12694C13.4836 6.45253 13.2166 6.71944 12.8911 6.71944Z" fill="#A0A3AD"/>
<path d="M8.49674 3.66016H3.30504C3.14371 3.66016 3.01172 3.79215 3.01172 3.95347V7.38528C3.01172 7.5466 3.14371 7.67859 3.30504 7.67859H8.49674C8.65806 7.67859 8.79006 7.5466 8.79006 7.38528V3.95347C8.79006 3.79215 8.65806 3.66016 8.49674 3.66016Z" fill="#15161D"/>
</svg>
