<svg width="16" height="16" viewBox="0 0 16 16" fill="none" xmlns="http://www.w3.org/2000/svg">
<g clip-path="url(#clip0_2792_9715)">
<path d="M12.2103 3.79018L8.42088 3.36914L3.78928 3.79018L3.36816 8.00074L3.7892 12.2113L7.99976 12.7376L12.2103 12.2113L12.6314 7.89554L12.2103 3.79018Z" fill="white"/>
<path d="M5.51683 10.3219C5.20211 10.1092 4.98419 9.79875 4.86523 9.38819L5.59579 9.08715C5.66211 9.33979 5.77787 9.53554 5.94315 9.6745C6.10739 9.81346 6.30739 9.88187 6.54107 9.88187C6.78003 9.88187 6.98531 9.80923 7.15683 9.66395C7.32835 9.51867 7.41475 9.33338 7.41475 9.10922C7.41475 8.87978 7.32419 8.69235 7.14315 8.54715C6.96211 8.40195 6.73475 8.32922 6.46315 8.32922H6.04107V7.60611H6.41995C6.65363 7.60611 6.85051 7.54298 7.01051 7.41666C7.17051 7.29034 7.25051 7.11771 7.25051 6.89771C7.25051 6.70195 7.17891 6.54611 7.03579 6.42931C6.89267 6.31251 6.71155 6.25354 6.49155 6.25354C6.27683 6.25354 6.10627 6.31043 5.97995 6.42515C5.85363 6.53987 5.76203 6.68091 5.70419 6.84723L4.98107 6.54619C5.07683 6.27459 5.25267 6.03459 5.51051 5.82723C5.76843 5.61987 6.09787 5.51562 6.49787 5.51562C6.79363 5.51562 7.05995 5.57251 7.29579 5.68723C7.53155 5.80195 7.71683 5.96091 7.85051 6.16299C7.98419 6.36611 8.05051 6.59355 8.05051 6.84611C8.05051 7.10403 7.98843 7.32187 7.86419 7.50083C7.73995 7.67979 7.58731 7.81658 7.40627 7.91242V7.95554C7.64523 8.05554 7.83995 8.20818 7.99363 8.41346C8.14627 8.61874 8.22307 8.86403 8.22307 9.15035C8.22307 9.43667 8.15043 9.69242 8.00515 9.91666C7.85987 10.1409 7.65883 10.3177 7.40411 10.4461C7.14835 10.5745 6.86099 10.6398 6.54203 10.6398C6.17259 10.6408 5.83155 10.5345 5.51683 10.3219Z" fill="#1A73E8"/>
<path d="M10.0002 6.69718L9.20231 7.27718L8.80127 6.66878L10.2402 5.63086H10.7918V10.5266H10.0002V6.69718Z" fill="#1A73E8"/>
<path d="M12.2107 16.0007L16.0002 12.2112L14.1055 11.3691L12.2107 12.2112L11.3687 14.1059L12.2107 16.0007Z" fill="#EA4335"/>
<path d="M2.94727 14.1057L3.78935 16.0004H12.2104V12.2109H3.78935L2.94727 14.1057Z" fill="#34A853"/>
<path d="M1.26312 0C0.56528 0 0 0.56528 0 1.26312V12.2105L1.89472 13.0526L3.78944 12.2105V3.78944H12.2105L13.0526 1.89472L12.2106 0H1.26312Z" fill="#4285F4"/>
<path d="M0 12.2109V14.7373C0 15.4352 0.56528 16.0004 1.26312 16.0004H3.78944V12.2109H0Z" fill="#188038"/>
<path d="M12.2104 3.78935V12.2104H15.9999V3.78935L14.1052 2.94727L12.2104 3.78935Z" fill="#FBBC04"/>
<path d="M15.9999 3.78944V1.26312C15.9999 0.5652 15.4346 0 14.7368 0H12.2104V3.78944H15.9999Z" fill="#1967D2"/>
</g>
<defs>
<clipPath id="clip0_2792_9715">
<rect width="16" height="16" fill="white"/>
</clipPath>
</defs>
</svg>
