<svg width="18" height="18" viewBox="0 0 18 18" fill="none"
  xmlns="http://www.w3.org/2000/svg">
  <path d="M11.7073 10.6626L11.5 10.8123V11.068V12.793C11.5 12.8502 11.4755 12.9167 11.4282 12.9674C11.3856 13.0131 11.3279 13.043 11.25 13.043H6.75C6.67209 13.043 6.61442 13.0131 6.57178 12.9674C6.52446 12.9167 6.5 12.8502 6.5 12.793V11.068V10.8004L6.27735 10.6519C5.06484 9.84361 4.25 8.42387 4.25 6.79297C4.25 4.14411 6.35114 2.04297 9 2.04297C11.6489 2.04297 13.75 4.14411 13.75 6.79297C13.75 8.34181 12.9403 9.77211 11.7073 10.6626Z" stroke="#DD3A44"/>
  <mask id="path-2-inside-1_5007_203793" fill="white">
    <path d="M6.75 15.793C6.75 16.168 7.05 16.543 7.5 16.543H10.5C10.95 16.543 11.25 16.168 11.25 15.793V15.043H6.75V15.793Z"/>
  </mask>
  <path d="M11.25 15.043H15.25V11.043H11.25V15.043ZM6.75 15.043V11.043H2.75V15.043H6.75ZM2.75 15.793C2.75 18.1127 4.58541 20.543 7.5 20.543V12.543C9.51459 12.543 10.75 14.2232 10.75 15.793H2.75ZM7.5 20.543H10.5V12.543H7.5V20.543ZM10.5 20.543C13.4146 20.543 15.25 18.1127 15.25 15.793H7.25C7.25 14.2232 8.48541 12.543 10.5 12.543V20.543ZM15.25 15.793V15.043H7.25V15.793H15.25ZM11.25 11.043H6.75V19.043H11.25V11.043ZM2.75 15.043V15.793H10.75V15.043H2.75Z" fill="#DD3A44" mask="url(#path-2-inside-1_5007_203793)"/>
</svg>
