<svg width="18" height="18" viewBox="0 0 18 18" fill="none" xmlns="http://www.w3.org/2000/svg">
<path fill-rule="evenodd" clip-rule="evenodd" d="M12.1313 4.99749H9.90186C9.56074 4.99749 9.2842 4.71823 9.2842 4.37374C9.2842 4.02926 9.56074 3.75 9.90186 3.75H13.6322C13.952 3.75 14.2151 3.99544 14.2467 4.30997C14.2488 4.33094 14.2499 4.35221 14.2499 4.37374V8.09193C14.2499 8.43641 13.9733 8.71567 13.6322 8.71567C13.2911 8.71567 13.0146 8.43641 13.0146 8.09193V5.86973L8.77707 10.149C8.53586 10.3925 8.14478 10.3925 7.90356 10.149C7.66235 9.90537 7.66235 9.51044 7.90356 9.26685L12.1313 4.99749Z" fill="#007AFF"/>
<path fill-rule="evenodd" clip-rule="evenodd" d="M4.99145 12.9918L11.8192 12.9918C12.162 12.9918 12.4399 13.2697 12.4399 13.6125C12.4399 13.9553 12.162 14.2332 11.8192 14.2332L4.37071 14.2332H3.75V12.9918H3.75003V6.61778C3.75003 6.27497 4.02794 5.99707 4.37074 5.99707C4.71355 5.99707 4.99145 6.27497 4.99145 6.61778V12.9918Z" fill="#007AFF"/>
</svg>
