<svg width="14" height="14" viewBox="0 0 14 14" fill="none" xmlns="http://www.w3.org/2000/svg">
<g clip-path="url(#clip0_185_13330)">
<path d="M11.6341 6.45135C11.4266 6.45135 11.258 6.61996 11.258 6.82743V10.7274C11.258 11.7491 10.4268 12.5802 9.40514 12.5802H3.27688C2.25518 12.5802 1.42404 11.7491 1.42404 10.7274V4.59914C1.42404 3.57745 2.25518 2.74631 3.27688 2.74631H7.17685C7.38495 2.74631 7.55294 2.5777 7.55294 2.37022C7.55294 2.16275 7.38433 1.99414 7.17685 1.99414H3.27688C1.84024 1.99414 0.671875 3.1625 0.671875 4.59851V10.7268C0.671875 12.1628 1.84024 13.3312 3.27688 13.3312H9.40514C10.8412 13.3312 12.0095 12.1628 12.0095 10.7268V6.8268C12.0095 6.61933 11.8409 6.45072 11.6334 6.45072L11.6341 6.45135Z" fill="#A0A3AD"/>
<path d="M12.9593 0.669922H9.94936C9.74189 0.669922 9.57328 0.838532 9.57328 1.046C9.57328 1.25348 9.74189 1.42209 9.94936 1.42209H12.0517L7.24282 6.23031C7.09614 6.37635 7.09614 6.61516 7.24282 6.76184C7.31615 6.83517 7.41268 6.87215 7.50858 6.87215C7.60448 6.87215 7.70101 6.83517 7.77435 6.76184L12.5826 1.95362V4.07472C12.5826 4.2822 12.7512 4.45081 12.9586 4.45081C13.1661 4.45081 13.3347 4.2822 13.3347 4.07472V1.046C13.3347 0.838532 13.1667 0.669922 12.9593 0.669922Z" fill="#A0A3AD"/>
</g>
<defs>
<clipPath id="clip0_185_13330">
<rect width="14" height="14" fill="white"/>
</clipPath>
</defs>
</svg>
