<svg width="16" height="20" viewBox="0 0 16 20" fill="none" xmlns="http://www.w3.org/2000/svg">
    <path
        d="M13.625 7.34375H12.2173V4.13164C12.2173 1.85344 10.3248 0 7.99855 0C5.67234 0 3.7798 1.85344 3.7798 4.13164V7.34375H2.375C1.08266 7.34375 0.03125 8.39516 0.03125 9.6875L0.03125 17.6562C0.03125 18.9486 1.08266 20 2.375 20H13.625C14.9173 20 15.9688 18.9486 15.9688 17.6562V9.6875C15.9688 8.39516 14.9173 7.34375 13.625 7.34375ZM5.3423 4.13164C5.3423 2.715 6.53391 1.5625 7.99855 1.5625C9.4632 1.5625 10.6548 2.715 10.6548 4.13164V7.34375H5.3423V4.13164ZM14.4062 17.6562C14.4062 18.087 14.0558 18.4375 13.625 18.4375H2.375C1.94422 18.4375 1.59375 18.087 1.59375 17.6562V9.6875C1.59375 9.25672 1.94422 8.90625 2.375 8.90625H13.625C14.0558 8.90625 14.4062 9.25672 14.4062 9.6875V17.6562Z"
        fill="white" />
</svg>