<svg width="40" height="40" viewBox="0 0 40 40" fill="none" xmlns="http://www.w3.org/2000/svg">
<g clip-path="url(#clip0_1069_18559)">
<path d="M20 40C31.0457 40 40 31.0457 40 20C40 8.95431 31.0457 0 20 0C8.95431 0 0 8.95431 0 20C0 31.0457 8.95431 40 20 40Z" fill="#FFD3A2"/>
<path fill-rule="evenodd" clip-rule="evenodd" d="M24.5625 27.7696L21.764 28.5208V27.533L21.541 27.3066H19.939V28.459V29.2718H21.6525L23.7614 28.3458L24.5625 27.7696Z" fill="#CDBDB2"/>
<path fill-rule="evenodd" clip-rule="evenodd" d="M15.4375 27.7696L18.1751 28.5208V27.533L18.4083 27.3066H20.0002V28.459V29.2718H18.2866L16.1776 28.3458L15.4375 27.7696Z" fill="#CDBDB2"/>
<path fill-rule="evenodd" clip-rule="evenodd" d="M21.5411 25.6299L21.7641 27.5334L21.4802 27.307H18.5195L18.1748 27.5334L18.408 25.6299L18.8643 25.3418L21.1456 25.3933L21.5411 25.6299Z" fill="#393939"/>
<path fill-rule="evenodd" clip-rule="evenodd" d="M23.0826 12.7168L21.7138 15.9579L21.0852 25.3931H18.8647L18.1752 15.9579L16.918 12.7168H23.0826Z" fill="#F89C35"/>
<path fill-rule="evenodd" clip-rule="evenodd" d="M29.0646 19.836L30.6666 24.5279L26.6717 24.2912H24.1064V22.2643L24.218 18.1074L24.7959 18.5602L29.0646 19.836Z" fill="#F89D35"/>
<path fill-rule="evenodd" clip-rule="evenodd" d="M26.0424 20.3613L21.3682 20.4745L21.8852 22.9027L24.1058 22.3265L26.0424 20.3613Z" fill="#D87C30"/>
<path fill-rule="evenodd" clip-rule="evenodd" d="M26.0426 20.4121L24.106 22.2641V24.1162L26.0426 20.4121Z" fill="#EA8D3A"/>
<path fill-rule="evenodd" clip-rule="evenodd" d="M24.106 22.3262L21.8247 22.9023L21.0845 25.3923L21.6016 25.6804L24.106 24.1782V22.3262Z" fill="#F89D35"/>
<path fill-rule="evenodd" clip-rule="evenodd" d="M24.1062 24.1777L24.5625 27.7687L21.541 25.6285L24.1062 24.1777Z" fill="#EB8F35"/>
<path fill-rule="evenodd" clip-rule="evenodd" d="M21.37 20.4746L21.0864 25.3928L21.9372 22.8823L21.37 20.4746Z" fill="#EA8E3A"/>
<path fill-rule="evenodd" clip-rule="evenodd" d="M26.733 24.2395L24.1069 24.1777L24.5632 27.7687L26.733 24.2395Z" fill="#D87C30"/>
<path fill-rule="evenodd" clip-rule="evenodd" d="M29.4096 29.3334L24.563 27.7694L26.7328 24.2402L30.6669 24.5283L29.4096 29.3334Z" fill="#EB8F35"/>
<path fill-rule="evenodd" clip-rule="evenodd" d="M21.7129 15.957L24.1666 18.0457L26.0424 20.3608L21.3682 20.5357L21.7129 15.957Z" fill="#E8821E"/>
<path fill-rule="evenodd" clip-rule="evenodd" d="M24.5625 27.7691L21.541 25.6289L21.7641 27.481V28.5202L23.8223 28.1189L24.5625 27.7691Z" fill="#DFCEC3"/>
<path fill-rule="evenodd" clip-rule="evenodd" d="M15.4375 27.7691L18.4083 25.6289L18.1751 27.481V28.5202L16.127 28.1189L15.4375 27.7691Z" fill="#DFCEC3"/>
<path fill-rule="evenodd" clip-rule="evenodd" d="M22.6266 21.5137L21.998 22.8513L24.2185 22.2647L22.6266 21.5137Z" fill="#393939"/>
<path fill-rule="evenodd" clip-rule="evenodd" d="M29.4714 10L21.7148 15.9574L23.0228 12.7163L29.4714 10Z" fill="#E88F35"/>
<path fill-rule="evenodd" clip-rule="evenodd" d="M29.47 10L30.4941 13.1793L29.9263 16.6571L30.3217 16.8835L29.7539 17.4082L30.2102 17.8095L29.5816 18.3857L29.977 18.7355L29.0644 19.8879L24.7856 18.5606C22.697 16.8629 21.6628 15.9986 21.7033 15.9574C21.7439 15.9163 24.3395 13.9305 29.47 10Z" fill="#8E5A30"/>
<path fill-rule="evenodd" clip-rule="evenodd" d="M10.9355 19.836L9.3335 24.5279L13.3284 24.2912H15.8936V22.2643L15.7821 18.1074L15.2143 18.5602L10.9355 19.836Z" fill="#F89D35"/>
<path fill-rule="evenodd" clip-rule="evenodd" d="M13.9575 20.3613L18.6317 20.4745L18.1248 22.9027L15.8941 22.3265L13.9575 20.3613Z" fill="#D87C30"/>
<path fill-rule="evenodd" clip-rule="evenodd" d="M13.9575 20.4121L15.8941 22.2641V24.1162L13.9575 20.4121Z" fill="#EA8D3A"/>
<path fill-rule="evenodd" clip-rule="evenodd" d="M15.894 22.3262L18.1754 22.9023L18.9156 25.3923L18.4086 25.6804L15.894 24.1782V22.3262Z" fill="#F89D35"/>
<path fill-rule="evenodd" clip-rule="evenodd" d="M15.8938 24.1777L15.4375 27.7687L18.4084 25.6799L15.8938 24.1777Z" fill="#EB8F35"/>
<path fill-rule="evenodd" clip-rule="evenodd" d="M18.6303 20.4746L18.9139 25.3928L18.063 22.8823L18.6303 20.4746Z" fill="#EA8E3A"/>
<path fill-rule="evenodd" clip-rule="evenodd" d="M13.2681 24.2395L15.8942 24.1777L15.4379 27.7687L13.2681 24.2395Z" fill="#D87C30"/>
<path fill-rule="evenodd" clip-rule="evenodd" d="M10.5908 29.3334L15.4374 27.7694L13.2676 24.2402L9.3335 24.5283L10.5908 29.3334Z" fill="#EB8F35"/>
<path fill-rule="evenodd" clip-rule="evenodd" d="M18.287 15.957L15.8333 18.0457L13.9575 20.3608L18.6317 20.5357L18.287 15.957Z" fill="#E8821E"/>
<path fill-rule="evenodd" clip-rule="evenodd" d="M17.3736 21.5137L18.0022 22.8513L15.7817 22.2647L17.3736 21.5137Z" fill="#393939"/>
<path fill-rule="evenodd" clip-rule="evenodd" d="M10.5303 10L18.2868 15.9574L16.9788 12.7163L10.5303 10Z" fill="#E88F35"/>
<path fill-rule="evenodd" clip-rule="evenodd" d="M10.5299 10L9.50586 13.1793L10.0737 16.6571L9.67826 16.8835L10.2461 17.4082L9.78979 17.8095L10.4184 18.3857L10.023 18.7355L10.9355 19.8879L15.2143 18.5606C17.303 16.8629 18.3372 15.9986 18.2967 15.9574C18.2561 15.9163 15.6706 13.9305 10.5299 10Z" fill="#8E5A30"/>
</g>
<defs>
<clipPath id="clip0_1069_18559">
<rect width="40" height="40" fill="white"/>
</clipPath>
</defs>
</svg>
