<svg width="40" height="40" viewBox="0 0 40 40" fill="none" xmlns="http://www.w3.org/2000/svg">
<rect width="40" height="40" rx="20" fill="#007AFF"/>
<g clip-path="url(#clip0_1154_24067)">
<path d="M27.418 18.418H21.582V12.582C21.582 11.7083 20.8737 11 20 11C19.1263 11 18.418 11.7083 18.418 12.582V18.418H12.582C11.7083 18.418 11 19.1263 11 20C11 20.8737 11.7083 21.582 12.582 21.582H18.418V27.418C18.418 28.2917 19.1263 29 20 29C20.8737 29 21.582 28.2917 21.582 27.418V21.582H27.418C28.2917 21.582 29 20.8737 29 20C29 19.1263 28.2917 18.418 27.418 18.418Z" fill="white"/>
</g>
<defs>
<clipPath id="clip0_1154_24067">
<rect width="18" height="18" fill="white" transform="translate(11 11)"/>
</clipPath>
</defs>
</svg>
