<svg width="44" height="35" viewBox="0 0 44 35" fill="none" xmlns="http://www.w3.org/2000/svg">
<path d="M23.4288 4.28571V1.42857C23.4288 1.04969 23.2783 0.686328 23.0104 0.418419C22.7425 0.15051 22.3791 0 22.0002 0C21.6214 0 21.258 0.15051 20.9901 0.418419C20.7222 0.686328 20.5717 1.04969 20.5717 1.42857V4.28571C20.5717 4.66459 20.7222 5.02796 20.9901 5.29587C21.258 5.56378 21.6214 5.71429 22.0002 5.71429C22.3791 5.71429 22.7425 5.56378 23.0104 5.29587C23.2783 5.02796 23.4288 4.66459 23.4288 4.28571ZM15.6145 8.57143C15.866 8.28893 15.9952 7.91825 15.9738 7.54066C15.9523 7.16307 15.782 6.80938 15.5002 6.55714L13.4288 4.64286C13.2881 4.5181 13.1242 4.42228 12.9465 4.36087C12.7688 4.29945 12.5807 4.27364 12.393 4.28492C12.0139 4.30769 11.6593 4.48012 11.4074 4.76429C11.1554 5.04845 11.0267 5.42106 11.0495 5.80015C11.0722 6.17924 11.2447 6.53376 11.5288 6.78571L13.6574 8.68571C13.9178 8.9154 14.253 9.04236 14.6002 9.04286C14.7923 9.03654 14.9812 8.99154 15.1554 8.91053C15.3297 8.82953 15.4859 8.71419 15.6145 8.57143ZM30.4002 8.68571L32.5288 6.78571C32.813 6.52618 32.9824 6.1644 32.9998 5.77995C33.0172 5.3955 32.8812 5.01987 32.6217 4.73571C32.3621 4.45155 32.0004 4.28213 31.6159 4.26472C31.2315 4.2473 30.8558 4.38332 30.5717 4.64286L28.5002 6.55714C28.2871 6.75087 28.1375 7.00451 28.0711 7.28477C28.0046 7.56504 28.0245 7.85884 28.128 8.12763C28.2315 8.39642 28.4138 8.62765 28.651 8.79098C28.8883 8.95431 29.1694 9.04211 29.4574 9.04286C29.8046 9.04236 30.1398 8.9154 30.4002 8.68571Z" fill="white"/>
<path d="M40.5714 32.2856H3.42857C3.04969 32.2856 2.68633 32.1351 2.41842 31.8672C2.15051 31.5993 2 31.236 2 30.8571V13.7142C2 13.3353 2.15051 12.972 2.41842 12.7041C2.68633 12.4362 3.04969 12.2856 3.42857 12.2856H9.14286C9.52174 12.2856 9.8851 12.4362 10.153 12.7041C10.4209 12.972 10.5714 13.3353 10.5714 13.7142V24.1571H33.4286V13.7142C33.4286 13.3353 33.5791 12.972 33.847 12.7041C34.1149 12.4362 34.4783 12.2856 34.8571 12.2856H40.5714C40.9503 12.2856 41.3137 12.4362 41.5816 12.7041C41.8495 12.972 42 13.3353 42 13.7142V30.8571C42 31.236 41.8495 31.5993 41.5816 31.8672C41.3137 32.1351 40.9503 32.2856 40.5714 32.2856Z" fill="white" stroke="#0F0F12" stroke-width="4"/>
</svg>
