<svg width="32" height="32" viewBox="0 0 32 32" fill="none" xmlns="http://www.w3.org/2000/svg">
<rect width="32" height="32" rx="8" fill="#5D6978"/>
<path d="M20.5641 12.436C20.3578 12.2297 20.0233 12.2297 19.8168 12.436C19.6105 12.6424 19.6105 12.9769 19.8168 13.1832C20.7865 14.1529 21.3205 15.4421 21.3205 16.8134C21.3205 18.1847 20.7865 19.4738 19.8168 20.4434C18.8162 21.4441 17.5019 21.9444 16.1874 21.9443C14.8728 21.9442 13.5579 21.4438 12.5571 20.443C10.5559 18.4417 10.5561 15.1854 12.5575 13.184C12.7638 12.9777 12.7638 12.6431 12.5575 12.4368C12.3511 12.2304 12.0166 12.2304 11.8102 12.4368C9.39678 14.8502 9.39657 18.777 11.8098 21.1903C13.0168 22.3973 14.602 23.0007 16.1874 23.0006C17.7724 23.0006 19.3576 22.3973 20.5642 21.1907C21.7334 20.0216 22.3773 18.467 22.3773 16.8135C22.3773 15.1599 21.7334 13.6053 20.5641 12.436Z" fill="white"/>
<path d="M16.1861 15.8455C16.478 15.8455 16.7145 15.609 16.7145 15.3171V9.5284C16.7145 9.23658 16.478 9 16.1861 9C15.8942 9 15.6577 9.23658 15.6577 9.5284V15.3171C15.6577 15.609 15.8942 15.8455 16.1861 15.8455Z" fill="white"/>
</svg>
