<svg width="16" height="16" viewBox="0 0 16 16" fill="none" xmlns="http://www.w3.org/2000/svg">
<g clip-path="url(#clip0_1351_23317)">
<path d="M8 2C4.6838 2 2 4.6835 2 8C2 11.3161 4.6835 14 8 14C11.3162 14 14 11.3165 14 8C14 4.6838 11.3165 2 8 2ZM8 13.1628C5.15323 13.1628 2.83721 10.8468 2.83721 8C2.83721 5.15321 5.15323 2.83721 8 2.83721C10.8468 2.83721 13.1628 5.15321 13.1628 8C13.1628 10.8468 10.8468 13.1628 8 13.1628Z" fill="#A0A3AD"/>
<path d="M7.82289 9.59229C7.49118 9.59229 7.22266 9.86871 7.22266 10.2004C7.22266 10.5242 7.48328 10.8086 7.82289 10.8086C8.1625 10.8086 8.431 10.5242 8.431 10.2004C8.431 9.86871 8.15458 9.59229 7.82289 9.59229Z" fill="#A0A3AD"/>
<path d="M7.92502 4.98779C6.8588 4.98779 6.36914 5.61964 6.36914 6.04611C6.36914 6.35413 6.62977 6.4963 6.843 6.4963C7.26949 6.4963 7.09575 5.88814 7.90132 5.88814C8.2962 5.88814 8.61213 6.06191 8.61213 6.42521C8.61213 6.85168 8.16984 7.09651 7.90922 7.31764C7.68016 7.51506 7.38007 7.8389 7.38007 8.51811C7.38007 8.92879 7.49065 9.04726 7.81444 9.04726C8.20141 9.04726 8.2804 8.87352 8.2804 8.72343C8.2804 8.31275 8.2883 8.07582 8.72269 7.73622C8.93592 7.57037 9.60722 7.0333 9.60722 6.29092C9.60722 5.54854 8.93592 4.98779 7.92502 4.98779Z" fill="#A0A3AD"/>
</g>
<defs>
<clipPath id="clip0_1351_23317">
<rect width="12" height="12" fill="white" transform="translate(2 2)"/>
</clipPath>
</defs>
</svg>
