<svg width="17" height="16" viewBox="0 0 17 16" fill="none" xmlns="http://www.w3.org/2000/svg">
<g clip-path="url(#clip0_5160_89753)">
<path d="M8.61328 2C5.29709 2 2.61328 4.6835 2.61328 8C2.61328 11.3161 5.29678 14 8.61328 14C11.9295 14 14.6133 11.3165 14.6133 8C14.6133 4.6838 11.9298 2 8.61328 2ZM8.61328 13.1628C5.76652 13.1628 3.45049 10.8468 3.45049 8C3.45049 5.15321 5.76652 2.83721 8.61328 2.83721C11.4601 2.83721 13.7761 5.15321 13.7761 8C13.7761 10.8468 11.4601 13.1628 8.61328 13.1628Z" fill="#007AFF"/>
<path d="M8.4352 9.5918C8.10348 9.5918 7.83496 9.86822 7.83496 10.1999C7.83496 10.5237 8.09559 10.8081 8.4352 10.8081C8.7748 10.8081 9.0433 10.5237 9.0433 10.1999C9.0433 9.86822 8.76688 9.5918 8.4352 9.5918Z" fill="#007AFF"/>
<path d="M8.5383 4.98828C7.47208 4.98828 6.98242 5.62013 6.98242 6.0466C6.98242 6.35462 7.24305 6.49679 7.45628 6.49679C7.88277 6.49679 7.70903 5.88863 8.5146 5.88863C8.90948 5.88863 9.22541 6.0624 9.22541 6.4257C9.22541 6.85217 8.78312 7.097 8.5225 7.31813C8.29345 7.51555 7.99335 7.83938 7.99335 8.5186C7.99335 8.92927 8.10393 9.04775 8.42772 9.04775C8.8147 9.04775 8.89368 8.87401 8.89368 8.72391C8.89368 8.31324 8.90158 8.07631 9.33597 7.7367C9.5492 7.57086 10.2205 7.03379 10.2205 6.29141C10.2205 5.54902 9.5492 4.98828 8.5383 4.98828Z" fill="#007AFF"/>
</g>
<defs>
<clipPath id="clip0_5160_89753">
<rect width="12" height="12" fill="white" transform="translate(2.61328 2)"/>
</clipPath>
</defs>
</svg>
