<svg width="21" height="20" viewBox="0 0 21 20" fill="none" xmlns="http://www.w3.org/2000/svg">
<g clip-path="url(#clip0_1618_32986)">
<path d="M10.25 2.5C6.10476 2.5 2.75 5.85438 2.75 10C2.75 14.1452 6.10438 17.5 10.25 17.5C14.3952 17.5 17.75 14.1456 17.75 10C17.75 5.85476 14.3956 2.5 10.25 2.5ZM10.25 16.4535C6.69154 16.4535 3.79651 13.5585 3.79651 10C3.79651 6.44151 6.69154 3.54651 10.25 3.54651C13.8085 3.54651 16.7035 6.44151 16.7035 10C16.7035 13.5585 13.8085 16.4535 10.25 16.4535Z" fill="white"/>
<path d="M10.0276 11.9902C9.613 11.9902 9.27734 12.3358 9.27734 12.7504C9.27734 13.1552 9.60313 13.5106 10.0276 13.5106C10.4521 13.5106 10.7878 13.1552 10.7878 12.7504C10.7878 12.3358 10.4422 11.9902 10.0276 11.9902Z" fill="white"/>
<path d="M10.1568 6.23438C8.82398 6.23438 8.21191 7.02419 8.21191 7.55728C8.21191 7.94229 8.5377 8.12001 8.80424 8.12001C9.33735 8.12001 9.12018 7.35981 10.1271 7.35981C10.6207 7.35981 11.0157 7.57702 11.0157 8.03115C11.0157 8.56424 10.4628 8.87027 10.137 9.14669C9.85069 9.39346 9.47558 9.79825 9.47558 10.6473C9.47558 11.1606 9.6138 11.3087 10.0185 11.3087C10.5023 11.3087 10.601 11.0915 10.601 10.9039C10.601 10.3906 10.6109 10.0944 11.1538 9.6699C11.4204 9.4626 12.2595 8.79126 12.2595 7.86328C12.2595 6.9353 11.4204 6.23438 10.1568 6.23438Z" fill="white"/>
</g>
<defs>
<clipPath id="clip0_1618_32986">
<rect width="15" height="15" fill="white" transform="translate(2.75 2.5)"/>
</clipPath>
</defs>
</svg>
