<svg width="20" height="21" viewBox="0 0 20 21" fill="none" xmlns="http://www.w3.org/2000/svg">
<path d="M15.875 14.125C17 12.625 17.625 10.875 17.625 8.875C17.625 4 13.75 0 8.875 0C4 0 0 4 0 8.875C0 13.75 4 17.75 8.875 17.75C10.875 17.75 12.75 17.125 14.125 16L17.875 19.75C18.125 20 18.5 20.125 18.75 20.125C19 20.125 19.375 20 19.625 19.75C20.125 19.25 20.125 18.5 19.625 18L15.875 14.125ZM8.875 15.125C5.375 15.125 2.5 12.375 2.5 8.875C2.5 5.375 5.375 2.5 8.875 2.5C12.375 2.5 15.25 5.375 15.25 8.875C15.25 12.375 12.375 15.125 8.875 15.125Z" fill="white"/>
</svg>
