<svg width="37" height="36" viewBox="0 0 37 36" fill="none" xmlns="http://www.w3.org/2000/svg">
<path d="M21.791 11.974C21.7224 8.53195 20.6437 6.23721 19.4963 5.08984C-1.9212 10.5972 -1.22461 18.3483 1.83503 21.9179C2.32268 15.5816 7.7795 12.9722 13.4557 12.1108C16.6874 11.6204 19.2936 11.6965 21.791 11.974Z" fill="white"/>
<path d="M13.3077 11.9739C9.3602 11.3981 7.32278 13.1846 6.35442 14.2686C10.3923 36.0111 16.6809 36.4512 21.6522 34.1564C14.7687 33.3916 13.5329 27.4644 13.0596 21.7428C12.7901 18.4852 12.861 14.4466 13.3077 11.9739Z" fill="white"/>
<path d="M14.707 23.8638C14.7757 27.3059 15.8544 29.6007 17.0017 30.748C38.4193 25.2407 37.7227 17.4896 34.663 13.92C34.1754 20.2563 28.7186 22.8657 23.0423 23.7271C19.8106 24.2175 17.2044 24.1413 14.707 23.8638Z" fill="#007AFF"/>
<path d="M23.1903 23.864C27.1378 24.4398 29.1753 22.6533 30.1436 21.5693C26.1057 -0.173204 19.8171 -0.613309 14.8458 1.68149C21.7294 2.44634 22.9651 8.37345 23.4385 14.0951C23.708 17.3527 23.637 21.3913 23.1903 23.864Z" fill="#007AFF"/>
<circle cx="18.3496" cy="18.0932" r="1.53023" fill="white"/>
</svg>
