<svg width="22" height="22" viewBox="0 0 22 22" fill="none" xmlns="http://www.w3.org/2000/svg">
<path d="M21.4789 9.64563L19.0039 9.0255C18.8043 8.2193 18.484 7.44792 18.0538 6.7375L19.3682 4.54712C19.4472 4.41565 19.48 4.26154 19.4613 4.10931C19.4426 3.95708 19.3736 3.81547 19.2651 3.707L18.2875 2.73487C18.179 2.62644 18.0374 2.55738 17.8852 2.5387C17.733 2.52001 17.5788 2.55276 17.4474 2.63175L15.2625 3.94625C14.552 3.51647 13.7806 3.19661 12.9745 2.9975L12.3544 0.521125C12.3173 0.372328 12.2315 0.240211 12.1106 0.145784C11.9898 0.0513572 11.8409 4.23658e-05 11.6875 0L10.3125 0C10.1591 4.23658e-05 10.0102 0.0513572 9.88937 0.145784C9.76853 0.240211 9.68274 0.372328 9.64563 0.521125L9.0255 2.99612C8.2193 3.1957 7.44792 3.51603 6.7375 3.94625L4.54712 2.63175C4.41565 2.55276 4.26154 2.52001 4.10931 2.5387C3.95708 2.55738 3.81547 2.62644 3.707 2.73487L2.73487 3.7125C2.62644 3.82097 2.55738 3.96258 2.5387 4.11481C2.52001 4.26704 2.55276 4.42115 2.63175 4.55263L3.94625 6.7375C3.51647 7.44798 3.19661 8.21937 2.9975 9.0255L0.5225 9.64563C0.373448 9.68247 0.241021 9.76816 0.146326 9.88902C0.0516307 10.0099 0.00011868 10.159 0 10.3125L0 11.6875C4.23658e-05 11.8409 0.0513572 11.9898 0.145784 12.1106C0.240211 12.2315 0.372328 12.3173 0.521125 12.3544L2.99612 12.9745C3.1957 13.7807 3.51603 14.5521 3.94625 15.2625L2.63175 17.4529C2.55276 17.5843 2.52001 17.7385 2.5387 17.8907C2.55738 18.0429 2.62644 18.1845 2.73487 18.293L3.707 19.2651C3.81547 19.3736 3.95708 19.4426 4.10931 19.4613C4.26154 19.48 4.41565 19.4472 4.54712 19.3682L6.7375 18.0538C7.44798 18.4835 8.21937 18.8034 9.0255 19.0025L9.64563 21.4775C9.68247 21.6266 9.76816 21.759 9.88902 21.8537C10.0099 21.9484 10.159 21.9999 10.3125 22H11.6875C11.8409 22 11.9898 21.9486 12.1106 21.8542C12.2315 21.7598 12.3173 21.6277 12.3544 21.4789L12.9745 19.0039C13.7806 18.8048 14.552 18.4849 15.2625 18.0551L17.4529 19.3696C17.5843 19.4486 17.7385 19.4814 17.8907 19.4627C18.0429 19.444 18.1845 19.3749 18.293 19.2665L19.2651 18.2944C19.3736 18.1859 19.4426 18.0443 19.4613 17.8921C19.48 17.7398 19.4472 17.5857 19.3682 17.4543L18.0538 15.2625C18.4835 14.552 18.8034 13.7806 19.0025 12.9745L21.4775 12.3544C21.6266 12.3175 21.759 12.2318 21.8537 12.111C21.9484 11.9901 21.9999 11.841 22 11.6875V10.3125C22 10.1591 21.9486 10.0102 21.8542 9.88937C21.7598 9.76853 21.6277 9.68274 21.4789 9.64563ZM11 15.125C10.1842 15.125 9.38663 14.8831 8.70827 14.4298C8.02992 13.9766 7.50121 13.3323 7.189 12.5786C6.87679 11.8248 6.7951 10.9954 6.95426 10.1953C7.11342 9.39508 7.50629 8.66008 8.08318 8.08318C8.66008 7.50629 9.39508 7.11342 10.1953 6.95426C10.9954 6.7951 11.8248 6.87679 12.5786 7.189C13.3323 7.50121 13.9766 8.02992 14.4298 8.70827C14.8831 9.38663 15.125 10.1842 15.125 11C15.125 12.094 14.6904 13.1432 13.9168 13.9168C13.1432 14.6904 12.094 15.125 11 15.125Z" fill="white"/>
</svg>
