<svg width="32" height="32" viewBox="0 0 32 32" fill="none" xmlns="http://www.w3.org/2000/svg">
    <rect x="0.5" y="0.5" width="31" height="31" rx="7.5" fill="#15161D" />
    <path fill-rule="evenodd" clip-rule="evenodd"
        d="M14.5952 10.077C14.9209 10.4021 14.9215 10.9297 14.5964 11.2555L11.2564 14.6022C10.9312 14.9279 10.4036 14.9285 10.0778 14.6033C9.75208 14.2782 9.75155 13.7506 10.0767 13.4248L13.4167 10.0782C13.7418 9.7524 14.2694 9.75187 14.5952 10.077Z"
        fill="#F7F8FA" />
    <path fill-rule="evenodd" clip-rule="evenodd"
        d="M22.833 14.013C22.833 14.4733 22.4599 14.8464 21.9997 14.8464L10.6663 14.8464C10.2061 14.8464 9.83301 14.4733 9.83301 14.013C9.83301 13.5528 10.2061 13.1797 10.6663 13.1797L21.9997 13.1797C22.4599 13.1797 22.833 13.5528 22.833 14.013Z"
        fill="#F7F8FA" />
    <path fill-rule="evenodd" clip-rule="evenodd"
        d="M22.5883 17.4105C22.9141 17.7356 22.9146 18.2632 22.5895 18.589L19.2495 21.9357C18.9244 22.2614 18.3968 22.2619 18.071 21.9368C17.7452 21.6117 17.7447 21.0841 18.0698 20.7583L21.4098 17.4117C21.7349 17.0859 22.2626 17.0854 22.5883 17.4105Z"
        fill="#F7F8FA" />
    <path fill-rule="evenodd" clip-rule="evenodd"
        d="M22.833 18.0003C22.833 18.4606 22.4599 18.8337 21.9997 18.8337L10.6663 18.8337C10.2061 18.8337 9.83301 18.4606 9.83301 18.0003C9.83301 17.5401 10.2061 17.167 10.6663 17.167L21.9997 17.167C22.4599 17.167 22.833 17.5401 22.833 18.0003Z"
        fill="#F7F8FA" />
    <rect x="0.5" y="0.5" width="31" height="31" rx="7.5" stroke="#313442" />
</svg>