<svg width="18" height="11" viewBox="0 0 18 11" fill="none" xmlns="http://www.w3.org/2000/svg">
<path fill-rule="evenodd" clip-rule="evenodd" d="M0.662477 5.33185C0.662477 5.71418 0.830439 6.07715 1.12177 6.32441L5.83954 10.3285C6.38719 10.7933 7.20759 10.7258 7.67196 10.1776C8.13632 9.62941 8.06881 8.80822 7.52115 8.34341L5.50612 6.63319L15.9636 6.63319C16.6816 6.63319 17.2637 6.05056 17.2637 5.33185C17.2637 4.61314 16.6816 4.03051 15.9636 4.03051L5.50612 4.03051L7.52115 2.32029C8.0688 1.85548 8.13632 1.03429 7.67195 0.48612C7.20759 -0.0620551 6.38719 -0.129636 5.83953 0.335173L1.12176 4.33929C0.830439 4.58655 0.662477 4.94953 0.662477 5.33185Z" fill="white"/>
</svg>
