<svg width="24" height="24" viewBox="0 0 24 24" fill="none" xmlns="http://www.w3.org/2000/svg">
<g clip-path="url(#clip0_1960_29510)">
<path d="M19.418 10.418H13.582V4.58203C13.582 3.70829 12.8737 3 12 3C11.1263 3 10.418 3.70829 10.418 4.58203V10.418H4.58203C3.70829 10.418 3 11.1263 3 12C3 12.8737 3.70829 13.582 4.58203 13.582H10.418V19.418C10.418 20.2917 11.1263 21 12 21C12.8737 21 13.582 20.2917 13.582 19.418V13.582H19.418C20.2917 13.582 21 12.8737 21 12C21 11.1263 20.2917 10.418 19.418 10.418Z" fill="white"/>
</g>
<defs>
<clipPath id="clip0_1960_29510">
<rect width="18" height="18" fill="white" transform="translate(3 3)"/>
</clipPath>
</defs>
</svg>
