<svg width="75" height="75" viewBox="0 0 75 75" fill="none" xmlns="http://www.w3.org/2000/svg">
<path fill-rule="evenodd" clip-rule="evenodd" d="M53.3594 43.4117C51.0974 44.9955 47.9797 44.4458 46.3958 42.1838L29.4191 17.9385C27.8352 15.6765 28.3849 12.5588 30.647 10.9749C32.909 9.39101 36.0267 9.94075 37.6106 12.2028L54.5873 36.448C56.1712 38.71 55.6215 41.8278 53.3594 43.4117Z" fill="white"/>
<path fill-rule="evenodd" clip-rule="evenodd" d="M22.1491 59.1597C20.5652 56.8977 21.115 53.78 23.377 52.1961L47.6223 35.2194C49.8843 33.6355 53.002 34.1852 54.5859 36.4473C56.1698 38.7093 55.62 41.827 53.358 43.4109L29.1128 60.3876C26.8507 61.9715 23.733 61.4218 22.1491 59.1597Z" fill="white"/>
</svg>
