<svg width="18" height="11" viewBox="0 0 18 11" fill="none" xmlns="http://www.w3.org/2000/svg">
<path fill-rule="evenodd" clip-rule="evenodd" d="M17.3369 5.33185C17.3369 5.71418 17.169 6.07715 16.8777 6.32441L12.1599 10.3285C11.6122 10.7933 10.7918 10.7258 10.3275 10.1776C9.8631 9.62941 9.93061 8.80822 10.4783 8.34341L12.4933 6.63319L2.0358 6.63319C1.31778 6.63319 0.735705 6.05056 0.735706 5.33185C0.735706 4.61314 1.31778 4.03051 2.0358 4.03051L12.4933 4.03051L10.4783 2.32029C9.93062 1.85548 9.8631 1.0343 10.3275 0.48612C10.7918 -0.0620546 11.6122 -0.129636 12.1599 0.335174L16.8777 4.33929C17.169 4.58655 17.3369 4.94953 17.3369 5.33185Z" fill="white"/>
</svg>
