<svg width="75" height="75" viewBox="0 0 75 75" fill="none" xmlns="http://www.w3.org/2000/svg">
<path fill-rule="evenodd" clip-rule="evenodd" d="M21.4628 43.4114C23.7249 44.9953 26.8426 44.4456 28.4265 42.1835L45.4032 17.9383C46.9871 15.6763 46.4373 12.5585 44.1753 10.9747C41.9133 9.39077 38.7955 9.94051 37.2117 12.2025L20.235 36.4478C18.6511 38.7098 19.2008 41.8275 21.4628 43.4114Z" fill="white"/>
<path fill-rule="evenodd" clip-rule="evenodd" d="M52.6712 59.1609C54.2551 56.8989 53.7053 53.7812 51.4433 52.1973L27.1981 35.2206C24.936 33.6367 21.8183 34.1865 20.2344 36.4485C18.6505 38.7105 19.2003 41.8282 21.4623 43.4121L45.7075 60.3888C47.9696 61.9727 51.0873 61.423 52.6712 59.1609Z" fill="white"/>
</svg>
