<svg width="14" height="14" viewBox="0 0 14 14" fill="none" xmlns="http://www.w3.org/2000/svg">
<path d="M11.6321 6.45037C11.4246 6.45037 11.256 6.61898 11.256 6.82645V10.7264C11.256 11.7481 10.4249 12.5793 9.40319 12.5793H3.27492C2.25323 12.5793 1.42209 11.7481 1.42209 10.7264V4.59816C1.42209 3.57647 2.25323 2.74533 3.27492 2.74533H7.1749C7.383 2.74533 7.55098 2.57672 7.55098 2.36925C7.55098 2.16177 7.38237 1.99316 7.1749 1.99316H3.27492C1.83829 1.99316 0.669922 3.16153 0.669922 4.59754V10.7258C0.669922 12.1618 1.83829 13.3302 3.27492 13.3302H9.40319C10.8392 13.3302 12.0076 12.1618 12.0076 10.7258V6.82583C12.0076 6.61835 11.839 6.44974 11.6315 6.44974L11.6321 6.45037Z" fill="#A0A3AD"/>
<path d="M12.9554 0.669434H9.94545C9.73798 0.669434 9.56937 0.838044 9.56937 1.04552C9.56937 1.25299 9.73798 1.4216 9.94545 1.4216H12.0478L7.23891 6.22982C7.09224 6.37586 7.09224 6.61468 7.23891 6.76135C7.31225 6.83468 7.40877 6.87166 7.50468 6.87166C7.60058 6.87166 7.6971 6.83468 7.77044 6.76135L12.5787 1.95313V4.07424C12.5787 4.28171 12.7473 4.45032 12.9547 4.45032C13.1622 4.45032 13.3308 4.28171 13.3308 4.07424V1.04552C13.3308 0.838044 13.1628 0.669434 12.9554 0.669434Z" fill="#A0A3AD"/>
</svg>
