<svg width="24" height="24" viewBox="0 0 24 24" fill="none" xmlns="http://www.w3.org/2000/svg">
<path d="M17.2175 11.6948C17.5615 11.6948 17.8977 11.7968 18.1837 11.9879C18.4696 12.179 18.6925 12.4506 18.8241 12.7683C18.9558 13.0861 18.9902 13.4358 18.9231 13.7731C18.856 14.1104 18.6904 14.4203 18.4472 14.6635C18.204 14.9067 17.8941 15.0723 17.5568 15.1394C17.2194 15.2065 16.8698 15.1721 16.552 15.0405C16.2343 14.9088 15.9627 14.6859 15.7716 14.4C15.5805 14.114 15.4785 13.7778 15.4785 13.4338C15.4788 12.9727 15.6621 12.5305 15.9881 12.2045C16.3142 11.8784 16.7564 11.6951 17.2175 11.6948Z" fill="white"/>
<path fill-rule="evenodd" clip-rule="evenodd" d="M4.06213 2.00062C4.07388 2.00021 4.08563 2 4.09738 2H18.5224C19.0747 2 19.5224 2.44772 19.5224 3C19.5224 3.55228 19.0747 4 18.5224 4H4.1177C3.96874 4.00715 3.82245 4.04262 3.68669 4.10456C3.5464 4.16857 3.42009 4.25959 3.31498 4.37242C3.20987 4.48526 3.12802 4.61769 3.0741 4.76216C3.0295 4.88167 3.00474 5.00749 3.00062 5.13463C3.00112 5.14769 3.00138 5.16082 3.00138 5.174V5.22161C3.02168 5.52529 3.15612 5.81038 3.37813 6.01934C3.60524 6.23309 3.90632 6.35055 4.21819 6.34706L4.22938 6.34694L21.1304 6.347C21.6263 6.347 22.102 6.54402 22.4527 6.89471C22.8034 7.2454 23.0004 7.72104 23.0004 8.217V19.52C23.0004 20.016 22.8034 20.4916 22.4527 20.8423C22.102 21.193 21.6263 21.39 21.1304 21.39H3.74038C3.01423 21.3896 2.31737 21.1009 1.8039 20.5875C1.29044 20.074 1.00179 19.3777 1.00138 18.6516L1.00138 5.26612C0.989294 4.856 1.05684 4.44737 1.20034 4.06287C1.34611 3.67228 1.5674 3.31423 1.85157 3.00918C2.13574 2.70413 2.47723 2.45805 2.85652 2.285C3.23582 2.11195 3.64549 2.01532 4.06213 2.00062ZM3.00138 8.11275V18.6507C3.00157 18.8467 3.07952 19.0347 3.21812 19.1733C3.35679 19.3119 3.54484 19.3899 3.74095 19.39H21.0004V8.347H4.23447C3.80813 8.35096 3.38948 8.2699 3.00138 8.11275Z" fill="white"/>
</svg>
