<svg width="22" height="20" viewBox="0 0 22 20" fill="none" xmlns="http://www.w3.org/2000/svg">
<path fill-rule="evenodd" clip-rule="evenodd" d="M3.06213 0.000621319C3.07388 0.000207126 3.08563 0 3.09738 0H17.5224C18.0747 0 18.5224 0.447715 18.5224 1C18.5224 1.55228 18.0747 2 17.5224 2H3.1177C2.96874 2.00715 2.82245 2.04262 2.68669 2.10456C2.5464 2.16857 2.42009 2.25959 2.31498 2.37242C2.20987 2.48526 2.12802 2.61769 2.0741 2.76216C2.0295 2.88167 2.00474 3.00749 2.00062 3.13463C2.00112 3.14769 2.00138 3.16082 2.00138 3.174V3.22161C2.02168 3.52529 2.15612 3.81038 2.37813 4.01934C2.60524 4.23309 2.90632 4.35055 3.21819 4.34706L3.22938 4.34694L20.1304 4.347C20.6263 4.347 21.102 4.54402 21.4527 4.89471C21.8034 5.2454 22.0004 5.72104 22.0004 6.217V17.52C22.0004 18.016 21.8034 18.4916 21.4527 18.8423C21.102 19.193 20.6263 19.39 20.1304 19.39H2.74038C2.01423 19.3896 1.31737 19.1009 0.803904 18.5875C0.29044 18.074 0.00179394 17.3777 0.00137676 16.6516L0.00137659 3.26612C-0.0107057 2.856 0.0568396 2.44737 0.200339 2.06287C0.346109 1.67228 0.567401 1.31423 0.851572 1.00918C1.13574 0.704128 1.47723 0.458049 1.85652 0.284998C2.23582 0.111948 2.64549 0.0153153 3.06213 0.000621319ZM2.00138 6.11275V16.6507C2.00157 16.8467 2.07952 17.0347 2.21812 17.1733C2.35679 17.3119 2.54484 17.3899 2.74095 17.39H20.0004V6.347H3.23447C2.80813 6.35096 2.38948 6.2699 2.00138 6.11275Z" fill="white"/>
</svg>
