<svg width="18" height="16" viewBox="0 0 18 16" fill="none" xmlns="http://www.w3.org/2000/svg">
<path d="M16.7449 12.2002L10.6293 1.60768C10.2893 1.01868 9.68017 0.666992 8.99998 0.666992C8.31983 0.666992 7.71071 1.01868 7.37065 1.60768L1.25507 12.2002C0.914977 12.7892 0.914977 13.4925 1.25507 14.0816C1.59516 14.6706 2.20422 15.0223 2.88441 15.0223H15.1156C15.7957 15.0223 16.4048 14.6706 16.7449 14.0816C17.085 13.4925 17.085 12.7892 16.7449 12.2002ZM15.9331 13.6129C15.7625 13.9085 15.4568 14.0849 15.1156 14.0849H2.88441C2.5431 14.0849 2.23747 13.9085 2.06685 13.6129C1.89622 13.3174 1.89622 12.9645 2.06685 12.6689L8.18249 2.07639C8.35311 1.78083 8.65874 1.6044 9.00002 1.6044C9.34126 1.6044 9.64692 1.78083 9.81754 2.07639L15.9332 12.6689C16.1037 12.9645 16.1037 13.3174 15.9331 13.6129Z" fill="#F9C03E"/>
<path fill-rule="evenodd" clip-rule="evenodd" d="M7.22623 1.52402C7.59606 0.883453 8.2602 0.5 8.9999 0.5C9.73963 0.5 10.4037 0.883454 10.7736 1.52402L16.8892 12.1165C17.2591 12.7571 17.2591 13.524 16.8892 14.1646L16.8892 14.1646C16.5193 14.8051 15.8552 15.1886 15.1155 15.1886H2.88433C2.1446 15.1886 1.48052 14.8052 1.11065 14.1646C0.740784 13.524 0.740787 12.7571 1.11065 12.1165L1.25499 12.1999L1.11065 12.1165L7.22623 1.52402L7.37056 1.60735L7.22623 1.52402ZM8.9999 0.833333C8.37929 0.833333 7.82519 1.15325 7.5149 1.69069L1.39933 12.2832C1.089 12.8207 1.08901 13.4605 1.39932 13.9979C1.70965 14.5354 2.26369 14.8553 2.88433 14.8553H15.1155C15.7361 14.8553 16.2902 14.5354 16.6005 13.9979C16.9108 13.4605 16.9108 12.8207 16.6005 12.2832L10.4849 1.69069C10.1746 1.15325 9.62054 0.833333 8.9999 0.833333ZM8.99993 1.77074C8.71819 1.77074 8.4676 1.91541 8.32675 2.1594L8.32674 2.1594L2.2111 12.7519C2.07025 12.9959 2.07025 13.2853 2.21111 13.5293C2.35196 13.7733 2.60255 13.9179 2.88433 13.9179H15.1155C15.3972 13.9179 15.6478 13.7733 15.7887 13.5293C15.9296 13.2853 15.9296 12.9959 15.7887 12.7519C15.7887 12.7519 15.7887 12.7519 15.7887 12.7519L9.67313 2.1594L9.67312 2.1594C9.53227 1.91541 9.28165 1.77074 8.99993 1.77074ZM8.03807 1.99273C8.23847 1.6456 8.59912 1.4374 8.99993 1.4374C9.40072 1.4374 9.7614 1.6456 9.9618 1.99274C9.9618 1.99274 9.9618 1.99274 9.9618 1.99274L16.0774 12.5853L16.0774 12.5853C16.2778 12.9324 16.2778 13.3488 16.0774 13.6959L16.0774 13.6959C15.8769 14.0431 15.5163 14.2513 15.1155 14.2513H2.88433C2.48348 14.2513 2.12283 14.0431 1.92243 13.6959C1.72203 13.3488 1.72203 12.9324 1.92243 12.5853L2.05656 12.6627L1.92243 12.5853L8.03806 1.99274C8.03806 1.99274 8.03807 1.99274 8.03807 1.99273Z" fill="#F9C03E"/>
<path d="M8.99994 10.9688C8.65534 10.9688 8.375 11.2491 8.375 11.5937C8.375 11.9383 8.65534 12.2186 8.99994 12.2186C9.3445 12.2186 9.62487 11.9383 9.62487 11.5937C9.62487 11.2491 9.34453 10.9688 8.99994 10.9688Z" fill="#F9C03E" stroke="#F9C03E" stroke-width="0.5"/>
<path d="M9.46862 5.34473H8.53125V10.0317H9.46862V5.34473Z" fill="#F9C03E" stroke="#F9C03E" stroke-width="0.5" stroke-linejoin="round"/>
</svg>
