<svg width="18" height="16" viewBox="0 0 18 16" fill="none" xmlns="http://www.w3.org/2000/svg">
<path d="M16.7449 12.2L10.6293 1.60743C10.2893 1.01843 9.68017 0.666748 8.99998 0.666748C8.31983 0.666748 7.71071 1.01843 7.37065 1.60743L1.25507 12.1999C0.914977 12.789 0.914977 13.4923 1.25507 14.0813C1.59516 14.6704 2.20422 15.022 2.88441 15.022H15.1156C15.7957 15.022 16.4048 14.6703 16.7449 14.0814C17.085 13.4923 17.085 12.789 16.7449 12.2ZM15.9331 13.6127C15.7625 13.9082 15.4568 14.0847 15.1156 14.0847H2.88441C2.5431 14.0847 2.23747 13.9082 2.06685 13.6127C1.89622 13.3171 1.89622 12.9642 2.06685 12.6687L8.18249 2.07615C8.35311 1.78059 8.65874 1.60415 9.00002 1.60415C9.34126 1.60415 9.64692 1.78059 9.81754 2.07615L15.9332 12.6687C16.1037 12.9642 16.1037 13.3171 15.9331 13.6127Z" fill="#F9C03E"/>
<path fill-rule="evenodd" clip-rule="evenodd" d="M7.22696 1.52402C7.59679 0.883453 8.26094 0.5 9.00064 0.5C9.74037 0.5 10.4045 0.883454 10.7743 1.52402L16.8899 12.1165C17.2598 12.7571 17.2598 13.524 16.8899 14.1646L16.8899 14.1646C16.52 14.8051 15.8559 15.1886 15.1162 15.1886H2.88506C2.14533 15.1886 1.48125 14.8052 1.11138 14.1646C0.741517 13.524 0.741519 12.7571 1.11138 12.1165L1.25572 12.1999L1.11138 12.1165L7.22696 1.52402L7.3713 1.60735L7.22696 1.52402ZM9.00064 0.833333C8.38002 0.833333 7.82592 1.15325 7.51563 1.69069L1.40006 12.2832C1.08974 12.8207 1.08974 13.4605 1.40006 13.9979C1.71038 14.5354 2.26442 14.8553 2.88506 14.8553H15.1162C15.7368 14.8553 16.2909 14.5354 16.6012 13.9979C16.9116 13.4605 16.9116 12.8207 16.6012 12.2832L10.4856 1.69069C10.1753 1.15325 9.62127 0.833333 9.00064 0.833333ZM9.00067 1.77074C8.71892 1.77074 8.46833 1.91541 8.32748 2.1594L8.32747 2.1594L2.21184 12.7519C2.07098 12.9959 2.07098 13.2853 2.21184 13.5293C2.35269 13.7733 2.60328 13.9179 2.88506 13.9179H15.1162C15.3979 13.9179 15.6485 13.7733 15.7894 13.5293C15.9303 13.2853 15.9303 12.9959 15.7895 12.7519C15.7895 12.7519 15.7895 12.7519 15.7895 12.7519L9.67386 2.1594L9.67385 2.1594C9.53301 1.91541 9.28238 1.77074 9.00067 1.77074ZM8.0388 1.99273C8.2392 1.6456 8.59985 1.4374 9.00067 1.4374C9.40145 1.4374 9.76213 1.6456 9.96253 1.99274C9.96253 1.99274 9.96253 1.99274 9.96254 1.99274L16.0781 12.5853L16.0782 12.5853C16.2785 12.9324 16.2785 13.3488 16.0781 13.6959L16.0781 13.6959C15.8777 14.0431 15.517 14.2513 15.1162 14.2513H2.88506C2.48421 14.2513 2.12356 14.0431 1.92316 13.6959C1.72277 13.3488 1.72277 12.9324 1.92316 12.5853L2.05729 12.6627L1.92316 12.5853L8.0388 1.99274C8.0388 1.99274 8.0388 1.99274 8.0388 1.99273Z" fill="#F9C03E"/>
<path d="M8.99994 10.9688C8.65534 10.9688 8.375 11.2491 8.375 11.5937C8.375 11.9383 8.65534 12.2186 8.99994 12.2186C9.3445 12.2186 9.62487 11.9383 9.62487 11.5937C9.62487 11.2491 9.34453 10.9688 8.99994 10.9688Z" fill="#F9C03E" stroke="#F9C03E" stroke-width="0.5"/>
<path d="M9.46862 5.34448H8.53125V10.0314H9.46862V5.34448Z" fill="#F9C03E" stroke="#F9C03E" stroke-width="0.5" stroke-linejoin="round"/>
</svg>
