<svg width="18" height="16" viewBox="0 0 18 16" fill="none" xmlns="http://www.w3.org/2000/svg">
<path d="M16.7449 12.2L10.6293 1.60743C10.2893 1.01843 9.68017 0.666748 8.99998 0.666748C8.31983 0.666748 7.71071 1.01843 7.37065 1.60743L1.25507 12.1999C0.914977 12.789 0.914977 13.4923 1.25507 14.0813C1.59516 14.6704 2.20422 15.022 2.88441 15.022H15.1156C15.7957 15.022 16.4048 14.6703 16.7449 14.0814C17.085 13.4923 17.085 12.789 16.7449 12.2ZM15.9331 13.6127C15.7625 13.9082 15.4568 14.0847 15.1156 14.0847H2.88441C2.5431 14.0847 2.23747 13.9082 2.06685 13.6127C1.89622 13.3171 1.89622 12.9642 2.06685 12.6687L8.18249 2.07615C8.35311 1.78059 8.65874 1.60415 9.00002 1.60415C9.34126 1.60415 9.64692 1.78059 9.81754 2.07615L15.9332 12.6687C16.1037 12.9642 16.1037 13.3171 15.9331 13.6127Z" fill="#DD3A44"/>
<path fill-rule="evenodd" clip-rule="evenodd" d="M7.22647 1.52402C7.5963 0.883453 8.26045 0.5 9.00015 0.5C9.73988 0.5 10.404 0.883454 10.7738 1.52402L16.8894 12.1165C17.2593 12.7571 17.2593 13.524 16.8894 14.1646L16.8894 14.1646C16.5195 14.8051 15.8554 15.1886 15.1157 15.1886H2.88457C2.14484 15.1886 1.48076 14.8052 1.1109 14.1646C0.741028 13.524 0.741031 12.7571 1.11089 12.1165L1.25523 12.1999L1.11089 12.1165L7.22647 1.52402L7.37081 1.60735L7.22647 1.52402ZM9.00015 0.833333C8.37954 0.833333 7.82543 1.15325 7.51515 1.69069L1.39957 12.2832C1.08925 12.8207 1.08925 13.4605 1.39957 13.9979C1.70989 14.5354 2.26393 14.8553 2.88457 14.8553H15.1157C15.7363 14.8553 16.2904 14.5354 16.6008 13.9979C16.9111 13.4605 16.9111 12.8207 16.6008 12.2832L10.4851 1.69069C10.1749 1.15325 9.62079 0.833333 9.00015 0.833333ZM9.00018 1.77074C8.71844 1.77074 8.46784 1.91541 8.32699 2.1594L8.32699 2.1594L2.21135 12.7519C2.0705 12.9959 2.0705 13.2853 2.21135 13.5293C2.3522 13.7733 2.6028 13.9179 2.88457 13.9179H15.1157C15.3975 13.9179 15.6481 13.7733 15.7889 13.5293C15.9298 13.2853 15.9298 12.9959 15.789 12.7519C15.789 12.7519 15.789 12.7519 15.789 12.7519L9.67337 2.1594L9.67337 2.1594C9.53252 1.91541 9.28189 1.77074 9.00018 1.77074ZM8.03831 1.99273C8.23871 1.6456 8.59936 1.4374 9.00018 1.4374C9.40096 1.4374 9.76164 1.6456 9.96204 1.99274C9.96205 1.99274 9.96205 1.99274 9.96205 1.99274L16.0777 12.5853L16.0777 12.5853C16.278 12.9324 16.278 13.3488 16.0776 13.6959L16.0776 13.6959C15.8772 14.0431 15.5165 14.2513 15.1157 14.2513H2.88457C2.48372 14.2513 2.12307 14.0431 1.92267 13.6959C1.72228 13.3488 1.72228 12.9324 1.92267 12.5853L2.0568 12.6627L1.92267 12.5853L8.03831 1.99274C8.03831 1.99274 8.03831 1.99274 8.03831 1.99273Z" fill="#DD3A44"/>
<path d="M8.99994 10.9688C8.65534 10.9688 8.375 11.2491 8.375 11.5937C8.375 11.9383 8.65534 12.2186 8.99994 12.2186C9.3445 12.2186 9.62487 11.9383 9.62487 11.5937C9.62487 11.2491 9.34453 10.9688 8.99994 10.9688Z" fill="#DD3A44" stroke="#DD3A44" stroke-width="0.5"/>
<path d="M9.46862 5.34448H8.53125V10.0314H9.46862V5.34448Z" fill="#DD3A44" stroke="#DD3A44" stroke-width="0.5" stroke-linejoin="round"/>
</svg>
