<svg xmlns="http://www.w3.org/2000/svg" width="18" height="16" viewBox="0 0 18 16" fill="none">
  <path d="M16.7352 12.2539L10.6196 1.66139C10.2795 1.07239 9.6704 0.720703 8.99022 0.720703C8.31006 0.720703 7.70094 1.07239 7.36088 1.66139L1.2453 12.2539C0.905211 12.8429 0.905211 13.5463 1.2453 14.1353C1.5854 14.7243 2.19446 15.076 2.87464 15.076H15.1058C15.7859 15.076 16.395 14.7243 16.7352 14.1353C17.0753 13.5463 17.0753 12.8429 16.7352 12.2539ZM15.9234 13.6666C15.7527 13.9622 15.4471 14.1386 15.1058 14.1386H2.87464C2.53333 14.1386 2.22771 13.9622 2.05708 13.6666C1.88646 13.3711 1.88646 13.0182 2.05708 12.7226L8.17272 2.13011C8.34335 1.83454 8.64897 1.65811 8.99025 1.65811C9.3315 1.65811 9.63715 1.83454 9.80778 2.13011L15.9234 12.7226C16.094 13.0182 16.094 13.3711 15.9234 13.6666Z" fill="white"/>
  <path fill-rule="evenodd" clip-rule="evenodd" d="M7.2167 1.5787C7.58654 0.93814 8.25068 0.554688 8.99038 0.554688C9.73011 0.554688 10.3942 0.938142 10.7641 1.5787L16.8797 12.1712C17.2495 12.8118 17.2495 13.5787 16.8797 14.2193L16.8797 14.2193C16.5098 14.8598 15.8457 15.2433 15.106 15.2433H2.87481C2.13507 15.2433 1.47099 14.8599 1.10113 14.2193C0.731263 13.5787 0.731265 12.8118 1.10113 12.1712L1.24547 12.2545L1.10113 12.1712L7.2167 1.57871L7.36104 1.66204L7.2167 1.5787ZM8.99038 0.888021C8.36977 0.888021 7.81567 1.20794 7.50538 1.74537L1.3898 12.3379C1.07948 12.8754 1.07948 13.5151 1.3898 14.0526C1.70012 14.5901 2.25417 14.91 2.87481 14.91H15.106C15.7266 14.91 16.2806 14.59 16.591 14.0526C16.9013 13.5151 16.9013 12.8754 16.591 12.3379L10.4754 1.74537C10.1651 1.20794 9.61102 0.888021 8.99038 0.888021ZM8.99041 1.82542C8.70867 1.82542 8.45807 1.9701 8.31723 2.21408L8.31722 2.21409L2.20158 12.8066C2.06073 13.0506 2.06073 13.34 2.20159 13.584C2.34243 13.8279 2.59303 13.9726 2.87481 13.9726H15.106C15.3877 13.9726 15.6383 13.8279 15.7792 13.584C15.92 13.34 15.92 13.0506 15.7792 12.8066C15.7792 12.8066 15.7792 12.8066 15.7792 12.8066L9.6636 2.21409L9.6636 2.21408C9.52275 1.9701 9.27213 1.82542 8.99041 1.82542ZM8.02855 2.04742C8.22895 1.70029 8.5896 1.49209 8.99041 1.49209C9.39119 1.49209 9.75188 1.70028 9.95228 2.04742C9.95228 2.04742 9.95228 2.04743 9.95228 2.04743L16.0679 12.64L16.0679 12.64C16.2682 12.9871 16.2682 13.4035 16.0679 13.7506L16.0679 13.7506C15.8674 14.0977 15.5068 14.3059 15.106 14.3059H2.87481C2.47396 14.3059 2.11331 14.0978 1.9129 13.7506C1.71251 13.4035 1.71251 12.9871 1.9129 12.64L2.04703 12.7174L1.91291 12.64L8.02854 2.04743C8.02854 2.04743 8.02854 2.04742 8.02855 2.04742Z" fill="white"/>
  <path d="M8.99017 11.0234C8.64558 11.0234 8.36523 11.3038 8.36523 11.6484C8.36523 11.993 8.64558 12.2733 8.99017 12.2733C9.33473 12.2733 9.61511 11.993 9.61511 11.6484C9.61511 11.3038 9.33476 11.0234 8.99017 11.0234Z" fill="white" stroke="white" stroke-width="0.5"/>
  <path d="M9.45886 5.39844H8.52148V10.0854H9.45886V5.39844Z" fill="white" stroke="white" stroke-width="0.5" stroke-linejoin="round"/>
</svg>