<svg width="32" height="32" viewBox="0 0 32 32" fill="none" xmlns="http://www.w3.org/2000/svg">
<rect width="32" height="32" rx="8" fill="#1F2128"/>
<g clip-path="url(#clip0_1173_25274)">
<path d="M20.7 19.301C21.6 18.101 22.1 16.701 22.1 15.101C22.1 11.201 19 8.00098 15.1 8.00098C11.2 8.00098 8 11.201 8 15.101C8 19.001 11.2 22.201 15.1 22.201C16.7 22.201 18.2 21.701 19.3 20.801L22.3 23.801C22.5 24.001 22.8 24.101 23 24.101C23.2 24.101 23.5 24.001 23.7 23.801C24.1 23.401 24.1 22.801 23.7 22.401L20.7 19.301ZM15.1 20.101C12.3 20.101 10 17.901 10 15.101C10 12.301 12.3 10.001 15.1 10.001C17.9 10.001 20.2 12.301 20.2 15.101C20.2 17.901 17.9 20.101 15.1 20.101Z" fill="#A0A3AD"/>
<line x1="13" y1="15" x2="17" y2="15" stroke="#A0A3AD" stroke-width="2" stroke-linecap="round"/>
<line x1="15" y1="13" x2="15" y2="17" stroke="#A0A3AD" stroke-width="2" stroke-linecap="round"/>
</g>
<defs>
<clipPath id="clip0_1173_25274">
<rect width="16" height="16" fill="white" transform="translate(8 8)"/>
</clipPath>
</defs>
</svg>
