<svg width="18" height="19" viewBox="0 0 18 19" fill="none" xmlns="http://www.w3.org/2000/svg">
<g clip-path="url(#clip0_6118_222536)">
<path d="M17.833 9.56342L16.2172 7.9476C16.11 7.84046 15.9647 7.78027 15.8132 7.78027C15.6617 7.78027 15.5164 7.84046 15.4092 7.9476L10.4716 12.8852C10.0716 13.2853 9.80148 13.79 9.69051 14.3448L9.42224 15.6861C9.38477 15.8734 9.44341 16.067 9.57846 16.2021C9.68666 16.3103 9.83242 16.3694 9.98243 16.3694C10.0197 16.3694 10.0572 16.3658 10.0945 16.3583L11.4358 16.09H11.4358C11.9906 15.9791 12.4953 15.709 12.8954 15.3089L17.833 10.3713C18.056 10.1482 18.056 9.78653 17.833 9.56342ZM12.0874 14.501C11.8474 14.741 11.5446 14.9031 11.2117 14.9697L10.7107 15.0699L10.8109 14.5688C10.8774 14.2359 11.0395 13.9331 11.2796 13.693L15.8132 9.15941L16.6211 9.96731L12.0874 14.501Z" fill="#007AFF"/>
<path d="M7.65181 15.2262H5.08882C4.77382 15.2262 4.51755 14.9699 4.51755 14.6549V3.45796C4.51755 3.14296 4.77382 2.88669 5.08882 2.88669H10.2303V4.60051C10.2303 5.54551 10.9991 6.31433 11.9441 6.31433H13.6579V6.70286C13.6579 7.01837 13.9137 7.27413 14.2292 7.27413C14.5447 7.27413 14.8005 7.01837 14.8005 6.70286V5.74303C14.8005 5.58839 14.7352 5.44011 14.6329 5.33883L11.2055 1.91147C11.1001 1.80607 10.9525 1.74414 10.8016 1.74414H5.08882C4.14382 1.74414 3.375 2.51296 3.375 3.45796V14.6549C3.375 15.5999 4.14382 16.3688 5.08882 16.3688H7.65181C7.96733 16.3688 8.22309 16.113 8.22309 15.7975C8.22309 15.482 7.9673 15.2262 7.65181 15.2262ZM11.9441 5.17178C11.6291 5.17178 11.3728 4.91551 11.3728 4.60051V3.69458L12.85 5.17178H11.9441Z" fill="#007AFF"/>
<path d="M11.5102 8.72752C11.5102 8.41201 11.2919 8.15625 11.0227 8.15625H6.14766C5.87841 8.15625 5.66016 8.41201 5.66016 8.72752C5.66016 9.04304 5.87841 9.2988 6.14766 9.2988H11.0227C11.2919 9.2988 11.5102 9.04304 11.5102 8.72752Z" fill="#007AFF"/>
<path d="M6.08426 11.082C5.85003 11.082 5.66016 11.3378 5.66016 11.6533C5.66016 11.9688 5.85003 12.2246 6.08426 12.2246H9.51105C9.74529 12.2246 9.93516 11.9688 9.93516 11.6533C9.93516 11.3378 9.74529 11.082 9.51105 11.082H6.08426Z" fill="#007AFF"/>
</g>
<defs>
<clipPath id="clip0_6118_222536">
<rect width="18" height="18" fill="white" transform="translate(0 0.0566406)"/>
</clipPath>
</defs>
</svg>
