<svg width="14" height="15" viewBox="0 0 14 15" fill="none" xmlns="http://www.w3.org/2000/svg">
<path d="M12.2777 3.31689C11.3125 2.55814 10.1355 2.11779 8.90928 2.05664L8.74125 2.24918C9.83292 2.53946 10.8505 3.05827 11.7266 3.77128C10.61 3.15635 9.38394 2.76535 8.11742 2.62025C7.31207 2.53176 6.49903 2.53998 5.69563 2.64476C5.62715 2.64669 5.55898 2.65466 5.49189 2.66856C4.55087 2.77563 3.63265 3.03058 2.77115 3.42401C2.32726 3.62775 2.06401 3.77408 2.06401 3.77408C2.98617 3.02562 4.06186 2.48944 5.21464 2.20367L5.09491 2.05944C3.86871 2.12059 2.69175 2.56094 1.72655 3.31969C0.62927 5.48851 0.0389039 7.87821 0 10.3085C0.413907 10.8883 0.963922 11.3575 1.60168 11.6749C2.23944 11.9924 2.94541 12.1482 3.65753 12.1289C3.65753 12.1289 4.10072 11.5897 4.45989 11.134C3.61619 10.922 2.87317 10.4217 2.35947 9.71967C2.35947 9.71967 2.4792 9.80369 2.69554 9.92341C2.70924 9.93797 2.72534 9.95005 2.74315 9.95912C2.77956 9.98292 2.81316 9.99483 2.85167 10.0186C3.13357 10.1748 3.426 10.3112 3.72684 10.4268C4.29717 10.6517 4.88679 10.8242 5.4884 10.9421C6.51372 11.1389 7.56672 11.1429 8.59352 10.954C9.1911 10.8496 9.77466 10.6767 10.3327 10.4387C10.8172 10.2554 11.2797 10.0182 11.7112 9.73157C11.1789 10.4483 10.41 10.9536 9.54081 11.1578C9.90068 11.6129 10.332 12.1282 10.332 12.1282C11.0454 12.1464 11.7525 11.9901 12.3917 11.6728C13.031 11.3556 13.5831 10.887 14 10.3078C13.9625 7.87716 13.3736 5.48676 12.2777 3.31689ZM4.76095 9.18757C4.42311 9.17139 4.10528 9.02264 3.87642 8.77359C3.64756 8.52455 3.52614 8.1953 3.53851 7.8573C3.53137 7.68967 3.55733 7.52228 3.61491 7.36469C3.6725 7.20711 3.76057 7.06241 3.87409 6.93887C3.98762 6.81533 4.12437 6.71537 4.27654 6.64471C4.42871 6.57404 4.59332 6.53406 4.76095 6.52703C4.92891 6.53305 5.09401 6.57235 5.24666 6.64267C5.39931 6.713 5.53647 6.81293 5.65019 6.93668C5.76391 7.06044 5.85192 7.20554 5.90912 7.36357C5.96632 7.52161 5.99157 7.68943 5.9834 7.8573C5.99054 8.02493 5.96457 8.19232 5.90699 8.34991C5.84941 8.5075 5.76134 8.65219 5.64782 8.77573C5.53429 8.89927 5.39753 8.99923 5.24536 9.06989C5.09318 9.14056 4.92859 9.18054 4.76095 9.18757ZM9.13683 9.18757C8.79899 9.17139 8.48115 9.02264 8.25229 8.77359C8.02344 8.52455 7.90201 8.1953 7.91438 7.8573C7.90724 7.68967 7.93321 7.52228 7.99079 7.36469C8.04837 7.20711 8.13644 7.06241 8.24997 6.93887C8.36349 6.81533 8.50024 6.71537 8.65242 6.64471C8.80459 6.57404 8.9692 6.53406 9.13683 6.52703C9.30446 6.53406 9.46906 6.57404 9.62123 6.64471C9.7734 6.71537 9.91017 6.81533 10.0237 6.93887C10.1372 7.06241 10.2253 7.20711 10.2829 7.36469C10.3404 7.52228 10.3664 7.68967 10.3593 7.8573C10.3664 8.02493 10.3404 8.19232 10.2829 8.34991C10.2253 8.5075 10.1372 8.65219 10.0237 8.77573C9.91017 8.89927 9.7734 8.99923 9.62123 9.06989C9.46906 9.14056 9.30446 9.18054 9.13683 9.18757Z" fill="#007AFF"/>
</svg>
