<svg width="14" height="14" viewBox="0 0 14 14" fill="none" xmlns="http://www.w3.org/2000/svg">
<path d="M12.2777 3.26025C11.3125 2.5015 10.1355 2.06115 8.90928 2L8.74125 2.19254C9.83292 2.48282 10.8505 3.00163 11.7266 3.71464C10.61 3.0997 9.38394 2.70871 8.11742 2.56361C7.31207 2.47512 6.49903 2.48334 5.69563 2.58812C5.62715 2.59005 5.55898 2.59802 5.49189 2.61192C4.55087 2.71899 3.63265 2.97394 2.77115 3.36737C2.32726 3.57111 2.06401 3.71744 2.06401 3.71744C2.98617 2.96898 4.06186 2.4328 5.21464 2.14703L5.09491 2.0028C3.86871 2.06395 2.69175 2.5043 1.72655 3.26305C0.62927 5.43187 0.0389039 7.82157 0 10.2518C0.413907 10.8317 0.963922 11.3009 1.60168 11.6183C2.23944 11.9357 2.94541 12.0916 3.65753 12.0722C3.65753 12.0722 4.10072 11.5331 4.45989 11.0773C3.61619 10.8654 2.87317 10.3651 2.35947 9.66303C2.35947 9.66303 2.4792 9.74705 2.69554 9.86677C2.70924 9.88133 2.72534 9.89341 2.74315 9.90248C2.77956 9.92628 2.81316 9.93819 2.85167 9.96199C3.13357 10.1182 3.426 10.2546 3.72684 10.3702C4.29717 10.5951 4.88679 10.7675 5.4884 10.8855C6.51372 11.0823 7.56672 11.0863 8.59352 10.8974C9.1911 10.793 9.77466 10.6201 10.3327 10.3821C10.8172 10.1988 11.2797 9.96157 11.7112 9.67493C11.1789 10.3917 10.41 10.8969 9.54081 11.1011C9.90068 11.5562 10.332 12.0715 10.332 12.0715C11.0454 12.0898 11.7525 11.9335 12.3917 11.6162C13.031 11.299 13.5831 10.8304 14 10.2512C13.9625 7.82052 13.3736 5.43012 12.2777 3.26025ZM4.76095 9.13093C4.42311 9.11475 4.10528 8.966 3.87642 8.71695C3.64756 8.46791 3.52614 8.13866 3.53851 7.80066C3.53137 7.63303 3.55733 7.46564 3.61491 7.30805C3.6725 7.15046 3.76057 7.00577 3.87409 6.88223C3.98762 6.75869 4.12437 6.65873 4.27654 6.58807C4.42871 6.5174 4.59332 6.47742 4.76095 6.47039C4.92891 6.47641 5.09401 6.51571 5.24666 6.58603C5.39931 6.65636 5.53647 6.75629 5.65019 6.88004C5.76391 7.00379 5.85192 7.1489 5.90912 7.30693C5.96632 7.46497 5.99157 7.63279 5.9834 7.80066C5.99054 7.96829 5.96457 8.13568 5.90699 8.29327C5.84941 8.45086 5.76134 8.59555 5.64782 8.71909C5.53429 8.84263 5.39753 8.94259 5.24536 9.01325C5.09318 9.08392 4.92859 9.1239 4.76095 9.13093ZM9.13683 9.13093C8.79899 9.11475 8.48115 8.966 8.25229 8.71695C8.02344 8.46791 7.90201 8.13866 7.91438 7.80066C7.90724 7.63303 7.93321 7.46564 7.99079 7.30805C8.04837 7.15046 8.13644 7.00577 8.24997 6.88223C8.36349 6.75869 8.50024 6.65873 8.65242 6.58807C8.80459 6.5174 8.9692 6.47742 9.13683 6.47039C9.30446 6.47742 9.46906 6.5174 9.62123 6.58807C9.7734 6.65873 9.91017 6.75869 10.0237 6.88223C10.1372 7.00577 10.2253 7.15046 10.2829 7.30805C10.3404 7.46564 10.3664 7.63303 10.3593 7.80066C10.3664 7.96829 10.3404 8.13568 10.2829 8.29327C10.2253 8.45086 10.1372 8.59555 10.0237 8.71909C9.91017 8.84263 9.7734 8.94259 9.62123 9.01325C9.46906 9.08392 9.30446 9.1239 9.13683 9.13093Z" fill="white"/>
</svg>
