<svg width="14" height="15" viewBox="0 0 14 15" fill="none" xmlns="http://www.w3.org/2000/svg">
<g clip-path="url(#clip0_1618_27596)">
<path d="M14 7.05707C13.9996 5.77134 13.6451 4.51056 12.9753 3.41304C12.3056 2.31552 11.3465 1.42366 10.2033 0.835287C9.06013 0.246915 7.77697 -0.0152324 6.4946 0.0775981C5.21222 0.170429 3.98019 0.61465 2.93365 1.36154C1.88711 2.10842 1.06649 3.12912 0.561813 4.31166C0.0571338 5.49419 -0.112106 6.79288 0.0726587 8.06526C0.257423 9.33764 0.78906 10.5346 1.60924 11.5247C2.42942 12.5149 3.50646 13.26 4.72221 13.6784C4.82053 13.6278 4.90487 13.5537 4.96775 13.4627C5.03063 13.3718 5.0701 13.2667 5.0827 13.1569C5.0827 12.7719 5.0743 11.7814 5.0743 11.7814C4.83004 11.8173 4.5834 11.8347 4.33651 11.8332C3.98754 11.8549 3.64118 11.7606 3.35137 11.565C3.06156 11.3694 2.84457 11.0834 2.73421 10.7517C2.58154 10.363 2.305 10.0355 1.9474 9.81996C1.7661 9.70236 1.72481 9.56516 1.93411 9.52666C2.90081 9.34536 3.1486 10.6173 3.7947 10.8203C4.24121 10.9594 4.72416 10.9207 5.1429 10.7125C5.20295 10.3507 5.40251 10.027 5.6987 9.81086C4.0558 9.65336 3.08141 9.08637 2.57671 8.17357L2.5221 8.07206L2.3954 7.78226L2.3576 7.67796C2.19508 7.16556 2.11799 6.62992 2.12941 6.09248C2.11366 5.72276 2.17386 5.35374 2.30629 5.0082C2.43873 4.66266 2.64059 4.34794 2.8994 4.08347C2.68797 3.41922 2.7314 2.70005 3.02121 2.06607C3.02121 2.06607 3.73242 1.91907 5.07642 2.87667C6.24983 2.56277 7.48195 2.53875 8.66671 2.80666C9.22671 2.43566 10.2627 1.90857 10.6785 2.05697C10.9564 2.63798 11.0091 3.30141 10.8262 3.91897C11.414 4.54584 11.7298 5.37982 11.7047 6.23876C11.7029 6.72449 11.6422 7.20822 11.5241 7.67937L11.4639 7.88516C11.4639 7.88516 11.4289 7.98245 11.3939 8.07485L11.3491 8.17637C10.8591 9.24107 9.86232 9.63866 8.24741 9.80386C8.77032 10.1322 8.92011 10.5431 8.92011 11.6554C8.92011 12.7677 8.9054 12.9154 8.9089 13.1737C8.92425 13.2796 8.96341 13.3807 9.02342 13.4693C9.08344 13.5579 9.16273 13.6318 9.25539 13.6854C10.6394 13.2143 11.8411 12.3218 12.692 11.1331C13.543 9.94433 14.0003 8.51899 14 7.05707Z" fill="#007AFF"/>
</g>
<defs>
<clipPath id="clip0_1618_27596">
<rect width="14" height="14" fill="white" transform="translate(0 0.0566406)"/>
</clipPath>
</defs>
</svg>
