<svg width="14" height="14" viewBox="0 0 14 14" fill="none" xmlns="http://www.w3.org/2000/svg">
<g clip-path="url(#clip0_2376_8452)">
<path d="M14 7.00043C13.9996 5.7147 13.6451 4.45392 12.9753 3.3564C12.3056 2.25888 11.3465 1.36702 10.2033 0.778646C9.06013 0.190274 7.77697 -0.071873 6.4946 0.0209575C5.21222 0.113788 3.98019 0.558009 2.93365 1.3049C1.88711 2.05178 1.06649 3.07248 0.561813 4.25502C0.0571338 5.43755 -0.112106 6.73624 0.0726587 8.00862C0.257423 9.281 0.78906 10.4779 1.60924 11.4681C2.42942 12.4582 3.50646 13.2033 4.72221 13.6217C4.82053 13.5711 4.90487 13.4971 4.96775 13.4061C5.03063 13.3151 5.0701 13.2101 5.0827 13.1002C5.0827 12.7152 5.0743 11.7247 5.0743 11.7247C4.83004 11.7607 4.5834 11.778 4.33651 11.7765C3.98754 11.7983 3.64118 11.704 3.35137 11.5084C3.06156 11.3128 2.84457 11.0268 2.73421 10.695C2.58154 10.3064 2.305 9.97891 1.9474 9.76332C1.7661 9.64572 1.72481 9.50852 1.93411 9.47002C2.90081 9.28872 3.1486 10.5606 3.7947 10.7636C4.24121 10.9027 4.72416 10.8641 5.1429 10.6558C5.20295 10.2941 5.40251 9.97037 5.6987 9.75422C4.0558 9.59672 3.08141 9.02973 2.57671 8.11693L2.5221 8.01542L2.3954 7.72561L2.3576 7.62132C2.19508 7.10892 2.11799 6.57327 2.12941 6.03583C2.11366 5.66612 2.17386 5.2971 2.30629 4.95156C2.43873 4.60602 2.64059 4.2913 2.8994 4.02683C2.68797 3.36258 2.7314 2.64341 3.02121 2.00942C3.02121 2.00942 3.73242 1.86243 5.07642 2.82003C6.24983 2.50613 7.48195 2.48211 8.66671 2.75002C9.22671 2.37902 10.2627 1.85192 10.6785 2.00032C10.9564 2.58133 11.0091 3.24477 10.8262 3.86233C11.414 4.4892 11.7298 5.32317 11.7047 6.18212C11.7029 6.66785 11.6422 7.15158 11.5241 7.62273L11.4639 7.82852C11.4639 7.82852 11.4289 7.92581 11.3939 8.01821L11.3491 8.11973C10.8591 9.18443 9.86232 9.58202 8.24741 9.74722C8.77032 10.0755 8.92011 10.4864 8.92011 11.5987C8.92011 12.711 8.9054 12.8587 8.9089 13.117C8.92425 13.223 8.96341 13.324 9.02342 13.4126C9.08344 13.5013 9.16273 13.5751 9.25539 13.6287C10.6394 13.1577 11.8411 12.2652 12.692 11.0764C13.543 9.88769 14.0003 8.46235 14 7.00043Z" fill="white"/>
</g>
<defs>
<clipPath id="clip0_2376_8452">
<rect width="14" height="14" fill="white"/>
</clipPath>
</defs>
</svg>
