<svg width="18" height="18" viewBox="0 0 18 18" fill="none" xmlns="http://www.w3.org/2000/svg">
<g clip-path="url(#clip0_6118_220977)">
<path d="M17.833 9.50678L16.2172 7.89096C16.11 7.78382 15.9647 7.72363 15.8132 7.72363C15.6617 7.72363 15.5164 7.78382 15.4092 7.89096L10.4716 12.8286C10.0716 13.2286 9.80148 13.7334 9.69051 14.2881L9.42224 15.6295C9.38477 15.8168 9.44341 16.0104 9.57846 16.1454C9.68666 16.2536 9.83242 16.3128 9.98243 16.3128C10.0197 16.3128 10.0572 16.3091 10.0945 16.3017L11.4358 16.0334H11.4358C11.9906 15.9224 12.4953 15.6523 12.8954 15.2523L17.833 10.3147C18.056 10.0916 18.056 9.72989 17.833 9.50678ZM12.0874 14.4444C11.8474 14.6844 11.5446 14.8465 11.2117 14.913L10.7107 15.0132L10.8109 14.5122C10.8774 14.1793 11.0395 13.8765 11.2796 13.6364L15.8132 9.10277L16.6211 9.91067L12.0874 14.4444Z" fill="white"/>
<path d="M7.65181 15.1696H5.08882C4.77382 15.1696 4.51755 14.9133 4.51755 14.5983V3.40132C4.51755 3.08632 4.77382 2.83005 5.08882 2.83005H10.2303V4.54387C10.2303 5.48887 10.9991 6.25769 11.9441 6.25769H13.6579V6.64622C13.6579 6.96173 13.9137 7.21749 14.2292 7.21749C14.5447 7.21749 14.8005 6.96173 14.8005 6.64622V5.68639C14.8005 5.53175 14.7352 5.38347 14.6329 5.28218L11.2055 1.85483C11.1001 1.74943 10.9525 1.6875 10.8016 1.6875H5.08882C4.14382 1.6875 3.375 2.45632 3.375 3.40132V14.5983C3.375 15.5433 4.14382 16.3121 5.08882 16.3121H7.65181C7.96733 16.3121 8.22309 16.0564 8.22309 15.7408C8.22309 15.4253 7.9673 15.1696 7.65181 15.1696ZM11.9441 5.11514C11.6291 5.11514 11.3728 4.85887 11.3728 4.54387V3.63794L12.85 5.11514H11.9441Z" fill="white"/>
<path d="M11.5102 8.67088C11.5102 8.35537 11.2919 8.09961 11.0227 8.09961H6.14766C5.87841 8.09961 5.66016 8.35537 5.66016 8.67088C5.66016 8.9864 5.87841 9.24216 6.14766 9.24216H11.0227C11.2919 9.24216 11.5102 8.9864 11.5102 8.67088Z" fill="white"/>
<path d="M6.08426 11.0254C5.85003 11.0254 5.66016 11.2811 5.66016 11.5967C5.66016 11.9122 5.85003 12.1679 6.08426 12.1679H9.51105C9.74529 12.1679 9.93516 11.9122 9.93516 11.5967C9.93516 11.2811 9.74529 11.0254 9.51105 11.0254H6.08426Z" fill="white"/>
</g>
<defs>
<clipPath id="clip0_6118_220977">
<rect width="18" height="18" fill="white"/>
</clipPath>
</defs>
</svg>
