<svg width="14" height="15" viewBox="0 0 14 15" fill="none" xmlns="http://www.w3.org/2000/svg">
<g clip-path="url(#clip0_1618_27584)">
<mask id="mask0_1618_27584" style="mask-type:luminance" maskUnits="userSpaceOnUse" x="0" y="0" width="14" height="15">
<path d="M0 0.0566406H14V14.0566H0V0.0566406Z" fill="white"/>
</mask>
<g mask="url(#mask0_1618_27584)">
<path d="M12.906 0.0566406H1.094C0.803853 0.0566406 0.52559 0.171901 0.320425 0.377066C0.11526 0.582231 0 0.860494 0 1.15064L0 12.9626C0 13.2528 0.11526 13.5311 0.320425 13.7362C0.52559 13.9414 0.803853 14.0566 1.094 14.0566H12.906C13.1961 14.0566 13.4744 13.9414 13.6796 13.7362C13.8847 13.5311 14 13.2528 14 12.9626V1.15064C14 0.860494 13.8847 0.582231 13.6796 0.377066C13.4744 0.171901 13.1961 0.0566406 12.906 0.0566406ZM7 10.9946C6.66209 10.9947 6.32458 10.971 5.99 10.9236C5.662 11.1546 3.766 12.4866 3.59 12.5116C3.56798 12.5196 3.54456 12.5231 3.52117 12.5217C3.49779 12.5203 3.47493 12.5142 3.454 12.5036C3.392 12.4666 3.403 12.3706 3.403 12.3706C3.422 12.2426 3.895 10.6096 3.982 10.3096C3.22575 9.99032 2.57465 9.46459 2.10318 8.79258C1.63171 8.12057 1.35891 7.32942 1.316 6.50964C1.313 4.03264 3.859 2.02564 7 2.02564C10.141 2.02564 12.688 4.03364 12.688 6.50964C12.688 8.98564 10.141 10.9946 7 10.9946Z" fill="#007AFF"/>
<path d="M10.298 6.46655L11.046 5.71857C11.0716 5.69233 11.0913 5.66091 11.1038 5.6264C11.1162 5.5919 11.1211 5.5551 11.118 5.51855C11.1103 5.43786 11.0732 5.36282 11.0139 5.30756C10.9546 5.25229 10.8771 5.22063 10.796 5.21857C10.7624 5.21812 10.729 5.22435 10.6978 5.23688C10.6665 5.24941 10.638 5.26799 10.614 5.29156L9.69897 6.20654V5.50159C9.69897 5.4146 9.66442 5.33117 9.60291 5.26965C9.54139 5.20814 9.45796 5.17358 9.37097 5.17358C9.28398 5.17358 9.20055 5.20814 9.13904 5.26965C9.07753 5.33117 9.04297 5.4146 9.04297 5.50159V7.74658C9.04297 7.83357 9.07753 7.917 9.13904 7.97852C9.20055 8.04003 9.28398 8.07458 9.37097 8.07458C9.45796 8.07458 9.54139 8.04003 9.60291 7.97852C9.66442 7.917 9.69897 7.83357 9.69897 7.74658V7.03058L9.81299 6.91656L10.583 7.93658C10.6361 8.00607 10.7145 8.05161 10.8011 8.06323C10.8878 8.07486 10.9756 8.05158 11.045 7.99854C11.1145 7.94549 11.1601 7.86704 11.1718 7.7804C11.1834 7.69375 11.1601 7.60605 11.1071 7.53656L10.298 6.46655Z" fill="#007AFF"/>
<path d="M8.59851 7.4256H7.89856V5.49762C7.89856 5.40877 7.86324 5.32357 7.80041 5.26074C7.73759 5.19792 7.65245 5.1626 7.5636 5.1626C7.47475 5.1626 7.38948 5.19792 7.32666 5.26074C7.26384 5.32357 7.22852 5.40877 7.22852 5.49762V7.72662C7.23061 7.80796 7.26478 7.88514 7.32361 7.94135C7.38244 7.99755 7.46113 8.02822 7.54248 8.02661H8.59558C8.67515 8.02661 8.75136 7.99498 8.80762 7.93872C8.86388 7.88246 8.89551 7.80619 8.89551 7.72662C8.89551 7.64706 8.86388 7.57073 8.80762 7.51447C8.75136 7.4582 8.67515 7.42664 8.59558 7.42664" fill="#007AFF"/>
<path d="M5.01688 5.49066C5.01661 5.40544 4.98257 5.32378 4.92221 5.26361C4.86185 5.20344 4.78011 5.16968 4.69489 5.16968H3.01486C2.92959 5.16968 2.84783 5.20356 2.78754 5.26385C2.72724 5.32415 2.69336 5.40588 2.69336 5.49115C2.69336 5.57642 2.72724 5.65821 2.78754 5.71851C2.84783 5.7788 2.92959 5.81268 3.01486 5.81268H3.52686V7.76166C3.52686 7.84865 3.56141 7.93208 3.62292 7.99359C3.68444 8.0551 3.76787 8.08966 3.85486 8.08966C3.94185 8.08966 4.02528 8.0551 4.08679 7.99359C4.1483 7.93208 4.18286 7.84865 4.18286 7.76166V5.81268H4.69489C4.78011 5.81268 4.86185 5.77892 4.92221 5.71875C4.98257 5.65858 5.01661 5.57693 5.01688 5.4917" fill="#007AFF"/>
<path d="M6.23389 5.49365C6.20552 5.39969 6.14764 5.31737 6.06885 5.25885C5.99005 5.20033 5.89453 5.1687 5.79639 5.1687C5.69824 5.1687 5.60266 5.20033 5.52386 5.25885C5.44507 5.31737 5.38725 5.39969 5.35889 5.49365L4.57385 7.55963C4.47385 7.86963 4.56085 7.98363 4.65185 8.02563C4.71746 8.05553 4.78874 8.07086 4.86084 8.07062C4.91573 8.07745 4.97141 8.06721 5.02026 8.04126C5.06911 8.01531 5.10877 7.97496 5.13385 7.92566L5.29687 7.49963H6.29687L6.45886 7.92462C6.48394 7.97393 6.5236 8.01434 6.57245 8.04028C6.6213 8.06623 6.67698 8.07647 6.73187 8.06964C6.80397 8.06988 6.87525 8.05455 6.94086 8.02466C7.03086 7.98266 7.11786 7.86862 7.01886 7.55762L6.23389 5.49365ZM5.46887 6.91864L5.79687 5.98767L6.12488 6.91864H5.46887Z" fill="#007AFF"/>
</g>
</g>
<defs>
<clipPath id="clip0_1618_27584">
<rect width="14" height="14" fill="white" transform="translate(0 0.0566406)"/>
</clipPath>
</defs>
</svg>
