<svg width="14" height="14" viewBox="0 0 14 14" fill="none" xmlns="http://www.w3.org/2000/svg">
<g clip-path="url(#clip0_2376_8426)">
<mask id="mask0_2376_8426" style="mask-type:luminance" maskUnits="userSpaceOnUse" x="0" y="0" width="14" height="14">
<path d="M0 0H14V14H0V0Z" fill="white"/>
</mask>
<g mask="url(#mask0_2376_8426)">
<path d="M12.906 0H1.094C0.803853 0 0.52559 0.11526 0.320425 0.320425C0.11526 0.52559 0 0.803853 0 1.094L0 12.906C0 13.1961 0.11526 13.4744 0.320425 13.6796C0.52559 13.8847 0.803853 14 1.094 14H12.906C13.1961 14 13.4744 13.8847 13.6796 13.6796C13.8847 13.4744 14 13.1961 14 12.906V1.094C14 0.803853 13.8847 0.52559 13.6796 0.320425C13.4744 0.11526 13.1961 0 12.906 0ZM7 10.938C6.66209 10.938 6.32458 10.9143 5.99 10.867C5.662 11.098 3.766 12.43 3.59 12.455C3.56798 12.463 3.54456 12.4664 3.52117 12.465C3.49779 12.4637 3.47493 12.4575 3.454 12.447C3.392 12.41 3.403 12.314 3.403 12.314C3.422 12.186 3.895 10.553 3.982 10.253C3.22575 9.93368 2.57465 9.40795 2.10318 8.73594C1.63171 8.06393 1.35891 7.27278 1.316 6.453C1.313 3.976 3.859 1.969 7 1.969C10.141 1.969 12.688 3.977 12.688 6.453C12.688 8.929 10.141 10.938 7 10.938Z" fill="white"/>
<path d="M10.298 6.40991L11.046 5.66193C11.0716 5.63569 11.0913 5.60427 11.1038 5.56976C11.1162 5.53526 11.1211 5.49846 11.118 5.46191C11.1103 5.38122 11.0732 5.30618 11.0139 5.25092C10.9546 5.19565 10.8771 5.16399 10.796 5.16193C10.7624 5.16148 10.729 5.16771 10.6978 5.18024C10.6665 5.19277 10.638 5.21135 10.614 5.23492L9.69897 6.1499V5.44495C9.69897 5.35796 9.66442 5.27452 9.60291 5.21301C9.54139 5.1515 9.45796 5.11694 9.37097 5.11694C9.28398 5.11694 9.20055 5.1515 9.13904 5.21301C9.07753 5.27452 9.04297 5.35796 9.04297 5.44495V7.68994C9.04297 7.77693 9.07753 7.86036 9.13904 7.92188C9.20055 7.98339 9.28398 8.01794 9.37097 8.01794C9.45796 8.01794 9.54139 7.98339 9.60291 7.92188C9.66442 7.86036 9.69897 7.77693 9.69897 7.68994V6.97394L9.81299 6.85992L10.583 7.87994C10.6361 7.94943 10.7145 7.99496 10.8011 8.00659C10.8878 8.01822 10.9756 7.99494 11.045 7.94189C11.1145 7.88885 11.1601 7.8104 11.1718 7.72375C11.1834 7.63711 11.1601 7.54941 11.1071 7.47992L10.298 6.40991Z" fill="white"/>
<path d="M8.59851 7.36896H7.89856V5.44098C7.89856 5.35213 7.86324 5.26693 7.80041 5.2041C7.73759 5.14128 7.65245 5.10596 7.5636 5.10596C7.47475 5.10596 7.38948 5.14128 7.32666 5.2041C7.26384 5.26693 7.22852 5.35213 7.22852 5.44098V7.66998C7.23061 7.75132 7.26478 7.8285 7.32361 7.8847C7.38244 7.94091 7.46113 7.97158 7.54248 7.96997H8.59558C8.67515 7.96997 8.75136 7.93834 8.80762 7.88208C8.86388 7.82582 8.89551 7.74955 8.89551 7.66998C8.89551 7.59042 8.86388 7.51409 8.80762 7.45782C8.75136 7.40156 8.67515 7.37 8.59558 7.37" fill="white"/>
<path d="M5.01688 5.43402C5.01661 5.34879 4.98257 5.26714 4.92221 5.20697C4.86185 5.1468 4.78011 5.11304 4.69489 5.11304H3.01486C2.92959 5.11304 2.84783 5.14692 2.78754 5.20721C2.72724 5.26751 2.69336 5.34924 2.69336 5.43451C2.69336 5.51978 2.72724 5.60157 2.78754 5.66187C2.84783 5.72216 2.92959 5.75604 3.01486 5.75604H3.52686V7.70502C3.52686 7.79201 3.56141 7.87544 3.62292 7.93695C3.68444 7.99846 3.76787 8.03302 3.85486 8.03302C3.94185 8.03302 4.02528 7.99846 4.08679 7.93695C4.1483 7.87544 4.18286 7.79201 4.18286 7.70502V5.75604H4.69489C4.78011 5.75604 4.86185 5.72228 4.92221 5.66211C4.98257 5.60194 5.01661 5.52028 5.01688 5.43506" fill="white"/>
<path d="M6.23389 5.43701C6.20552 5.34305 6.14764 5.26073 6.06885 5.20221C5.99005 5.14369 5.89453 5.11206 5.79639 5.11206C5.69824 5.11206 5.60266 5.14369 5.52386 5.20221C5.44507 5.26073 5.38725 5.34305 5.35889 5.43701L4.57385 7.50299C4.47385 7.81299 4.56085 7.92699 4.65185 7.96899C4.71746 7.99889 4.78874 8.01422 4.86084 8.01398C4.91573 8.02081 4.97141 8.01057 5.02026 7.98462C5.06911 7.95867 5.10877 7.91832 5.13385 7.86902L5.29687 7.44299H6.29687L6.45886 7.86798C6.48394 7.91729 6.5236 7.9577 6.57245 7.98364C6.6213 8.00959 6.67698 8.01983 6.73187 8.013C6.80397 8.01324 6.87525 7.99791 6.94086 7.96802C7.03086 7.92602 7.11786 7.81198 7.01886 7.50098L6.23389 5.43701ZM5.46887 6.862L5.79687 5.93103L6.12488 6.862H5.46887Z" fill="white"/>
</g>
</g>
<defs>
<clipPath id="clip0_2376_8426">
<rect width="14" height="14" fill="white"/>
</clipPath>
</defs>
</svg>
