<svg width="19" height="19" viewBox="0 0 19 19" fill="none" xmlns="http://www.w3.org/2000/svg">
<path d="M12.2854 10.7202L12.0781 10.8699V11.1256V12.8506C12.0781 12.9078 12.0537 12.9744 12.0063 13.0251C11.9637 13.0707 11.906 13.1006 11.8281 13.1006H7.32812C7.25021 13.1006 7.19255 13.0707 7.1499 13.0251C7.10258 12.9744 7.07812 12.9079 7.07812 12.8506V11.1256V10.858L6.85547 10.7096C5.64297 9.90122 4.82812 8.48149 4.82812 6.85059C4.82812 4.20173 6.92927 2.10059 9.57812 2.10059C12.227 2.10059 14.3281 4.20173 14.3281 6.85059C14.3281 8.39943 13.5184 9.82972 12.2854 10.7202Z" stroke="#007AFF"/>
<path d="M7.32812 15.8506C7.32812 16.2256 7.62812 16.6006 8.07812 16.6006H11.0781C11.5281 16.6006 11.8281 16.2256 11.8281 15.8506V15.1006H7.32812V15.8506Z" fill="#007AFF"/>
</svg>
