<svg width="18" height="19" viewBox="0 0 18 19" fill="none" xmlns="http://www.w3.org/2000/svg">
<path d="M11.7073 10.7202L11.5 10.8699V11.1256V12.8506C11.5 12.9078 11.4755 12.9744 11.4282 13.0251C11.3856 13.0707 11.3279 13.1006 11.25 13.1006H6.75C6.67209 13.1006 6.61442 13.0707 6.57178 13.0251C6.52446 12.9744 6.5 12.9079 6.5 12.8506V11.1256V10.858L6.27735 10.7096C5.06484 9.90122 4.25 8.48149 4.25 6.85059C4.25 4.20173 6.35114 2.10059 9 2.10059C11.6489 2.10059 13.75 4.20173 13.75 6.85059C13.75 8.39943 12.9403 9.82972 11.7073 10.7202Z" stroke="#007AFF"/>
<path d="M6.75 15.8506C6.75 16.2256 7.05 16.6006 7.5 16.6006H10.5C10.95 16.6006 11.25 16.2256 11.25 15.8506V15.1006H6.75V15.8506Z" fill="#007AFF"/>
</svg>
