<svg width="14" height="15" viewBox="0 0 14 15" fill="none" xmlns="http://www.w3.org/2000/svg">
<g clip-path="url(#clip0_1618_27593)">
<path d="M7.6005 11.9567H5.5719V5.4103H7.5137V6.3077H7.5403C7.73648 5.97512 8.01866 5.70156 8.35717 5.5158C8.69568 5.33004 9.078 5.23895 9.4639 5.2521C11.6052 5.2521 11.8999 6.75011 11.8999 8.36991V11.9567H9.8699V8.77521C9.8699 8.0423 9.8699 7.0385 8.8157 7.0385C7.744 7.0385 7.5991 7.8876 7.5991 8.7185V11.9567H7.6005ZM4.2909 11.9567H2.2588V5.4103H4.2888V11.9567H4.2909ZM3.2787 4.5178C3.04502 4.51822 2.81648 4.4493 2.62199 4.31976C2.4275 4.19022 2.27581 4.0059 2.18613 3.79011C2.09645 3.57433 2.07281 3.33678 2.11819 3.10755C2.16357 2.87833 2.27595 2.66771 2.44109 2.50238C2.60622 2.33705 2.8167 2.22442 3.04588 2.17877C3.27505 2.13311 3.51262 2.15647 3.72851 2.2459C3.9444 2.33532 4.12891 2.48679 4.25868 2.68112C4.38845 2.87546 4.45764 3.10393 4.4575 3.3376C4.45732 3.65031 4.33311 3.95018 4.11212 4.17143C3.89113 4.39268 3.59141 4.51725 3.2787 4.5178Z" fill="#007AFF"/>
</g>
<defs>
<clipPath id="clip0_1618_27593">
<rect width="14" height="14" fill="white" transform="translate(0 0.0566406)"/>
</clipPath>
</defs>
</svg>
