<svg width="14" height="14" viewBox="0 0 14 14" fill="none" xmlns="http://www.w3.org/2000/svg">
<g clip-path="url(#clip0_2376_8447)">
<path d="M7.6005 11.9001H5.5719V5.35366H7.5137V6.25106H7.5403C7.73648 5.91848 8.01866 5.64492 8.35717 5.45916C8.69568 5.2734 9.078 5.1823 9.4639 5.19546C11.6052 5.19546 11.8999 6.69346 11.8999 8.31326V11.9001H9.8699V8.71856C9.8699 7.98566 9.8699 6.98186 8.8157 6.98186C7.744 6.98186 7.5991 7.83096 7.5991 8.66186V11.9001H7.6005ZM4.2909 11.9001H2.2588V5.35366H4.2888V11.9001H4.2909ZM3.2787 4.46116C3.04502 4.46158 2.81648 4.39266 2.62199 4.26312C2.4275 4.13358 2.27581 3.94926 2.18613 3.73347C2.09645 3.51769 2.07281 3.28014 2.11819 3.05091C2.16357 2.82168 2.27595 2.61107 2.44109 2.44574C2.60622 2.2804 2.8167 2.16778 3.04588 2.12212C3.27505 2.07647 3.51262 2.09983 3.72851 2.18926C3.9444 2.27868 4.12891 2.43015 4.25868 2.62448C4.38845 2.81882 4.45764 3.04728 4.4575 3.28096C4.45732 3.59367 4.33311 3.89354 4.11212 4.11479C3.89113 4.33604 3.59141 4.46061 3.2787 4.46116Z" fill="white"/>
</g>
<defs>
<clipPath id="clip0_2376_8447">
<rect width="14" height="14" fill="white"/>
</clipPath>
</defs>
</svg>
