<svg width="206" height="28" viewBox="0 0 206 28" fill="none" xmlns="http://www.w3.org/2000/svg">
<path d="M38.1196 9.73413V7.69082H47.631V9.73413H44.1757V20.3123H41.5749V9.73413H38.1196Z" fill="white"/>
<path d="M60.5818 15.3035C60.5818 18.4498 58.2039 20.475 55.2131 20.475C52.2408 20.475 49.993 18.4498 49.993 15.3035C49.993 12.1391 52.3151 10.1319 55.2874 10.1319C58.2597 10.1319 60.5818 12.1391 60.5818 15.3035ZM52.6309 15.3035C52.6309 17.2925 53.8198 18.269 55.2131 18.269C56.5878 18.269 57.9067 17.2925 57.9067 15.3035C57.9067 13.2963 56.6249 12.338 55.2502 12.338C53.8755 12.338 52.6309 13.2963 52.6309 15.3035Z" fill="white"/>
<path d="M63.6041 20.3123V6.93137H66.2049V14.544L69.6602 10.2947H73.0412L68.5084 15.3216L73.0783 20.3123H69.6973L66.2049 16.0449V20.3123H63.6041Z" fill="white"/>
<path d="M74.8986 15.2673C74.8986 12.1391 76.9792 10.1319 79.5985 10.1319C81.2519 10.1319 82.385 10.8914 82.9981 11.7232V10.2947H85.6174V20.3123H82.9981V18.8476C82.385 19.7156 81.2147 20.475 79.5799 20.475C76.9792 20.475 74.8986 18.3956 74.8986 15.2673ZM82.9981 15.3035C82.9981 13.4048 81.6977 12.3561 80.2673 12.3561C78.874 12.3561 77.5551 13.3687 77.5551 15.2673C77.5551 17.166 78.874 18.2509 80.2673 18.2509C81.6977 18.2509 82.9981 17.2021 82.9981 15.3035Z" fill="white"/>
<path d="M103.669 20.3123V14.7791C103.669 13.1879 102.759 12.3561 101.384 12.3561C99.991 12.3561 99.0807 13.1879 99.0807 14.7791V20.3123H96.4799V14.7791C96.4799 13.1879 95.5697 12.3561 94.195 12.3561C92.7831 12.3561 91.8729 13.1879 91.8729 14.7791V20.3123H89.2721V10.2947H91.8729V11.5062C92.5231 10.6744 93.6191 10.15 94.9009 10.15C96.4985 10.15 97.8175 10.8191 98.5234 12.0667C99.1921 10.9276 100.548 10.15 102.053 10.15C104.524 10.15 106.27 11.6689 106.27 14.4355V20.3123H103.669Z" fill="white"/>
<path d="M109.184 15.2673C109.184 12.1391 111.264 10.1319 113.884 10.1319C115.537 10.1319 116.67 10.8914 117.283 11.7232V10.2947H119.903V20.3123H117.283V18.8476C116.67 19.7156 115.5 20.475 113.865 20.475C111.264 20.475 109.184 18.3956 109.184 15.2673ZM117.283 15.3035C117.283 13.4048 115.983 12.3561 114.552 12.3561C113.159 12.3561 111.84 13.3687 111.84 15.2673C111.84 17.166 113.159 18.2509 114.552 18.2509C115.983 18.2509 117.283 17.2021 117.283 15.3035Z" fill="white"/>
<path d="M123.557 20.3123V6.93137H126.158V14.544L129.613 10.2947H132.994L128.462 15.3216L133.031 20.3123H129.65L126.158 16.0449V20.3123H123.557Z" fill="white"/>
<path d="M148.288 16.5873C148.288 15.5024 147.489 14.8514 146.226 14.8514H143.662V18.2509H146.282C147.545 18.2509 148.288 17.6542 148.288 16.5873ZM147.972 11.3254C147.972 10.3128 147.266 9.73413 146.04 9.73413H143.662V12.8985H146.04C147.266 12.8985 147.972 12.3561 147.972 11.3254ZM150.926 16.8947C150.926 18.9019 149.347 20.3123 146.653 20.3123H141.062V7.69082H146.412C149.124 7.69082 150.629 9.06508 150.629 10.9456C150.629 12.4826 149.681 13.441 148.418 13.8388C149.886 14.092 150.926 15.412 150.926 16.8947Z" fill="white"/>
<path d="M156.714 15.3216V20.3123H154.113V10.2947H156.714V11.8498C157.364 10.8191 158.442 10.15 159.872 10.15V12.8081H159.185C157.643 12.8081 156.714 13.3868 156.714 15.3216Z" fill="white"/>
<path d="M162.738 20.3123V10.2947H165.339V20.3123H162.738ZM164.057 9.10124C163.129 9.10124 162.46 8.45028 162.46 7.61849C162.46 6.78671 163.129 6.13574 164.057 6.13574C164.968 6.13574 165.655 6.78671 165.655 7.61849C165.655 8.45028 164.968 9.10124 164.057 9.10124Z" fill="white"/>
<path d="M168.355 15.2673C168.355 12.1391 170.435 10.1319 173.073 10.1319C174.429 10.1319 175.73 10.7467 176.435 11.687V6.93137H179.073V20.3123H176.435V18.8295C175.822 19.7517 174.671 20.475 173.055 20.475C170.435 20.475 168.355 18.3956 168.355 15.2673ZM176.454 15.3035C176.454 13.4048 175.154 12.3561 173.723 12.3561C172.33 12.3561 171.011 13.3687 171.011 15.2673C171.011 17.166 172.33 18.2509 173.723 18.2509C175.154 18.2509 176.454 17.2021 176.454 15.3035Z" fill="white"/>
<path d="M182.059 15.2673C182.059 12.1391 184.14 10.1319 186.759 10.1319C188.375 10.1319 189.546 10.8552 190.159 11.7232V10.2947H192.778V20.3846C192.778 23.097 191.069 25.2488 187.688 25.2488C184.79 25.2488 182.765 23.8383 182.505 21.5419H185.087C185.347 22.446 186.313 23.0427 187.614 23.0427C189.044 23.0427 190.159 22.2471 190.159 20.3846V18.8295C189.546 19.6975 188.375 20.475 186.759 20.475C184.14 20.475 182.059 18.3956 182.059 15.2673ZM190.159 15.3035C190.159 13.4048 188.858 12.3561 187.428 12.3561C186.035 12.3561 184.716 13.3687 184.716 15.2673C184.716 17.166 186.035 18.2509 187.428 18.2509C188.858 18.2509 190.159 17.2021 190.159 15.3035Z" fill="white"/>
<path d="M200.854 12.2114C199.61 12.2114 198.625 12.9889 198.421 14.3632H203.306C203.269 13.0432 202.192 12.2114 200.854 12.2114ZM205.74 17.166C205.183 19.0104 203.474 20.475 200.928 20.475C197.938 20.475 195.764 18.4498 195.764 15.3035C195.764 12.1391 197.882 10.1319 200.928 10.1319C203.901 10.1319 206 12.1029 206 15.0865C206 15.412 205.981 15.7375 205.926 16.0629H198.402C198.532 17.5457 199.572 18.3775 200.873 18.3775C201.987 18.3775 202.6 17.835 202.935 17.166H205.74Z" fill="white"/>
<path d="M17.7857 9.22098C17.729 6.45448 16.8383 4.61015 15.8909 3.68799C-1.79358 8.11438 -1.2184 14.3441 1.30796 17.2131C1.71061 12.1204 6.21632 10.0232 10.9032 9.33091C13.5716 8.93674 15.7236 8.99794 17.7857 9.22098Z" fill="white"/>
<path d="M10.7812 9.22122C7.52174 8.75845 5.83944 10.1943 5.03986 11.0656C8.37398 28.5405 13.5665 28.8942 17.6713 27.0498C11.9875 26.4351 10.9672 21.6713 10.5763 17.0727C10.3538 14.4545 10.4124 11.2086 10.7812 9.22122Z" fill="white"/>
<path d="M11.937 18.7785C11.9937 21.545 12.8843 23.3894 13.8317 24.3115C31.5162 19.8851 30.9411 13.6554 28.4147 10.7864C28.012 15.8791 23.5063 17.9763 18.8195 18.6686C16.151 19.0628 13.9991 19.0016 11.937 18.7785Z" fill="#007AFF"/>
<path d="M18.9414 18.7783C22.2009 19.2411 23.8832 17.8052 24.6828 16.934C21.3487 -0.540978 16.1562 -0.894701 12.0514 0.949682C17.7351 1.5644 18.7555 6.32816 19.1463 10.9268C19.3688 13.545 19.3103 16.7909 18.9414 18.7783Z" fill="#007AFF"/>
<ellipse cx="14.9434" cy="14.1402" rx="1.26318" ry="1.22955" fill="white"/>
</svg>
