<svg width="14" height="14" viewBox="0 0 14 14" fill="none" xmlns="http://www.w3.org/2000/svg">
<g clip-path="url(#clip0_2376_8413)">
<path d="M3.9739 10.7478C6.16862 10.7478 7.9478 8.96867 7.9478 6.77395C7.9478 4.57922 6.16862 2.80005 3.9739 2.80005C1.77918 2.80005 0 4.57922 0 6.77395C0 8.96867 1.77918 10.7478 3.9739 10.7478Z" fill="white"/>
<path d="M10.2931 10.4931C11.3659 10.4931 12.2356 8.82803 12.2356 6.77403C12.2356 4.72003 11.3659 3.05493 10.2931 3.05493C9.22027 3.05493 8.35059 4.72003 8.35059 6.77403C8.35059 8.82803 9.22027 10.4931 10.2931 10.4931Z" fill="white"/>
<path d="M13.2896 10.1144C13.682 10.1144 14.0001 8.61884 14.0001 6.77399C14.0001 4.92914 13.682 3.43359 13.2896 3.43359C12.8972 3.43359 12.5791 4.92914 12.5791 6.77399C12.5791 8.61884 12.8972 10.1144 13.2896 10.1144Z" fill="white"/>
</g>
<defs>
<clipPath id="clip0_2376_8413">
<rect width="14" height="14" fill="white"/>
</clipPath>
</defs>
</svg>
