<svg width="14" height="15" viewBox="0 0 14 15" fill="none" xmlns="http://www.w3.org/2000/svg">
<g clip-path="url(#clip0_1618_27578)">
<path d="M3.9739 10.8045C6.16862 10.8045 7.9478 9.02531 7.9478 6.83059C7.9478 4.63587 6.16862 2.85669 3.9739 2.85669C1.77918 2.85669 0 4.63587 0 6.83059C0 9.02531 1.77918 10.8045 3.9739 10.8045Z" fill="#007AFF"/>
<path d="M10.2931 10.5498C11.3659 10.5498 12.2356 8.88467 12.2356 6.83067C12.2356 4.77667 11.3659 3.11157 10.2931 3.11157C9.22027 3.11157 8.35059 4.77667 8.35059 6.83067C8.35059 8.88467 9.22027 10.5498 10.2931 10.5498Z" fill="#007AFF"/>
<path d="M13.2896 10.171C13.682 10.171 14.0001 8.67549 14.0001 6.83063C14.0001 4.98578 13.682 3.49023 13.2896 3.49023C12.8972 3.49023 12.5791 4.98578 12.5791 6.83063C12.5791 8.67549 12.8972 10.171 13.2896 10.171Z" fill="#007AFF"/>
</g>
<defs>
<clipPath id="clip0_1618_27578">
<rect width="14" height="14" fill="white" transform="translate(0 0.0566406)"/>
</clipPath>
</defs>
</svg>
