<svg width="17" height="17" viewBox="0 0 17 17" fill="none" xmlns="http://www.w3.org/2000/svg">
<path d="M12.9186 5.39647C12.7123 5.19011 12.3778 5.19011 12.1713 5.39647C11.965 5.60283 11.965 5.93734 12.1713 6.1437C13.141 7.11335 13.6749 8.40257 13.6749 9.77388C13.6749 11.1451 13.141 12.4343 12.1713 13.4039C11.1707 14.4046 9.85644 14.9049 8.54185 14.9047C7.22726 14.9046 5.91239 14.4042 4.9116 13.4034C2.91037 11.4022 2.91058 8.14584 4.91195 6.14447C5.11831 5.93811 5.11831 5.60353 4.91195 5.39724C4.70559 5.19088 4.37108 5.19088 4.16465 5.39724C1.75127 7.81062 1.75106 11.7375 4.1643 14.1507C5.37131 15.3577 6.95651 15.9612 8.54192 15.9611C10.1269 15.961 11.7121 15.3577 12.9187 14.1511C14.0879 12.982 14.7317 11.4275 14.7317 9.77395C14.7318 8.12034 14.0879 6.56571 12.9186 5.39647Z" fill="white"/>
<path d="M8.54012 8.80647C8.83201 8.80647 9.06852 8.56989 9.06852 8.27807V2.48934C9.06852 2.19752 8.83201 1.96094 8.54012 1.96094C8.24823 1.96094 8.01172 2.19752 8.01172 2.48934V8.27807C8.01172 8.56996 8.24823 8.80647 8.54012 8.80647Z" fill="white"/>
</svg>
