<svg width="17" height="16" viewBox="0 0 17 16" fill="none" xmlns="http://www.w3.org/2000/svg">
<path d="M13.1686 4.43553C12.9623 4.22917 12.6278 4.22917 12.4213 4.43553C12.215 4.64189 12.215 4.9764 12.4213 5.18276C13.391 6.15241 13.9249 7.44164 13.9249 8.81294C13.9249 10.1842 13.391 11.4733 12.4213 12.4429C11.4207 13.4436 10.1064 13.9439 8.79185 13.9438C7.47726 13.9437 6.16239 13.4433 5.1616 12.4425C3.16037 10.4413 3.16058 7.1849 5.16195 5.18353C5.36831 4.97718 5.36831 4.64259 5.16195 4.43631C4.95559 4.22995 4.62108 4.22995 4.41465 4.43631C2.00127 6.84969 2.00106 10.7765 4.4143 13.1898C5.62131 14.3968 7.20651 15.0002 8.79192 15.0002C10.3769 15.0001 11.9621 14.3968 13.1687 13.1902C14.3379 12.0211 14.9817 10.4666 14.9817 8.81301C14.9818 7.1594 14.3379 5.60478 13.1686 4.43553Z" fill="#007AFF"/>
<path d="M8.79012 7.84554C9.08201 7.84554 9.31852 7.60895 9.31852 7.31713V1.5284C9.31852 1.23658 9.08201 1 8.79012 1C8.49823 1 8.26172 1.23658 8.26172 1.5284V7.31713C8.26172 7.60902 8.49823 7.84554 8.79012 7.84554Z" fill="#007AFF"/>
</svg>
