<svg width="14" height="14" viewBox="0 0 14 14" fill="none" xmlns="http://www.w3.org/2000/svg">
<g clip-path="url(#clip0_2376_8442)">
<path fill-rule="evenodd" clip-rule="evenodd" d="M6.08854 8.54147C6.20264 7.72317 12.1785 3.25648 10.7701 4.00128L6.97474 6.19928C4.72844 7.56358 4.89154 7.34587 5.36474 8.96987C5.44677 9.38357 5.57375 9.78707 5.74343 10.1732C6.00803 10.4896 6.08295 8.56317 6.08645 8.54147M3.98645 7.65808C4.20135 7.74278 4.15444 7.71408 4.22724 7.96328C4.38894 8.51278 4.55694 9.01957 4.72144 9.56417C5.27724 11.4129 5.21144 11.4234 6.00034 10.7794C7.30654 9.71678 7.18544 9.61248 7.93514 10.1417L10.0968 11.7181C10.7114 12.1829 10.7435 11.2421 10.8492 10.7381L12.5817 2.47458C12.6202 2.31358 12.5978 2.21488 12.5383 2.15888C12.413 2.04198 12.1246 2.11688 11.8936 2.21068L2.68164 5.76318C-0.0798606 6.80198 2.22174 6.96508 3.98574 7.65808H3.98645Z" fill="white"/>
</g>
<defs>
<clipPath id="clip0_2376_8442">
<rect width="14" height="14" fill="white"/>
</clipPath>
</defs>
</svg>
