<svg width="14" height="15" viewBox="0 0 14 15" fill="none" xmlns="http://www.w3.org/2000/svg">
<g clip-path="url(#clip0_1618_27590)">
<path fill-rule="evenodd" clip-rule="evenodd" d="M6.08854 8.59811C6.20264 7.77981 12.1785 3.31312 10.7701 4.05792L6.97474 6.25592C4.72844 7.62022 4.89154 7.40251 5.36474 9.02651C5.44677 9.44021 5.57375 9.84371 5.74343 10.2298C6.00803 10.5462 6.08295 8.61981 6.08645 8.59811M3.98645 7.71472C4.20135 7.79942 4.15444 7.77072 4.22724 8.01992C4.38894 8.56942 4.55694 9.07621 4.72144 9.62081C5.27724 11.4695 5.21144 11.48 6.00034 10.836C7.30654 9.77342 7.18544 9.66912 7.93514 10.1983L10.0968 11.7747C10.7114 12.2395 10.7435 11.2987 10.8492 10.7947L12.5817 2.53122C12.6202 2.37022 12.5978 2.27152 12.5383 2.21552C12.413 2.09862 12.1246 2.17352 11.8936 2.26732L2.68164 5.81982C-0.0798606 6.85862 2.22174 7.02172 3.98574 7.71472H3.98645Z" fill="#007AFF"/>
</g>
<defs>
<clipPath id="clip0_1618_27590">
<rect width="14" height="14" fill="white" transform="translate(0 0.0566406)"/>
</clipPath>
</defs>
</svg>
