<svg width="14" height="14" viewBox="0 0 14 14" fill="none" xmlns="http://www.w3.org/2000/svg">
<g clip-path="url(#clip0_2376_8421)">
<path d="M12.6004 3.87657C12.1813 4.06285 11.7364 4.18486 11.2809 4.23847C11.7604 3.95139 12.1194 3.4999 12.291 2.96797C11.84 3.2365 11.3464 3.4259 10.8315 3.52797C10.4851 3.1603 10.0272 2.91689 9.52867 2.83535C9.03012 2.7538 8.51859 2.83864 8.07307 3.07678C7.62754 3.31491 7.2728 3.69309 7.06362 4.15292C6.85444 4.61275 6.80246 5.12865 6.91569 5.62097C6.00205 5.57511 5.10826 5.33765 4.29232 4.92401C3.47639 4.51038 2.75654 3.92981 2.17949 3.21997C1.88575 3.72595 1.79578 4.32482 1.9279 4.89477C2.06002 5.46472 2.40429 5.96294 2.89069 6.28807C2.52599 6.27637 2.16937 6.17774 1.85049 6.00037V6.02907C1.85043 6.55957 2.03385 7.07376 2.36965 7.48445C2.70545 7.89514 3.17295 8.17705 3.69289 8.28237C3.35454 8.37398 2.99979 8.38739 2.65549 8.32157C2.80243 8.77794 3.08826 9.17701 3.47304 9.46302C3.85782 9.74904 4.32234 9.90771 4.80169 9.91687C3.98799 10.5558 2.98305 10.9024 1.94849 10.9011C1.7653 10.9009 1.58228 10.8899 1.40039 10.8682C2.45126 11.5428 3.674 11.901 4.92279 11.9C5.78294 11.906 6.63572 11.7411 7.43159 11.4148C8.22746 11.0884 8.95054 10.6072 9.55884 9.99902C10.1671 9.39085 10.6485 8.66786 10.975 7.87207C11.3015 7.07627 11.4667 6.22353 11.4608 5.36337C11.4608 5.26397 11.4608 5.16457 11.4538 5.06587C11.9038 4.74088 12.2921 4.33812 12.6004 3.87657Z" fill="white"/>
</g>
<defs>
<clipPath id="clip0_2376_8421">
<rect width="14" height="14" fill="white"/>
</clipPath>
</defs>
</svg>
