<svg width="14" height="15" viewBox="0 0 14 15" fill="none" xmlns="http://www.w3.org/2000/svg">
<g clip-path="url(#clip0_1618_27581)">
<path d="M12.6004 3.93321C12.1813 4.1195 11.7364 4.2415 11.2809 4.29511C11.7604 4.00803 12.1194 3.55654 12.291 3.02461C11.84 3.29314 11.3464 3.48254 10.8315 3.58461C10.4851 3.21694 10.0272 2.97354 9.52867 2.89199C9.03012 2.81044 8.51859 2.89528 8.07307 3.13342C7.62754 3.37155 7.2728 3.74973 7.06362 4.20956C6.85444 4.66939 6.80246 5.1853 6.91569 5.67761C6.00205 5.63175 5.10826 5.39429 4.29232 4.98066C3.47639 4.56702 2.75654 3.98645 2.17949 3.27661C1.88575 3.78259 1.79578 4.38146 1.9279 4.95141C2.06002 5.52136 2.40429 6.01958 2.89069 6.34471C2.52599 6.33301 2.16937 6.23438 1.85049 6.05701V6.08571C1.85043 6.61621 2.03385 7.1304 2.36965 7.54109C2.70545 7.95178 3.17295 8.23369 3.69289 8.33901C3.35454 8.43062 2.99979 8.44403 2.65549 8.37821C2.80243 8.83458 3.08826 9.23365 3.47304 9.51966C3.85782 9.80568 4.32234 9.96435 4.80169 9.97351C3.98799 10.6124 2.98305 10.9591 1.94849 10.9577C1.7653 10.9576 1.58228 10.9466 1.40039 10.9248C2.45126 11.5995 3.674 11.9576 4.92279 11.9566C5.78294 11.9627 6.63572 11.7977 7.43159 11.4714C8.22746 11.1451 8.95054 10.6638 9.55884 10.0557C10.1671 9.44749 10.6485 8.72451 10.975 7.92871C11.3015 7.13291 11.4667 6.28017 11.4608 5.42001C11.4608 5.32061 11.4608 5.22121 11.4538 5.12251C11.9038 4.79752 12.2921 4.39476 12.6004 3.93321Z" fill="#007AFF"/>
</g>
<defs>
<clipPath id="clip0_1618_27581">
<rect width="14" height="14" fill="white" transform="translate(0 0.0566406)"/>
</clipPath>
</defs>
</svg>
