<svg width="88" height="89" viewBox="0 0 88 89" fill="none" xmlns="http://www.w3.org/2000/svg">
<g clip-path="url(#clip0_2004_179381)">
<circle cx="43.9995" cy="44.4985" r="37.8335" stroke="#313442" stroke-width="5"/>
<path d="M70.7527 17.7453C71.7285 16.7695 73.3172 16.7646 74.2307 17.799C78.8453 23.0239 82.0369 29.3678 83.4738 36.2181C85.0822 43.8853 84.4228 51.855 81.5763 59.1536C78.7298 66.4523 73.8193 72.764 67.4447 77.3179C61.7493 81.3865 55.1055 83.8945 48.1719 84.6156C46.7993 84.7584 45.6334 83.6792 45.5759 82.3004C45.5184 80.9215 46.5914 79.7663 47.9627 79.6115C53.9259 78.9385 59.6344 76.7557 64.5397 73.2514C70.1245 69.2618 74.4265 63.7321 76.9203 57.3378C79.4142 50.9435 79.9918 43.9613 78.5828 37.2441C77.3451 31.344 74.6218 25.8727 70.6888 21.3401C69.7844 20.2978 69.7768 18.7211 70.7527 17.7453Z" fill="#007AFF"/>
</g>
<defs>
<clipPath id="clip0_2004_179381">
<rect width="88" height="88" fill="white" transform="translate(0 0.5)"/>
</clipPath>
</defs>
</svg>
