<svg width="40" height="40" viewBox="0 0 40 40" fill="none" xmlns="http://www.w3.org/2000/svg">
<g clip-path="url(#clip0_4513_61415)">
<circle cx="19.9994" cy="19.9994" r="16.3334" stroke="#313442" stroke-width="4"/>
<path d="M31.4934 8.50544C32.3051 7.69375 33.6318 7.68724 34.3465 8.58555C36.1187 10.8132 37.354 13.431 37.9423 16.2356C38.6734 19.7207 38.3736 23.3433 37.0798 26.6608C35.7859 29.9784 33.5539 32.8474 30.6563 34.9173C28.3246 36.583 25.6431 37.6733 22.8307 38.1129C21.6965 38.2902 20.7245 37.3871 20.6767 36.2402C20.6289 35.0933 21.5254 34.1402 22.653 33.9253C24.6582 33.5432 26.5657 32.7309 28.24 31.5348C30.4805 29.9342 32.2065 27.7158 33.207 25.1504C34.2074 22.5851 34.4392 19.7839 33.8739 17.089C33.4515 15.0752 32.5977 13.1859 31.3806 11.5471C30.6962 10.6256 30.6817 9.31713 31.4934 8.50544Z" fill="#007AFF"/>
</g>
<defs>
<clipPath id="clip0_4513_61415">
<rect width="40" height="40" fill="white"/>
</clipPath>
</defs>
</svg>
