<svg width="40" height="32" viewBox="0 0 40 32" fill="none" xmlns="http://www.w3.org/2000/svg">
<g clip-path="url(#clip0_4396_54168)">
<path d="M21.4288 4.28571V1.42857C21.4288 1.04969 21.2783 0.686328 21.0104 0.418419C20.7425 0.15051 20.3791 0 20.0002 0C19.6214 0 19.258 0.15051 18.9901 0.418419C18.7222 0.686328 18.5717 1.04969 18.5717 1.42857V4.28571C18.5717 4.66459 18.7222 5.02796 18.9901 5.29587C19.258 5.56378 19.6214 5.71429 20.0002 5.71429C20.3791 5.71429 20.7425 5.56378 21.0104 5.29587C21.2783 5.02796 21.4288 4.66459 21.4288 4.28571ZM13.6145 8.57143C13.866 8.28893 13.9952 7.91825 13.9738 7.54066C13.9523 7.16307 13.782 6.80938 13.5002 6.55714L11.4288 4.64286C11.2881 4.5181 11.1242 4.42228 10.9465 4.36087C10.7688 4.29945 10.5807 4.27364 10.393 4.28492C10.0139 4.30769 9.65935 4.48012 9.40739 4.76429C9.15544 5.04845 9.02668 5.42106 9.04945 5.80015C9.07223 6.17924 9.24466 6.53376 9.52882 6.78571L11.6574 8.68571C11.9178 8.9154 12.253 9.04236 12.6002 9.04286C12.7923 9.03654 12.9812 8.99154 13.1554 8.91053C13.3297 8.82953 13.4859 8.71419 13.6145 8.57143ZM28.4002 8.68571L30.5288 6.78571C30.813 6.52618 30.9824 6.1644 30.9998 5.77995C31.0172 5.3955 30.8812 5.01987 30.6217 4.73571C30.3621 4.45155 30.0004 4.28213 29.6159 4.26472C29.2315 4.2473 28.8558 4.38332 28.5717 4.64286L26.5002 6.55714C26.2871 6.75087 26.1375 7.00451 26.0711 7.28477C26.0046 7.56504 26.0245 7.85884 26.128 8.12763C26.2315 8.39642 26.4138 8.62765 26.651 8.79098C26.8883 8.95431 27.1694 9.04211 27.4574 9.04286C27.8046 9.04236 28.1398 8.9154 28.4002 8.68571Z" fill="white"/>
<path d="M38.5714 32.2856H1.42857C1.04969 32.2856 0.686328 32.1351 0.418419 31.8672C0.15051 31.5993 0 31.236 0 30.8571V13.7142C0 13.3353 0.15051 12.972 0.418419 12.7041C0.686328 12.4362 1.04969 12.2856 1.42857 12.2856H7.14286C7.52174 12.2856 7.8851 12.4362 8.15301 12.7041C8.42092 12.972 8.57143 13.3353 8.57143 13.7142V24.1571H31.4286V13.7142C31.4286 13.3353 31.5791 12.972 31.847 12.7041C32.1149 12.4362 32.4783 12.2856 32.8571 12.2856H38.5714C38.9503 12.2856 39.3137 12.4362 39.5816 12.7041C39.8495 12.972 40 13.3353 40 13.7142V30.8571C40 31.236 39.8495 31.5993 39.5816 31.8672C39.3137 32.1351 38.9503 32.2856 38.5714 32.2856Z" fill="white" stroke="#0F0F12" stroke-width="4"/>
</g>
<defs>
<clipPath id="clip0_4396_54168">
<rect width="40" height="32" fill="white"/>
</clipPath>
</defs>
</svg>
