<svg width="96" height="96" viewBox="0 0 96 96" fill="none" xmlns="http://www.w3.org/2000/svg">
<g clip-path="url(#clip0_504_232060)">
<rect width="96" height="96" rx="48" fill="white"/>
<g clip-path="url(#clip1_504_232060)">
<path d="M47.6418 8.00098L26.1348 35.715L36.8908 61.858L58.3978 34.143L47.6418 8.00098Z" fill="#2470ED"/>
<path d="M47.3048 10.491L56.9548 33.948L37.2288 59.367L27.5778 35.911L47.3048 10.491ZM47.6418 8.00098L26.1348 35.715L36.8908 61.858L58.3978 34.144L47.6418 8.00098Z" fill="#05274C"/>
<path d="M41.0176 31.7581L54.2656 64.2411L82.2836 67.9971L69.0356 35.5141L41.0176 31.7581Z" fill="white"/>
<path d="M43.0056 33.2961L68.1446 36.6671L80.2956 66.4591L55.1566 63.0891L43.0056 33.2961ZM41.0176 31.7581L54.2656 64.2411L82.2836 67.9971L69.0356 35.5141L41.0176 31.7581Z" fill="#05274C"/>
<path d="M82.2835 27.996L47.5285 23.228L30.2695 45.614L65.0215 50.386L82.2835 27.996Z" fill="#85BCFA"/>
<path d="M48.0805 24.575L79.9575 28.948L64.4695 49.035L32.5915 44.662L48.0805 24.575ZM47.5285 23.228L30.2695 45.614L65.0215 50.386L82.2825 27.996L47.5285 23.228Z" fill="#05274C"/>
<path d="M65.0219 50.378L30.2679 45.614L13.0049 68L47.7599 72.768L65.0219 50.378Z" fill="#85BCFA"/>
<path d="M30.8189 46.961L62.6949 51.335L47.2079 71.421L15.3309 67.048L30.8189 46.961ZM30.2669 45.614L13.0049 68L47.7599 72.768L65.0219 50.378L30.2669 45.614Z" fill="#05274C"/>
<path d="M58.3986 34.1431L36.8906 61.8571L47.6476 88.0001L69.1536 60.2861L58.3986 34.1431Z" fill="#2470ED"/>
<path d="M58.0606 36.6331L67.7106 60.0901L47.9846 85.5101L38.3336 62.0521L58.0606 36.6331ZM58.3976 34.1431L36.8906 61.8571L47.6466 88.0001L69.1536 60.2861L58.3976 34.1431Z" fill="#05274C"/>
<path d="M12.9961 28.002L26.2481 60.484L54.2661 64.24L41.0181 31.758L12.9961 28.002Z" fill="white"/>
<path d="M14.9881 29.54L40.1271 32.91L52.2781 62.703L27.1391 59.333L14.9881 29.54ZM12.9961 28.002L26.2481 60.485L54.2661 64.241L41.0181 31.758L12.9961 28.002Z" fill="#05274C"/>
<path d="M47.5145 47.873L47.0695 46.648L47.6145 46.722L41.7915 32.733L41.5455 33.052L40.9545 31.884L40.8945 31.876L30.2695 45.62L47.5145 47.873Z" fill="#85BCFA"/>
<path d="M41.5445 33.052L41.0165 31.758L40.9565 31.75L30.2695 45.615L47.6445 47.999L47.0925 46.652L32.5925 44.662L41.5445 33.052Z" fill="#05274C"/>
</g>
</g>
<defs>
<clipPath id="clip0_504_232060">
<rect width="96" height="96" rx="48" fill="white"/>
</clipPath>
<clipPath id="clip1_504_232060">
<rect width="80" height="80" fill="white" transform="translate(8 8)"/>
</clipPath>
</defs>
</svg>
