<svg width="22" height="22" viewBox="0 0 22 22" fill="none" xmlns="http://www.w3.org/2000/svg">
<g clip-path="url(#clip0_3624_163453)">
<rect x="2" y="2" width="18" height="18" rx="4" fill="white"/>
<g clip-path="url(#clip1_3624_163453)">
<path d="M10.931 3.5L6.89844 8.69637L8.91519 13.5982L12.9478 8.40162L10.931 3.5Z" fill="#2470ED"/>
<path d="M10.8678 3.96687L12.6772 8.36506L8.97856 13.1311L7.169 8.73312L10.8678 3.96687ZM10.931 3.5L6.89844 8.69637L8.91519 13.5982L12.9478 8.40181L10.931 3.5Z" fill="#05274C"/>
<path d="M9.69141 7.95508L12.1754 14.0456L17.4288 14.7499L14.9448 8.65933L9.69141 7.95508Z" fill="white"/>
<path d="M10.0642 8.24345L14.7777 8.87552L17.056 14.4615L12.3425 13.8296L10.0642 8.24345ZM9.69141 7.95508L12.1754 14.0456L17.4288 14.7499L14.9448 8.65933L9.69141 7.95508Z" fill="#05274C"/>
<path d="M17.4284 7.24947L10.9118 6.35547L7.67578 10.5528L14.1918 11.4476L17.4284 7.24947Z" fill="#85BCFA"/>
<path d="M11.0153 6.60803L16.9923 7.42797L14.0883 11.1943L8.11116 10.3743L11.0153 6.60803ZM10.9118 6.35547L7.67578 10.5528L14.1918 11.4476L17.4282 7.24947L10.9118 6.35547Z" fill="#05274C"/>
<path d="M14.1907 11.446L7.67431 10.5527L4.4375 14.7501L10.9541 15.6441L14.1907 11.446Z" fill="#85BCFA"/>
<path d="M7.77762 10.8053L13.7544 11.6254L10.8506 15.3915L4.87362 14.5716L7.77762 10.8053ZM7.67412 10.5527L4.4375 14.7501L10.9541 15.6441L14.1907 11.446L7.67412 10.5527Z" fill="#05274C"/>
<path d="M12.9507 8.40234L8.91797 13.5987L10.9349 18.5005L14.9673 13.3042L12.9507 8.40234Z" fill="#2470ED"/>
<path d="M12.8873 8.86922L14.6967 13.2674L10.9981 18.0337L9.18853 13.6353L12.8873 8.86922ZM12.9505 8.40234L8.91797 13.5987L10.9347 18.5005L14.9673 13.3042L12.9505 8.40234Z" fill="#05274C"/>
<path d="M4.4375 7.25L6.92225 13.3404L12.1756 14.0446L9.69162 7.95425L4.4375 7.25Z" fill="white"/>
<path d="M4.811 7.53838L9.52456 8.17025L11.8029 13.7564L7.08931 13.1246L4.811 7.53838ZM4.4375 7.25L6.92225 13.3406L12.1756 14.0448L9.69162 7.95425L4.4375 7.25Z" fill="#05274C"/>
<path d="M10.9092 10.976L10.8258 10.7463L10.928 10.7602L9.83616 8.13725L9.79003 8.19706L9.67922 7.97806L9.66797 7.97656L7.67578 10.5536L10.9092 10.976Z" fill="#85BCFA"/>
<path d="M9.78984 8.19725L9.69084 7.95462L9.67959 7.95312L7.67578 10.5528L10.9336 10.9998L10.8301 10.7472L8.11134 10.3741L9.78984 8.19725Z" fill="#05274C"/>
</g>
</g>
<rect x="1.25" y="1.25" width="19.5" height="19.5" rx="4.75" stroke="#17181D" stroke-width="1.5"/>
<defs>
<clipPath id="clip0_3624_163453">
<rect x="2" y="2" width="18" height="18" rx="4" fill="white"/>
</clipPath>
<clipPath id="clip1_3624_163453">
<rect width="15" height="15" fill="white" transform="translate(3.5 3.5)"/>
</clipPath>
</defs>
</svg>
