<svg width="16" height="16" viewBox="0 0 16 16" fill="none" xmlns="http://www.w3.org/2000/svg">
<g clip-path="url(#clip0_6215_99143)">
<rect x="1" y="1" width="14" height="14" rx="2" fill="white"/>
<g clip-path="url(#clip1_6215_99143)">
<path d="M7.94894 2.16602L4.8125 6.20764L6.38108 10.0202L9.51752 5.97839L7.94894 2.16602Z" fill="#2470ED"/>
<path d="M7.89979 2.52914L9.30708 5.94995L6.43037 9.65689L5.02294 6.23622L7.89979 2.52914ZM7.94894 2.16602L4.8125 6.20764L6.38108 10.0202L9.51752 5.97854L7.94894 2.16602Z" fill="#05274C"/>
<path d="M6.98438 5.63086L8.91638 10.368L13.0023 10.9157L11.0703 6.17861L6.98438 5.63086Z" fill="white"/>
<path d="M7.27429 5.85515L10.9404 6.34676L12.7124 10.6914L9.04631 10.2L7.27429 5.85515ZM6.98438 5.63086L8.91638 10.368L13.0023 10.9157L11.0703 6.17861L6.98438 5.63086Z" fill="#05274C"/>
<path d="M12.9994 5.08205L7.931 4.38672L5.41406 7.65134L10.4821 8.34726L12.9994 5.08205Z" fill="#85BCFA"/>
<path d="M8.0115 4.58316L12.6602 5.22089L10.4016 8.15024L5.75269 7.51251L8.0115 4.58316ZM7.931 4.38672L5.41406 7.65134L10.4821 8.34726L12.9993 5.08205L7.931 4.38672Z" fill="#05274C"/>
<path d="M10.4843 8.34709L5.41596 7.65234L2.89844 10.917L7.96688 11.6123L10.4843 8.34709Z" fill="#85BCFA"/>
<path d="M5.49631 7.84878L10.1449 8.48666L7.88638 11.4159L3.23765 10.7781L5.49631 7.84878ZM5.41581 7.65234L2.89844 10.917L7.96688 11.6123L10.4843 8.34709L5.41581 7.65234Z" fill="#05274C"/>
<path d="M9.5194 5.97852L6.38281 10.0201L7.95154 13.8327L11.0878 9.79104L9.5194 5.97852Z" fill="#2470ED"/>
<path d="M9.4701 6.34164L10.8774 9.76245L8.00069 13.4695L6.59325 10.0486L9.4701 6.34164ZM9.51925 5.97852L6.38281 10.0201L7.9514 13.8327L11.0878 9.79104L9.51925 5.97852Z" fill="#05274C"/>
<path d="M2.89844 5.08203L4.83102 9.81899L8.91698 10.3667L6.98498 5.62978L2.89844 5.08203Z" fill="white"/>
<path d="M3.18894 5.30632L6.85504 5.79778L8.62706 10.1426L4.96096 9.65113L3.18894 5.30632ZM2.89844 5.08203L4.83102 9.81914L8.91698 10.3669L6.98498 5.62978L2.89844 5.08203Z" fill="#05274C"/>
<path d="M7.92896 7.98133L7.86406 7.80269L7.94354 7.81348L7.09435 5.77342L7.05848 5.81994L6.97229 5.6496L6.96354 5.64844L5.41406 7.65277L7.92896 7.98133Z" fill="#85BCFA"/>
<path d="M7.05833 5.81878L6.98133 5.63007L6.97258 5.62891L5.41406 7.65089L7.94792 7.99855L7.86742 7.80211L5.75283 7.51191L7.05833 5.81878Z" fill="#05274C"/>
</g>
</g>
<rect x="0.5" y="0.5" width="15" height="15" rx="2.5" stroke="#1F2128"/>
<defs>
<clipPath id="clip0_6215_99143">
<rect x="1" y="1" width="14" height="14" rx="2" fill="white"/>
</clipPath>
<clipPath id="clip1_6215_99143">
<rect width="11.6667" height="11.6667" fill="white" transform="translate(2.16797 2.16602)"/>
</clipPath>
</defs>
</svg>
