<svg width="24" height="24" viewBox="0 0 24 24" fill="none" xmlns="http://www.w3.org/2000/svg">
<rect x="1" y="1" width="22" height="22" rx="5" fill="#05274C"/>
<g clip-path="url(#clip0_1990_5043)">
<path d="M7.10384 3.45825L6.88587 3.838L2.20801 11.9727L5.32644 17.396L6.88587 20.1079L7.10384 20.4872H16.8955L20.0139 15.0644L21.5729 12.3525L21.7913 11.9727L21.5729 11.5934L16.8955 3.45825H7.10384Z" fill="#1C1C1C"/>
<path d="M7.10384 3.45825L6.88587 3.838L2.20801 11.9727L5.32644 17.396L6.88587 20.1079L7.10384 20.4872H16.8955L20.0139 15.0644L21.5729 12.3525L21.7913 11.9727L21.5729 11.5934L16.8955 3.45825H7.10384Z" fill="#05274C"/>
<path d="M20.7001 12.3518L19.5774 14.3042H11.0953L12.2162 12.3518H20.7001ZM14.2052 17.016H9.53418L10.6568 15.0637H15.3279L14.2052 17.016Z" fill="#85BCFA"/>
<path d="M10.0041 9.26121L7.10408 14.3048L5.98145 12.3524L8.88148 7.30884L10.0041 9.26121Z" fill="#2470ED"/>
<path d="M11.5631 11.9728L7.3199 19.348L6.19727 17.3956L10.4383 10.0195L11.5631 11.9728Z" fill="#2470ED"/>
<path d="M12.2176 11.593L7.97656 4.21729H10.2218L14.4629 11.593H12.2176ZM15.3356 11.593L12.872 7.3089H15.1172L17.5813 11.593H15.3356Z" fill="white"/>
</g>
<rect x="1" y="1" width="22" height="22" rx="5" stroke="#0F0F12" stroke-width="2"/>
<defs>
<clipPath id="clip0_1990_5043">
<rect width="19.5833" height="17.029" fill="white" transform="translate(2.20801 3.45825)"/>
</clipPath>
</defs>
</svg>
