<svg width="16" height="16" viewBox="0 0 16 16" fill="none" xmlns="http://www.w3.org/2000/svg">
<rect x="0.5" y="0.5" width="15" height="15" rx="2.5" fill="#05274C"/>
<rect x="0.5" y="0.5" width="15" height="15" rx="2.5" stroke="#1F2128"/>
<g clip-path="url(#clip0_6213_17284)">
<path d="M4.57308 2.02148L4.4205 2.28731L1.146 7.98163L3.3289 11.7779L4.4205 13.6763L4.57308 13.9418H11.4272L13.6101 10.1458L14.7015 8.24745L14.8543 7.98163L14.7015 7.7161L11.4272 2.02148H4.57308Z" fill="#1C1C1C"/>
<path d="M4.57308 2.02148L4.4205 2.28731L1.146 7.98163L3.3289 11.7779L4.4205 13.6763L4.57308 13.9418H11.4272L13.6101 10.1458L14.7015 8.24745L14.8543 7.98163L14.7015 7.7161L11.4272 2.02148H4.57308Z" fill="#05274C"/>
<path d="M14.0905 8.24609L13.3047 9.61276H7.36721L8.15186 8.24609H14.0905ZM9.54415 11.5111H6.27441L7.06026 10.1444H10.33L9.54415 11.5111Z" fill="#85BCFA"/>
<path d="M6.60298 6.08346L4.57295 9.61395L3.78711 8.24729L5.81714 4.7168L6.60298 6.08346Z" fill="#2470ED"/>
<path d="M7.69456 7.98249L4.72432 13.1452L3.93848 11.7785L6.90723 6.61523L7.69456 7.98249Z" fill="#2470ED"/>
<path d="M8.15283 7.71571L5.18408 2.55273H6.75577L9.72452 7.71571H8.15283ZM10.3354 7.71571L8.61087 4.71686H10.1826L11.9074 7.71571H10.3354Z" fill="white"/>
</g>
<defs>
<clipPath id="clip0_6213_17284">
<rect width="13.7083" height="11.9203" fill="white" transform="translate(1.146 2.02148)"/>
</clipPath>
</defs>
</svg>
