<svg width="22" height="22" viewBox="0 0 22 22" fill="none" xmlns="http://www.w3.org/2000/svg">
<rect x="1.25" y="1.25" width="19.5" height="19.5" rx="4.75" fill="#05274C"/>
<rect x="1.25" y="1.25" width="19.5" height="19.5" rx="4.75" stroke="#17181D" stroke-width="1.5"/>
<g clip-path="url(#clip0_3671_187367)">
<path d="M6.59375 3.3125L6.39758 3.65427L2.1875 10.9755L4.99409 15.8565L6.39758 18.2972L6.59375 18.6386H15.4062L18.2128 13.758L19.6159 11.3173L19.8125 10.9755L19.6159 10.6342L15.4062 3.3125H6.59375Z" fill="#1C1C1C"/>
<path d="M6.59375 3.3125L6.39758 3.65427L2.1875 10.9755L4.99409 15.8565L6.39758 18.2972L6.59375 18.6386H15.4062L18.2128 13.758L19.6159 11.3173L19.8125 10.9755L19.6159 10.6342L15.4062 3.3125H6.59375Z" fill="#05274C"/>
<path d="M18.8306 11.3164L17.8202 13.0735H10.1863L11.1951 11.3164H18.8306ZM12.9852 15.5142H8.78125L9.79162 13.7571H13.9956L12.9852 15.5142Z" fill="#85BCFA"/>
<path d="M9.20244 8.53448L6.5924 13.0737L5.58203 11.3165L8.19206 6.77734L9.20244 8.53448Z" fill="#2470ED"/>
<path d="M10.6066 10.9747L6.78772 17.6124L5.77734 15.8553L9.59431 9.2168L10.6066 10.9747Z" fill="#2470ED"/>
<path d="M11.1959 10.6342L7.37891 3.99609H9.39965L13.2166 10.6342H11.1959ZM14.0021 10.6342L11.7848 6.77854H13.8055L16.0232 10.6342H14.0021Z" fill="white"/>
</g>
<defs>
<clipPath id="clip0_3671_187367">
<rect width="17.625" height="15.3261" fill="white" transform="translate(2.1875 3.3125)"/>
</clipPath>
</defs>
</svg>
