<svg width="18" height="18" viewBox="0 0 18 18" fill="none" xmlns="http://www.w3.org/2000/svg">
<rect width="18" height="18" rx="2" fill="#05274C"/>
<g clip-path="url(#clip0_6822_7462)">
<path d="M4.59375 1.3125L4.39758 1.65427L0.1875 8.97554L2.99409 13.8565L4.39758 16.2972L4.59375 16.6386H13.4062L16.2128 11.758L17.6159 9.31732L17.8125 8.97554L17.6159 8.63415L13.4062 1.3125L4.59375 1.3125Z" fill="#1C1C1C"/>
<path d="M4.59375 1.3125L4.39758 1.65427L0.1875 8.97554L2.99409 13.8565L4.39758 16.2972L4.59375 16.6386H13.4062L16.2128 11.758L17.6159 9.31732L17.8125 8.97554L17.6159 8.63415L13.4062 1.3125L4.59375 1.3125Z" fill="#05274C"/>
<path d="M16.8305 9.31689L15.8201 11.074H8.18621L9.19505 9.31689H16.8305ZM10.9851 13.5147H6.78119L7.79156 11.7576H11.9955L10.9851 13.5147Z" fill="#85BCFA"/>
<path d="M7.20378 6.53521L4.59375 11.0744L3.58337 9.31728L6.19341 4.77808L7.20378 6.53521Z" fill="#2470ED"/>
<path d="M8.60733 8.97568L4.78845 15.6134L3.77808 13.8563L7.59504 7.21777L8.60733 8.97568Z" fill="#2470ED"/>
<path d="M9.19623 8.63372L5.37927 1.99561H7.40002L11.217 8.63372H9.19623ZM12.0024 8.63372L9.78514 4.77806H11.8059L14.0236 8.63372H12.0024Z" fill="white"/>
</g>
<defs>
<clipPath id="clip0_6822_7462">
<rect width="17.625" height="15.3261" fill="white" transform="translate(0.1875 1.3125)"/>
</clipPath>
</defs>
</svg>
