<svg width="96" height="96" viewBox="0 0 96 96" fill="none" xmlns="http://www.w3.org/2000/svg">
<g clip-path="url(#clip0_767_6085)">
<rect width="96" height="96" rx="48" fill="white"/>
<mask id="mask0_767_6085" style="mask-type:luminance" maskUnits="userSpaceOnUse" x="0" y="0" width="96" height="96">
<path d="M0 0H96V96H0V0Z" fill="white"/>
</mask>
<g mask="url(#mask0_767_6085)">
<path d="M81.9385 14.0591C77.4812 9.60141 72.1895 6.06532 66.3655 3.65279C60.5416 1.24025 54.2995 -0.00146484 47.9956 -0.00146484C41.6917 -0.00146484 35.4496 1.24025 29.6257 3.65279C23.8017 6.06532 18.51 9.60141 14.0527 14.0591L47.9979 47.9997L81.9385 14.0591Z" fill="#F6F973"/>
<path d="M14.0577 14.0586C9.59995 18.5159 6.06385 23.8076 3.65132 29.6315C1.23879 35.4555 -0.00292969 41.6976 -0.00292969 48.0015C-0.00292969 54.3053 1.23879 60.5474 3.65132 66.3714C6.06385 72.1953 9.59995 77.487 14.0577 81.9443L47.9982 47.9992L14.0577 14.0586Z" fill="#7BFF8F"/>
<path d="M14.0576 81.9401C18.5149 86.3978 23.8066 89.9339 29.6305 92.3464C35.4545 94.759 41.6966 96.0007 48.0005 96.0007C54.3043 96.0007 60.5465 94.759 66.3704 92.3464C72.1944 89.9339 77.4861 86.3978 81.9433 81.9401L47.9982 47.9995L14.0576 81.9401Z" fill="#124F9C"/>
<path d="M81.9396 14.0588L47.999 47.9993L81.9396 81.9399C86.3973 77.4826 89.9334 72.1909 92.3459 66.367C94.7585 60.5431 96.0002 54.3009 96.0002 47.9971C96.0002 41.6932 94.7585 35.4511 92.3459 29.6271C89.9334 23.8032 86.3973 18.5115 81.9396 14.0542" fill="#FF7C32"/>
</g>
</g>
<defs>
<clipPath id="clip0_767_6085">
<rect width="96" height="96" rx="48" fill="white"/>
</clipPath>
</defs>
</svg>
