<svg width="97" height="96" viewBox="0 0 97 96" fill="none" xmlns="http://www.w3.org/2000/svg">
<g clip-path="url(#clip0_1069_16818)">
<rect x="0.249023" width="96" height="96" rx="48" fill="#627EEA"/>
<path d="M48.249 96C74.7587 96 96.249 74.5097 96.249 48C96.249 21.4903 74.7587 0 48.249 0C21.7394 0 0.249023 21.4903 0.249023 48C0.249023 74.5097 21.7394 96 48.249 96Z" fill="#627EEA"/>
<path d="M49.7451 11.9937V38.6049L72.2361 48.6563L49.7451 11.9937Z" fill="white" fill-opacity="0.602"/>
<path d="M49.7449 11.9937L27.2539 48.6563L49.7449 38.6049V11.9937Z" fill="white"/>
<path d="M49.7451 65.8981V83.9801L72.2492 52.8418L49.7451 65.8981Z" fill="white" fill-opacity="0.602"/>
<path d="M49.7449 83.9801V65.8981L27.2539 52.8418L49.7449 83.9801Z" fill="white"/>
<path d="M49.7451 61.7122L72.2361 48.6559L49.7451 38.6045V61.7122Z" fill="white" fill-opacity="0.2"/>
<path d="M27.2539 48.6559L49.7449 61.7122V38.6045L27.2539 48.6559Z" fill="white" fill-opacity="0.602"/>
</g>
<defs>
<clipPath id="clip0_1069_16818">
<rect x="0.249023" width="96" height="96" rx="48" fill="white"/>
</clipPath>
</defs>
</svg>
