<svg width="96" height="96" viewBox="0 0 96 96" fill="none" xmlns="http://www.w3.org/2000/svg">
<rect width="96" height="96" rx="48" fill="white"/>
<path d="M23 65.689H24.8058V75.7461H30.1897V77.2598H23V65.689Z" fill="#4361EE"/>
<path d="M35.6454 65.689L38.7414 70.938H38.8686L41.9646 65.689H44.0204L39.7123 72.7231V77.2598H37.8998V72.7231L33.5918 65.689H35.6476H35.6454Z" fill="#4361EE"/>
<path d="M50.6857 77.2593H48.8799V65.6884H50.6857V77.2593ZM49.7973 77.2593V75.7217H52.6433C53.5384 75.7217 54.2839 75.5566 54.8843 75.2265C55.4848 74.8964 55.9335 74.4165 56.2281 73.7824C56.525 73.1504 56.6723 72.3729 56.6723 71.4543C56.6723 70.5357 56.525 69.7734 56.2303 69.1436C55.9357 68.5138 55.4982 68.0382 54.9156 67.7103C54.333 67.3845 53.6098 67.2216 52.746 67.2216H49.7326V65.6841H52.8576C54.0183 65.6841 55.0205 65.9143 55.8598 66.3725C56.6991 66.8329 57.3419 67.4953 57.7884 68.364C58.2326 69.2326 58.4558 70.262 58.4558 71.4521C58.4558 72.6422 58.2303 73.689 57.7817 74.5598C57.333 75.4307 56.679 76.0974 55.8218 76.56C54.9647 77.0225 53.9379 77.2549 52.7415 77.2549H49.7973V77.2593Z" fill="#4361EE"/>
<path d="M62.3548 77.2598L66.6293 65.689H68.7253L72.9999 77.2598H71.078L67.7208 67.802H67.6271L64.27 77.2598H62.3525H62.3548ZM70.77 72.7275V74.202H64.5847V72.7275H70.77Z" fill="#4361EE"/>
<path d="M72.5586 61.7747H23.0273V18.2603H27.0318V57.8765H72.5586V61.7747Z" fill="#4361EE"/>
<path d="M35.4722 18.2603H31.4678V52.8316H35.4722V18.2603Z" fill="#4361EE"/>
<path d="M72.6924 52.6821H39.8486V18H58.6812C66.4067 18 72.6924 24.1155 72.6924 31.6318V52.6821ZM43.8553 48.7861H68.6879V31.6318C68.6879 26.2655 64.1991 21.8982 58.6835 21.8982H43.8553V48.7861Z" fill="#4361EE"/>
</svg>
