<svg width="96" height="96" viewBox="0 0 96 96" fill="none" xmlns="http://www.w3.org/2000/svg">
<rect x="1.5" y="1.5" width="93" height="93" rx="46.5" fill="white"/>
<path d="M33.1 55C32.86 55 32.66 54.92 32.5 54.76C32.34 54.6 32.26 54.4067 32.26 54.18V41.82H33.96V54.18C33.96 54.4067 33.88 54.6 33.72 54.76C33.56 54.92 33.3533 55 33.1 55ZM28.46 42.52C28.2333 42.52 28.04 42.4533 27.88 42.32C27.7333 42.1733 27.66 41.9867 27.66 41.76C27.66 41.5333 27.7333 41.3533 27.88 41.22C28.04 41.0733 28.2333 41 28.46 41H37.76C37.9867 41 38.18 41.0733 38.34 41.22C38.5 41.3533 38.58 41.5333 38.58 41.76C38.58 42 38.5 42.1867 38.34 42.32C38.18 42.4533 37.9867 42.52 37.76 42.52H28.46ZM53.2159 48C53.2159 49.0267 53.0493 49.98 52.7159 50.86C52.3826 51.7267 51.9159 52.4867 51.3159 53.14C50.7159 53.7933 50.0026 54.3 49.1759 54.66C48.3493 55.02 47.4493 55.2 46.4759 55.2C45.4893 55.2 44.5826 55.02 43.7559 54.66C42.9426 54.3 42.2359 53.7933 41.6359 53.14C41.0359 52.4867 40.5693 51.7267 40.2359 50.86C39.9026 49.98 39.7359 49.0267 39.7359 48C39.7359 46.96 39.9026 46.0067 40.2359 45.14C40.5693 44.26 41.0359 43.5 41.6359 42.86C42.2359 42.2067 42.9426 41.7 43.7559 41.34C44.5826 40.98 45.4893 40.8 46.4759 40.8C47.4493 40.8 48.3493 40.98 49.1759 41.34C50.0026 41.7 50.7159 42.2067 51.3159 42.86C51.9159 43.5 52.3826 44.26 52.7159 45.14C53.0493 46.0067 53.2159 46.96 53.2159 48ZM51.4959 48C51.4959 46.9067 51.2759 45.94 50.8359 45.1C50.4093 44.26 49.8226 43.6 49.0759 43.12C48.3293 42.64 47.4626 42.4 46.4759 42.4C45.4893 42.4 44.6159 42.64 43.8559 43.12C43.1093 43.6 42.5226 44.26 42.0959 45.1C41.6693 45.94 41.4559 46.9067 41.4559 48C41.4559 49.08 41.6693 50.0467 42.0959 50.9C42.5226 51.74 43.1093 52.4 43.8559 52.88C44.6159 53.36 45.4893 53.6 46.4759 53.6C47.4626 53.6 48.3293 53.36 49.0759 52.88C49.8226 52.4 50.4093 51.74 50.8359 50.9C51.2759 50.0467 51.4959 49.08 51.4959 48ZM65.7494 55.04C65.5094 55.04 65.3094 54.94 65.1494 54.74L59.8294 47.96L61.0494 46.72L66.4694 53.66C66.5894 53.8333 66.6494 54.0133 66.6494 54.2C66.6494 54.4667 66.5494 54.6733 66.3494 54.82C66.1627 54.9667 65.9627 55.04 65.7494 55.04ZM65.6894 40.98C65.9027 40.98 66.076 41.0667 66.2094 41.24C66.356 41.4133 66.4294 41.5933 66.4294 41.78C66.4294 41.9667 66.3494 42.14 66.1894 42.3L57.3494 50.66L57.2094 48.8L65.0494 41.28C65.2494 41.08 65.4627 40.98 65.6894 40.98ZM56.6894 55C56.436 55 56.236 54.92 56.0894 54.76C55.9427 54.6 55.8694 54.4067 55.8694 54.18V41.82C55.8694 41.58 55.9494 41.3867 56.1094 41.24C56.2694 41.08 56.4694 41 56.7094 41C56.9627 41 57.1627 41.08 57.3094 41.24C57.456 41.3867 57.5294 41.58 57.5294 41.82V54.18C57.5294 54.4067 57.4494 54.6 57.2894 54.76C57.1427 54.92 56.9427 55 56.6894 55Z" fill="#9E9E9E"/>
<rect x="1.5" y="1.5" width="93" height="93" rx="46.5" stroke="#9E9E9E" stroke-width="3"/>
</svg>
