<svg width="40" height="40" viewBox="0 0 40 40" fill="none" xmlns="http://www.w3.org/2000/svg">
<path d="M0 0H28C34.6274 0 40 5.37258 40 12V40H12C5.37258 40 0 34.6274 0 28V0Z" fill="#05274C"/>
<g clip-path="url(#clip0_5914_62111)">
<path d="M10.2082 2.91675L9.77223 3.67624L0.416504 19.9457L6.65337 30.7923L9.77223 36.2161L10.2082 36.9747H29.7915L36.0284 26.129L39.1464 20.7052L39.5832 19.9457L39.1464 19.1871L29.7915 2.91675H10.2082Z" fill="#1C1C1C"/>
<path d="M10.2082 2.91675L9.77223 3.67624L0.416504 19.9457L6.65337 30.7923L9.77223 36.2161L10.2082 36.9747H29.7915L36.0284 26.129L39.1464 20.7052L39.5832 19.9457L39.1464 19.1871L29.7915 2.91675H10.2082Z" fill="#05274C"/>
<path d="M37.4007 20.7041L35.1554 24.6088H18.1911L20.433 20.7041H37.4007ZM24.4109 30.0326H15.0688L17.3141 26.1278H26.6562L24.4109 30.0326Z" fill="#85BCFA"/>
<path d="M16.0082 14.5229L10.2082 24.61L7.96289 20.7053L13.763 10.6182L16.0082 14.5229Z" fill="#2470ED"/>
<path d="M19.1272 19.9458L10.6408 34.6963L8.39551 30.7915L16.8776 16.0393L19.1272 19.9458Z" fill="#2470ED"/>
<path d="M20.4358 19.1862L11.9536 4.43481H16.4442L24.9263 19.1862H20.4358ZM26.6718 19.1862L21.7444 10.618H26.235L31.1632 19.1862H26.6718Z" fill="white"/>
</g>
<defs>
<clipPath id="clip0_5914_62111">
<rect width="39.1667" height="34.058" fill="white" transform="translate(0.416504 2.91675)"/>
</clipPath>
</defs>
</svg>
