<svg width="66" height="66" viewBox="0 0 66 66" fill="none" xmlns="http://www.w3.org/2000/svg">
<rect x="1.5" y="1.5" width="61" height="61" rx="30.5" fill="white"/>
<path d="M17.1 39C16.86 39 16.66 38.92 16.5 38.76C16.34 38.6 16.26 38.4067 16.26 38.18V25.82H17.96V38.18C17.96 38.4067 17.88 38.6 17.72 38.76C17.56 38.92 17.3533 39 17.1 39ZM12.46 26.52C12.2333 26.52 12.04 26.4533 11.88 26.32C11.7333 26.1733 11.66 25.9867 11.66 25.76C11.66 25.5333 11.7333 25.3533 11.88 25.22C12.04 25.0733 12.2333 25 12.46 25H21.76C21.9867 25 22.18 25.0733 22.34 25.22C22.5 25.3533 22.58 25.5333 22.58 25.76C22.58 26 22.5 26.1867 22.34 26.32C22.18 26.4533 21.9867 26.52 21.76 26.52H12.46ZM37.2159 32C37.2159 33.0267 37.0493 33.98 36.7159 34.86C36.3826 35.7267 35.9159 36.4867 35.3159 37.14C34.7159 37.7933 34.0026 38.3 33.1759 38.66C32.3493 39.02 31.4493 39.2 30.4759 39.2C29.4893 39.2 28.5826 39.02 27.7559 38.66C26.9426 38.3 26.2359 37.7933 25.6359 37.14C25.0359 36.4867 24.5693 35.7267 24.2359 34.86C23.9026 33.98 23.7359 33.0267 23.7359 32C23.7359 30.96 23.9026 30.0067 24.2359 29.14C24.5693 28.26 25.0359 27.5 25.6359 26.86C26.2359 26.2067 26.9426 25.7 27.7559 25.34C28.5826 24.98 29.4893 24.8 30.4759 24.8C31.4493 24.8 32.3493 24.98 33.1759 25.34C34.0026 25.7 34.7159 26.2067 35.3159 26.86C35.9159 27.5 36.3826 28.26 36.7159 29.14C37.0493 30.0067 37.2159 30.96 37.2159 32ZM35.4959 32C35.4959 30.9067 35.2759 29.94 34.8359 29.1C34.4093 28.26 33.8226 27.6 33.0759 27.12C32.3293 26.64 31.4626 26.4 30.4759 26.4C29.4893 26.4 28.6159 26.64 27.8559 27.12C27.1093 27.6 26.5226 28.26 26.0959 29.1C25.6693 29.94 25.4559 30.9067 25.4559 32C25.4559 33.08 25.6693 34.0467 26.0959 34.9C26.5226 35.74 27.1093 36.4 27.8559 36.88C28.6159 37.36 29.4893 37.6 30.4759 37.6C31.4626 37.6 32.3293 37.36 33.0759 36.88C33.8226 36.4 34.4093 35.74 34.8359 34.9C35.2759 34.0467 35.4959 33.08 35.4959 32ZM49.7494 39.04C49.5094 39.04 49.3094 38.94 49.1494 38.74L43.8294 31.96L45.0494 30.72L50.4694 37.66C50.5894 37.8333 50.6494 38.0133 50.6494 38.2C50.6494 38.4667 50.5494 38.6733 50.3494 38.82C50.1627 38.9667 49.9627 39.04 49.7494 39.04ZM49.6894 24.98C49.9027 24.98 50.076 25.0667 50.2094 25.24C50.356 25.4133 50.4294 25.5933 50.4294 25.78C50.4294 25.9667 50.3494 26.14 50.1894 26.3L41.3494 34.66L41.2094 32.8L49.0494 25.28C49.2494 25.08 49.4627 24.98 49.6894 24.98ZM40.6894 39C40.436 39 40.236 38.92 40.0894 38.76C39.9427 38.6 39.8694 38.4067 39.8694 38.18V25.82C39.8694 25.58 39.9494 25.3867 40.1094 25.24C40.2694 25.08 40.4694 25 40.7094 25C40.9627 25 41.1627 25.08 41.3094 25.24C41.456 25.3867 41.5294 25.58 41.5294 25.82V38.18C41.5294 38.4067 41.4494 38.6 41.2894 38.76C41.1427 38.92 40.9427 39 40.6894 39Z" fill="#9E9E9E"/>
<rect x="1.5" y="1.5" width="61" height="61" rx="30.5" stroke="#9E9E9E" stroke-width="3"/>
<rect x="43" y="43" width="22" height="22" rx="5" fill="#383736"/>
<g clip-path="url(#clip0_1335_1777)">
<path fill-rule="evenodd" clip-rule="evenodd" d="M53.984 57.7745L49.626 55.4805L53.984 46.503V46.5L58.3575 55.4805L53.984 57.7745Z" fill="white"/>
<path fill-rule="evenodd" clip-rule="evenodd" d="M53.984 61.4996L49.626 55.8086L53.984 58.2001L58.3575 55.8086L53.984 61.4996Z" fill="white"/>
</g>
<rect x="43" y="43" width="22" height="22" rx="5" stroke="#0F0F12" stroke-width="2"/>
<defs>
<clipPath id="clip0_1335_1777">
<rect width="8.732" height="15" fill="white" transform="translate(49.625 46.5)"/>
</clipPath>
</defs>
</svg>
