<svg width="66" height="66" viewBox="0 0 66 66" fill="none" xmlns="http://www.w3.org/2000/svg">
<rect width="64" height="64" rx="32" fill="white"/>
<path d="M8.73983 27.2786C8.59163 27.746 8.40922 28.376 8.29102 28.8542C8.37308 28.5229 8.52553 28.2132 8.73798 27.9461C8.95043 27.679 9.2179 27.4608 9.52222 27.3062C10.1246 26.5393 10.8941 25.92 11.7721 25.4955C12.6501 25.0711 13.6134 24.8527 14.5886 24.857V24.839C10.9496 23.801 9.82042 24.9896 9.50482 25.5482C9.20608 26.1043 8.95072 26.6826 8.74102 27.278" fill="#007AFF"/>
<path d="M12.5118 21.7269L11.9766 22.2369C12.5922 21.7353 13.6074 21.8516 15.1704 22.6046C15.5096 22.0013 15.9396 21.4537 16.4454 20.981C15.7044 20.4446 14.9532 19.9772 14.4762 20.1968C13.7846 20.6579 13.1279 21.1691 12.5112 21.7263" fill="#007AFF"/>
<path d="M19.9901 17.5446C19.4345 17.7474 18.6947 18.018 18.1445 18.2412C18.4324 18.5445 18.6912 18.8741 18.9173 19.2258C19.7468 18.7801 20.6093 18.399 21.4973 18.0858C21.3479 17.469 21.3113 17.1613 21.5015 17.0833C21.0473 17.2207 20.4389 17.3904 19.9889 17.5464" fill="#007AFF"/>
<path d="M29.0135 15.8592C28.1681 15.9276 27.0419 16.032 26.1989 16.1304C25.7585 16.239 25.5641 16.395 25.3457 17.0544C26.4953 16.8377 27.6558 16.6838 28.8221 16.5936C28.995 16.353 29.2216 16.1561 29.484 16.0185C29.7464 15.8809 30.0373 15.8064 30.3335 15.801L29.0135 15.861" fill="#007AFF"/>
<path d="M38.4046 16.3627C37.6138 16.2427 36.559 16.0939 35.7646 16.0027C34.9711 15.909 34.17 16.0979 33.502 16.5361C34.7135 16.5983 35.921 16.7242 37.1193 16.9135C38.015 16.5304 39.0097 16.444 39.958 16.6669C39.4918 16.5751 38.8732 16.4407 38.4046 16.3669" fill="#007AFF"/>
<path d="M46.8773 19.023C46.2905 18.753 45.5075 18.399 44.9123 18.1536C43.7397 17.6712 42.4459 17.5664 41.2109 17.8536C42.177 18.15 43.1221 18.5108 44.04 18.9336C45.6581 18.7378 47.2936 19.1175 48.6599 20.0064C48.1283 19.7022 47.4209 19.2906 46.8743 19.023" fill="#007AFF"/>
<path d="M55.2864 27.7679C54.8899 26.6424 54.3438 25.5755 53.6628 24.5957L53.2428 24.0227C51.3564 21.7283 49.455 20.7119 46.8828 20.6243C47.4866 21.0801 48.0308 21.6098 48.5028 22.2011C52.7778 22.8011 55.7202 26.5331 55.9986 31.7075C55.9632 30.3656 55.7222 29.0372 55.284 27.7685" fill="#007AFF"/>
<path d="M49.1762 43.6213C49.9931 43.0959 50.7675 42.5071 51.4922 41.8603C51.7652 41.5969 52.1312 41.2489 52.3922 40.9729C57.7244 34.8385 55.3016 25.9861 49.5764 24.3811C49.6378 24.6601 49.671 24.9445 49.6754 25.2301V25.3825C49.6696 25.6639 49.6361 25.9441 49.5752 26.2189C55.7 28.9633 55.0982 39.9157 48.5996 43.9747L49.1744 43.6219" fill="#007AFF"/>
<path d="M41.1679 46.847C41.9653 46.6424 43.0243 46.349 43.8151 46.109C51.6547 43.1834 52.9051 31.2374 48.5047 28.364C48.032 28.9402 47.4876 29.4536 46.8847 29.8916C50.6047 33.9674 46.7923 45.482 39.8047 47.1356L41.1667 46.8476" fill="#007AFF"/>
<path d="M32.0446 47.8007C32.7838 47.7941 33.7702 47.7839 34.5094 47.7551C41.0212 47.0873 45.6556 35.2151 44.0428 31.4993C43.1239 31.8969 42.1787 32.2305 41.2138 32.4977C41.1988 37.2467 34.7602 47.8577 30.1426 47.7377C30.7132 47.7581 31.474 47.7977 32.044 47.7977" fill="#007AFF"/>
<path d="M22.6001 46.5767C23.3273 46.7507 24.2999 46.9733 25.0313 47.1215C27.7481 47.3201 34.5899 38.1623 37.1165 33.3215C35.9131 33.4758 34.7024 33.5666 33.4895 33.5933C31.5173 35.4941 26.3129 41.4725 25.2899 42.6533C22.6559 45.6893 21.6767 46.2653 21.3203 46.2137L22.6001 46.5773" fill="#007AFF"/>
<path d="M14.6627 43.1481C15.4511 43.6731 16.2729 44.1463 17.1227 44.5647L17.1923 44.5989C17.3381 43.8267 23.8133 36.1467 28.8125 33.3987C27.6468 33.2743 26.4888 33.087 25.3433 32.8376C19.3709 35.1104 13.2743 42.0645 14.3237 42.9177L14.6597 43.1481" fill="#007AFF"/>
<path d="M10.343 38.9934C10.6256 39.3708 11.0072 39.8724 11.3078 40.2306C9.96257 38.1954 15.6344 32.925 21.503 31.6962C20.6138 31.3564 19.7513 30.9502 18.923 30.4812C13.523 31.0638 8.38277 34.8612 9.43997 37.4916C9.69917 37.9524 10.046 38.5656 10.3448 38.9916" fill="#007AFF"/>
<path d="M8.00195 31.5392V31.796C8.02535 32.2418 8.06194 32.8352 8.11174 33.2774C7.96654 30.3866 12.3873 28.5188 16.4463 28.6514C15.9401 28.1639 15.5099 27.6033 15.1701 26.9882C11.7387 26.5508 9.86314 27.4298 8.89294 28.2428C8.32877 29.2511 8.02307 30.3834 8.00314 31.5386" fill="#007AFF"/>
<rect x="43" y="43" width="22" height="22" rx="5" fill="#05274C"/>
<g clip-path="url(#clip0_1335_3660)">
<path d="M49.1038 45.4583L48.8859 45.838L44.208 53.9727L47.3264 59.396L48.8859 62.1079L49.1038 62.4872H58.8955L62.0139 57.0644L63.5729 54.3525L63.7913 53.9727L63.5729 53.5934L58.8955 45.4583H49.1038Z" fill="#1C1C1C"/>
<path d="M49.1038 45.4583L48.8859 45.838L44.208 53.9727L47.3264 59.396L48.8859 62.1079L49.1038 62.4872H58.8955L62.0139 57.0644L63.5729 54.3525L63.7913 53.9727L63.5729 53.5934L58.8955 45.4583H49.1038Z" fill="#05274C"/>
<path d="M62.7001 54.3518L61.5774 56.3042H53.0953L54.2162 54.3518H62.7001ZM56.2052 59.016H51.5342L52.6568 57.0637H57.3279L56.2052 59.016Z" fill="#85BCFA"/>
<path d="M52.0041 51.2612L49.1041 56.3048L47.9814 54.3524L50.8815 49.3088L52.0041 51.2612Z" fill="#2470ED"/>
<path d="M53.5631 53.9728L49.3199 61.348L48.1973 59.3956L52.4383 52.0195L53.5631 53.9728Z" fill="#2470ED"/>
<path d="M54.2176 53.593L49.9766 46.2173H52.2218L56.4629 53.593H54.2176ZM57.3356 53.593L54.872 49.3089H57.1172L59.5813 53.593H57.3356Z" fill="white"/>
</g>
<rect x="43" y="43" width="22" height="22" rx="5" stroke="#0F0F12" stroke-width="2"/>
<defs>
<clipPath id="clip0_1335_3660">
<rect width="19.5833" height="17.029" fill="white" transform="translate(44.208 45.4583)"/>
</clipPath>
</defs>
</svg>
