<svg width="96" height="96" viewBox="0 0 96 96" fill="none" xmlns="http://www.w3.org/2000/svg">
<rect width="96" height="96" rx="48" fill="white"/>
<g clip-path="url(#clip0_743_13928)">
<path d="M59.843 38.8978L53.4082 49.2326H59.7126L65.2365 38.6239L53.5756 20H31.9995L29.5234 24.287H51.2495L59.843 38.8978Z" fill="#2A72E5"/>
<path d="M33.9175 41.8847L46.3088 42.0282L43.7958 37.2651L31.8392 37.3151L20.874 56.1412L32.0001 75.4173H37.2175L25.8979 56.8151L33.9175 41.8847Z" fill="#2A72E5"/>
<path d="M62.2692 53.4609H49.6953L52.1214 58.0957H64.0779L75.1323 39.2957L64.0084 20H58.5736L70.0953 38.4261L62.2692 53.4609Z" fill="#2A72E5"/>
<path d="M46.3413 33.0285L51.9304 43.6002L54.8913 38.8459L48.8261 28.522H27.087L16 47.7111L18.4261 51.9133L29.3913 33.0894L46.3413 33.0285Z" fill="#2A72E5"/>
<path d="M36.1129 56.5086L42.5194 46.2217L36.4324 46.1499L30.7803 56.689L42.1803 75.4238H63.9998L66.4846 71.1195H44.7064L36.1129 56.5086Z" fill="#2A72E5"/>
<path d="M77.5803 43.5195L66.5151 62.3391H49.5586L44.0347 51.7891L41.0586 56.5717L47.1238 66.8826H68.9369L80.0042 47.7108L77.5803 43.5195Z" fill="#2A72E5"/>
</g>
<defs>
<clipPath id="clip0_743_13928">
<rect width="64" height="55.4261" fill="white" transform="translate(16 20)"/>
</clipPath>
</defs>
</svg>
