<svg width="66" height="66" viewBox="0 0 66 66" fill="none" xmlns="http://www.w3.org/2000/svg">
<g clip-path="url(#clip0_1335_8923)">
<rect width="64" height="64" rx="32" fill="#2775CA"/>
<path d="M32 64C49.7334 64 64 49.7334 64 32C64 14.2666 49.7334 0 32 0C14.2666 0 0 14.2666 0 32C0 49.7334 14.2666 64 32 64Z" fill="#2775CA"/>
<path d="M40.8002 37.0666C40.8002 32.4 38.0002 30.8 32.4002 30.1335C28.4002 29.6 27.6002 28.5335 27.6002 26.6666C27.6002 24.7997 28.9336 23.6 31.6002 23.6C34.0002 23.6 35.3336 24.4 36.0002 26.4C36.1336 26.8 36.5336 27.0666 36.9336 27.0666H39.0667C39.6001 27.0666 40.0002 26.6666 40.0002 26.1335V26C39.4667 23.0666 37.0667 20.8 34.0002 20.5335V17.3335C34.0002 16.8 33.6002 16.4 32.9336 16.2666H30.9336C30.4002 16.2666 30.0002 16.6666 29.8667 17.3335V20.4C25.8667 20.9335 23.3336 23.6 23.3336 26.9335C23.3336 31.3335 26.0002 33.0666 31.6002 33.7335C35.3336 34.4 36.5336 35.2 36.5336 37.3335C36.5336 39.4669 34.6667 40.9335 32.1336 40.9335C28.6667 40.9335 27.4667 39.4666 27.0667 37.4666C26.9336 36.9335 26.5336 36.6666 26.1336 36.6666H23.8667C23.3336 36.6666 22.9336 37.0666 22.9336 37.6V37.7335C23.4667 41.0666 25.6002 43.4666 30.0002 44.1335V47.3335C30.0002 47.8666 30.4002 48.2666 31.0667 48.4H33.0667C33.6002 48.4 34.0002 48 34.1336 47.3335V44.1335C38.1336 43.4666 40.8002 40.6666 40.8002 37.0666Z" fill="white"/>
<path d="M25.1997 51.0666C14.7997 47.3335 9.46623 35.7335 13.3331 25.4666C15.3331 19.8666 19.7331 15.6001 25.1997 13.6001C25.7331 13.3335 25.9997 12.9335 25.9997 12.2666V10.4001C25.9997 9.86662 25.7331 9.46662 25.1997 9.3335C25.0662 9.3335 24.7997 9.3335 24.6662 9.46662C11.9997 13.4666 5.06623 26.9335 9.06623 39.6001C11.4662 47.0666 17.1997 52.8001 24.6662 55.2001C25.1997 55.4666 25.7331 55.2001 25.8662 54.6666C25.9997 54.5335 25.9997 54.4001 25.9997 54.1335V52.2666C25.9997 51.8666 25.5997 51.3335 25.1997 51.0666ZM39.3331 9.46662C38.7997 9.20006 38.2662 9.46662 38.1331 10.0001C37.9997 10.1335 37.9997 10.2666 37.9997 10.5335V12.4001C37.9997 12.9335 38.3997 13.4666 38.7997 13.7335C49.1997 17.4666 54.5331 29.0666 50.6662 39.3335C48.6662 44.9335 44.2662 49.2001 38.7997 51.2001C38.2662 51.4666 37.9997 51.8666 37.9997 52.5335V54.4001C37.9997 54.9335 38.2662 55.3335 38.7997 55.4666C38.9331 55.4666 39.1997 55.4666 39.3331 55.3335C51.9997 51.3335 58.9331 37.8666 54.9331 25.2001C52.5331 17.6001 46.6662 11.8666 39.3331 9.46662Z" fill="white"/>
</g>
<rect x="43" y="43" width="22" height="22" rx="5" fill="#383736"/>
<g clip-path="url(#clip1_1335_8923)">
<path fill-rule="evenodd" clip-rule="evenodd" d="M53.984 57.7745L49.626 55.4805L53.984 46.503V46.5L58.3575 55.4805L53.984 57.7745Z" fill="white"/>
<path fill-rule="evenodd" clip-rule="evenodd" d="M53.984 61.4996L49.626 55.8086L53.984 58.2001L58.3575 55.8086L53.984 61.4996Z" fill="white"/>
</g>
<rect x="43" y="43" width="22" height="22" rx="5" stroke="#0F0F12" stroke-width="2"/>
<defs>
<clipPath id="clip0_1335_8923">
<rect width="64" height="64" rx="32" fill="white"/>
</clipPath>
<clipPath id="clip1_1335_8923">
<rect width="8.732" height="15" fill="white" transform="translate(49.625 46.5)"/>
</clipPath>
</defs>
</svg>
