<svg width="96" height="96" viewBox="0 0 96 96" fill="none" xmlns="http://www.w3.org/2000/svg">
<g clip-path="url(#clip0_743_13999)">
<rect width="96" height="96" rx="48" fill="#2775CA"/>
<path d="M48 96C74.6002 96 96 74.6002 96 48C96 21.3998 74.6002 0 48 0C21.3998 0 0 21.3998 0 48C0 74.6002 21.3998 96 48 96Z" fill="#2775CA"/>
<path d="M61.2002 55.5999C61.2002 48.6001 57.0002 46.2001 48.6002 45.2002C42.6002 44.4001 41.4002 42.8002 41.4002 39.9999C41.4002 37.1996 43.4004 35.4001 47.4002 35.4001C51.0002 35.4001 53.0004 36.6001 54.0002 39.6001C54.2004 40.2001 54.8004 40.5999 55.4004 40.5999H58.6001C59.4002 40.5999 60.0002 39.9999 60.0002 39.2002V39.0001C59.2001 34.5999 55.6001 31.2001 51.0002 30.8002V26.0002C51.0002 25.2001 50.4002 24.6001 49.4004 24.3999H46.4004C45.6002 24.3999 45.0002 24.9999 44.8001 26.0002V30.6001C38.8001 31.4002 35.0004 35.4001 35.0004 40.4002C35.0004 47.0002 39.0002 49.5999 47.4002 50.6002C53.0004 51.6001 54.8004 52.8001 54.8004 56.0002C54.8004 59.2004 52.0001 61.4002 48.2004 61.4002C43.0001 61.4002 41.2001 59.1999 40.6001 56.1999C40.4004 55.4002 39.8004 54.9999 39.2004 54.9999H35.8001C35.0004 54.9999 34.4004 55.5999 34.4004 56.4001V56.6002C35.2001 61.5999 38.4002 65.1999 45.0002 66.2002V71.0002C45.0002 71.7999 45.6002 72.3999 46.6001 72.6001H49.6001C50.4002 72.6001 51.0002 72.0001 51.2004 71.0002V66.2002C57.2004 65.1999 61.2002 60.9999 61.2002 55.5999Z" fill="white"/>
<path d="M37.8 76.5997C22.2 71 14.1998 53.6 20.0002 38.1997C23.0002 29.7997 29.6002 23.3998 37.8 20.3998C38.6002 20 39 19.4 39 18.3997V15.5998C39 14.7997 38.6002 14.1997 37.8 14C37.5998 14 37.2 14 36.9998 14.1997C18 20.1997 7.59983 40.4 13.5998 59.3998C17.1998 70.5997 25.8 79.1998 36.9998 82.7998C37.8 83.1997 38.6002 82.7998 38.7998 81.9997C39 81.8 39 81.5998 39 81.2V78.3997C39 77.7997 38.4 77 37.8 76.5997ZM59.0002 14.1997C58.2 13.7998 57.3998 14.1997 57.2002 14.9998C57 15.2 57 15.3997 57 15.8V18.5998C57 19.4 57.6 20.1997 58.2 20.6C73.8 26.1997 81.8002 43.5997 75.9998 59C72.9998 67.4 66.3998 73.7998 58.2 76.7998C57.3998 77.1997 57 77.7997 57 78.8V81.5998C57 82.4 57.3998 83 58.2 83.1997C58.4002 83.1997 58.8 83.1997 59.0002 83C78 77 88.4002 56.7997 82.4002 37.7998C78.8002 26.3998 69.9998 17.7997 59.0002 14.1997Z" fill="white"/>
</g>
<defs>
<clipPath id="clip0_743_13999">
<rect width="96" height="96" rx="48" fill="white"/>
</clipPath>
</defs>
</svg>
