<svg width="97" height="97" viewBox="0 0 97 97" fill="none" xmlns="http://www.w3.org/2000/svg">
<rect x="0.75" y="0.144531" width="96" height="96" rx="48" fill="white"/>
<g clip-path="url(#clip0_2101_39322)">
<path fill-rule="evenodd" clip-rule="evenodd" d="M21.4963 15.512L5.81544 48.4495C5.75577 48.572 5.73686 48.7104 5.76148 48.8445C5.7861 48.9785 5.85295 49.1011 5.95226 49.1944L48.3024 89.776C48.4227 89.8914 48.5829 89.9558 48.7496 89.9558C48.9162 89.9558 49.0765 89.8914 49.1968 89.776L91.5469 49.197C91.6462 49.1036 91.713 48.981 91.7377 48.847C91.7623 48.713 91.7434 48.5746 91.6837 48.4521L76.0029 15.5145C75.9523 15.4039 75.8709 15.3102 75.7685 15.2446C75.666 15.179 75.5469 15.1443 75.4252 15.1446H22.079C21.9568 15.1431 21.8367 15.1769 21.7333 15.2421C21.6299 15.3073 21.5476 15.401 21.4963 15.512Z" fill="#50AF95"/>
<path fill-rule="evenodd" clip-rule="evenodd" d="M54.1909 51.8319C53.8869 51.8547 52.316 51.9484 48.8119 51.9484C46.0249 51.9484 44.0461 51.8648 43.3519 51.8319C32.5813 51.3581 24.542 49.4832 24.542 47.2384C24.542 44.9935 32.5813 43.1212 43.3519 42.6398V49.9646C44.0563 50.0152 46.0731 50.1343 48.8601 50.1343C52.2045 50.1343 53.8793 49.995 54.1808 49.9671V42.6448C64.9286 43.1237 72.9501 44.9986 72.9501 47.2384C72.9501 49.4781 64.9311 51.353 54.1808 51.8293L54.1909 51.8319ZM54.1909 41.8873V35.3327H69.1902V25.3374H28.3526V35.3327H43.3494V41.8847C31.1599 42.4447 21.9932 44.8592 21.9932 47.7527C21.9932 50.6461 31.1599 53.0582 43.3494 53.6206V74.6247H54.1884V53.613C66.3499 53.0531 75.5015 50.6411 75.5015 47.7502C75.5015 44.8592 66.3575 42.4472 54.1884 41.8847L54.1909 41.8873Z" fill="white"/>
</g>
<defs>
<clipPath id="clip0_2101_39322">
<rect width="86" height="74.8114" fill="white" transform="translate(5.75 15.1445)"/>
</clipPath>
</defs>
</svg>
