<svg width="96" height="96" viewBox="0 0 96 96" fill="none" xmlns="http://www.w3.org/2000/svg">
<rect width="96" height="96" rx="48" fill="#007AFF"/>
<path d="M13.1088 40.9181C12.8865 41.6192 12.6128 42.5642 12.4355 43.2815C12.5586 42.7845 12.7873 42.3199 13.106 41.9193C13.4247 41.5186 13.8259 41.1912 14.2823 40.9595C15.1859 39.8091 16.3402 38.8801 17.6572 38.2434C18.9742 37.6068 20.4191 37.2792 21.8819 37.2857V37.2587C16.4234 35.7017 14.7297 37.4845 14.2563 38.3224C13.8081 39.1566 13.4251 40.0241 13.1105 40.9172" fill="white"/>
<path d="M18.7667 32.5902L17.9639 33.3552C18.8873 32.6028 20.4101 32.7773 22.7546 33.9068C23.2634 33.0018 23.9085 32.1804 24.6671 31.4715C23.5556 30.6669 22.4288 29.9657 21.7133 30.2951C20.6759 30.9867 19.6908 31.7535 18.7658 32.5893" fill="white"/>
<path d="M29.9842 26.3171C29.1508 26.6213 28.0411 27.0272 27.2158 27.362C27.6477 27.8168 28.0358 28.3113 28.375 28.8389C29.6192 28.1703 30.913 27.5986 32.245 27.1289C32.0209 26.2037 31.966 25.742 32.2513 25.625C31.57 25.8311 30.6574 26.0858 29.9824 26.3198" fill="white"/>
<path d="M43.5193 23.7889C42.2512 23.8915 40.5619 24.0481 39.2974 24.1957C38.6368 24.3586 38.3452 24.5927 38.0176 25.5818C39.7419 25.2566 41.4827 25.0259 43.2322 24.8905C43.4915 24.5296 43.8315 24.2342 44.225 24.0278C44.6186 23.8214 45.055 23.7098 45.4993 23.7017L43.5193 23.7916" fill="white"/>
<path d="M57.6059 24.5439C56.4197 24.3639 54.8374 24.1407 53.6458 24.0039C52.4557 23.8634 51.254 24.1467 50.252 24.804C52.0693 24.8973 53.8805 25.0862 55.678 25.3701C57.0215 24.7955 58.5136 24.6659 59.936 25.0002C59.2367 24.8625 58.3088 24.6609 57.6059 24.5502" fill="white"/>
<path d="M70.315 28.5344C69.4348 28.1294 68.2603 27.5984 67.3675 27.2303C65.6086 26.5067 63.6679 26.3494 61.8154 26.7803C63.2645 27.2248 64.6822 27.7661 66.059 28.4003C68.4862 28.1065 70.9395 28.6762 72.9889 30.0095C72.1915 29.5532 71.1305 28.9358 70.3106 28.5344" fill="white"/>
<path d="M82.9286 41.6519C82.3339 39.9638 81.5147 38.3633 80.4932 36.8936L79.8632 36.0341C77.0336 32.5925 74.1815 31.0679 70.3232 30.9365C71.2289 31.6202 72.0453 32.4148 72.7532 33.3017C79.1657 34.2017 83.5793 39.7997 83.9969 47.5613C83.9438 45.5486 83.5823 43.5559 82.925 41.6528" fill="white"/>
<path d="M73.7633 65.4321C74.9887 64.6439 76.1503 63.7607 77.2373 62.7906C77.6468 62.3955 78.1958 61.8735 78.5873 61.4595C86.5856 52.2579 82.9514 38.9793 74.3636 36.5718C74.4557 36.9902 74.5055 37.4169 74.5121 37.8453V38.0739C74.5035 38.496 74.4531 38.9163 74.3618 39.3285C83.549 43.4451 82.6463 59.8737 72.8984 65.9622L73.7606 65.433" fill="white"/>
<path d="M61.7509 70.2709C62.947 69.964 64.5355 69.5239 65.7217 69.1639C77.4811 64.7755 79.3567 46.8565 72.7561 42.5464C72.047 43.4106 71.2304 44.1807 70.3261 44.8378C75.9061 50.9515 70.1875 68.2234 59.7061 70.7038L61.7491 70.2718" fill="white"/>
<path d="M48.0659 71.7011C49.1747 71.6912 50.6543 71.6759 51.7631 71.6327C61.5308 70.631 68.4824 52.8227 66.0632 47.249C64.6849 47.8455 63.267 48.3458 61.8197 48.7466C61.7972 55.8701 52.1393 71.7866 45.2129 71.6066C46.0688 71.6372 47.21 71.6966 48.065 71.6966" fill="white"/>
<path d="M33.8992 69.8652C34.99 70.1262 36.4489 70.4601 37.546 70.6824C41.6212 70.9803 51.8839 57.2436 55.6738 49.9824C53.8687 50.2139 52.0527 50.3499 50.2333 50.3901C47.275 53.2413 39.4684 62.2089 37.9339 63.9801C33.9829 68.5341 32.5141 69.3981 31.9795 69.3207L33.8992 69.8661" fill="white"/>
<path d="M21.9931 64.7225C23.1757 65.51 24.4083 66.2198 25.6831 66.8473L25.7875 66.8987C26.0062 65.7404 35.719 54.2204 43.2178 50.0984C41.4693 49.9118 39.7322 49.6309 38.014 49.2568C29.0554 52.666 19.9105 63.0971 21.4846 64.3769L21.9886 64.7225" fill="white"/>
<path d="M15.5135 58.49C15.9374 59.0561 16.5098 59.8085 16.9607 60.3458C14.9429 57.293 23.4506 49.3874 32.2535 47.5442C30.9197 47.0345 29.626 46.4253 28.3835 45.7217C20.2835 46.5956 12.5732 52.2917 14.159 56.2373C14.5478 56.9285 15.068 57.8483 15.5162 58.4873" fill="white"/>
<path d="M12.002 47.3086V47.6938C12.0371 48.3625 12.0919 49.2526 12.1666 49.9159C11.9488 45.5797 18.58 42.778 24.6685 42.9769C23.9092 42.2458 23.2639 41.4048 22.7542 40.4821C17.6071 39.826 14.7937 41.1445 13.3384 42.364C12.4922 43.8765 12.0336 45.5749 12.0037 47.3078" fill="white"/>
</svg>
