<svg width="60" height="76" viewBox="0 0 60 76" fill="none" xmlns="http://www.w3.org/2000/svg">
<path d="M5.07265 5.07265C6.71267 3.43263 8.93472 2.50785 11.254 2.5H48.7461C51.0653 2.50785 53.2873 3.43263 54.9273 5.07265C56.5673 6.71265 57.4921 8.93468 57.5 11.2539V52.4883C57.4957 52.833 57.362 53.1633 57.1256 53.4139L38.4138 72.1256C38.1633 72.362 37.8329 72.4957 37.4883 72.5L11.2575 72.5C11.2567 72.5 11.2558 72.5 11.255 72.5C8.93541 72.4924 6.71292 71.5676 5.07265 69.9274C3.43263 68.2873 2.50785 66.0653 2.5 63.7461V11.254C2.50785 8.93473 3.43263 6.71267 5.07265 5.07265Z" stroke="url(#paint0_linear_3846_44245)" stroke-width="5"/>
<path d="M45.0041 55.002H55.5395L40 70.5414V60.006C40.0048 58.6804 40.5336 57.4104 41.471 56.473C42.4085 55.5355 43.6785 55.0068 45.0041 55.002Z" stroke="url(#paint1_linear_3846_44245)" stroke-width="5"/>
<path d="M30.2221 41.3477C26.6166 41.3477 23.2662 42.5182 20.5564 44.4971C20.3606 44.6293 20.1934 44.7997 20.0649 44.9979C19.9364 45.1962 19.8492 45.4184 19.8085 45.6511C19.7678 45.8838 19.7744 46.1224 19.828 46.3525C19.8815 46.5826 19.9809 46.7996 20.1202 46.9904C20.2595 47.1812 20.4358 47.3421 20.6386 47.4632C20.8415 47.5844 21.0666 47.6634 21.3007 47.6956C21.5348 47.7278 21.7729 47.7125 22.0009 47.6506C22.2289 47.5887 22.4421 47.4814 22.6278 47.3353C24.7587 45.7791 27.3744 44.8633 30.2221 44.8633C33.0699 44.8633 35.6856 45.7791 37.8165 47.3353C38.0022 47.4814 38.2154 47.5887 38.4434 47.6506C38.6714 47.7125 38.9095 47.7278 39.1436 47.6956C39.3776 47.6634 39.6028 47.5844 39.8057 47.4632C40.0085 47.3421 40.1848 47.1812 40.3241 46.9904C40.4634 46.7996 40.5628 46.5826 40.6163 46.3525C40.6699 46.1224 40.6765 45.8838 40.6358 45.6511C40.5951 45.4184 40.5079 45.1962 40.3794 44.9979C40.2509 44.7997 40.0837 44.6293 39.8879 44.4971C37.1781 42.5182 33.8276 41.3477 30.2221 41.3477Z" fill="url(#paint2_linear_3846_44245)"/>
<path d="M36.2456 28.6595C35.9214 28.994 35.7432 29.4435 35.7502 29.9094C35.7572 30.3752 35.9488 30.8192 36.2829 31.1438L37.1115 31.9725L36.2829 32.8011C36.1158 32.9635 35.9827 33.1575 35.8913 33.3717C35.7999 33.586 35.7519 33.8163 35.7503 34.0492C35.7487 34.2822 35.7933 34.5132 35.8817 34.7287C35.9701 34.9442 36.1004 35.14 36.2652 35.3048C36.4299 35.4695 36.6257 35.5998 36.8413 35.6882C37.0568 35.7766 37.2877 35.8213 37.5207 35.8196C37.7536 35.818 37.9839 35.7701 38.1982 35.6786C38.4125 35.5872 38.6064 35.4541 38.7688 35.2871L39.5975 34.4584L40.4261 35.2871C40.5885 35.4541 40.7825 35.5872 40.9967 35.6786C41.211 35.7701 41.4413 35.818 41.6742 35.8196C41.9072 35.8213 42.1382 35.7766 42.3537 35.6882C42.5692 35.5998 42.7651 35.4695 42.9298 35.3048C43.0945 35.14 43.2248 34.9442 43.3132 34.7287C43.4016 34.5131 43.4463 34.2822 43.4446 34.0492C43.443 33.8163 43.3951 33.586 43.3036 33.3717C43.2122 33.1575 43.0791 32.9635 42.9121 32.8011L42.0834 31.9725L42.9121 31.1438C43.0791 30.9814 43.2122 30.7875 43.3036 30.5732C43.3951 30.3589 43.443 30.1286 43.4446 29.8957C43.4463 29.6627 43.4016 29.4318 43.3132 29.2163C43.2248 29.0007 43.0945 28.8049 42.9298 28.6402C42.765 28.4754 42.5692 28.3451 42.3537 28.2567C42.1382 28.1683 41.9072 28.1237 41.6742 28.1253C41.4413 28.1269 41.211 28.1749 40.9967 28.2663C40.7825 28.3577 40.5885 28.4908 40.4261 28.6579L39.5975 29.4865L38.7688 28.6579C38.6048 28.4891 38.4087 28.355 38.1919 28.2635C37.9751 28.1719 37.7422 28.1248 37.5069 28.125C37.2716 28.1252 37.0387 28.1725 36.8221 28.2643C36.6054 28.3562 36.4094 28.4905 36.2456 28.6595Z" fill="url(#paint3_linear_3846_44245)"/>
<path d="M17.4956 28.6595C17.1714 28.994 16.9932 29.4435 17.0002 29.9094C17.0072 30.3752 17.1988 30.8192 17.5329 31.1438L18.3615 31.9725L17.5329 32.8011C17.3658 32.9635 17.2327 33.1575 17.1413 33.3717C17.0499 33.586 17.0019 33.8163 17.0003 34.0492C16.9987 34.2822 17.0433 34.5132 17.1317 34.7287C17.2201 34.9442 17.3504 35.14 17.5152 35.3048C17.6799 35.4695 17.8757 35.5998 18.0912 35.6882C18.3068 35.7766 18.5377 35.8213 18.7707 35.8196C19.0036 35.818 19.2339 35.7701 19.4482 35.6786C19.6625 35.5872 19.8564 35.4541 20.0188 35.2871L20.8475 34.4584L21.6761 35.2871C21.8385 35.4541 22.0325 35.5872 22.2467 35.6786C22.461 35.7701 22.6913 35.818 22.9242 35.8196C23.1572 35.8213 23.3881 35.7766 23.6037 35.6882C23.8192 35.5998 24.015 35.4695 24.1798 35.3048C24.3445 35.14 24.4748 34.9442 24.5632 34.7287C24.6516 34.5131 24.6963 34.2822 24.6946 34.0492C24.693 33.8163 24.6451 33.586 24.5536 33.3717C24.4622 33.1575 24.3291 32.9635 24.1621 32.8011L23.3334 31.9725L24.1621 31.1438C24.3291 30.9814 24.4622 30.7875 24.5536 30.5732C24.6451 30.3589 24.693 30.1286 24.6946 29.8957C24.6963 29.6627 24.6516 29.4318 24.5632 29.2163C24.4748 29.0007 24.3445 28.8049 24.1798 28.6402C24.015 28.4754 23.8192 28.3451 23.6037 28.2567C23.3881 28.1683 23.1572 28.1237 22.9242 28.1253C22.6913 28.1269 22.461 28.1749 22.2467 28.2663C22.0325 28.3577 21.8385 28.4908 21.6761 28.6579L20.8475 29.4865L20.0188 28.6579C19.8548 28.4891 19.6587 28.355 19.4419 28.2635C19.2251 28.1719 18.9922 28.1248 18.7569 28.125C18.5216 28.1252 18.2887 28.1725 18.0721 28.2643C17.8554 28.3562 17.6594 28.4905 17.4956 28.6595Z" fill="url(#paint4_linear_3846_44245)"/>
<defs>
<linearGradient id="paint0_linear_3846_44245" x1="-0.44625" y1="7.05375" x2="53.2875" y2="60.7875" gradientUnits="userSpaceOnUse">
<stop stop-color="#EAF6FF"/>
<stop offset="1" stop-color="#ADDCFF"/>
</linearGradient>
<linearGradient id="paint1_linear_3846_44245" x1="37.3327" y1="54.6181" x2="53.0596" y2="74.2768" gradientUnits="userSpaceOnUse">
<stop stop-color="#EAF6FF"/>
<stop offset="1" stop-color="#ADDCFF"/>
</linearGradient>
<linearGradient id="paint2_linear_3846_44245" x1="19.6269" y1="41.9462" x2="21.7259" y2="50.5539" gradientUnits="userSpaceOnUse">
<stop stop-color="#EAF6FF"/>
<stop offset="1" stop-color="#ADDCFF"/>
</linearGradient>
<linearGradient id="paint3_linear_3846_44245" x1="35.6928" y1="28.8487" x2="41.0712" y2="35.5717" gradientUnits="userSpaceOnUse">
<stop stop-color="#EAF6FF"/>
<stop offset="1" stop-color="#ADDCFF"/>
</linearGradient>
<linearGradient id="paint4_linear_3846_44245" x1="16.9428" y1="28.8487" x2="22.3212" y2="35.5717" gradientUnits="userSpaceOnUse">
<stop stop-color="#EAF6FF"/>
<stop offset="1" stop-color="#ADDCFF"/>
</linearGradient>
</defs>
</svg>
