<svg width="74" height="66" viewBox="0 0 74 66" fill="none" xmlns="http://www.w3.org/2000/svg">
<path fill-rule="evenodd" clip-rule="evenodd" d="M11.0213 1.00205C11.0598 1.00068 11.0982 1 11.1367 1H58.345C60.1524 1 61.6176 2.47776 61.6176 4.30067C61.6176 6.12358 60.1524 7.60134 58.345 7.60134H11.2032C10.7157 7.62495 10.237 7.74203 9.79266 7.94647C9.33352 8.15774 8.92016 8.45817 8.57617 8.83059C8.23218 9.20301 7.96431 9.64014 7.78785 10.117C7.64188 10.5115 7.56084 10.9267 7.54736 11.3464C7.54901 11.3895 7.54985 11.4328 7.54985 11.4763V11.6335C7.61629 12.6358 8.05627 13.5768 8.78283 14.2665C9.52608 14.972 10.5114 15.3597 11.5321 15.3482L11.5687 15.3478L66.8801 15.348C68.5032 15.348 70.0598 15.9983 71.2075 17.1558C72.3552 18.3133 73 19.8833 73 21.5203V58.8278C73 60.4647 72.3552 62.0347 71.2075 63.1922C70.0598 64.3497 68.5032 65 66.8801 65H9.96835C7.59191 64.9986 5.31131 64.0459 3.63091 62.3511C1.95051 60.6563 1.00587 58.3581 1.00451 55.9614L1.00451 11.7804C0.964964 10.4267 1.18602 9.07798 1.65565 7.80884C2.1327 6.51963 2.85692 5.33784 3.78692 4.33097C4.71692 3.32409 5.83449 2.51187 7.07579 1.94069C8.31709 1.3695 9.6578 1.05055 11.0213 1.00205ZM7.54985 21.1762V55.9586C7.55048 56.6055 7.80557 57.2258 8.25917 57.6833C8.713 58.141 9.32842 58.3983 9.97023 58.3987H66.4547V21.9494H11.5854C10.1901 21.9624 8.81998 21.6949 7.54985 21.1762Z" fill="url(#paint0_linear_3846_44235)" stroke="#1F2128" stroke-width="2" stroke-linecap="round" stroke-linejoin="round"/>
<path d="M36.708 44.8008C32.9322 44.8008 29.4235 46.0371 26.5856 48.1272C26.3806 48.2669 26.2055 48.4468 26.071 48.6562C25.9364 48.8656 25.8451 49.1003 25.8024 49.3461C25.7598 49.5919 25.7667 49.8438 25.8228 50.0869C25.8789 50.3299 25.983 50.5591 26.1288 50.7607C26.2747 50.9622 26.4594 51.1321 26.6718 51.2601C26.8842 51.388 27.12 51.4715 27.3651 51.5055C27.6102 51.5395 27.8596 51.5233 28.0984 51.4579C28.3372 51.3926 28.5605 51.2793 28.7549 51.1249C30.9865 49.4813 33.7258 48.514 36.708 48.514C39.6903 48.514 42.4296 49.4813 44.6612 51.1249C44.8556 51.2793 45.0789 51.3926 45.3176 51.4579C45.5564 51.5233 45.8058 51.5395 46.0509 51.5055C46.2961 51.4715 46.5319 51.388 46.7443 51.2601C46.9567 51.1321 47.1413 50.9622 47.2872 50.7607C47.4331 50.5591 47.5372 50.3299 47.5932 50.0869C47.6493 49.8438 47.6563 49.5919 47.6136 49.3461C47.571 49.1003 47.4797 48.8656 47.3451 48.6562C47.2105 48.4468 47.0355 48.2669 46.8305 48.1272C43.9926 46.0371 40.4839 44.8008 36.708 44.8008Z" fill="url(#paint1_linear_3846_44235)"/>
<path d="M43.0161 31.3985C42.6766 31.7518 42.49 32.2266 42.4973 32.7186C42.5046 33.2106 42.7052 33.6796 43.0551 34.0225L43.9229 34.8977L43.0551 35.7729C42.8802 35.9444 42.7408 36.1493 42.6451 36.3756C42.5493 36.6019 42.4991 36.8451 42.4974 37.0912C42.4957 37.3372 42.5424 37.5812 42.635 37.8088C42.7276 38.0365 42.8641 38.2433 43.0366 38.4173C43.2091 38.5913 43.4142 38.7289 43.6399 38.8223C43.8656 38.9156 44.1075 38.9628 44.3514 38.9611C44.5954 38.9593 44.8366 38.9087 45.0609 38.8122C45.2853 38.7156 45.4885 38.575 45.6585 38.3986L46.5263 37.5234L47.3941 38.3986C47.5642 38.575 47.7673 38.7156 47.9917 38.8122C48.2161 38.9087 48.4572 38.9593 48.7012 38.9611C48.9451 38.9628 49.187 38.9156 49.4127 38.8223C49.6385 38.7289 49.8435 38.5913 50.016 38.4173C50.1885 38.2433 50.325 38.0365 50.4176 37.8088C50.5102 37.5812 50.557 37.3372 50.5552 37.0912C50.5535 36.8451 50.5033 36.6019 50.4076 36.3756C50.3118 36.1493 50.1724 35.9444 49.9975 35.7729L49.1297 34.8977L49.9975 34.0225C50.1724 33.851 50.3118 33.6461 50.4076 33.4198C50.5033 33.1935 50.5535 32.9502 50.5552 32.7042C50.5569 32.4582 50.5102 32.2142 50.4176 31.9866C50.325 31.7589 50.1885 31.5521 50.016 31.3781C49.8435 31.2041 49.6385 31.0665 49.4127 30.9731C49.187 30.8797 48.9451 30.8326 48.7012 30.8343C48.4572 30.836 48.2161 30.8867 47.9917 30.9832C47.7673 31.0798 47.5642 31.2204 47.3941 31.3968L46.5263 32.272L45.6585 31.3968C45.4868 31.2186 45.2813 31.0769 45.0543 30.9802C44.8273 30.8836 44.5834 30.8338 44.337 30.834C44.0905 30.8341 43.8467 30.8842 43.6198 30.9812C43.3929 31.0781 43.1876 31.2201 43.0161 31.3985Z" fill="url(#paint2_linear_3846_44235)"/>
<path d="M23.3804 31.3985C23.0408 31.7518 22.8542 32.2266 22.8615 32.7186C22.8688 33.2106 23.0695 33.6796 23.4194 34.0225L24.2872 34.8977L23.4194 35.7729C23.2444 35.9444 23.1051 36.1493 23.0093 36.3756C22.9136 36.6019 22.8634 36.8451 22.8616 37.0912C22.8599 37.3372 22.9067 37.5812 22.9993 37.8088C23.0918 38.0365 23.2283 38.2433 23.4008 38.4173C23.5733 38.5913 23.7784 38.7289 24.0041 38.8223C24.2299 38.9156 24.4717 38.9628 24.7157 38.9611C24.9596 38.9593 25.2008 38.9087 25.4252 38.8122C25.6496 38.7156 25.8527 38.575 26.0228 38.3986L26.8906 37.5234L27.7584 38.3986C27.9284 38.575 28.1315 38.7156 28.3559 38.8122C28.5803 38.9087 28.8215 38.9593 29.0654 38.9611C29.3094 38.9628 29.5513 38.9156 29.777 38.8223C30.0027 38.7289 30.2078 38.5913 30.3803 38.4173C30.5528 38.2433 30.6893 38.0365 30.7819 37.8088C30.8744 37.5812 30.9212 37.3372 30.9195 37.0912C30.9178 36.8451 30.8676 36.6019 30.7718 36.3756C30.6761 36.1493 30.5367 35.9444 30.3618 35.7729L29.494 34.8977L30.3618 34.0225C30.5367 33.851 30.6761 33.6461 30.7718 33.4198C30.8676 33.1935 30.9178 32.9502 30.9195 32.7042C30.9212 32.4582 30.8744 32.2142 30.7819 31.9866C30.6893 31.7589 30.5528 31.5521 30.3803 31.3781C30.2078 31.2041 30.0027 31.0665 29.777 30.9731C29.5513 30.8797 29.3094 30.8326 29.0654 30.8343C28.8215 30.836 28.5803 30.8867 28.3559 30.9832C28.1315 31.0798 27.9284 31.2204 27.7584 31.3968L26.8906 32.272L26.0228 31.3968C25.851 31.2186 25.6456 31.0769 25.4186 30.9802C25.1916 30.8836 24.9476 30.8338 24.7012 30.834C24.4548 30.8341 24.2109 30.8842 23.984 30.9812C23.7572 31.0781 23.5519 31.2201 23.3804 31.3985Z" fill="url(#paint3_linear_3846_44235)"/>
<defs>
<linearGradient id="paint0_linear_3846_44235" x1="0.4645" y1="7.0192" x2="43.7758" y2="67.9257" gradientUnits="userSpaceOnUse">
<stop stop-color="#EAF6FF"/>
<stop offset="1" stop-color="#ADDCFF"/>
</linearGradient>
<linearGradient id="paint1_linear_3846_44235" x1="25.6123" y1="45.433" x2="27.846" y2="54.5157" gradientUnits="userSpaceOnUse">
<stop stop-color="#EAF6FF"/>
<stop offset="1" stop-color="#ADDCFF"/>
</linearGradient>
<linearGradient id="paint2_linear_3846_44235" x1="42.4371" y1="31.5983" x2="48.1282" y2="38.6519" gradientUnits="userSpaceOnUse">
<stop stop-color="#EAF6FF"/>
<stop offset="1" stop-color="#ADDCFF"/>
</linearGradient>
<linearGradient id="paint3_linear_3846_44235" x1="22.8014" y1="31.5983" x2="28.4925" y2="38.6519" gradientUnits="userSpaceOnUse">
<stop stop-color="#EAF6FF"/>
<stop offset="1" stop-color="#ADDCFF"/>
</linearGradient>
</defs>
</svg>
