<svg width="16" height="16" viewBox="0 0 16 16" fill="none" xmlns="http://www.w3.org/2000/svg">
<path fill-rule="evenodd" clip-rule="evenodd" d="M12.1751 2.66608H9.20252C8.74768 2.66608 8.37896 2.29312 8.37896 1.83304C8.37896 1.37297 8.74768 1 9.20252 1H14.1764C14.6028 1 14.9535 1.3278 14.9957 1.74787C14.9985 1.77587 14.9999 1.80429 14.9999 1.83304V6.79886C14.9999 7.25894 14.6312 7.6319 14.1764 7.6319C13.7215 7.6319 13.3528 7.25894 13.3528 6.79886V3.831L7.70277 9.54613C7.38115 9.87145 6.85971 9.87145 6.53809 9.54613C6.21647 9.22081 6.21647 8.69335 6.53809 8.36803L12.1751 2.66608Z" fill="white"/>
<path fill-rule="evenodd" clip-rule="evenodd" d="M2.65529 13.3418L11.7591 13.3418C12.2162 13.3418 12.5867 13.7129 12.5867 14.1708C12.5867 14.6286 12.2162 14.9997 11.7591 14.9997L1.82762 14.9997H1V13.3418H1.00005V4.82899C1.00005 4.37115 1.37059 4 1.82767 4C2.28475 4 2.65529 4.37115 2.65529 4.82899V13.3418Z" fill="white"/>
</svg>
