<svg width="260" height="31" viewBox="0 0 260 31" fill="none" xmlns="http://www.w3.org/2000/svg">
<path d="M0 5.88948V2.64835H14.7304V5.88948H9.37914V22.6688H5.35129V5.88948H0Z" fill="white"/>
<path d="M34.7876 14.7237C34.7876 19.7145 31.105 22.927 26.473 22.927C21.8697 22.927 18.3885 19.7145 18.3885 14.7237C18.3885 9.70428 21.9848 6.5205 26.5881 6.5205C31.1913 6.5205 34.7876 9.70428 34.7876 14.7237ZM22.4739 14.7237C22.4739 17.8788 24.3152 19.4277 26.473 19.4277C28.602 19.4277 30.6447 17.8788 30.6447 14.7237C30.6447 11.54 28.6596 10.0198 26.5305 10.0198C24.4015 10.0198 22.4739 11.54 22.4739 14.7237Z" fill="white"/>
<path d="M39.4684 22.6688V1.44368H43.4963V13.5191L48.8476 6.77865H54.0838L47.0638 14.7524L54.1413 22.6688H48.9051L43.4963 15.8997V22.6688H39.4684Z" fill="white"/>
<path d="M56.9604 14.6664C56.9604 9.70428 60.1827 6.5205 64.2393 6.5205C66.7998 6.5205 68.5548 7.72517 69.5043 9.04457V6.77865H73.5609V22.6688H69.5043V20.3455C68.5548 21.7223 66.7423 22.927 64.2105 22.927C60.1827 22.927 56.9604 19.6285 56.9604 14.6664ZM69.5043 14.7237C69.5043 11.7121 67.4903 10.0485 65.275 10.0485C63.1172 10.0485 61.0745 11.6547 61.0745 14.6664C61.0745 17.678 63.1172 19.399 65.275 19.399C67.4903 19.399 69.5043 17.7354 69.5043 14.7237Z" fill="white"/>
<path d="M101.518 22.6688V13.8919C101.518 11.3679 100.108 10.0485 97.9793 10.0485C95.8215 10.0485 94.4117 11.3679 94.4117 13.8919V22.6688H90.3839V13.8919C90.3839 11.3679 88.9742 10.0485 86.8451 10.0485C84.6586 10.0485 83.2488 11.3679 83.2488 13.8919V22.6688H79.221V6.77865H83.2488V8.70038C84.2558 7.38098 85.9533 6.54919 87.9384 6.54919C90.4127 6.54919 92.4554 7.61044 93.5486 9.58955C94.5844 7.78254 96.6846 6.54919 99.015 6.54919C102.841 6.54919 105.546 8.95853 105.546 13.347V22.6688H101.518Z" fill="white"/>
<path d="M110.059 14.6664C110.059 9.70428 113.281 6.5205 117.337 6.5205C119.898 6.5205 121.653 7.72517 122.602 9.04457V6.77865H126.659V22.6688H122.602V20.3455C121.653 21.7223 119.84 22.927 117.309 22.927C113.281 22.927 110.059 19.6285 110.059 14.6664ZM122.602 14.7237C122.602 11.7121 120.589 10.0485 118.373 10.0485C116.215 10.0485 114.173 11.6547 114.173 14.6664C114.173 17.678 116.215 19.399 118.373 19.399C120.589 19.399 122.602 17.7354 122.602 14.7237Z" fill="white"/>
<path d="M132.319 22.6688V1.44368H136.347V13.5191L141.698 6.77865H146.935L139.915 14.7524L146.992 22.6688H141.756L136.347 15.8997V22.6688H132.319Z" fill="white"/>
<path d="M170.62 16.7602C170.62 15.0392 169.383 14.0067 167.427 14.0067H163.456V19.399H167.513C169.469 19.399 170.62 18.4525 170.62 16.7602ZM170.131 8.41356C170.131 6.80733 169.038 5.88948 167.139 5.88948H163.456V10.9089H167.139C169.038 10.9089 170.131 10.0485 170.131 8.41356ZM174.706 17.2478C174.706 20.4316 172.26 22.6688 168.088 22.6688H159.428V2.64835H167.714C171.915 2.64835 174.245 4.82823 174.245 7.81122C174.245 10.2492 172.778 11.7694 170.822 12.4004C173.094 12.802 174.706 14.8958 174.706 17.2478Z" fill="white"/>
<path d="M183.67 14.7524V22.6688H179.642V6.77865H183.67V9.24535C184.677 7.61044 186.345 6.54919 188.561 6.54919V10.7655H187.496C185.108 10.7655 183.67 11.6834 183.67 14.7524Z" fill="white"/>
<path d="M193 22.6688V6.77865H197.028V22.6688H193ZM195.043 4.88559C193.604 4.88559 192.568 3.85302 192.568 2.53362C192.568 1.21422 193.604 0.181641 195.043 0.181641C196.452 0.181641 197.517 1.21422 197.517 2.53362C197.517 3.85302 196.452 4.88559 195.043 4.88559Z" fill="white"/>
<path d="M201.698 14.6664C201.698 9.70428 204.92 6.5205 209.005 6.5205C211.106 6.5205 213.12 7.49571 214.213 8.98721V1.44368H218.298V22.6688H214.213V20.3169C213.263 21.7797 211.48 22.927 208.977 22.927C204.92 22.927 201.698 19.6285 201.698 14.6664ZM214.242 14.7237C214.242 11.7121 212.228 10.0485 210.012 10.0485C207.855 10.0485 205.812 11.6547 205.812 14.6664C205.812 17.678 207.855 19.399 210.012 19.399C212.228 19.399 214.242 17.7354 214.242 14.7237Z" fill="white"/>
<path d="M222.923 14.6664C222.923 9.70428 226.145 6.5205 230.202 6.5205C232.705 6.5205 234.517 7.66781 235.467 9.04457V6.77865H239.523V22.7836C239.523 27.086 236.876 30.4992 231.64 30.4992C227.152 30.4992 224.016 28.2619 223.613 24.6192H227.612C228.015 26.0534 229.511 26.9999 231.525 26.9999C233.74 26.9999 235.467 25.7379 235.467 22.7836V20.3169C234.517 21.6936 232.705 22.927 230.202 22.927C226.145 22.927 222.923 19.6285 222.923 14.6664ZM235.467 14.7237C235.467 11.7121 233.453 10.0485 231.237 10.0485C229.08 10.0485 227.037 11.6547 227.037 14.6664C227.037 17.678 229.08 19.399 231.237 19.399C233.453 19.399 235.467 17.7354 235.467 14.7237Z" fill="white"/>
<path d="M252.031 9.81901C250.103 9.81901 248.578 11.0524 248.262 13.2322H255.828C255.771 11.1384 254.102 9.81901 252.031 9.81901ZM259.597 17.678C258.734 20.6037 256.087 22.927 252.146 22.927C247.514 22.927 244.148 19.7145 244.148 14.7237C244.148 9.70428 247.427 6.5205 252.146 6.5205C256.749 6.5205 260 9.64691 260 14.3795C260 14.8958 259.971 15.4121 259.885 15.9284H248.233C248.434 18.2804 250.045 19.5998 252.059 19.5998C253.786 19.5998 254.735 18.7393 255.253 17.678H259.597Z" fill="white"/>
</svg>
