<svg width="20" height="20" viewBox="0 0 20 20" fill="none" xmlns="http://www.w3.org/2000/svg">
<rect width="20" height="20" rx="10" fill="#282828"/>
<g clip-path="url(#clip0_6479_51998)">
<path d="M18.1488 9.60408L14.168 2.70825H5.83464L5.64901 3.02992L1.66797 9.92533L4.32193 14.5218L5.64901 16.8201L5.83464 17.1422H14.168L16.8217 12.5453L18.1488 10.247L18.3346 9.92533L18.1488 9.60408Z" fill="#282828"/>
<path d="M17.4046 10.2466L16.4492 11.9016H9.23026L10.1857 10.2466H17.4046ZM11.8771 14.1999H7.90234L8.85776 12.5449H12.8326L11.8771 14.1999Z" fill="#BFBFBF"/>
<path d="M8.30266 7.62668L5.83432 11.9017L4.87891 10.2467L7.34703 5.97168L8.30266 7.62668Z" fill="#888888"/>
<path d="M9.6312 9.92502L6.02182 16.1765L5.06641 14.5219L8.67557 8.27002L9.6312 9.92502Z" fill="#888888"/>
<path d="M10.1877 9.60326L6.57812 3.35181H8.48917L12.0975 9.60326H10.1877ZM12.8415 9.60326L10.7446 5.97201H12.6556L14.7525 9.60326H12.8415Z" fill="white"/>
</g>
<defs>
<clipPath id="clip0_6479_51998">
<rect width="16.6667" height="14.4337" fill="white" transform="translate(1.66797 2.70825)"/>
</clipPath>
</defs>
</svg>
