<svg width="20" height="21" viewBox="0 0 20 21" fill="none"
  xmlns="http://www.w3.org/2000/svg">
  <g clip-path="url(#clip0_5112_177395)">
    <rect y="0.5" width="20" height="20" rx="10" fill="white"/>
    <g clip-path="url(#clip1_5112_177395)">
      <path d="M9.92398 2.16602L5.44336 7.93977L7.68419 13.3862L12.1648 7.61227L9.92398 2.16602Z" fill="#2470ED"/>
      <path d="M9.85378 2.68477L11.8642 7.57164L7.75461 12.8673L5.74398 7.9806L9.85378 2.68477ZM9.92398 2.16602L5.44336 7.93977L7.68419 13.3862L12.1648 7.61247L9.92398 2.16602Z" fill="#05274C"/>
      <path d="M8.54492 7.11523L11.3049 13.8825L17.142 14.665L14.382 7.89773L8.54492 7.11523Z" fill="white"/>
      <path d="M8.95909 7.43565L14.1964 8.13794L16.7278 14.3446L11.4905 13.6425L8.95909 7.43565ZM8.54492 7.11523L11.3049 13.8825L17.142 14.665L14.382 7.89773L8.54492 7.11523Z" fill="#05274C"/>
      <path d="M17.1409 6.33122L9.90031 5.33789L6.30469 10.0016L13.5447 10.9958L17.1409 6.33122Z" fill="#85BCFA"/>
      <path d="M10.0153 5.61852L16.6564 6.52956L13.4297 10.7143L6.78844 9.80331L10.0153 5.61852ZM9.90031 5.33789L6.30469 10.0016L13.5447 10.9958L17.1407 6.33122L9.90031 5.33789Z" fill="#05274C"/>
      <path d="M13.5459 10.9945L6.30544 10.002L2.70898 14.6657L9.94961 15.659L13.5459 10.9945Z" fill="#85BCFA"/>
      <path d="M6.42023 10.2826L13.0611 11.1938L9.83461 15.3784L3.19357 14.4674L6.42023 10.2826ZM6.30523 10.002L2.70898 14.6657L9.94961 15.659L13.5459 10.9945L6.30523 10.002Z" fill="#05274C"/>
      <path d="M12.1664 7.61328L7.68555 13.387L9.92659 18.8335L14.407 13.0597L12.1664 7.61328Z" fill="#2470ED"/>
      <path d="M12.096 8.13203L14.1064 13.0189L9.9968 18.3147L7.98617 13.4277L12.096 8.13203ZM12.1662 7.61328L7.68555 13.387L9.92638 18.8335L14.407 13.0597L12.1662 7.61328Z" fill="#05274C"/>
      <path d="M2.70703 6.33398L5.46786 13.1011L11.3049 13.8836L8.54495 7.11648L2.70703 6.33398Z" fill="white"/>
      <path d="M3.12203 6.6544L8.35932 7.35648L10.8908 13.5634L5.65349 12.8613L3.12203 6.6544ZM2.70703 6.33398L5.46786 13.1013L11.3049 13.8838L8.54495 7.11648L2.70703 6.33398Z" fill="#05274C"/>
      <path d="M9.8974 10.4733L9.80469 10.2181L9.91823 10.2335L8.7051 7.31917L8.65385 7.38562L8.53073 7.14229L8.51823 7.14062L6.30469 10.004L9.8974 10.4733Z" fill="#85BCFA"/>
      <path d="M8.65365 7.38453L8.54365 7.11495L8.53115 7.11328L6.30469 10.0018L9.92448 10.4985L9.80948 10.2179L6.78865 9.80328L8.65365 7.38453Z" fill="#05274C"/>
    </g>
  </g>
  <defs>
    <clipPath id="clip0_5112_177395">
      <rect y="0.5" width="20" height="20" rx="10" fill="white"/>
    </clipPath>
    <clipPath id="clip1_5112_177395">
      <rect width="16.6667" height="16.6667" fill="white" transform="translate(1.66602 2.16602)"/>
    </clipPath>
  </defs>
</svg>
