<svg width="40" height="40" viewBox="0 0 40 40" fill="none" xmlns="http://www.w3.org/2000/svg">
<rect width="40" height="40" rx="20" fill="#05274C"/>
<g clip-path="url(#clip0_2122_28651)">
<path d="M10.2082 2.9165L9.77223 3.676L0.416504 19.9455L6.65337 30.7921L9.77223 36.2158L10.2082 36.9745H29.7915L36.0284 26.1287L39.1464 20.705L39.5832 19.9455L39.1464 19.1868L29.7915 2.9165L10.2082 2.9165Z" fill="#1C1C1C"/>
<path d="M10.2082 2.9165L9.77223 3.676L0.416504 19.9455L6.65337 30.7921L9.77223 36.2158L10.2082 36.9745H29.7915L36.0284 26.1287L39.1464 20.705L39.5832 19.9455L39.1464 19.1868L29.7915 2.9165L10.2082 2.9165Z" fill="#05274C"/>
<path d="M37.4007 20.7036L35.1554 24.6084H18.1911L20.433 20.7036H37.4007ZM24.4109 30.0321H15.0688L17.3141 26.1273H26.6562L24.4109 30.0321Z" fill="#85BCFA"/>
<path d="M16.0082 14.5224L10.2082 24.6095L7.96289 20.7048L13.763 10.6177L16.0082 14.5224Z" fill="#2470ED"/>
<path d="M19.1272 19.9455L10.6408 34.696L8.39551 30.7913L16.8776 16.0391L19.1272 19.9455Z" fill="#2470ED"/>
<path d="M20.4358 19.1859L11.9536 4.43457H16.4442L24.9263 19.1859H20.4358ZM26.6718 19.1859L21.7444 10.6178H26.235L31.1632 19.1859H26.6718Z" fill="white"/>
</g>
<defs>
<clipPath id="clip0_2122_28651">
<rect width="39.1667" height="34.058" fill="white" transform="translate(0.416504 2.9165)"/>
</clipPath>
</defs>
</svg>
