<svg width="20" height="21" viewBox="0 0 20 21" fill="none"
  xmlns="http://www.w3.org/2000/svg">
  <rect y="0.5" width="20" height="20" rx="10" fill="#05274C"/>
  <g clip-path="url(#clip0_5112_177379)">
    <path d="M5.10482 1.95898L4.88685 2.33873L0.208984 10.4735L3.32742 15.8968L4.88685 18.6086L5.10482 18.988H14.8965L18.0149 13.5651L19.5739 10.8532L19.7923 10.4735L19.5739 10.0942L14.8965 1.95898H5.10482Z" fill="#1C1C1C"/>
    <path d="M5.10482 1.95898L4.88685 2.33873L0.208984 10.4735L3.32742 15.8968L4.88685 18.6086L5.10482 18.988H14.8965L18.0149 13.5651L19.5739 10.8532L19.7923 10.4735L19.5739 10.0942L14.8965 1.95898H5.10482Z" fill="#05274C"/>
    <path d="M18.7011 10.8535L17.5784 12.8059H9.09629L10.2172 10.8535H18.7011ZM12.2062 15.5178H7.53516L8.65779 13.5654H13.3288L12.2062 15.5178Z" fill="#85BCFA"/>
    <path d="M8.00509 7.76292L5.10506 12.8065L3.98242 10.8541L6.88246 5.81055L8.00509 7.76292Z" fill="#2470ED"/>
    <path d="M9.56505 10.4728L5.32185 17.848L4.19922 15.8956L8.44029 8.51953L9.56505 10.4728Z" fill="#2470ED"/>
    <path d="M10.2196 10.0944L5.97852 2.71875H8.22379L12.4649 10.0944H10.2196ZM13.3376 10.0944L10.8739 5.81036H13.1192L15.5833 10.0944H13.3376Z" fill="white"/>
  </g>
  <defs>
    <clipPath id="clip0_5112_177379">
      <rect width="19.5833" height="17.029" fill="white" transform="translate(0.208984 1.95898)"/>
    </clipPath>
  </defs>
</svg>
