<svg width="16" height="16" viewBox="0 0 16 16" fill="none" xmlns="http://www.w3.org/2000/svg">
<g clip-path="url(#clip0_3494_41564)">
<path d="M12.9453 6.94531H9.05469V3.05469C9.05469 2.4722 8.58249 2 8 2C7.41751 2 6.94531 2.4722 6.94531 3.05469L6.94531 6.94531L3.05469 6.94531C2.4722 6.94531 2 7.41751 2 8C2 8.58249 2.4722 9.05469 3.05469 9.05469H6.94531V12.9453C6.94531 13.5278 7.41751 14 8 14C8.58249 14 9.05469 13.5278 9.05469 12.9453V9.05469H12.9453C13.5278 9.05469 14 8.58249 14 8C14 7.41751 13.5278 6.94531 12.9453 6.94531Z" fill="#007AFF"/>
</g>
<defs>
<clipPath id="clip0_3494_41564">
<rect width="12" height="12" fill="white" transform="translate(2 2)"/>
</clipPath>
</defs>
</svg>
