<svg width="24" height="24" viewBox="0 0 24 24" fill="none" xmlns="http://www.w3.org/2000/svg">
<path d="M17.625 9.34375H16.2173V6.13164C16.2173 3.85344 14.3248 2 11.9986 2C9.67234 2 7.7798 3.85344 7.7798 6.13164V9.34375H6.375C5.08266 9.34375 4.03125 10.3952 4.03125 11.6875V19.6562C4.03125 20.9486 5.08266 22 6.375 22H17.625C18.9173 22 19.9688 20.9486 19.9688 19.6562V11.6875C19.9688 10.3952 18.9173 9.34375 17.625 9.34375ZM9.3423 6.13164C9.3423 4.715 10.5339 3.5625 11.9986 3.5625C13.4632 3.5625 14.6548 4.715 14.6548 6.13164V9.34375H9.3423V6.13164ZM18.4062 19.6562C18.4062 20.087 18.0558 20.4375 17.625 20.4375H6.375C5.94422 20.4375 5.59375 20.087 5.59375 19.6562V11.6875C5.59375 11.2567 5.94422 10.9062 6.375 10.9062H17.625C18.0558 10.9062 18.4062 11.2567 18.4062 11.6875V19.6562Z" fill="white"/>
<path d="M12 13.1719C11.2018 13.1719 10.5547 13.8189 10.5547 14.6172C10.5547 15.1269 10.8187 15.5746 11.2173 15.832V17.5469C11.2173 17.9783 11.5671 18.3281 11.9986 18.3281C12.43 18.3281 12.7798 17.9783 12.7798 17.5469V15.8338C13.18 15.5768 13.4453 15.1281 13.4453 14.6172C13.4453 13.8189 12.7982 13.1719 12 13.1719Z" fill="white"/>
</svg>
