
<svg width="32" height="32" viewBox="0 0 32 32" fill="none" xmlns="http://www.w3.org/2000/svg">
<rect x="0.5" y="0.5" width="31" height="31" rx="7.5" fill="#0F0F12"/>
<path fill-rule="evenodd" clip-rule="evenodd" d="M14.5952 10.077C14.9209 10.4021 14.9215 10.9297 14.5964 11.2555L11.2564 14.6022C10.9312 14.9279 10.4036 14.9285 10.0778 14.6033C9.75208 14.2782 9.75155 13.7506 10.0767 13.4248L13.4167 10.0782C13.7418 9.7524 14.2694 9.75187 14.5952 10.077Z" fill="#F7F8FA"/>
<path fill-rule="evenodd" clip-rule="evenodd" d="M22.834 14.013C22.834 14.4733 22.4609 14.8464 22.0007 14.8464L10.6673 14.8464C10.2071 14.8464 9.83398 14.4733 9.83398 14.013C9.83398 13.5528 10.2071 13.1797 10.6673 13.1797L22.0007 13.1797C22.4609 13.1797 22.834 13.5528 22.834 14.013Z" fill="#F7F8FA"/>
<path fill-rule="evenodd" clip-rule="evenodd" d="M22.5893 17.4105C22.9151 17.7356 22.9156 18.2632 22.5905 18.589L19.2505 21.9357C18.9254 22.2614 18.3977 22.2619 18.072 21.9368C17.7462 21.6117 17.7457 21.0841 18.0708 20.7583L21.4108 17.4117C21.7359 17.0859 22.2636 17.0854 22.5893 17.4105Z" fill="#F7F8FA"/>
<path fill-rule="evenodd" clip-rule="evenodd" d="M22.834 18.0003C22.834 18.4606 22.4609 18.8337 22.0007 18.8337L10.6673 18.8337C10.2071 18.8337 9.83398 18.4606 9.83398 18.0003C9.83398 17.5401 10.2071 17.167 10.6673 17.167L22.0007 17.167C22.4609 17.167 22.834 17.5401 22.834 18.0003Z" fill="#F7F8FA"/>
<rect x="0.5" y="0.5" width="31" height="31" rx="7.5" stroke="#313442"/>
</svg>
