<svg width="40" height="40" viewBox="0 0 40 40" fill="none" xmlns="http://www.w3.org/2000/svg">
<rect width="40" height="40" rx="20" fill="#007AFF"/>
<path d="M25.2175 19.6948C25.5615 19.6948 25.8977 19.7968 26.1837 19.9879C26.4696 20.179 26.6925 20.4506 26.8241 20.7683C26.9558 21.0861 26.9902 21.4358 26.9231 21.7731C26.856 22.1104 26.6904 22.4203 26.4472 22.6635C26.204 22.9067 25.8941 23.0723 25.5568 23.1394C25.2194 23.2065 24.8698 23.1721 24.552 23.0405C24.2343 22.9088 23.9627 22.6859 23.7716 22.4C23.5805 22.114 23.4785 21.7778 23.4785 21.4338C23.4788 20.9727 23.6621 20.5305 23.9881 20.2045C24.3142 19.8784 24.7564 19.6951 25.2175 19.6948Z" fill="white"/>
<path fill-rule="evenodd" clip-rule="evenodd" d="M12.0621 10.0006C12.0739 10.0002 12.0856 10 12.0974 10H26.5224C27.0747 10 27.5224 10.4477 27.5224 11C27.5224 11.5523 27.0747 12 26.5224 12H12.1177C11.9687 12.0072 11.8225 12.0426 11.6867 12.1046C11.5464 12.1686 11.4201 12.2596 11.315 12.3724C11.2099 12.4853 11.128 12.6177 11.0741 12.7622C11.0295 12.8817 11.0047 13.0075 11.0006 13.1346C11.0011 13.1477 11.0014 13.1608 11.0014 13.174V13.2216C11.0217 13.5253 11.1561 13.8104 11.3781 14.0193C11.6052 14.2331 11.9063 14.3506 12.2182 14.3471L12.2294 14.3469L29.1304 14.347C29.6263 14.347 30.102 14.544 30.4527 14.8947C30.8034 15.2454 31.0004 15.721 31.0004 16.217V27.52C31.0004 28.016 30.8034 28.4916 30.4527 28.8423C30.102 29.193 29.6263 29.39 29.1304 29.39H11.7404C11.0142 29.3896 10.3174 29.1009 9.8039 28.5875C9.29044 28.074 9.00179 27.3777 9.00138 26.6516L9.00138 13.2661C8.98929 12.856 9.05684 12.4474 9.20034 12.0629C9.34611 11.6723 9.5674 11.3142 9.85157 11.0092C10.1357 10.7041 10.4772 10.458 10.8565 10.285C11.2358 10.1119 11.6455 10.0153 12.0621 10.0006ZM11.0014 16.1127V26.6507C11.0016 26.8467 11.0795 27.0347 11.2181 27.1733C11.3568 27.3119 11.5448 27.3899 11.741 27.39H29.0004V16.347H12.2345C11.8081 16.351 11.3895 16.2699 11.0014 16.1127Z" fill="white"/>
</svg>
