<svg width="40" height="40" viewBox="0 0 40 40" fill="none" xmlns="http://www.w3.org/2000/svg">
<path d="M31.6174 26.5333L22.444 10.6445C21.9339 9.76105 21.0203 9.23352 20 9.23352C18.9797 9.23352 18.0661 9.76105 17.556 10.6445L8.3826 26.5333C7.87247 27.4169 7.87247 28.4719 8.3826 29.3554C8.89274 30.2389 9.80633 30.7664 10.8266 30.7664H29.1733C30.1936 30.7664 31.1072 30.2389 31.6174 29.3554C32.1275 28.4719 32.1275 27.4169 31.6174 26.5333ZM30.3997 28.6524C30.1437 29.0958 29.6853 29.3604 29.1733 29.3604H10.8266C10.3146 29.3604 9.85621 29.0958 9.60027 28.6524C9.34434 28.2091 9.34434 27.6798 9.60027 27.2364L18.7737 11.3476C19.0297 10.9043 19.4881 10.6396 20 10.6396C20.5119 10.6396 20.9704 10.9043 21.2263 11.3476L30.3997 27.2364C30.6556 27.6798 30.6556 28.2091 30.3997 28.6524Z" fill="#DD3A44"/>
<path fill-rule="evenodd" clip-rule="evenodd" d="M17.3395 10.5195C17.8942 9.5587 18.8904 8.98352 20 8.98352C21.1096 8.98352 22.1057 9.5587 22.6605 10.5195L31.8339 26.4083C32.3887 27.3692 32.3887 28.5195 31.8339 29.4804L31.8339 29.4805C31.279 30.4412 30.2829 31.0164 29.1733 31.0164H10.8266C9.71702 31.0164 8.7209 30.4413 8.1661 29.4804C7.6113 28.5195 7.6113 27.3692 8.1661 26.4083L8.3826 26.5333L8.1661 26.4083L17.3395 10.5195L17.556 10.6445L17.3395 10.5195ZM20 9.48352C19.0691 9.48352 18.2379 9.9634 17.7725 10.7695L8.59911 26.6583C8.13363 27.4645 8.13363 28.4242 8.59911 29.2304C9.06459 30.0366 9.89565 30.5164 10.8266 30.5164H29.1733C30.1042 30.5164 30.9354 30.0366 31.4009 29.2304C31.8664 28.4242 31.8664 27.4645 31.4009 26.6583L22.2275 10.7695C21.762 9.9634 20.9309 9.48352 20 9.48352ZM20 10.8896C19.5774 10.8896 19.2015 11.1066 18.9902 11.4726L18.9902 11.4726L9.81678 27.3614C9.6055 27.7274 9.6055 28.1614 9.81678 28.5274C10.0281 28.8934 10.4039 29.1104 10.8266 29.1104H29.1733C29.5959 29.1104 29.9718 28.8934 30.1832 28.5274C30.3945 28.1614 30.3945 27.7274 30.1832 27.3614C30.1832 27.3614 30.1832 27.3614 30.1832 27.3614L21.0098 11.4726L21.0098 11.4726C20.7985 11.1066 20.4226 10.8896 20 10.8896ZM18.5572 11.2226C18.8578 10.7019 19.3988 10.3896 20 10.3896C20.6012 10.3896 21.1422 10.7019 21.4428 11.2226C21.4428 11.2226 21.4428 11.2226 21.4428 11.2226L30.6162 27.1114L30.6163 27.1114C30.9168 27.6321 30.9168 28.2567 30.6162 28.7774L30.6162 28.7774C30.3155 29.2981 29.7746 29.6104 29.1733 29.6104H10.8266C10.2253 29.6104 9.68436 29.2981 9.38376 28.7774C9.08317 28.2567 9.08317 27.6321 9.38376 27.1114L9.58495 27.2276L9.38377 27.1114L18.5572 11.2226C18.5572 11.2226 18.5572 11.2226 18.5572 11.2226Z" fill="#DD3A44" stroke="#DD3A44" stroke-width="0.7"/>
<path d="M19.9999 24.7804C19.483 24.7804 19.0625 25.2009 19.0625 25.7178C19.0625 26.2347 19.483 26.6552 19.9999 26.6552C20.5167 26.6552 20.9373 26.2347 20.9373 25.7178C20.9373 25.2009 20.5168 24.7804 19.9999 24.7804Z" fill="#DD3A44" stroke="#DD3A44" stroke-width="0.8"/>
<path d="M20.7029 16.2501H19.2969V23.0001H20.7029V16.2501Z" fill="#DD3A44" stroke="#DD3A44" stroke-width="0.8" stroke-linejoin="round"/>
</svg>
