<svg width="32" height="32" viewBox="0 0 32 32" fill="none" xmlns="http://www.w3.org/2000/svg">
<rect x="0.5" y="0.5" width="31" height="31" rx="7.5" fill="#1F2128"/>
<path fill-rule="evenodd" clip-rule="evenodd" d="M18.0433 11.0641C17.6505 10.6438 17.0073 10.6455 16.6165 11.0678C16.2353 11.4796 16.2367 12.1388 16.6198 12.5488L18.8579 14.9435L10.75 14.9435C10.1809 14.9435 9.75 15.4339 9.75 16C9.75 16.5661 10.1809 17.0565 10.75 17.0565L18.8578 17.0565L16.6198 19.4513C16.2367 19.8612 16.2353 20.5204 16.6165 20.9322C17.0074 21.3545 17.6506 21.3561 18.0434 20.9359L21.9626 16.742C22.3457 16.3309 22.3454 15.6688 21.963 15.2585L18.0433 11.0641Z" fill="white"/>
<rect x="0.5" y="0.5" width="31" height="31" rx="7.5" stroke="#313442"/>
</svg>
