<svg width="14" height="15" viewBox="0 0 14 15" fill="none" xmlns="http://www.w3.org/2000/svg">
<g clip-path="url(#clip0_3381_102156)">
<path d="M12.8658 13.19H8.56429V8.49691H8.98264C9.36248 8.49691 9.67046 8.85182 9.6679 9.28593C9.6679 9.28886 9.6679 9.28886 9.6679 9.2918V10.1043C9.6679 10.9637 10.2762 11.6589 11.0282 11.6589C11.7801 11.6589 12.3884 10.9637 12.3884 10.1043V5.46401C12.3884 4.98298 12.2319 4.51953 11.9444 4.16462L9.93738 1.55117L9.5524 1.93835L11.1077 3.96517C10.5456 4.07369 10.1658 4.68086 10.2608 5.32322C10.3429 5.89226 10.7741 6.30877 11.2797 6.30877C11.4927 6.30583 11.7006 6.2325 11.8751 6.09171V10.1043C11.8751 10.6381 11.4953 11.0722 11.0282 11.0722C10.561 11.0722 10.1812 10.6381 10.1812 10.1043V9.2918C10.1838 8.53211 9.64737 7.91321 8.9852 7.91027H8.98264H8.56429V2.44579C8.56429 1.77702 8.09205 1.22266 7.50689 1.22266H2.73829C2.15313 1.22266 1.68602 1.77996 1.68602 2.44579V13.19H1.13165C0.990493 13.19 0.875 13.322 0.875 13.4833C0.875 13.6446 0.990493 13.7766 1.13165 13.7766H12.8683C13.0095 13.7766 13.125 13.6446 13.125 13.4833C13.125 13.322 13.0095 13.19 12.8658 13.19ZM11.2797 5.7192C10.9922 5.7192 10.7612 5.45228 10.7612 5.1267C10.7612 4.80112 10.9948 4.5342 11.2797 4.5342C11.5671 4.5342 11.7981 4.80112 11.7981 5.1267C11.7981 5.45228 11.5646 5.7192 11.2797 5.7192Z" fill="white"/>
<path d="M7.43611 2.66016H2.89337C2.75221 2.66016 2.63672 2.79215 2.63672 2.95347V6.38528C2.63672 6.5466 2.75221 6.67859 2.89337 6.67859H7.43611C7.57727 6.67859 7.69276 6.5466 7.69276 6.38528V2.95347C7.69276 2.79215 7.57727 2.66016 7.43611 2.66016Z" fill="#15161D"/>
</g>
<defs>
<clipPath id="clip0_3381_102156">
<rect width="12.25" height="14" fill="white" transform="translate(0.875 0.5)"/>
</clipPath>
</defs>
</svg>
