<svg width="16" height="16" viewBox="0 0 16 16" fill="none" xmlns="http://www.w3.org/2000/svg">
<g clip-path="url(#clip0_2551_101068)">
<path d="M11.6321 6.45135C11.4246 6.45135 11.256 6.61996 11.256 6.82743V10.7274C11.256 11.7491 10.4249 12.5802 9.40319 12.5802H3.27492C2.25323 12.5802 1.42209 11.7491 1.42209 10.7274V4.59914C1.42209 3.57745 2.25323 2.74631 3.27492 2.74631H7.1749C7.383 2.74631 7.55098 2.5777 7.55098 2.37022C7.55098 2.16275 7.38237 1.99414 7.1749 1.99414H3.27492C1.83829 1.99414 0.669922 3.1625 0.669922 4.59851V10.7268C0.669922 12.1628 1.83829 13.3312 3.27492 13.3312H9.40319C10.8392 13.3312 12.0076 12.1628 12.0076 10.7268V6.8268C12.0076 6.61933 11.839 6.45072 11.6315 6.45072L11.6321 6.45135Z" fill="#A0A3AD"/>
<path d="M12.9554 0.669922H9.94545C9.73798 0.669922 9.56937 0.838532 9.56937 1.046C9.56937 1.25348 9.73798 1.42209 9.94545 1.42209H12.0478L7.23891 6.23031C7.09224 6.37635 7.09224 6.61516 7.23891 6.76184C7.31225 6.83517 7.40877 6.87215 7.50468 6.87215C7.60058 6.87215 7.6971 6.83517 7.77044 6.76184L12.5787 1.95362V4.07472C12.5787 4.2822 12.7473 4.45081 12.9547 4.45081C13.1622 4.45081 13.3308 4.2822 13.3308 4.07472V1.046C13.3308 0.838532 13.1628 0.669922 12.9554 0.669922Z" fill="#A0A3AD"/>
</g>
<defs>
<clipPath id="clip0_2551_101068">
<rect width="16" height="16" fill="white"/>
</clipPath>
</defs>
</svg>
