<svg width="496" height="457" viewBox="0 2 496 457" fill="none" xmlns="http://www.w3.org/2000/svg">
<rect x="3.5" y="1" width="222.5" height="384" rx="7.5" fill="#0F0F12"/>
<rect x="3.5" y="1" width="222.5" height="384" rx="7.5" stroke="#1F2128"/>
<rect x="3.5" y="1" width="222.5" height="384" rx="7.5" stroke="#1F2128"/>
<g opacity="0.15">
<g clip-path="url(#clip0_1419_23939)">
<rect x="15.5" y="60.5" width="199" height="247" rx="15.5" stroke="#313442" stroke-dasharray="6 6"/>
<path d="M120.875 209.125C122 207.625 122.625 205.875 122.625 203.875C122.625 199 118.75 195 113.875 195C109 195 105 199 105 203.875C105 208.75 109 212.75 113.875 212.75C115.875 212.75 117.75 212.125 119.125 211L122.875 214.75C123.125 215 123.5 215.125 123.75 215.125C124 215.125 124.375 215 124.625 214.75C125.125 214.25 125.125 213.5 124.625 213L120.875 209.125ZM113.875 210.125C110.375 210.125 107.5 207.375 107.5 203.875C107.5 200.375 110.375 197.5 113.875 197.5C117.375 197.5 120.25 200.375 120.25 203.875C120.25 207.375 117.375 210.125 113.875 210.125Z" fill="white"/>
<path d="M54.8431 173.126C54.0031 173.126 53.2471 172.982 52.5751 172.694C51.9031 172.394 51.3751 171.974 50.9911 171.434C50.6071 170.894 50.4151 170.264 50.4151 169.544H52.6111C52.6591 170.084 52.8691 170.528 53.2411 170.876C53.6251 171.224 54.1591 171.398 54.8431 171.398C55.5511 171.398 56.1031 171.23 56.4991 170.894C56.8951 170.546 57.0931 170.102 57.0931 169.562C57.0931 169.142 56.9671 168.8 56.7151 168.536C56.4751 168.272 56.1691 168.068 55.7971 167.924C55.4371 167.78 54.9331 167.624 54.2851 167.456C53.4691 167.24 52.8031 167.024 52.2871 166.808C51.7831 166.58 51.3511 166.232 50.9911 165.764C50.6311 165.296 50.4511 164.672 50.4511 163.892C50.4511 163.172 50.6311 162.542 50.9911 162.002C51.3511 161.462 51.8551 161.048 52.5031 160.76C53.1511 160.472 53.9011 160.328 54.7531 160.328C55.9651 160.328 56.9551 160.634 57.7231 161.246C58.5031 161.846 58.9351 162.674 59.0191 163.73H56.7511C56.7151 163.274 56.4991 162.884 56.1031 162.56C55.7071 162.236 55.1851 162.074 54.5371 162.074C53.9491 162.074 53.4691 162.224 53.0971 162.524C52.7251 162.824 52.5391 163.256 52.5391 163.82C52.5391 164.204 52.6531 164.522 52.8811 164.774C53.1211 165.014 53.4211 165.206 53.7811 165.35C54.1411 165.494 54.6331 165.65 55.2571 165.818C56.0851 166.046 56.7571 166.274 57.2731 166.502C57.8011 166.73 58.2451 167.084 58.6051 167.564C58.9771 168.032 59.1631 168.662 59.1631 169.454C59.1631 170.09 58.9891 170.69 58.6411 171.254C58.3051 171.818 57.8071 172.274 57.1471 172.622C56.4991 172.958 55.7311 173.126 54.8431 173.126ZM70.6744 167.798C70.6744 168.17 70.6504 168.506 70.6024 168.806H63.0244C63.0844 169.598 63.3784 170.234 63.9064 170.714C64.4344 171.194 65.0824 171.434 65.8504 171.434C66.9544 171.434 67.7344 170.972 68.1904 170.048H70.4044C70.1044 170.96 69.5584 171.71 68.7664 172.298C67.9864 172.874 67.0144 173.162 65.8504 173.162C64.9024 173.162 64.0504 172.952 63.2944 172.532C62.5504 172.1 61.9624 171.5 61.5304 170.732C61.1104 169.952 60.9004 169.052 60.9004 168.032C60.9004 167.012 61.1044 166.118 61.5124 165.35C61.9324 164.57 62.5144 163.97 63.2584 163.55C64.0144 163.13 64.8784 162.92 65.8504 162.92C66.7864 162.92 67.6204 163.124 68.3524 163.532C69.0844 163.94 69.6544 164.516 70.0624 165.26C70.4704 165.992 70.6744 166.838 70.6744 167.798ZM68.5324 167.15C68.5204 166.394 68.2504 165.788 67.7224 165.332C67.1944 164.876 66.5404 164.648 65.7604 164.648C65.0524 164.648 64.4464 164.876 63.9424 165.332C63.4384 165.776 63.1384 166.382 63.0424 167.15H68.5324ZM72.0098 167.996C72.0098 167 72.2138 166.118 72.6218 165.35C73.0418 164.582 73.6058 163.988 74.3138 163.568C75.0338 163.136 75.8258 162.92 76.6898 162.92C77.4698 162.92 78.1478 163.076 78.7238 163.388C79.3118 163.688 79.7798 164.066 80.1278 164.522V163.082H82.1978V173H80.1278V171.524C79.7798 171.992 79.3058 172.382 78.7058 172.694C78.1058 173.006 77.4218 173.162 76.6538 173.162C75.8018 173.162 75.0218 172.946 74.3138 172.514C73.6058 172.07 73.0418 171.458 72.6218 170.678C72.2138 169.886 72.0098 168.992 72.0098 167.996ZM80.1278 168.032C80.1278 167.348 79.9838 166.754 79.6958 166.25C79.4198 165.746 79.0538 165.362 78.5978 165.098C78.1418 164.834 77.6498 164.702 77.1218 164.702C76.5938 164.702 76.1018 164.834 75.6458 165.098C75.1898 165.35 74.8178 165.728 74.5298 166.232C74.2538 166.724 74.1158 167.312 74.1158 167.996C74.1158 168.68 74.2538 169.28 74.5298 169.796C74.8178 170.312 75.1898 170.708 75.6458 170.984C76.1138 171.248 76.6058 171.38 77.1218 171.38C77.6498 171.38 78.1418 171.248 78.5978 170.984C79.0538 170.72 79.4198 170.336 79.6958 169.832C79.9838 169.316 80.1278 168.716 80.1278 168.032ZM86.945 164.522C87.245 164.018 87.641 163.628 88.133 163.352C88.637 163.064 89.231 162.92 89.915 162.92V165.044H89.393C88.589 165.044 87.977 165.248 87.557 165.656C87.149 166.064 86.945 166.772 86.945 167.78V173H84.893V163.082H86.945V164.522ZM91.1172 168.032C91.1172 167.012 91.3212 166.118 91.7292 165.35C92.1492 164.57 92.7252 163.97 93.4572 163.55C94.1892 163.13 95.0292 162.92 95.9772 162.92C97.1772 162.92 98.1672 163.208 98.9472 163.784C99.7392 164.348 100.273 165.158 100.549 166.214H98.3352C98.1552 165.722 97.8672 165.338 97.4712 165.062C97.0752 164.786 96.5772 164.648 95.9772 164.648C95.1372 164.648 94.4652 164.948 93.9612 165.548C93.4692 166.136 93.2232 166.964 93.2232 168.032C93.2232 169.1 93.4692 169.934 93.9612 170.534C94.4652 171.134 95.1372 171.434 95.9772 171.434C97.1652 171.434 97.9512 170.912 98.3352 169.868H100.549C100.261 170.876 99.7212 171.68 98.9292 172.28C98.1372 172.868 97.1532 173.162 95.9772 173.162C95.0292 173.162 94.1892 172.952 93.4572 172.532C92.7252 172.1 92.1492 171.5 91.7292 170.732C91.3212 169.952 91.1172 169.052 91.1172 168.032ZM107.724 162.92C108.48 162.92 109.152 163.082 109.74 163.406C110.34 163.73 110.808 164.21 111.144 164.846C111.492 165.482 111.666 166.25 111.666 167.15V173H109.632V167.456C109.632 166.568 109.41 165.89 108.966 165.422C108.522 164.942 107.916 164.702 107.148 164.702C106.38 164.702 105.768 164.942 105.312 165.422C104.868 165.89 104.646 166.568 104.646 167.456V173H102.594V159.68H104.646V164.234C104.994 163.814 105.432 163.49 105.96 163.262C106.5 163.034 107.088 162.92 107.724 162.92ZM127.041 160.49V162.164H123.711V173H121.659V162.164H118.311V160.49H127.041ZM133.422 173.162C132.486 173.162 131.64 172.952 130.884 172.532C130.128 172.1 129.534 171.5 129.102 170.732C128.67 169.952 128.454 169.052 128.454 168.032C128.454 167.024 128.676 166.13 129.12 165.35C129.564 164.57 130.17 163.97 130.938 163.55C131.706 163.13 132.564 162.92 133.512 162.92C134.46 162.92 135.318 163.13 136.086 163.55C136.854 163.97 137.46 164.57 137.904 165.35C138.348 166.13 138.57 167.024 138.57 168.032C138.57 169.04 138.342 169.934 137.886 170.714C137.43 171.494 136.806 172.1 136.014 172.532C135.234 172.952 134.37 173.162 133.422 173.162ZM133.422 171.38C133.95 171.38 134.442 171.254 134.898 171.002C135.366 170.75 135.744 170.372 136.032 169.868C136.32 169.364 136.464 168.752 136.464 168.032C136.464 167.312 136.326 166.706 136.05 166.214C135.774 165.71 135.408 165.332 134.952 165.08C134.496 164.828 134.004 164.702 133.476 164.702C132.948 164.702 132.456 164.828 132 165.08C131.556 165.332 131.202 165.71 130.938 166.214C130.674 166.706 130.542 167.312 130.542 168.032C130.542 169.1 130.812 169.928 131.352 170.516C131.904 171.092 132.594 171.38 133.422 171.38ZM144.522 168.05L149.094 173H146.322L142.65 168.734V173H140.598V159.68H142.65V167.42L146.25 163.082H149.094L144.522 168.05ZM159.655 167.798C159.655 168.17 159.631 168.506 159.583 168.806H152.005C152.065 169.598 152.359 170.234 152.887 170.714C153.415 171.194 154.063 171.434 154.831 171.434C155.935 171.434 156.715 170.972 157.171 170.048H159.385C159.085 170.96 158.539 171.71 157.747 172.298C156.967 172.874 155.995 173.162 154.831 173.162C153.883 173.162 153.031 172.952 152.275 172.532C151.531 172.1 150.943 171.5 150.511 170.732C150.091 169.952 149.881 169.052 149.881 168.032C149.881 167.012 150.085 166.118 150.493 165.35C150.913 164.57 151.495 163.97 152.239 163.55C152.995 163.13 153.859 162.92 154.831 162.92C155.767 162.92 156.601 163.124 157.333 163.532C158.065 163.94 158.635 164.516 159.043 165.26C159.451 165.992 159.655 166.838 159.655 167.798ZM157.513 167.15C157.501 166.394 157.231 165.788 156.703 165.332C156.175 164.876 155.521 164.648 154.741 164.648C154.033 164.648 153.427 164.876 152.923 165.332C152.419 165.776 152.119 166.382 152.023 167.15H157.513ZM166.678 162.92C167.458 162.92 168.154 163.082 168.766 163.406C169.39 163.73 169.876 164.21 170.224 164.846C170.572 165.482 170.746 166.25 170.746 167.15V173H168.712V167.456C168.712 166.568 168.49 165.89 168.046 165.422C167.602 164.942 166.996 164.702 166.228 164.702C165.46 164.702 164.848 164.942 164.392 165.422C163.948 165.89 163.726 166.568 163.726 167.456V173H161.674V163.082H163.726V164.216C164.062 163.808 164.488 163.49 165.004 163.262C165.532 163.034 166.09 162.92 166.678 162.92ZM176.964 173.162C176.184 173.162 175.482 173.024 174.858 172.748C174.246 172.46 173.76 172.076 173.4 171.596C173.04 171.104 172.848 170.558 172.824 169.958H174.948C174.984 170.378 175.182 170.732 175.542 171.02C175.914 171.296 176.376 171.434 176.928 171.434C177.504 171.434 177.948 171.326 178.26 171.11C178.584 170.882 178.746 170.594 178.746 170.246C178.746 169.874 178.566 169.598 178.206 169.418C177.858 169.238 177.3 169.04 176.532 168.824C175.788 168.62 175.182 168.422 174.714 168.23C174.246 168.038 173.838 167.744 173.49 167.348C173.154 166.952 172.986 166.43 172.986 165.782C172.986 165.254 173.142 164.774 173.454 164.342C173.766 163.898 174.21 163.55 174.786 163.298C175.374 163.046 176.046 162.92 176.802 162.92C177.93 162.92 178.836 163.208 179.52 163.784C180.216 164.348 180.588 165.122 180.636 166.106H178.584C178.548 165.662 178.368 165.308 178.044 165.044C177.72 164.78 177.282 164.648 176.73 164.648C176.19 164.648 175.776 164.75 175.488 164.954C175.2 165.158 175.056 165.428 175.056 165.764C175.056 166.028 175.152 166.25 175.344 166.43C175.536 166.61 175.77 166.754 176.046 166.862C176.322 166.958 176.73 167.084 177.27 167.24C177.99 167.432 178.578 167.63 179.034 167.834C179.502 168.026 179.904 168.314 180.24 168.698C180.576 169.082 180.75 169.592 180.762 170.228C180.762 170.792 180.606 171.296 180.294 171.74C179.982 172.184 179.538 172.532 178.962 172.784C178.398 173.036 177.732 173.162 176.964 173.162Z" fill="white"/>
</g>
</g>
<g filter="url(#filter0_d_1419_23939)">
<rect x="15" y="16" width="200" height="32" rx="6" fill="#1F2128" shape-rendering="crispEdges"/>
<rect x="23" y="22" width="20" height="20" rx="10" fill="#383736"/>
<g clip-path="url(#clip1_1419_23939)">
<path fill-rule="evenodd" clip-rule="evenodd" d="M32.9835 35.7745L28.6255 33.4805L32.9835 24.503V24.5L37.357 33.4805L32.9835 35.7745Z" fill="white"/>
<path fill-rule="evenodd" clip-rule="evenodd" d="M32.9835 39.4996L28.6255 33.8086L32.9835 36.2001L37.357 33.8086L32.9835 39.4996Z" fill="white"/>
</g>
<path fill-rule="evenodd" clip-rule="evenodd" d="M201.447 34.5729C201.142 34.2678 201.142 33.7732 201.447 33.4681L204.718 30.1979C205.023 29.8928 205.517 29.8928 205.822 30.1979C206.128 30.503 206.128 30.9977 205.822 31.3028L202.552 34.5729C202.247 34.878 201.753 34.878 201.447 34.5729Z" fill="white"/>
<path fill-rule="evenodd" clip-rule="evenodd" d="M198.178 30.1979C198.483 29.8928 198.977 29.8928 199.282 30.1979L202.553 33.4681C202.858 33.7732 202.858 34.2678 202.553 34.5729C202.247 34.878 201.753 34.878 201.448 34.5729L198.178 31.3028C197.872 30.9977 197.872 30.503 198.178 30.1979Z" fill="white"/>
<path d="M51.646 28.558V31.414H55.006V32.716H51.646V35.698H55.426V37H50.05V27.256H55.426V28.558H51.646ZM59.2538 30.588V34.858C59.2538 35.1473 59.3191 35.3573 59.4498 35.488C59.5898 35.6093 59.8231 35.67 60.1498 35.67H61.1298V37H59.8698C59.1511 37 58.6005 36.832 58.2178 36.496C57.8351 36.16 57.6438 35.614 57.6438 34.858V30.588H56.7338V29.286H57.6438V27.368H59.2538V29.286H61.1298V30.588H59.2538ZM66.5908 29.16C67.1788 29.16 67.7014 29.286 68.1588 29.538C68.6254 29.79 68.9894 30.1633 69.2508 30.658C69.5214 31.1527 69.6568 31.75 69.6568 32.45V37H68.0748V32.688C68.0748 31.9973 67.9021 31.47 67.5568 31.106C67.2114 30.7327 66.7401 30.546 66.1428 30.546C65.5454 30.546 65.0694 30.7327 64.7148 31.106C64.3694 31.47 64.1968 31.9973 64.1968 32.688V37H62.6008V26.64H64.1968V30.182C64.4674 29.8553 64.8081 29.6033 65.2188 29.426C65.6388 29.2487 66.0961 29.16 66.5908 29.16ZM78.7626 32.954C78.7626 33.2433 78.7439 33.5047 78.7066 33.738H72.8126C72.8592 34.354 73.0879 34.8487 73.4986 35.222C73.9092 35.5953 74.4132 35.782 75.0106 35.782C75.8692 35.782 76.4759 35.4227 76.8306 34.704H78.5526C78.3192 35.4133 77.8946 35.9967 77.2786 36.454C76.6719 36.902 75.9159 37.126 75.0106 37.126C74.2732 37.126 73.6106 36.9627 73.0226 36.636C72.4439 36.3 71.9866 35.8333 71.6506 35.236C71.3239 34.6293 71.1606 33.9293 71.1606 33.136C71.1606 32.3427 71.3192 31.6473 71.6366 31.05C71.9632 30.4433 72.4159 29.9767 72.9946 29.65C73.5826 29.3233 74.2546 29.16 75.0106 29.16C75.7386 29.16 76.3872 29.3187 76.9566 29.636C77.5259 29.9533 77.9692 30.4013 78.2866 30.98C78.6039 31.5493 78.7626 32.2073 78.7626 32.954ZM77.0966 32.45C77.0872 31.862 76.8772 31.3907 76.4666 31.036C76.0559 30.6813 75.5472 30.504 74.9406 30.504C74.3899 30.504 73.9186 30.6813 73.5266 31.036C73.1346 31.3813 72.9012 31.8527 72.8266 32.45H77.0966ZM81.9292 30.406C82.1625 30.014 82.4705 29.7107 82.8532 29.496C83.2452 29.272 83.7072 29.16 84.2392 29.16V30.812H83.8332C83.2079 30.812 82.7319 30.9707 82.4052 31.288C82.0879 31.6053 81.9292 32.156 81.9292 32.94V37H80.3332V29.286H81.9292V30.406ZM92.7763 32.954C92.7763 33.2433 92.7576 33.5047 92.7203 33.738H86.8263C86.8729 34.354 87.1016 34.8487 87.5123 35.222C87.9229 35.5953 88.4269 35.782 89.0243 35.782C89.8829 35.782 90.4896 35.4227 90.8443 34.704H92.5662C92.3329 35.4133 91.9083 35.9967 91.2923 36.454C90.6856 36.902 89.9296 37.126 89.0243 37.126C88.2869 37.126 87.6243 36.9627 87.0363 36.636C86.4576 36.3 86.0003 35.8333 85.6643 35.236C85.3376 34.6293 85.1743 33.9293 85.1743 33.136C85.1743 32.3427 85.3329 31.6473 85.6503 31.05C85.9769 30.4433 86.4296 29.9767 87.0083 29.65C87.5963 29.3233 88.2683 29.16 89.0243 29.16C89.7523 29.16 90.4009 29.3187 90.9703 29.636C91.5396 29.9533 91.9829 30.4013 92.3003 30.98C92.6176 31.5493 92.7763 32.2073 92.7763 32.954ZM91.1103 32.45C91.1009 31.862 90.8909 31.3907 90.4803 31.036C90.0696 30.6813 89.5609 30.504 88.9543 30.504C88.4036 30.504 87.9323 30.6813 87.5403 31.036C87.1483 31.3813 86.9149 31.8527 86.8403 32.45H91.1103ZM101.333 29.286V37H99.7369V36.09C99.4849 36.4073 99.1535 36.6593 98.7429 36.846C98.3415 37.0233 97.9122 37.112 97.4549 37.112C96.8482 37.112 96.3022 36.986 95.8169 36.734C95.3409 36.482 94.9629 36.1087 94.6829 35.614C94.4122 35.1193 94.2769 34.522 94.2769 33.822V29.286H95.8589V33.584C95.8589 34.2747 96.0315 34.8067 96.3769 35.18C96.7222 35.544 97.1935 35.726 97.7909 35.726C98.3882 35.726 98.8595 35.544 99.2049 35.18C99.5595 34.8067 99.7369 34.2747 99.7369 33.584V29.286H101.333ZM112.777 29.16C113.383 29.16 113.925 29.286 114.401 29.538C114.886 29.79 115.264 30.1633 115.535 30.658C115.815 31.1527 115.955 31.75 115.955 32.45V37H114.373V32.688C114.373 31.9973 114.2 31.47 113.855 31.106C113.509 30.7327 113.038 30.546 112.441 30.546C111.843 30.546 111.367 30.7327 111.013 31.106C110.667 31.47 110.495 31.9973 110.495 32.688V37H108.913V32.688C108.913 31.9973 108.74 31.47 108.395 31.106C108.049 30.7327 107.578 30.546 106.981 30.546C106.383 30.546 105.907 30.7327 105.553 31.106C105.207 31.47 105.035 31.9973 105.035 32.688V37H103.439V29.286H105.035V30.168C105.296 29.8507 105.627 29.6033 106.029 29.426C106.43 29.2487 106.859 29.16 107.317 29.16C107.933 29.16 108.483 29.2907 108.969 29.552C109.454 29.8133 109.827 30.1913 110.089 30.686C110.322 30.2193 110.686 29.8507 111.181 29.58C111.675 29.3 112.207 29.16 112.777 29.16Z" fill="white"/>
</g>
<path fill-rule="evenodd" clip-rule="evenodd" d="M254.065 185.096C253.476 184.466 252.511 184.468 251.925 185.102C251.353 185.719 251.355 186.708 251.93 187.323L255.287 190.915H243.125C242.271 190.915 241.625 191.651 241.625 192.5C241.625 193.349 242.271 194.085 243.125 194.085H255.287L251.93 197.677C251.355 198.292 251.353 199.281 251.925 199.898C252.511 200.532 253.476 200.534 254.065 199.904L259.944 193.613C260.519 192.996 260.518 192.003 259.945 191.388L254.065 185.096Z" fill="white"/>
<rect x="270.5" y="0.5" width="224" height="384" rx="7.5" fill="#0F0F12"/>
<rect x="270.5" y="0.5" width="224" height="384" rx="7.5" stroke="#1F2128"/>
<rect x="270.5" y="0.5" width="224" height="384" rx="7.5" stroke="#1F2128"/>
<g opacity="0.15">
<g clip-path="url(#clip2_1419_23939)">
<rect x="291.5" y="64.5" width="191" height="239" rx="15.5" stroke="#313442" stroke-opacity="0.6"/>
<rect x="287.5" y="68.5" width="191" height="239" rx="15.5" stroke="#313442" stroke-opacity="0.6"/>
<rect x="295.5" y="60.5" width="191" height="239" rx="15.5" fill="#0F0F12" stroke="#313442"/>
<path d="M329.482 187.126C328.642 187.126 327.886 186.982 327.214 186.694C326.542 186.394 326.014 185.974 325.63 185.434C325.246 184.894 325.054 184.264 325.054 183.544H327.25C327.298 184.084 327.508 184.528 327.88 184.876C328.264 185.224 328.798 185.398 329.482 185.398C330.19 185.398 330.742 185.23 331.138 184.894C331.534 184.546 331.732 184.102 331.732 183.562C331.732 183.142 331.606 182.8 331.354 182.536C331.114 182.272 330.808 182.068 330.436 181.924C330.076 181.78 329.572 181.624 328.924 181.456C328.108 181.24 327.442 181.024 326.926 180.808C326.422 180.58 325.99 180.232 325.63 179.764C325.27 179.296 325.09 178.672 325.09 177.892C325.09 177.172 325.27 176.542 325.63 176.002C325.99 175.462 326.494 175.048 327.142 174.76C327.79 174.472 328.54 174.328 329.392 174.328C330.604 174.328 331.594 174.634 332.362 175.246C333.142 175.846 333.574 176.674 333.658 177.73H331.39C331.354 177.274 331.138 176.884 330.742 176.56C330.346 176.236 329.824 176.074 329.176 176.074C328.588 176.074 328.108 176.224 327.736 176.524C327.364 176.824 327.178 177.256 327.178 177.82C327.178 178.204 327.292 178.522 327.52 178.774C327.76 179.014 328.06 179.206 328.42 179.35C328.78 179.494 329.272 179.65 329.896 179.818C330.724 180.046 331.396 180.274 331.912 180.502C332.44 180.73 332.884 181.084 333.244 181.564C333.616 182.032 333.802 182.662 333.802 183.454C333.802 184.09 333.628 184.69 333.28 185.254C332.944 185.818 332.446 186.274 331.786 186.622C331.138 186.958 330.37 187.126 329.482 187.126ZM345.313 181.798C345.313 182.17 345.289 182.506 345.241 182.806H337.663C337.723 183.598 338.017 184.234 338.545 184.714C339.073 185.194 339.721 185.434 340.489 185.434C341.593 185.434 342.373 184.972 342.829 184.048H345.043C344.743 184.96 344.197 185.71 343.405 186.298C342.625 186.874 341.653 187.162 340.489 187.162C339.541 187.162 338.689 186.952 337.933 186.532C337.189 186.1 336.601 185.5 336.169 184.732C335.749 183.952 335.539 183.052 335.539 182.032C335.539 181.012 335.743 180.118 336.151 179.35C336.571 178.57 337.153 177.97 337.897 177.55C338.653 177.13 339.517 176.92 340.489 176.92C341.425 176.92 342.259 177.124 342.991 177.532C343.723 177.94 344.293 178.516 344.701 179.26C345.109 179.992 345.313 180.838 345.313 181.798ZM343.171 181.15C343.159 180.394 342.889 179.788 342.361 179.332C341.833 178.876 341.179 178.648 340.399 178.648C339.691 178.648 339.085 178.876 338.581 179.332C338.077 179.776 337.777 180.382 337.681 181.15H343.171ZM349.384 173.68V187H347.332V173.68H349.384ZM361.169 181.798C361.169 182.17 361.145 182.506 361.097 182.806H353.519C353.579 183.598 353.873 184.234 354.401 184.714C354.929 185.194 355.577 185.434 356.345 185.434C357.449 185.434 358.229 184.972 358.685 184.048H360.899C360.599 184.96 360.053 185.71 359.261 186.298C358.481 186.874 357.509 187.162 356.345 187.162C355.397 187.162 354.545 186.952 353.789 186.532C353.045 186.1 352.457 185.5 352.025 184.732C351.605 183.952 351.395 183.052 351.395 182.032C351.395 181.012 351.599 180.118 352.007 179.35C352.427 178.57 353.009 177.97 353.753 177.55C354.509 177.13 355.373 176.92 356.345 176.92C357.281 176.92 358.115 177.124 358.847 177.532C359.579 177.94 360.149 178.516 360.557 179.26C360.965 179.992 361.169 180.838 361.169 181.798ZM359.027 181.15C359.015 180.394 358.745 179.788 358.217 179.332C357.689 178.876 357.035 178.648 356.255 178.648C355.547 178.648 354.941 178.876 354.437 179.332C353.933 179.776 353.633 180.382 353.537 181.15H359.027ZM362.504 182.032C362.504 181.012 362.708 180.118 363.116 179.35C363.536 178.57 364.112 177.97 364.844 177.55C365.576 177.13 366.416 176.92 367.364 176.92C368.564 176.92 369.554 177.208 370.334 177.784C371.126 178.348 371.66 179.158 371.936 180.214H369.722C369.542 179.722 369.254 179.338 368.858 179.062C368.462 178.786 367.964 178.648 367.364 178.648C366.524 178.648 365.852 178.948 365.348 179.548C364.856 180.136 364.61 180.964 364.61 182.032C364.61 183.1 364.856 183.934 365.348 184.534C365.852 185.134 366.524 185.434 367.364 185.434C368.552 185.434 369.338 184.912 369.722 183.868H371.936C371.648 184.876 371.108 185.68 370.316 186.28C369.524 186.868 368.54 187.162 367.364 187.162C366.416 187.162 365.576 186.952 364.844 186.532C364.112 186.1 363.536 185.5 363.116 184.732C362.708 183.952 362.504 183.052 362.504 182.032ZM376.375 178.756V184.246C376.375 184.618 376.459 184.888 376.627 185.056C376.807 185.212 377.107 185.29 377.527 185.29H378.787V187H377.167C376.243 187 375.535 186.784 375.043 186.352C374.551 185.92 374.305 185.218 374.305 184.246V178.756H373.135V177.082H374.305V174.616H376.375V177.082H378.787V178.756H376.375ZM395.632 187H393.58L387.406 177.658V187H385.354V174.472H387.406L393.58 183.796V174.472H395.632V187ZM407.417 181.798C407.417 182.17 407.393 182.506 407.345 182.806H399.767C399.827 183.598 400.121 184.234 400.649 184.714C401.177 185.194 401.825 185.434 402.593 185.434C403.697 185.434 404.477 184.972 404.933 184.048H407.147C406.847 184.96 406.301 185.71 405.509 186.298C404.729 186.874 403.757 187.162 402.593 187.162C401.645 187.162 400.793 186.952 400.037 186.532C399.293 186.1 398.705 185.5 398.273 184.732C397.853 183.952 397.643 183.052 397.643 182.032C397.643 181.012 397.847 180.118 398.255 179.35C398.675 178.57 399.257 177.97 400.001 177.55C400.757 177.13 401.621 176.92 402.593 176.92C403.529 176.92 404.363 177.124 405.095 177.532C405.827 177.94 406.397 178.516 406.805 179.26C407.213 179.992 407.417 180.838 407.417 181.798ZM405.275 181.15C405.263 180.394 404.993 179.788 404.465 179.332C403.937 178.876 403.283 178.648 402.503 178.648C401.795 178.648 401.189 178.876 400.685 179.332C400.181 179.776 399.881 180.382 399.785 181.15H405.275ZM411.83 178.756V184.246C411.83 184.618 411.914 184.888 412.082 185.056C412.262 185.212 412.562 185.29 412.982 185.29H414.242V187H412.622C411.698 187 410.99 186.784 410.498 186.352C410.006 185.92 409.76 185.218 409.76 184.246V178.756H408.59V177.082H409.76V174.616H411.83V177.082H414.242V178.756H411.83ZM429.453 177.082L426.375 187H424.215L422.217 179.674L420.219 187H418.059L414.963 177.082H417.051L419.121 185.056L421.227 177.082H423.369L425.385 185.02L427.437 177.082H429.453ZM435.289 187.162C434.353 187.162 433.507 186.952 432.751 186.532C431.995 186.1 431.401 185.5 430.969 184.732C430.537 183.952 430.321 183.052 430.321 182.032C430.321 181.024 430.543 180.13 430.987 179.35C431.431 178.57 432.037 177.97 432.805 177.55C433.573 177.13 434.431 176.92 435.379 176.92C436.327 176.92 437.185 177.13 437.953 177.55C438.721 177.97 439.327 178.57 439.771 179.35C440.215 180.13 440.437 181.024 440.437 182.032C440.437 183.04 440.209 183.934 439.753 184.714C439.297 185.494 438.673 186.1 437.881 186.532C437.101 186.952 436.237 187.162 435.289 187.162ZM435.289 185.38C435.817 185.38 436.309 185.254 436.765 185.002C437.233 184.75 437.611 184.372 437.899 183.868C438.187 183.364 438.331 182.752 438.331 182.032C438.331 181.312 438.193 180.706 437.917 180.214C437.641 179.71 437.275 179.332 436.819 179.08C436.363 178.828 435.871 178.702 435.343 178.702C434.815 178.702 434.323 178.828 433.867 179.08C433.423 179.332 433.069 179.71 432.805 180.214C432.541 180.706 432.409 181.312 432.409 182.032C432.409 183.1 432.679 183.928 433.219 184.516C433.771 185.092 434.461 185.38 435.289 185.38ZM444.517 178.522C444.817 178.018 445.213 177.628 445.705 177.352C446.209 177.064 446.803 176.92 447.487 176.92V179.044H446.965C446.161 179.044 445.549 179.248 445.129 179.656C444.721 180.064 444.517 180.772 444.517 181.78V187H442.465V177.082H444.517V178.522ZM453.297 182.05L457.869 187H455.097L451.425 182.734V187H449.373V173.68H451.425V181.42L455.025 177.082H457.869L453.297 182.05Z" fill="white"/>
</g>
</g>
<g filter="url(#filter1_d_1419_23939)">
<rect x="286" y="16" width="200" height="32" rx="6" fill="#1F2128" shape-rendering="crispEdges"/>
<rect x="296.5" y="23.5" width="17" height="17" rx="8.5" fill="#9E9E9E"/>
<rect x="296.5" y="23.5" width="17" height="17" rx="8.5" stroke="#9E9E9E" stroke-width="3"/>
<path fill-rule="evenodd" clip-rule="evenodd" d="M473.447 34.5729C473.142 34.2678 473.142 33.7732 473.447 33.4681L476.718 30.1979C477.023 29.8928 477.517 29.8928 477.822 30.1979C478.128 30.503 478.128 30.9977 477.822 31.3028L474.552 34.5729C474.247 34.878 473.753 34.878 473.447 34.5729Z" fill="white"/>
<path fill-rule="evenodd" clip-rule="evenodd" d="M470.178 30.1979C470.483 29.8928 470.977 29.8928 471.282 30.1979L474.553 33.4681C474.858 33.7732 474.858 34.2678 474.553 34.5729C474.247 34.878 473.753 34.878 473.448 34.5729L470.178 31.3028C469.872 30.9977 469.872 30.503 470.178 30.1979Z" fill="white"/>
<path d="M325.256 37.098C324.603 37.098 324.015 36.986 323.492 36.762C322.969 36.5287 322.559 36.202 322.26 35.782C321.961 35.362 321.812 34.872 321.812 34.312H323.52C323.557 34.732 323.721 35.0773 324.01 35.348C324.309 35.6187 324.724 35.754 325.256 35.754C325.807 35.754 326.236 35.6233 326.544 35.362C326.852 35.0913 327.006 34.746 327.006 34.326C327.006 33.9993 326.908 33.7333 326.712 33.528C326.525 33.3227 326.287 33.164 325.998 33.052C325.718 32.94 325.326 32.8187 324.822 32.688C324.187 32.52 323.669 32.352 323.268 32.184C322.876 32.0067 322.54 31.736 322.26 31.372C321.98 31.008 321.84 30.5227 321.84 29.916C321.84 29.356 321.98 28.866 322.26 28.446C322.54 28.026 322.932 27.704 323.436 27.48C323.94 27.256 324.523 27.144 325.186 27.144C326.129 27.144 326.899 27.382 327.496 27.858C328.103 28.3247 328.439 28.9687 328.504 29.79H326.74C326.712 29.4353 326.544 29.132 326.236 28.88C325.928 28.628 325.522 28.502 325.018 28.502C324.561 28.502 324.187 28.6187 323.898 28.852C323.609 29.0853 323.464 29.4213 323.464 29.86C323.464 30.1587 323.553 30.406 323.73 30.602C323.917 30.7887 324.15 30.938 324.43 31.05C324.71 31.162 325.093 31.2833 325.578 31.414C326.222 31.5913 326.745 31.7687 327.146 31.946C327.557 32.1233 327.902 32.3987 328.182 32.772C328.471 33.136 328.616 33.626 328.616 34.242C328.616 34.7367 328.481 35.2033 328.21 35.642C327.949 36.0807 327.561 36.4353 327.048 36.706C326.544 36.9673 325.947 37.098 325.256 37.098ZM337.569 32.954C337.569 33.2433 337.551 33.5047 337.513 33.738H331.619C331.666 34.354 331.895 34.8487 332.305 35.222C332.716 35.5953 333.22 35.782 333.817 35.782C334.676 35.782 335.283 35.4227 335.637 34.704H337.359C337.126 35.4133 336.701 35.9967 336.085 36.454C335.479 36.902 334.723 37.126 333.817 37.126C333.08 37.126 332.417 36.9627 331.829 36.636C331.251 36.3 330.793 35.8333 330.457 35.236C330.131 34.6293 329.967 33.9293 329.967 33.136C329.967 32.3427 330.126 31.6473 330.443 31.05C330.77 30.4433 331.223 29.9767 331.801 29.65C332.389 29.3233 333.061 29.16 333.817 29.16C334.545 29.16 335.194 29.3187 335.763 29.636C336.333 29.9533 336.776 30.4013 337.093 30.98C337.411 31.5493 337.569 32.2073 337.569 32.954ZM335.903 32.45C335.894 31.862 335.684 31.3907 335.273 31.036C334.863 30.6813 334.354 30.504 333.747 30.504C333.197 30.504 332.725 30.6813 332.333 31.036C331.941 31.3813 331.708 31.8527 331.633 32.45H335.903ZM340.736 26.64V37H339.14V26.64H340.736ZM349.901 32.954C349.901 33.2433 349.883 33.5047 349.845 33.738H343.951C343.998 34.354 344.227 34.8487 344.637 35.222C345.048 35.5953 345.552 35.782 346.149 35.782C347.008 35.782 347.615 35.4227 347.969 34.704H349.691C349.458 35.4133 349.033 35.9967 348.417 36.454C347.811 36.902 347.055 37.126 346.149 37.126C345.412 37.126 344.749 36.9627 344.161 36.636C343.583 36.3 343.125 35.8333 342.789 35.236C342.463 34.6293 342.299 33.9293 342.299 33.136C342.299 32.3427 342.458 31.6473 342.775 31.05C343.102 30.4433 343.555 29.9767 344.133 29.65C344.721 29.3233 345.393 29.16 346.149 29.16C346.877 29.16 347.526 29.3187 348.095 29.636C348.665 29.9533 349.108 30.4013 349.425 30.98C349.743 31.5493 349.901 32.2073 349.901 32.954ZM348.235 32.45C348.226 31.862 348.016 31.3907 347.605 31.036C347.195 30.6813 346.686 30.504 346.079 30.504C345.529 30.504 345.057 30.6813 344.665 31.036C344.273 31.3813 344.04 31.8527 343.965 32.45H348.235ZM350.94 33.136C350.94 32.3427 351.099 31.6473 351.416 31.05C351.743 30.4433 352.191 29.9767 352.76 29.65C353.329 29.3233 353.983 29.16 354.72 29.16C355.653 29.16 356.423 29.384 357.03 29.832C357.646 30.2707 358.061 30.9007 358.276 31.722H356.554C356.414 31.3393 356.19 31.0407 355.882 30.826C355.574 30.6113 355.187 30.504 354.72 30.504C354.067 30.504 353.544 30.7373 353.152 31.204C352.769 31.6613 352.578 32.3053 352.578 33.136C352.578 33.9667 352.769 34.6153 353.152 35.082C353.544 35.5487 354.067 35.782 354.72 35.782C355.644 35.782 356.255 35.376 356.554 34.564H358.276C358.052 35.348 357.632 35.9733 357.016 36.44C356.4 36.8973 355.635 37.126 354.72 37.126C353.983 37.126 353.329 36.9627 352.76 36.636C352.191 36.3 351.743 35.8333 351.416 35.236C351.099 34.6293 350.94 33.9293 350.94 33.136ZM361.728 30.588V34.858C361.728 35.1473 361.794 35.3573 361.924 35.488C362.064 35.6093 362.298 35.67 362.624 35.67H363.604V37H362.344C361.626 37 361.075 36.832 360.692 36.496C360.31 36.16 360.118 35.614 360.118 34.858V30.588H359.208V29.286H360.118V27.368H361.728V29.286H363.604V30.588H361.728ZM376.706 37H375.11L370.308 29.734V37H368.712V27.256H370.308L375.11 34.508V27.256H376.706V37ZM385.872 32.954C385.872 33.2433 385.853 33.5047 385.816 33.738H379.922C379.969 34.354 380.197 34.8487 380.608 35.222C381.019 35.5953 381.523 35.782 382.12 35.782C382.979 35.782 383.585 35.4227 383.94 34.704H385.662C385.429 35.4133 385.004 35.9967 384.388 36.454C383.781 36.902 383.025 37.126 382.12 37.126C381.383 37.126 380.72 36.9627 380.132 36.636C379.553 36.3 379.096 35.8333 378.76 35.236C378.433 34.6293 378.27 33.9293 378.27 33.136C378.27 32.3427 378.429 31.6473 378.746 31.05C379.073 30.4433 379.525 29.9767 380.104 29.65C380.692 29.3233 381.364 29.16 382.12 29.16C382.848 29.16 383.497 29.3187 384.066 29.636C384.635 29.9533 385.079 30.4013 385.396 30.98C385.713 31.5493 385.872 32.2073 385.872 32.954ZM384.206 32.45C384.197 31.862 383.987 31.3907 383.576 31.036C383.165 30.6813 382.657 30.504 382.05 30.504C381.499 30.504 381.028 30.6813 380.636 31.036C380.244 31.3813 380.011 31.8527 379.936 32.45H384.206ZM389.305 30.588V34.858C389.305 35.1473 389.37 35.3573 389.501 35.488C389.641 35.6093 389.874 35.67 390.201 35.67H391.181V37H389.921C389.202 37 388.651 36.832 388.269 36.496C387.886 36.16 387.695 35.614 387.695 34.858V30.588H386.785V29.286H387.695V27.368H389.305V29.286H391.181V30.588H389.305ZM403.012 29.286L400.618 37H398.938L397.384 31.302L395.83 37H394.15L391.742 29.286H393.366L394.976 35.488L396.614 29.286H398.28L399.848 35.46L401.444 29.286H403.012ZM407.55 37.126C406.822 37.126 406.164 36.9627 405.576 36.636C404.988 36.3 404.526 35.8333 404.19 35.236C403.854 34.6293 403.686 33.9293 403.686 33.136C403.686 32.352 403.859 31.6567 404.204 31.05C404.55 30.4433 405.021 29.9767 405.618 29.65C406.216 29.3233 406.883 29.16 407.62 29.16C408.358 29.16 409.025 29.3233 409.622 29.65C410.22 29.9767 410.691 30.4433 411.036 31.05C411.382 31.6567 411.554 32.352 411.554 33.136C411.554 33.92 411.377 34.6153 411.022 35.222C410.668 35.8287 410.182 36.3 409.566 36.636C408.96 36.9627 408.288 37.126 407.55 37.126ZM407.55 35.74C407.961 35.74 408.344 35.642 408.698 35.446C409.062 35.25 409.356 34.956 409.58 34.564C409.804 34.172 409.916 33.696 409.916 33.136C409.916 32.576 409.809 32.1047 409.594 31.722C409.38 31.33 409.095 31.036 408.74 30.84C408.386 30.644 408.003 30.546 407.592 30.546C407.182 30.546 406.799 30.644 406.444 30.84C406.099 31.036 405.824 31.33 405.618 31.722C405.413 32.1047 405.31 32.576 405.31 33.136C405.31 33.9667 405.52 34.6107 405.94 35.068C406.37 35.516 406.906 35.74 407.55 35.74ZM414.728 30.406C414.961 30.014 415.269 29.7107 415.652 29.496C416.044 29.272 416.506 29.16 417.038 29.16V30.812H416.632C416.007 30.812 415.531 30.9707 415.204 31.288C414.887 31.6053 414.728 32.156 414.728 32.94V37H413.132V29.286H414.728V30.406ZM421.557 33.15L425.113 37H422.957L420.101 33.682V37H418.505V26.64H420.101V32.66L422.901 29.286H425.113L421.557 33.15Z" fill="white"/>
</g>
<g opacity="0.15">
<path d="M295.596 344.28C293.991 344.28 292.628 343.86 291.508 343.02C290.407 342.161 289.567 340.976 288.988 339.464C288.409 337.933 288.12 336.179 288.12 334.2C288.12 332.203 288.409 330.448 288.988 328.936C289.567 327.424 290.407 326.248 291.508 325.408C292.628 324.549 293.991 324.12 295.596 324.12C297.201 324.12 298.555 324.549 299.656 325.408C300.776 326.248 301.625 327.424 302.204 328.936C302.783 330.448 303.072 332.203 303.072 334.2C303.072 336.179 302.783 337.933 302.204 339.464C301.625 340.976 300.776 342.161 299.656 343.02C298.555 343.86 297.201 344.28 295.596 344.28ZM295.596 340.92C296.38 340.92 297.052 340.677 297.612 340.192C298.191 339.688 298.639 338.941 298.956 337.952C299.273 336.944 299.432 335.693 299.432 334.2C299.432 332.688 299.273 331.437 298.956 330.448C298.639 329.459 298.191 328.721 297.612 328.236C297.052 327.732 296.38 327.48 295.596 327.48C294.831 327.48 294.159 327.732 293.58 328.236C293.001 328.721 292.553 329.459 292.236 330.448C291.919 331.437 291.76 332.688 291.76 334.2C291.76 335.693 291.919 336.944 292.236 337.952C292.553 338.941 293.001 339.688 293.58 340.192C294.159 340.677 294.831 340.92 295.596 340.92Z" fill="#C6C6D1"/>
</g>
<g opacity="0.15">
<rect x="3" y="409" width="496" height="48" rx="8" fill="#17181D"/>
<path d="M187.873 433.4C187.873 432.301 188.118 431.32 188.609 430.456C189.11 429.581 189.787 428.904 190.641 428.424C191.505 427.933 192.47 427.688 193.537 427.688C194.785 427.688 195.878 428.008 196.817 428.648C197.755 429.288 198.411 430.173 198.785 431.304H196.209C195.953 430.771 195.59 430.371 195.121 430.104C194.662 429.837 194.129 429.704 193.521 429.704C192.87 429.704 192.289 429.859 191.777 430.168C191.275 430.467 190.881 430.893 190.593 431.448C190.315 432.003 190.177 432.653 190.177 433.4C190.177 434.136 190.315 434.787 190.593 435.352C190.881 435.907 191.275 436.339 191.777 436.648C192.289 436.947 192.87 437.096 193.521 437.096C194.129 437.096 194.662 436.963 195.121 436.696C195.59 436.419 195.953 436.013 196.209 435.48H198.785C198.411 436.621 197.755 437.512 196.817 438.152C195.889 438.781 194.795 439.096 193.537 439.096C192.47 439.096 191.505 438.856 190.641 438.376C189.787 437.885 189.11 437.208 188.609 436.344C188.118 435.48 187.873 434.499 187.873 433.4ZM204.634 439.144C203.78 439.144 203.012 438.957 202.33 438.584C201.647 438.2 201.108 437.661 200.714 436.968C200.33 436.275 200.138 435.475 200.138 434.568C200.138 433.661 200.335 432.861 200.73 432.168C201.135 431.475 201.684 430.941 202.378 430.568C203.071 430.184 203.844 429.992 204.698 429.992C205.551 429.992 206.324 430.184 207.018 430.568C207.711 430.941 208.255 431.475 208.65 432.168C209.055 432.861 209.258 433.661 209.258 434.568C209.258 435.475 209.05 436.275 208.634 436.968C208.228 437.661 207.674 438.2 206.97 438.584C206.276 438.957 205.498 439.144 204.634 439.144ZM204.634 437.192C205.039 437.192 205.418 437.096 205.77 436.904C206.132 436.701 206.42 436.403 206.634 436.008C206.847 435.613 206.954 435.133 206.954 434.568C206.954 433.725 206.73 433.08 206.282 432.632C205.844 432.173 205.306 431.944 204.666 431.944C204.026 431.944 203.487 432.173 203.05 432.632C202.623 433.08 202.41 433.725 202.41 434.568C202.41 435.411 202.618 436.061 203.034 436.52C203.46 436.968 203.994 437.192 204.634 437.192ZM215.813 430.008C216.869 430.008 217.722 430.344 218.373 431.016C219.024 431.677 219.349 432.605 219.349 433.8V439H217.109V434.104C217.109 433.4 216.933 432.861 216.581 432.488C216.229 432.104 215.749 431.912 215.141 431.912C214.522 431.912 214.032 432.104 213.669 432.488C213.317 432.861 213.141 433.4 213.141 434.104V439H210.901V430.136H213.141V431.24C213.44 430.856 213.818 430.557 214.277 430.344C214.746 430.12 215.258 430.008 215.813 430.008ZM226.391 430.008C227.447 430.008 228.3 430.344 228.951 431.016C229.602 431.677 229.927 432.605 229.927 433.8V439H227.687V434.104C227.687 433.4 227.511 432.861 227.159 432.488C226.807 432.104 226.327 431.912 225.719 431.912C225.1 431.912 224.61 432.104 224.247 432.488C223.895 432.861 223.719 433.4 223.719 434.104V439H221.479V430.136H223.719V431.24C224.018 430.856 224.396 430.557 224.855 430.344C225.324 430.12 225.836 430.008 226.391 430.008ZM240.297 434.376C240.297 434.696 240.276 434.984 240.233 435.24H233.753C233.806 435.88 234.03 436.381 234.425 436.744C234.82 437.107 235.305 437.288 235.881 437.288C236.713 437.288 237.305 436.931 237.657 436.216H240.073C239.817 437.069 239.326 437.773 238.601 438.328C237.876 438.872 236.985 439.144 235.929 439.144C235.076 439.144 234.308 438.957 233.625 438.584C232.953 438.2 232.425 437.661 232.041 436.968C231.668 436.275 231.481 435.475 231.481 434.568C231.481 433.651 231.668 432.845 232.041 432.152C232.414 431.459 232.937 430.925 233.609 430.552C234.281 430.179 235.054 429.992 235.929 429.992C236.772 429.992 237.524 430.173 238.185 430.536C238.857 430.899 239.374 431.416 239.737 432.088C240.11 432.749 240.297 433.512 240.297 434.376ZM237.977 433.736C237.966 433.16 237.758 432.701 237.353 432.36C236.948 432.008 236.452 431.832 235.865 431.832C235.31 431.832 234.841 432.003 234.457 432.344C234.084 432.675 233.854 433.139 233.769 433.736H237.977ZM241.356 434.568C241.356 433.651 241.543 432.851 241.916 432.168C242.289 431.475 242.807 430.941 243.468 430.568C244.129 430.184 244.887 429.992 245.74 429.992C246.839 429.992 247.745 430.269 248.46 430.824C249.185 431.368 249.671 432.136 249.916 433.128H247.5C247.372 432.744 247.153 432.445 246.844 432.232C246.545 432.008 246.172 431.896 245.724 431.896C245.084 431.896 244.577 432.131 244.204 432.6C243.831 433.059 243.644 433.715 243.644 434.568C243.644 435.411 243.831 436.067 244.204 436.536C244.577 436.995 245.084 437.224 245.724 437.224C246.631 437.224 247.223 436.819 247.5 436.008H249.916C249.671 436.968 249.185 437.731 248.46 438.296C247.735 438.861 246.828 439.144 245.74 439.144C244.887 439.144 244.129 438.957 243.468 438.584C242.807 438.2 242.289 437.667 241.916 436.984C241.543 436.291 241.356 435.485 241.356 434.568ZM254.165 431.976V436.264C254.165 436.563 254.234 436.781 254.373 436.92C254.522 437.048 254.768 437.112 255.109 437.112H256.149V439H254.741C252.853 439 251.909 438.083 251.909 436.248V431.976H250.853V430.136H251.909V427.944H254.165V430.136H256.149V431.976H254.165ZM276.501 427.832L273.381 439H270.741L268.645 431.048L266.453 439L263.829 439.016L260.821 427.832H263.221L265.189 436.504L267.461 427.832H269.957L272.101 436.456L274.085 427.832H276.501ZM277.387 434.536C277.387 433.64 277.563 432.845 277.915 432.152C278.278 431.459 278.763 430.925 279.371 430.552C279.99 430.179 280.678 429.992 281.435 429.992C282.097 429.992 282.673 430.125 283.163 430.392C283.665 430.659 284.065 430.995 284.363 431.4V430.136H286.619V439H284.363V437.704C284.075 438.12 283.675 438.467 283.163 438.744C282.662 439.011 282.081 439.144 281.419 439.144C280.673 439.144 279.99 438.952 279.371 438.568C278.763 438.184 278.278 437.645 277.915 436.952C277.563 436.248 277.387 435.443 277.387 434.536ZM284.363 434.568C284.363 434.024 284.257 433.56 284.043 433.176C283.83 432.781 283.542 432.483 283.179 432.28C282.817 432.067 282.427 431.96 282.011 431.96C281.595 431.96 281.211 432.061 280.859 432.264C280.507 432.467 280.219 432.765 279.995 433.16C279.782 433.544 279.675 434.003 279.675 434.536C279.675 435.069 279.782 435.539 279.995 435.944C280.219 436.339 280.507 436.643 280.859 436.856C281.222 437.069 281.606 437.176 282.011 437.176C282.427 437.176 282.817 437.075 283.179 436.872C283.542 436.659 283.83 436.36 284.043 435.976C284.257 435.581 284.363 435.112 284.363 434.568ZM291.047 427.16V439H288.807V427.16H291.047ZM295.5 427.16V439H293.26V427.16H295.5ZM305.953 434.376C305.953 434.696 305.932 434.984 305.889 435.24H299.409C299.463 435.88 299.687 436.381 300.081 436.744C300.476 437.107 300.961 437.288 301.537 437.288C302.369 437.288 302.961 436.931 303.313 436.216H305.729C305.473 437.069 304.983 437.773 304.257 438.328C303.532 438.872 302.641 439.144 301.585 439.144C300.732 439.144 299.964 438.957 299.281 438.584C298.609 438.2 298.081 437.661 297.697 436.968C297.324 436.275 297.137 435.475 297.137 434.568C297.137 433.651 297.324 432.845 297.697 432.152C298.071 431.459 298.593 430.925 299.265 430.552C299.937 430.179 300.711 429.992 301.585 429.992C302.428 429.992 303.18 430.173 303.841 430.536C304.513 430.899 305.031 431.416 305.393 432.088C305.767 432.749 305.953 433.512 305.953 434.376ZM303.633 433.736C303.623 433.16 303.415 432.701 303.009 432.36C302.604 432.008 302.108 431.832 301.521 431.832C300.967 431.832 300.497 432.003 300.113 432.344C299.74 432.675 299.511 433.139 299.425 433.736H303.633ZM310.196 431.976V436.264C310.196 436.563 310.266 436.781 310.404 436.92C310.554 437.048 310.799 437.112 311.14 437.112H312.18V439H310.772C308.884 439 307.94 438.083 307.94 436.248V431.976H306.884V430.136H307.94V427.944H310.196V430.136H312.18V431.976H310.196Z" fill="#8E8E92"/>
</g>
<defs>
<filter id="filter0_d_1419_23939" x="0" y="1" width="230" height="62" filterUnits="userSpaceOnUse" color-interpolation-filters="sRGB">
<feFlood flood-opacity="0" result="BackgroundImageFix"/>
<feColorMatrix in="SourceAlpha" type="matrix" values="0 0 0 0 0 0 0 0 0 0 0 0 0 0 0 0 0 0 127 0" result="hardAlpha"/>
<feOffset/>
<feGaussianBlur stdDeviation="7.5"/>
<feComposite in2="hardAlpha" operator="out"/>
<feColorMatrix type="matrix" values="0 0 0 0 0 0 0 0 0 0.478431 0 0 0 0 1 0 0 0 1 0"/>
<feBlend mode="normal" in2="BackgroundImageFix" result="effect1_dropShadow_1419_23939"/>
<feBlend mode="normal" in="SourceGraphic" in2="effect1_dropShadow_1419_23939" result="shape"/>
</filter>
<filter id="filter1_d_1419_23939" x="272" y="1" width="230" height="62" filterUnits="userSpaceOnUse" color-interpolation-filters="sRGB">
<feFlood flood-opacity="0" result="BackgroundImageFix"/>
<feColorMatrix in="SourceAlpha" type="matrix" values="0 0 0 0 0 0 0 0 0 0 0 0 0 0 0 0 0 0 127 0" result="hardAlpha"/>
<feOffset/>
<feGaussianBlur stdDeviation="7.5"/>
<feComposite in2="hardAlpha" operator="out"/>
<feColorMatrix type="matrix" values="0 0 0 0 0 0 0 0 0 0.478431 0 0 0 0 1 0 0 0 1 0"/>
<feBlend mode="normal" in2="BackgroundImageFix" result="effect1_dropShadow_1419_23939"/>
<feBlend mode="normal" in="SourceGraphic" in2="effect1_dropShadow_1419_23939" result="shape"/>
</filter>
<clipPath id="clip0_1419_23939">
<rect x="15" y="60" width="200" height="248" rx="16" fill="white"/>
</clipPath>
<clipPath id="clip1_1419_23939">
<rect width="8.732" height="15" fill="white" transform="translate(28.625 24.5)"/>
</clipPath>
<clipPath id="clip2_1419_23939">
<rect x="287" y="60" width="200" height="248" rx="16" fill="white"/>
</clipPath>
</defs>
</svg>