<svg width="496" height="515" viewBox="0 5 496 515" fill="none" xmlns="http://www.w3.org/2000/svg">
<rect x="0.5" y="54.5" width="224" height="385" rx="7.5" fill="#0F0F12"/>
<rect x="0.5" y="54.5" width="224" height="385" rx="7.5" stroke="#1F2128"/>
<rect x="0.5" y="54.5" width="224" height="385" rx="7.5" stroke="#1F2128"/>
<g opacity="0.15">
<g clip-path="url(#clip0_1419_24783)">
<rect x="12.5" y="114.5" width="199" height="247" rx="15.5" stroke="#313442" stroke-dasharray="6 6"/>
<path d="M117.875 263.125C119 261.625 119.625 259.875 119.625 257.875C119.625 253 115.75 249 110.875 249C106 249 102 253 102 257.875C102 262.75 106 266.75 110.875 266.75C112.875 266.75 114.75 266.125 116.125 265L119.875 268.75C120.125 269 120.5 269.125 120.75 269.125C121 269.125 121.375 269 121.625 268.75C122.125 268.25 122.125 267.5 121.625 267L117.875 263.125ZM110.875 264.125C107.375 264.125 104.5 261.375 104.5 257.875C104.5 254.375 107.375 251.5 110.875 251.5C114.375 251.5 117.25 254.375 117.25 257.875C117.25 261.375 114.375 264.125 110.875 264.125Z" fill="white"/>
<path d="M51.8431 227.126C51.0031 227.126 50.2471 226.982 49.5751 226.694C48.9031 226.394 48.3751 225.974 47.9911 225.434C47.6071 224.894 47.4151 224.264 47.4151 223.544H49.6111C49.6591 224.084 49.8691 224.528 50.2411 224.876C50.6251 225.224 51.1591 225.398 51.8431 225.398C52.5511 225.398 53.1031 225.23 53.4991 224.894C53.8951 224.546 54.0931 224.102 54.0931 223.562C54.0931 223.142 53.9671 222.8 53.7151 222.536C53.4751 222.272 53.1691 222.068 52.7971 221.924C52.4371 221.78 51.9331 221.624 51.2851 221.456C50.4691 221.24 49.8031 221.024 49.2871 220.808C48.7831 220.58 48.3511 220.232 47.9911 219.764C47.6311 219.296 47.4511 218.672 47.4511 217.892C47.4511 217.172 47.6311 216.542 47.9911 216.002C48.3511 215.462 48.8551 215.048 49.5031 214.76C50.1511 214.472 50.9011 214.328 51.7531 214.328C52.9651 214.328 53.9551 214.634 54.7231 215.246C55.5031 215.846 55.9351 216.674 56.0191 217.73H53.7511C53.7151 217.274 53.4991 216.884 53.1031 216.56C52.7071 216.236 52.1851 216.074 51.5371 216.074C50.9491 216.074 50.4691 216.224 50.0971 216.524C49.7251 216.824 49.5391 217.256 49.5391 217.82C49.5391 218.204 49.6531 218.522 49.8811 218.774C50.1211 219.014 50.4211 219.206 50.7811 219.35C51.1411 219.494 51.6331 219.65 52.2571 219.818C53.0851 220.046 53.7571 220.274 54.2731 220.502C54.8011 220.73 55.2451 221.084 55.6051 221.564C55.9771 222.032 56.1631 222.662 56.1631 223.454C56.1631 224.09 55.9891 224.69 55.6411 225.254C55.3051 225.818 54.8071 226.274 54.1471 226.622C53.4991 226.958 52.7311 227.126 51.8431 227.126ZM67.6744 221.798C67.6744 222.17 67.6504 222.506 67.6024 222.806H60.0244C60.0844 223.598 60.3784 224.234 60.9064 224.714C61.4344 225.194 62.0824 225.434 62.8504 225.434C63.9544 225.434 64.7344 224.972 65.1904 224.048H67.4044C67.1044 224.96 66.5584 225.71 65.7664 226.298C64.9864 226.874 64.0144 227.162 62.8504 227.162C61.9024 227.162 61.0504 226.952 60.2944 226.532C59.5504 226.1 58.9624 225.5 58.5304 224.732C58.1104 223.952 57.9004 223.052 57.9004 222.032C57.9004 221.012 58.1044 220.118 58.5124 219.35C58.9324 218.57 59.5144 217.97 60.2584 217.55C61.0144 217.13 61.8784 216.92 62.8504 216.92C63.7864 216.92 64.6204 217.124 65.3524 217.532C66.0844 217.94 66.6544 218.516 67.0624 219.26C67.4704 219.992 67.6744 220.838 67.6744 221.798ZM65.5324 221.15C65.5204 220.394 65.2504 219.788 64.7224 219.332C64.1944 218.876 63.5404 218.648 62.7604 218.648C62.0524 218.648 61.4464 218.876 60.9424 219.332C60.4384 219.776 60.1384 220.382 60.0424 221.15H65.5324ZM69.0098 221.996C69.0098 221 69.2138 220.118 69.6218 219.35C70.0418 218.582 70.6058 217.988 71.3138 217.568C72.0338 217.136 72.8258 216.92 73.6898 216.92C74.4698 216.92 75.1478 217.076 75.7238 217.388C76.3118 217.688 76.7798 218.066 77.1278 218.522V217.082H79.1978V227H77.1278V225.524C76.7798 225.992 76.3058 226.382 75.7058 226.694C75.1058 227.006 74.4218 227.162 73.6538 227.162C72.8018 227.162 72.0218 226.946 71.3138 226.514C70.6058 226.07 70.0418 225.458 69.6218 224.678C69.2138 223.886 69.0098 222.992 69.0098 221.996ZM77.1278 222.032C77.1278 221.348 76.9838 220.754 76.6958 220.25C76.4198 219.746 76.0538 219.362 75.5978 219.098C75.1418 218.834 74.6498 218.702 74.1218 218.702C73.5938 218.702 73.1018 218.834 72.6458 219.098C72.1898 219.35 71.8178 219.728 71.5298 220.232C71.2538 220.724 71.1158 221.312 71.1158 221.996C71.1158 222.68 71.2538 223.28 71.5298 223.796C71.8178 224.312 72.1898 224.708 72.6458 224.984C73.1138 225.248 73.6058 225.38 74.1218 225.38C74.6498 225.38 75.1418 225.248 75.5978 224.984C76.0538 224.72 76.4198 224.336 76.6958 223.832C76.9838 223.316 77.1278 222.716 77.1278 222.032ZM83.945 218.522C84.245 218.018 84.641 217.628 85.133 217.352C85.637 217.064 86.231 216.92 86.915 216.92V219.044H86.393C85.589 219.044 84.977 219.248 84.557 219.656C84.149 220.064 83.945 220.772 83.945 221.78V227H81.893V217.082H83.945V218.522ZM88.1172 222.032C88.1172 221.012 88.3212 220.118 88.7292 219.35C89.1492 218.57 89.7252 217.97 90.4572 217.55C91.1892 217.13 92.0292 216.92 92.9772 216.92C94.1772 216.92 95.1672 217.208 95.9472 217.784C96.7392 218.348 97.2732 219.158 97.5492 220.214H95.3352C95.1552 219.722 94.8672 219.338 94.4712 219.062C94.0752 218.786 93.5772 218.648 92.9772 218.648C92.1372 218.648 91.4652 218.948 90.9612 219.548C90.4692 220.136 90.2232 220.964 90.2232 222.032C90.2232 223.1 90.4692 223.934 90.9612 224.534C91.4652 225.134 92.1372 225.434 92.9772 225.434C94.1652 225.434 94.9512 224.912 95.3352 223.868H97.5492C97.2612 224.876 96.7212 225.68 95.9292 226.28C95.1372 226.868 94.1532 227.162 92.9772 227.162C92.0292 227.162 91.1892 226.952 90.4572 226.532C89.7252 226.1 89.1492 225.5 88.7292 224.732C88.3212 223.952 88.1172 223.052 88.1172 222.032ZM104.724 216.92C105.48 216.92 106.152 217.082 106.74 217.406C107.34 217.73 107.808 218.21 108.144 218.846C108.492 219.482 108.666 220.25 108.666 221.15V227H106.632V221.456C106.632 220.568 106.41 219.89 105.966 219.422C105.522 218.942 104.916 218.702 104.148 218.702C103.38 218.702 102.768 218.942 102.312 219.422C101.868 219.89 101.646 220.568 101.646 221.456V227H99.5941V213.68H101.646V218.234C101.994 217.814 102.432 217.49 102.96 217.262C103.5 217.034 104.088 216.92 104.724 216.92ZM124.041 214.49V216.164H120.711V227H118.659V216.164H115.311V214.49H124.041ZM130.422 227.162C129.486 227.162 128.64 226.952 127.884 226.532C127.128 226.1 126.534 225.5 126.102 224.732C125.67 223.952 125.454 223.052 125.454 222.032C125.454 221.024 125.676 220.13 126.12 219.35C126.564 218.57 127.17 217.97 127.938 217.55C128.706 217.13 129.564 216.92 130.512 216.92C131.46 216.92 132.318 217.13 133.086 217.55C133.854 217.97 134.46 218.57 134.904 219.35C135.348 220.13 135.57 221.024 135.57 222.032C135.57 223.04 135.342 223.934 134.886 224.714C134.43 225.494 133.806 226.1 133.014 226.532C132.234 226.952 131.37 227.162 130.422 227.162ZM130.422 225.38C130.95 225.38 131.442 225.254 131.898 225.002C132.366 224.75 132.744 224.372 133.032 223.868C133.32 223.364 133.464 222.752 133.464 222.032C133.464 221.312 133.326 220.706 133.05 220.214C132.774 219.71 132.408 219.332 131.952 219.08C131.496 218.828 131.004 218.702 130.476 218.702C129.948 218.702 129.456 218.828 129 219.08C128.556 219.332 128.202 219.71 127.938 220.214C127.674 220.706 127.542 221.312 127.542 222.032C127.542 223.1 127.812 223.928 128.352 224.516C128.904 225.092 129.594 225.38 130.422 225.38ZM141.522 222.05L146.094 227H143.322L139.65 222.734V227H137.598V213.68H139.65V221.42L143.25 217.082H146.094L141.522 222.05ZM156.655 221.798C156.655 222.17 156.631 222.506 156.583 222.806H149.005C149.065 223.598 149.359 224.234 149.887 224.714C150.415 225.194 151.063 225.434 151.831 225.434C152.935 225.434 153.715 224.972 154.171 224.048H156.385C156.085 224.96 155.539 225.71 154.747 226.298C153.967 226.874 152.995 227.162 151.831 227.162C150.883 227.162 150.031 226.952 149.275 226.532C148.531 226.1 147.943 225.5 147.511 224.732C147.091 223.952 146.881 223.052 146.881 222.032C146.881 221.012 147.085 220.118 147.493 219.35C147.913 218.57 148.495 217.97 149.239 217.55C149.995 217.13 150.859 216.92 151.831 216.92C152.767 216.92 153.601 217.124 154.333 217.532C155.065 217.94 155.635 218.516 156.043 219.26C156.451 219.992 156.655 220.838 156.655 221.798ZM154.513 221.15C154.501 220.394 154.231 219.788 153.703 219.332C153.175 218.876 152.521 218.648 151.741 218.648C151.033 218.648 150.427 218.876 149.923 219.332C149.419 219.776 149.119 220.382 149.023 221.15H154.513ZM163.678 216.92C164.458 216.92 165.154 217.082 165.766 217.406C166.39 217.73 166.876 218.21 167.224 218.846C167.572 219.482 167.746 220.25 167.746 221.15V227H165.712V221.456C165.712 220.568 165.49 219.89 165.046 219.422C164.602 218.942 163.996 218.702 163.228 218.702C162.46 218.702 161.848 218.942 161.392 219.422C160.948 219.89 160.726 220.568 160.726 221.456V227H158.674V217.082H160.726V218.216C161.062 217.808 161.488 217.49 162.004 217.262C162.532 217.034 163.09 216.92 163.678 216.92ZM173.964 227.162C173.184 227.162 172.482 227.024 171.858 226.748C171.246 226.46 170.76 226.076 170.4 225.596C170.04 225.104 169.848 224.558 169.824 223.958H171.948C171.984 224.378 172.182 224.732 172.542 225.02C172.914 225.296 173.376 225.434 173.928 225.434C174.504 225.434 174.948 225.326 175.26 225.11C175.584 224.882 175.746 224.594 175.746 224.246C175.746 223.874 175.566 223.598 175.206 223.418C174.858 223.238 174.3 223.04 173.532 222.824C172.788 222.62 172.182 222.422 171.714 222.23C171.246 222.038 170.838 221.744 170.49 221.348C170.154 220.952 169.986 220.43 169.986 219.782C169.986 219.254 170.142 218.774 170.454 218.342C170.766 217.898 171.21 217.55 171.786 217.298C172.374 217.046 173.046 216.92 173.802 216.92C174.93 216.92 175.836 217.208 176.52 217.784C177.216 218.348 177.588 219.122 177.636 220.106H175.584C175.548 219.662 175.368 219.308 175.044 219.044C174.72 218.78 174.282 218.648 173.73 218.648C173.19 218.648 172.776 218.75 172.488 218.954C172.2 219.158 172.056 219.428 172.056 219.764C172.056 220.028 172.152 220.25 172.344 220.43C172.536 220.61 172.77 220.754 173.046 220.862C173.322 220.958 173.73 221.084 174.27 221.24C174.99 221.432 175.578 221.63 176.034 221.834C176.502 222.026 176.904 222.314 177.24 222.698C177.576 223.082 177.75 223.592 177.762 224.228C177.762 224.792 177.606 225.296 177.294 225.74C176.982 226.184 176.538 226.532 175.962 226.784C175.398 227.036 174.732 227.162 173.964 227.162Z" fill="white"/>
</g>
</g>
<rect x="12" y="70" width="200" height="32" rx="6" fill="#1F2128"/>
<rect x="20" y="76" width="20" height="20" rx="10" fill="#383736"/>
<g clip-path="url(#clip1_1419_24783)">
<path fill-rule="evenodd" clip-rule="evenodd" d="M29.9835 89.7745L25.6255 87.4805L29.9835 78.503V78.5L34.357 87.4805L29.9835 89.7745Z" fill="white"/>
<path fill-rule="evenodd" clip-rule="evenodd" d="M29.9835 93.4996L25.6255 87.8086L29.9835 90.2001L34.357 87.8086L29.9835 93.4996Z" fill="white"/>
</g>
<path fill-rule="evenodd" clip-rule="evenodd" d="M198.448 88.5729C198.143 88.2678 198.143 87.7732 198.448 87.4681L201.718 84.1979C202.023 83.8928 202.518 83.8928 202.823 84.1979C203.128 84.503 203.128 84.9977 202.823 85.3028L199.553 88.5729C199.247 88.878 198.753 88.878 198.448 88.5729Z" fill="white"/>
<path fill-rule="evenodd" clip-rule="evenodd" d="M195.177 84.1979C195.482 83.8928 195.977 83.8928 196.282 84.1979L199.552 87.4681C199.857 87.7732 199.857 88.2678 199.552 88.5729C199.247 88.878 198.753 88.878 198.447 88.5729L195.177 85.3028C194.872 84.9977 194.872 84.503 195.177 84.1979Z" fill="white"/>
<path d="M48.646 82.558V85.414H52.006V86.716H48.646V89.698H52.426V91H47.05V81.256H52.426V82.558H48.646ZM56.2538 84.588V88.858C56.2538 89.1473 56.3191 89.3573 56.4498 89.488C56.5898 89.6093 56.8231 89.67 57.1498 89.67H58.1298V91H56.8698C56.1511 91 55.6005 90.832 55.2178 90.496C54.8351 90.16 54.6438 89.614 54.6438 88.858V84.588H53.7338V83.286H54.6438V81.368H56.2538V83.286H58.1298V84.588H56.2538ZM63.5908 83.16C64.1788 83.16 64.7014 83.286 65.1588 83.538C65.6254 83.79 65.9894 84.1633 66.2508 84.658C66.5214 85.1527 66.6568 85.75 66.6568 86.45V91H65.0748V86.688C65.0748 85.9973 64.9021 85.47 64.5568 85.106C64.2114 84.7327 63.7401 84.546 63.1428 84.546C62.5454 84.546 62.0694 84.7327 61.7148 85.106C61.3694 85.47 61.1968 85.9973 61.1968 86.688V91H59.6008V80.64H61.1968V84.182C61.4674 83.8553 61.8081 83.6033 62.2188 83.426C62.6388 83.2487 63.0961 83.16 63.5908 83.16ZM75.7626 86.954C75.7626 87.2433 75.7439 87.5047 75.7066 87.738H69.8126C69.8592 88.354 70.0879 88.8487 70.4986 89.222C70.9092 89.5953 71.4132 89.782 72.0106 89.782C72.8692 89.782 73.4759 89.4227 73.8306 88.704H75.5526C75.3192 89.4133 74.8946 89.9967 74.2786 90.454C73.6719 90.902 72.9159 91.126 72.0106 91.126C71.2732 91.126 70.6106 90.9627 70.0226 90.636C69.4439 90.3 68.9866 89.8333 68.6506 89.236C68.3239 88.6293 68.1606 87.9293 68.1606 87.136C68.1606 86.3427 68.3192 85.6473 68.6366 85.05C68.9632 84.4433 69.4159 83.9767 69.9946 83.65C70.5826 83.3233 71.2546 83.16 72.0106 83.16C72.7386 83.16 73.3872 83.3187 73.9566 83.636C74.5259 83.9533 74.9692 84.4013 75.2866 84.98C75.6039 85.5493 75.7626 86.2073 75.7626 86.954ZM74.0966 86.45C74.0872 85.862 73.8772 85.3907 73.4666 85.036C73.0559 84.6813 72.5472 84.504 71.9406 84.504C71.3899 84.504 70.9186 84.6813 70.5266 85.036C70.1346 85.3813 69.9012 85.8527 69.8266 86.45H74.0966ZM78.9292 84.406C79.1625 84.014 79.4705 83.7107 79.8532 83.496C80.2452 83.272 80.7072 83.16 81.2392 83.16V84.812H80.8332C80.2079 84.812 79.7319 84.9707 79.4052 85.288C79.0879 85.6053 78.9292 86.156 78.9292 86.94V91H77.3332V83.286H78.9292V84.406ZM89.7763 86.954C89.7763 87.2433 89.7576 87.5047 89.7203 87.738H83.8263C83.8729 88.354 84.1016 88.8487 84.5123 89.222C84.9229 89.5953 85.4269 89.782 86.0243 89.782C86.8829 89.782 87.4896 89.4227 87.8443 88.704H89.5662C89.3329 89.4133 88.9083 89.9967 88.2923 90.454C87.6856 90.902 86.9296 91.126 86.0243 91.126C85.2869 91.126 84.6243 90.9627 84.0363 90.636C83.4576 90.3 83.0003 89.8333 82.6643 89.236C82.3376 88.6293 82.1743 87.9293 82.1743 87.136C82.1743 86.3427 82.3329 85.6473 82.6503 85.05C82.9769 84.4433 83.4296 83.9767 84.0083 83.65C84.5963 83.3233 85.2683 83.16 86.0243 83.16C86.7523 83.16 87.4009 83.3187 87.9703 83.636C88.5396 83.9533 88.9829 84.4013 89.3003 84.98C89.6176 85.5493 89.7763 86.2073 89.7763 86.954ZM88.1103 86.45C88.1009 85.862 87.8909 85.3907 87.4803 85.036C87.0696 84.6813 86.5609 84.504 85.9543 84.504C85.4036 84.504 84.9323 84.6813 84.5403 85.036C84.1483 85.3813 83.9149 85.8527 83.8403 86.45H88.1103ZM98.3329 83.286V91H96.7369V90.09C96.4849 90.4073 96.1535 90.6593 95.7429 90.846C95.3415 91.0233 94.9122 91.112 94.4549 91.112C93.8482 91.112 93.3022 90.986 92.8169 90.734C92.3409 90.482 91.9629 90.1087 91.6829 89.614C91.4122 89.1193 91.2769 88.522 91.2769 87.822V83.286H92.8589V87.584C92.8589 88.2747 93.0315 88.8067 93.3769 89.18C93.7222 89.544 94.1935 89.726 94.7909 89.726C95.3882 89.726 95.8595 89.544 96.2049 89.18C96.5595 88.8067 96.7369 88.2747 96.7369 87.584V83.286H98.3329ZM109.777 83.16C110.383 83.16 110.925 83.286 111.401 83.538C111.886 83.79 112.264 84.1633 112.535 84.658C112.815 85.1527 112.955 85.75 112.955 86.45V91H111.373V86.688C111.373 85.9973 111.2 85.47 110.855 85.106C110.509 84.7327 110.038 84.546 109.441 84.546C108.843 84.546 108.367 84.7327 108.013 85.106C107.667 85.47 107.495 85.9973 107.495 86.688V91H105.913V86.688C105.913 85.9973 105.74 85.47 105.395 85.106C105.049 84.7327 104.578 84.546 103.981 84.546C103.383 84.546 102.907 84.7327 102.553 85.106C102.207 85.47 102.035 85.9973 102.035 86.688V91H100.439V83.286H102.035V84.168C102.296 83.8507 102.627 83.6033 103.029 83.426C103.43 83.2487 103.859 83.16 104.317 83.16C104.933 83.16 105.483 83.2907 105.969 83.552C106.454 83.8133 106.827 84.1913 107.089 84.686C107.322 84.2193 107.686 83.8507 108.181 83.58C108.675 83.3 109.207 83.16 109.777 83.16Z" fill="white"/>
<path fill-rule="evenodd" clip-rule="evenodd" d="M251.065 239.096C250.476 238.466 249.511 238.468 248.925 239.102C248.353 239.719 248.355 240.708 248.93 241.323L252.287 244.915H240.125C239.271 244.915 238.625 245.651 238.625 246.5C238.625 247.349 239.271 248.085 240.125 248.085H252.287L248.93 251.677C248.355 252.292 248.353 253.281 248.925 253.898C249.511 254.532 250.476 254.534 251.065 253.904L256.944 247.613C257.519 246.996 257.518 246.003 256.945 245.388L251.065 239.096Z" fill="white"/>
<rect x="271.5" y="53" width="225" height="386" rx="7.5" fill="#0F0F12"/>
<rect x="271.5" y="53" width="225" height="386" rx="7.5" stroke="#1F2128"/>
<rect x="271.5" y="53" width="225" height="386" rx="7.5" stroke="#1F2128"/>
<g opacity="0.15">
<g clip-path="url(#clip2_1419_24783)">
<rect x="288.5" y="118.5" width="191" height="239" rx="15.5" stroke="#313442" stroke-opacity="0.6"/>
<rect x="284.5" y="122.5" width="191" height="239" rx="15.5" stroke="#313442" stroke-opacity="0.6"/>
<rect x="292.5" y="114.5" width="191" height="239" rx="15.5" fill="#0F0F12" stroke="#313442"/>
<path d="M393.875 255.125C395 253.625 395.625 251.875 395.625 249.875C395.625 245 391.75 241 386.875 241C382 241 378 245 378 249.875C378 254.75 382 258.75 386.875 258.75C388.875 258.75 390.75 258.125 392.125 257L395.875 260.75C396.125 261 396.5 261.125 396.75 261.125C397 261.125 397.375 261 397.625 260.75C398.125 260.25 398.125 259.5 397.625 259L393.875 255.125ZM386.875 256.125C383.375 256.125 380.5 253.375 380.5 249.875C380.5 246.375 383.375 243.5 386.875 243.5C390.375 243.5 393.25 246.375 393.25 249.875C393.25 253.375 390.375 256.125 386.875 256.125Z" fill="white"/>
<path d="M326.843 219.126C326.003 219.126 325.247 218.982 324.575 218.694C323.903 218.394 323.375 217.974 322.991 217.434C322.607 216.894 322.415 216.264 322.415 215.544H324.611C324.659 216.084 324.869 216.528 325.241 216.876C325.625 217.224 326.159 217.398 326.843 217.398C327.551 217.398 328.103 217.23 328.499 216.894C328.895 216.546 329.093 216.102 329.093 215.562C329.093 215.142 328.967 214.8 328.715 214.536C328.475 214.272 328.169 214.068 327.797 213.924C327.437 213.78 326.933 213.624 326.285 213.456C325.469 213.24 324.803 213.024 324.287 212.808C323.783 212.58 323.351 212.232 322.991 211.764C322.631 211.296 322.451 210.672 322.451 209.892C322.451 209.172 322.631 208.542 322.991 208.002C323.351 207.462 323.855 207.048 324.503 206.76C325.151 206.472 325.901 206.328 326.753 206.328C327.965 206.328 328.955 206.634 329.723 207.246C330.503 207.846 330.935 208.674 331.019 209.73H328.751C328.715 209.274 328.499 208.884 328.103 208.56C327.707 208.236 327.185 208.074 326.537 208.074C325.949 208.074 325.469 208.224 325.097 208.524C324.725 208.824 324.539 209.256 324.539 209.82C324.539 210.204 324.653 210.522 324.881 210.774C325.121 211.014 325.421 211.206 325.781 211.35C326.141 211.494 326.633 211.65 327.257 211.818C328.085 212.046 328.757 212.274 329.273 212.502C329.801 212.73 330.245 213.084 330.605 213.564C330.977 214.032 331.163 214.662 331.163 215.454C331.163 216.09 330.989 216.69 330.641 217.254C330.305 217.818 329.807 218.274 329.147 218.622C328.499 218.958 327.731 219.126 326.843 219.126ZM342.674 213.798C342.674 214.17 342.65 214.506 342.602 214.806H335.024C335.084 215.598 335.378 216.234 335.906 216.714C336.434 217.194 337.082 217.434 337.85 217.434C338.954 217.434 339.734 216.972 340.19 216.048H342.404C342.104 216.96 341.558 217.71 340.766 218.298C339.986 218.874 339.014 219.162 337.85 219.162C336.902 219.162 336.05 218.952 335.294 218.532C334.55 218.1 333.962 217.5 333.53 216.732C333.11 215.952 332.9 215.052 332.9 214.032C332.9 213.012 333.104 212.118 333.512 211.35C333.932 210.57 334.514 209.97 335.258 209.55C336.014 209.13 336.878 208.92 337.85 208.92C338.786 208.92 339.62 209.124 340.352 209.532C341.084 209.94 341.654 210.516 342.062 211.26C342.47 211.992 342.674 212.838 342.674 213.798ZM340.532 213.15C340.52 212.394 340.25 211.788 339.722 211.332C339.194 210.876 338.54 210.648 337.76 210.648C337.052 210.648 336.446 210.876 335.942 211.332C335.438 211.776 335.138 212.382 335.042 213.15H340.532ZM344.01 213.996C344.01 213 344.214 212.118 344.622 211.35C345.042 210.582 345.606 209.988 346.314 209.568C347.034 209.136 347.826 208.92 348.69 208.92C349.47 208.92 350.148 209.076 350.724 209.388C351.312 209.688 351.78 210.066 352.128 210.522V209.082H354.198V219H352.128V217.524C351.78 217.992 351.306 218.382 350.706 218.694C350.106 219.006 349.422 219.162 348.654 219.162C347.802 219.162 347.022 218.946 346.314 218.514C345.606 218.07 345.042 217.458 344.622 216.678C344.214 215.886 344.01 214.992 344.01 213.996ZM352.128 214.032C352.128 213.348 351.984 212.754 351.696 212.25C351.42 211.746 351.054 211.362 350.598 211.098C350.142 210.834 349.65 210.702 349.122 210.702C348.594 210.702 348.102 210.834 347.646 211.098C347.19 211.35 346.818 211.728 346.53 212.232C346.254 212.724 346.116 213.312 346.116 213.996C346.116 214.68 346.254 215.28 346.53 215.796C346.818 216.312 347.19 216.708 347.646 216.984C348.114 217.248 348.606 217.38 349.122 217.38C349.65 217.38 350.142 217.248 350.598 216.984C351.054 216.72 351.42 216.336 351.696 215.832C351.984 215.316 352.128 214.716 352.128 214.032ZM358.945 210.522C359.245 210.018 359.641 209.628 360.133 209.352C360.637 209.064 361.231 208.92 361.915 208.92V211.044H361.393C360.589 211.044 359.977 211.248 359.557 211.656C359.149 212.064 358.945 212.772 358.945 213.78V219H356.893V209.082H358.945V210.522ZM363.117 214.032C363.117 213.012 363.321 212.118 363.729 211.35C364.149 210.57 364.725 209.97 365.457 209.55C366.189 209.13 367.029 208.92 367.977 208.92C369.177 208.92 370.167 209.208 370.947 209.784C371.739 210.348 372.273 211.158 372.549 212.214H370.335C370.155 211.722 369.867 211.338 369.471 211.062C369.075 210.786 368.577 210.648 367.977 210.648C367.137 210.648 366.465 210.948 365.961 211.548C365.469 212.136 365.223 212.964 365.223 214.032C365.223 215.1 365.469 215.934 365.961 216.534C366.465 217.134 367.137 217.434 367.977 217.434C369.165 217.434 369.951 216.912 370.335 215.868H372.549C372.261 216.876 371.721 217.68 370.929 218.28C370.137 218.868 369.153 219.162 367.977 219.162C367.029 219.162 366.189 218.952 365.457 218.532C364.725 218.1 364.149 217.5 363.729 216.732C363.321 215.952 363.117 215.052 363.117 214.032ZM379.724 208.92C380.48 208.92 381.152 209.082 381.74 209.406C382.34 209.73 382.808 210.21 383.144 210.846C383.492 211.482 383.666 212.25 383.666 213.15V219H381.632V213.456C381.632 212.568 381.41 211.89 380.966 211.422C380.522 210.942 379.916 210.702 379.148 210.702C378.38 210.702 377.768 210.942 377.312 211.422C376.868 211.89 376.646 212.568 376.646 213.456V219H374.594V205.68H376.646V210.234C376.994 209.814 377.432 209.49 377.96 209.262C378.5 209.034 379.088 208.92 379.724 208.92ZM399.041 206.49V208.164H395.711V219H393.659V208.164H390.311V206.49H399.041ZM405.422 219.162C404.486 219.162 403.64 218.952 402.884 218.532C402.128 218.1 401.534 217.5 401.102 216.732C400.67 215.952 400.454 215.052 400.454 214.032C400.454 213.024 400.676 212.13 401.12 211.35C401.564 210.57 402.17 209.97 402.938 209.55C403.706 209.13 404.564 208.92 405.512 208.92C406.46 208.92 407.318 209.13 408.086 209.55C408.854 209.97 409.46 210.57 409.904 211.35C410.348 212.13 410.57 213.024 410.57 214.032C410.57 215.04 410.342 215.934 409.886 216.714C409.43 217.494 408.806 218.1 408.014 218.532C407.234 218.952 406.37 219.162 405.422 219.162ZM405.422 217.38C405.95 217.38 406.442 217.254 406.898 217.002C407.366 216.75 407.744 216.372 408.032 215.868C408.32 215.364 408.464 214.752 408.464 214.032C408.464 213.312 408.326 212.706 408.05 212.214C407.774 211.71 407.408 211.332 406.952 211.08C406.496 210.828 406.004 210.702 405.476 210.702C404.948 210.702 404.456 210.828 404 211.08C403.556 211.332 403.202 211.71 402.938 212.214C402.674 212.706 402.542 213.312 402.542 214.032C402.542 215.1 402.812 215.928 403.352 216.516C403.904 217.092 404.594 217.38 405.422 217.38ZM416.522 214.05L421.094 219H418.322L414.65 214.734V219H412.598V205.68H414.65V213.42L418.25 209.082H421.094L416.522 214.05ZM431.655 213.798C431.655 214.17 431.631 214.506 431.583 214.806H424.005C424.065 215.598 424.359 216.234 424.887 216.714C425.415 217.194 426.063 217.434 426.831 217.434C427.935 217.434 428.715 216.972 429.171 216.048H431.385C431.085 216.96 430.539 217.71 429.747 218.298C428.967 218.874 427.995 219.162 426.831 219.162C425.883 219.162 425.031 218.952 424.275 218.532C423.531 218.1 422.943 217.5 422.511 216.732C422.091 215.952 421.881 215.052 421.881 214.032C421.881 213.012 422.085 212.118 422.493 211.35C422.913 210.57 423.495 209.97 424.239 209.55C424.995 209.13 425.859 208.92 426.831 208.92C427.767 208.92 428.601 209.124 429.333 209.532C430.065 209.94 430.635 210.516 431.043 211.26C431.451 211.992 431.655 212.838 431.655 213.798ZM429.513 213.15C429.501 212.394 429.231 211.788 428.703 211.332C428.175 210.876 427.521 210.648 426.741 210.648C426.033 210.648 425.427 210.876 424.923 211.332C424.419 211.776 424.119 212.382 424.023 213.15H429.513ZM438.678 208.92C439.458 208.92 440.154 209.082 440.766 209.406C441.39 209.73 441.876 210.21 442.224 210.846C442.572 211.482 442.746 212.25 442.746 213.15V219H440.712V213.456C440.712 212.568 440.49 211.89 440.046 211.422C439.602 210.942 438.996 210.702 438.228 210.702C437.46 210.702 436.848 210.942 436.392 211.422C435.948 211.89 435.726 212.568 435.726 213.456V219H433.674V209.082H435.726V210.216C436.062 209.808 436.488 209.49 437.004 209.262C437.532 209.034 438.09 208.92 438.678 208.92ZM448.964 219.162C448.184 219.162 447.482 219.024 446.858 218.748C446.246 218.46 445.76 218.076 445.4 217.596C445.04 217.104 444.848 216.558 444.824 215.958H446.948C446.984 216.378 447.182 216.732 447.542 217.02C447.914 217.296 448.376 217.434 448.928 217.434C449.504 217.434 449.948 217.326 450.26 217.11C450.584 216.882 450.746 216.594 450.746 216.246C450.746 215.874 450.566 215.598 450.206 215.418C449.858 215.238 449.3 215.04 448.532 214.824C447.788 214.62 447.182 214.422 446.714 214.23C446.246 214.038 445.838 213.744 445.49 213.348C445.154 212.952 444.986 212.43 444.986 211.782C444.986 211.254 445.142 210.774 445.454 210.342C445.766 209.898 446.21 209.55 446.786 209.298C447.374 209.046 448.046 208.92 448.802 208.92C449.93 208.92 450.836 209.208 451.52 209.784C452.216 210.348 452.588 211.122 452.636 212.106H450.584C450.548 211.662 450.368 211.308 450.044 211.044C449.72 210.78 449.282 210.648 448.73 210.648C448.19 210.648 447.776 210.75 447.488 210.954C447.2 211.158 447.056 211.428 447.056 211.764C447.056 212.028 447.152 212.25 447.344 212.43C447.536 212.61 447.77 212.754 448.046 212.862C448.322 212.958 448.73 213.084 449.27 213.24C449.99 213.432 450.578 213.63 451.034 213.834C451.502 214.026 451.904 214.314 452.24 214.698C452.576 215.082 452.75 215.592 452.762 216.228C452.762 216.792 452.606 217.296 452.294 217.74C451.982 218.184 451.538 218.532 450.962 218.784C450.398 219.036 449.732 219.162 448.964 219.162Z" fill="white"/>
</g>
</g>
<rect x="284" y="70" width="200" height="32" rx="6" fill="#1F2128"/>
<rect x="292" y="76" width="20" height="20" rx="10" fill="#383736"/>
<g clip-path="url(#clip3_1419_24783)">
<path fill-rule="evenodd" clip-rule="evenodd" d="M301.983 89.7745L297.625 87.4805L301.983 78.503V78.5L306.357 87.4805L301.983 89.7745Z" fill="white"/>
<path fill-rule="evenodd" clip-rule="evenodd" d="M301.983 93.4996L297.625 87.8086L301.983 90.2001L306.357 87.8086L301.983 93.4996Z" fill="white"/>
</g>
<path fill-rule="evenodd" clip-rule="evenodd" d="M470.448 88.5729C470.143 88.2678 470.143 87.7732 470.448 87.4681L473.718 84.1979C474.023 83.8928 474.518 83.8928 474.823 84.1979C475.128 84.503 475.128 84.9977 474.823 85.3028L471.553 88.5729C471.247 88.878 470.753 88.878 470.448 88.5729Z" fill="white"/>
<path fill-rule="evenodd" clip-rule="evenodd" d="M467.177 84.1979C467.482 83.8928 467.977 83.8928 468.282 84.1979L471.552 87.4681C471.857 87.7732 471.857 88.2678 471.552 88.5729C471.247 88.878 470.753 88.878 470.447 88.5729L467.177 85.3028C466.872 84.9977 466.872 84.503 467.177 84.1979Z" fill="white"/>
<path d="M320.646 82.558V85.414H324.006V86.716H320.646V89.698H324.426V91H319.05V81.256H324.426V82.558H320.646ZM328.254 84.588V88.858C328.254 89.1473 328.319 89.3573 328.45 89.488C328.59 89.6093 328.823 89.67 329.15 89.67H330.13V91H328.87C328.151 91 327.6 90.832 327.218 90.496C326.835 90.16 326.644 89.614 326.644 88.858V84.588H325.734V83.286H326.644V81.368H328.254V83.286H330.13V84.588H328.254ZM335.591 83.16C336.179 83.16 336.701 83.286 337.159 83.538C337.625 83.79 337.989 84.1633 338.251 84.658C338.521 85.1527 338.657 85.75 338.657 86.45V91H337.075V86.688C337.075 85.9973 336.902 85.47 336.557 85.106C336.211 84.7327 335.74 84.546 335.143 84.546C334.545 84.546 334.069 84.7327 333.715 85.106C333.369 85.47 333.197 85.9973 333.197 86.688V91H331.601V80.64H333.197V84.182C333.467 83.8553 333.808 83.6033 334.219 83.426C334.639 83.2487 335.096 83.16 335.591 83.16ZM347.763 86.954C347.763 87.2433 347.744 87.5047 347.707 87.738H341.813C341.859 88.354 342.088 88.8487 342.499 89.222C342.909 89.5953 343.413 89.782 344.011 89.782C344.869 89.782 345.476 89.4227 345.831 88.704H347.553C347.319 89.4133 346.895 89.9967 346.279 90.454C345.672 90.902 344.916 91.126 344.011 91.126C343.273 91.126 342.611 90.9627 342.023 90.636C341.444 90.3 340.987 89.8333 340.651 89.236C340.324 88.6293 340.161 87.9293 340.161 87.136C340.161 86.3427 340.319 85.6473 340.637 85.05C340.963 84.4433 341.416 83.9767 341.995 83.65C342.583 83.3233 343.255 83.16 344.011 83.16C344.739 83.16 345.387 83.3187 345.957 83.636C346.526 83.9533 346.969 84.4013 347.287 84.98C347.604 85.5493 347.763 86.2073 347.763 86.954ZM346.097 86.45C346.087 85.862 345.877 85.3907 345.467 85.036C345.056 84.6813 344.547 84.504 343.941 84.504C343.39 84.504 342.919 84.6813 342.527 85.036C342.135 85.3813 341.901 85.8527 341.827 86.45H346.097ZM350.929 84.406C351.163 84.014 351.471 83.7107 351.853 83.496C352.245 83.272 352.707 83.16 353.239 83.16V84.812H352.833C352.208 84.812 351.732 84.9707 351.405 85.288C351.088 85.6053 350.929 86.156 350.929 86.94V91H349.333V83.286H350.929V84.406ZM361.776 86.954C361.776 87.2433 361.758 87.5047 361.72 87.738H355.826C355.873 88.354 356.102 88.8487 356.512 89.222C356.923 89.5953 357.427 89.782 358.024 89.782C358.883 89.782 359.49 89.4227 359.844 88.704H361.566C361.333 89.4133 360.908 89.9967 360.292 90.454C359.686 90.902 358.93 91.126 358.024 91.126C357.287 91.126 356.624 90.9627 356.036 90.636C355.458 90.3 355 89.8333 354.664 89.236C354.338 88.6293 354.174 87.9293 354.174 87.136C354.174 86.3427 354.333 85.6473 354.65 85.05C354.977 84.4433 355.43 83.9767 356.008 83.65C356.596 83.3233 357.268 83.16 358.024 83.16C358.752 83.16 359.401 83.3187 359.97 83.636C360.54 83.9533 360.983 84.4013 361.3 84.98C361.618 85.5493 361.776 86.2073 361.776 86.954ZM360.11 86.45C360.101 85.862 359.891 85.3907 359.48 85.036C359.07 84.6813 358.561 84.504 357.954 84.504C357.404 84.504 356.932 84.6813 356.54 85.036C356.148 85.3813 355.915 85.8527 355.84 86.45H360.11ZM370.333 83.286V91H368.737V90.09C368.485 90.4073 368.154 90.6593 367.743 90.846C367.342 91.0233 366.912 91.112 366.455 91.112C365.848 91.112 365.302 90.986 364.817 90.734C364.341 90.482 363.963 90.1087 363.683 89.614C363.412 89.1193 363.277 88.522 363.277 87.822V83.286H364.859V87.584C364.859 88.2747 365.032 88.8067 365.377 89.18C365.722 89.544 366.194 89.726 366.791 89.726C367.388 89.726 367.86 89.544 368.205 89.18C368.56 88.8067 368.737 88.2747 368.737 87.584V83.286H370.333ZM381.777 83.16C382.383 83.16 382.925 83.286 383.401 83.538C383.886 83.79 384.264 84.1633 384.535 84.658C384.815 85.1527 384.955 85.75 384.955 86.45V91H383.373V86.688C383.373 85.9973 383.2 85.47 382.855 85.106C382.509 84.7327 382.038 84.546 381.441 84.546C380.843 84.546 380.367 84.7327 380.013 85.106C379.667 85.47 379.495 85.9973 379.495 86.688V91H377.913V86.688C377.913 85.9973 377.74 85.47 377.395 85.106C377.049 84.7327 376.578 84.546 375.981 84.546C375.383 84.546 374.907 84.7327 374.553 85.106C374.207 85.47 374.035 85.9973 374.035 86.688V91H372.439V83.286H374.035V84.168C374.296 83.8507 374.627 83.6033 375.029 83.426C375.43 83.2487 375.859 83.16 376.317 83.16C376.933 83.16 377.483 83.2907 377.969 83.552C378.454 83.8133 378.827 84.1913 379.089 84.686C379.322 84.2193 379.686 83.8507 380.181 83.58C380.675 83.3 381.207 83.16 381.777 83.16Z" fill="white"/>
<path d="M292.596 398.28C290.991 398.28 289.628 397.86 288.508 397.02C287.407 396.161 286.567 394.976 285.988 393.464C285.409 391.933 285.12 390.179 285.12 388.2C285.12 386.203 285.409 384.448 285.988 382.936C286.567 381.424 287.407 380.248 288.508 379.408C289.628 378.549 290.991 378.12 292.596 378.12C294.201 378.12 295.555 378.549 296.656 379.408C297.776 380.248 298.625 381.424 299.204 382.936C299.783 384.448 300.072 386.203 300.072 388.2C300.072 390.179 299.783 391.933 299.204 393.464C298.625 394.976 297.776 396.161 296.656 397.02C295.555 397.86 294.201 398.28 292.596 398.28ZM292.596 394.92C293.38 394.92 294.052 394.677 294.612 394.192C295.191 393.688 295.639 392.941 295.956 391.952C296.273 390.944 296.432 389.693 296.432 388.2C296.432 386.688 296.273 385.437 295.956 384.448C295.639 383.459 295.191 382.721 294.612 382.236C294.052 381.732 293.38 381.48 292.596 381.48C291.831 381.48 291.159 381.732 290.58 382.236C290.001 382.721 289.553 383.459 289.236 384.448C288.919 385.437 288.76 386.688 288.76 388.2C288.76 389.693 288.919 390.944 289.236 391.952C289.553 392.941 290.001 393.688 290.58 394.192C291.159 394.677 291.831 394.92 292.596 394.92Z" fill="#C6C6D1"/>
<g opacity="0.96">
<path d="M10.944 26.252C9.264 26.252 7.752 25.964 6.408 25.388C5.064 24.788 4.008 23.948 3.24 22.868C2.472 21.788 2.088 20.528 2.088 19.088H6.48C6.576 20.168 6.996 21.056 7.74 21.752C8.508 22.448 9.576 22.796 10.944 22.796C12.36 22.796 13.464 22.46 14.256 21.788C15.048 21.092 15.444 20.204 15.444 19.124C15.444 18.284 15.192 17.6 14.688 17.072C14.208 16.544 13.596 16.136 12.852 15.848C12.132 15.56 11.124 15.248 9.828 14.912C8.196 14.48 6.864 14.048 5.832 13.616C4.824 13.16 3.96 12.464 3.24 11.528C2.52 10.592 2.16 9.344 2.16 7.784C2.16 6.344 2.52 5.084 3.24 4.004C3.96 2.924 4.968 2.096 6.264 1.52C7.56 0.943999 9.06 0.655998 10.764 0.655998C13.188 0.655998 15.168 1.268 16.704 2.492C18.264 3.692 19.128 5.348 19.296 7.46H14.76C14.688 6.548 14.256 5.768 13.464 5.12C12.672 4.472 11.628 4.148 10.332 4.148C9.156 4.148 8.196 4.448 7.452 5.048C6.708 5.648 6.336 6.512 6.336 7.64C6.336 8.408 6.564 9.044 7.02 9.548C7.5 10.028 8.1 10.412 8.82 10.7C9.54 10.988 10.524 11.3 11.772 11.636C13.428 12.092 14.772 12.548 15.804 13.004C16.86 13.46 17.748 14.168 18.468 15.128C19.212 16.064 19.584 17.324 19.584 18.908C19.584 20.18 19.236 21.38 18.54 22.508C17.868 23.636 16.872 24.548 15.552 25.244C14.256 25.916 12.72 26.252 10.944 26.252ZM51.0666 6.164L44.9106 26H40.5906L36.5946 11.348L32.5986 26H28.2786L22.0866 6.164H26.2626L30.4026 22.112L34.6146 6.164H38.8986L42.9306 22.04L47.0346 6.164H51.0666ZM52.7656 15.992C52.7656 14 53.1736 12.236 53.9896 10.7C54.8296 9.164 55.9576 7.976 57.3736 7.136C58.8136 6.272 60.3976 5.84 62.1256 5.84C63.6856 5.84 65.0416 6.152 66.1936 6.776C67.3696 7.376 68.3056 8.132 69.0016 9.044V6.164H73.1416V26H69.0016V23.048C68.3056 23.984 67.3576 24.764 66.1576 25.388C64.9576 26.012 63.5896 26.324 62.0536 26.324C60.3496 26.324 58.7896 25.892 57.3736 25.028C55.9576 24.14 54.8296 22.916 53.9896 21.356C53.1736 19.772 52.7656 17.984 52.7656 15.992ZM69.0016 16.064C69.0016 14.696 68.7136 13.508 68.1376 12.5C67.5856 11.492 66.8536 10.724 65.9416 10.196C65.0296 9.668 64.0456 9.404 62.9896 9.404C61.9336 9.404 60.9496 9.668 60.0376 10.196C59.1256 10.7 58.3816 11.456 57.8056 12.464C57.2536 13.448 56.9776 14.624 56.9776 15.992C56.9776 17.36 57.2536 18.56 57.8056 19.592C58.3816 20.624 59.1256 21.416 60.0376 21.968C60.9736 22.496 61.9576 22.76 62.9896 22.76C64.0456 22.76 65.0296 22.496 65.9416 21.968C66.8536 21.44 67.5856 20.672 68.1376 19.664C68.7136 18.632 69.0016 17.432 69.0016 16.064ZM82.636 9.08C83.332 8.168 84.28 7.4 85.48 6.776C86.68 6.152 88.036 5.84 89.548 5.84C91.276 5.84 92.848 6.272 94.264 7.136C95.704 7.976 96.832 9.164 97.648 10.7C98.464 12.236 98.872 14 98.872 15.992C98.872 17.984 98.464 19.772 97.648 21.356C96.832 22.916 95.704 24.14 94.264 25.028C92.848 25.892 91.276 26.324 89.548 26.324C88.036 26.324 86.692 26.024 85.516 25.424C84.34 24.8 83.38 24.032 82.636 23.12V35.432H78.532V6.164H82.636V9.08ZM94.696 15.992C94.696 14.624 94.408 13.448 93.832 12.464C93.28 11.456 92.536 10.7 91.6 10.196C90.688 9.668 89.704 9.404 88.648 9.404C87.616 9.404 86.632 9.668 85.696 10.196C84.784 10.724 84.04 11.492 83.464 12.5C82.912 13.508 82.636 14.696 82.636 16.064C82.636 17.432 82.912 18.632 83.464 19.664C84.04 20.672 84.784 21.44 85.696 21.968C86.632 22.496 87.616 22.76 88.648 22.76C89.704 22.76 90.688 22.496 91.6 21.968C92.536 21.416 93.28 20.624 93.832 19.592C94.408 18.56 94.696 17.36 94.696 15.992Z" fill="white"/>
<path d="M289.424 0.979998V4.328H278.804V11.708H287.084V15.056H278.804V26H274.7V0.979998H289.424ZM301.831 26.324C299.959 26.324 298.267 25.904 296.755 25.064C295.243 24.2 294.055 23 293.191 21.464C292.327 19.904 291.895 18.104 291.895 16.064C291.895 14.048 292.339 12.26 293.227 10.7C294.115 9.14 295.327 7.94 296.863 7.1C298.399 6.26 300.115 5.84 302.011 5.84C303.907 5.84 305.623 6.26 307.159 7.1C308.695 7.94 309.907 9.14 310.795 10.7C311.683 12.26 312.127 14.048 312.127 16.064C312.127 18.08 311.671 19.868 310.759 21.428C309.847 22.988 308.599 24.2 307.015 25.064C305.455 25.904 303.727 26.324 301.831 26.324ZM301.831 22.76C302.887 22.76 303.871 22.508 304.783 22.004C305.719 21.5 306.475 20.744 307.051 19.736C307.627 18.728 307.915 17.504 307.915 16.064C307.915 14.624 307.639 13.412 307.087 12.428C306.535 11.42 305.803 10.664 304.891 10.16C303.979 9.656 302.995 9.404 301.939 9.404C300.883 9.404 299.899 9.656 298.987 10.16C298.099 10.664 297.391 11.42 296.863 12.428C296.335 13.412 296.071 14.624 296.071 16.064C296.071 18.2 296.611 19.856 297.691 21.032C298.795 22.184 300.175 22.76 301.831 22.76ZM320.288 9.044C320.888 8.036 321.68 7.256 322.664 6.704C323.672 6.128 324.86 5.84 326.228 5.84V10.088H325.184C323.576 10.088 322.352 10.496 321.512 11.312C320.696 12.128 320.288 13.544 320.288 15.56V26H316.184V6.164H320.288V9.044Z" fill="white"/>
<path d="M494.229 12.6456L491.754 12.0255C491.554 11.2193 491.234 10.4479 490.804 9.7375L492.118 7.54712C492.197 7.41565 492.23 7.26154 492.211 7.10931C492.193 6.95708 492.124 6.81547 492.015 6.707L491.038 5.73487C490.929 5.62644 490.787 5.55738 490.635 5.5387C490.483 5.52001 490.329 5.55276 490.197 5.63175L488.013 6.94625C487.302 6.51647 486.531 6.19661 485.724 5.9975L485.104 3.52113C485.067 3.37233 484.981 3.24021 484.861 3.14578C484.74 3.05136 484.591 3.00004 484.438 3H483.062C482.909 3.00004 482.76 3.05136 482.639 3.14578C482.519 3.24021 482.433 3.37233 482.396 3.52113L481.776 5.99612C480.969 6.1957 480.198 6.51603 479.488 6.94625L477.297 5.63175C477.166 5.55276 477.012 5.52001 476.859 5.5387C476.707 5.55738 476.565 5.62644 476.457 5.73487L475.485 6.7125C475.376 6.82097 475.307 6.96258 475.289 7.11481C475.27 7.26704 475.303 7.42115 475.382 7.55263L476.696 9.7375C476.266 10.448 475.947 11.2194 475.748 12.0255L473.272 12.6456C473.123 12.6825 472.991 12.7682 472.896 12.889C472.802 13.0099 472.75 13.159 472.75 13.3125V14.6875C472.75 14.8409 472.801 14.9898 472.896 15.1106C472.99 15.2315 473.122 15.3173 473.271 15.3544L475.746 15.9745C475.946 16.7807 476.266 17.5521 476.696 18.2625L475.382 20.4529C475.303 20.5843 475.27 20.7385 475.289 20.8907C475.307 21.0429 475.376 21.1845 475.485 21.293L476.457 22.2651C476.565 22.3736 476.707 22.4426 476.859 22.4613C477.012 22.48 477.166 22.4472 477.297 22.3682L479.488 21.0538C480.198 21.4835 480.969 21.8034 481.776 22.0025L482.396 24.4775C482.432 24.6266 482.518 24.759 482.639 24.8537C482.76 24.9484 482.909 24.9999 483.062 25H484.438C484.591 25 484.74 24.9486 484.861 24.8542C484.981 24.7598 485.067 24.6277 485.104 24.4789L485.724 22.0039C486.531 21.8048 487.302 21.4849 488.013 21.0551L490.203 22.3696C490.334 22.4486 490.488 22.4814 490.641 22.4627C490.793 22.444 490.935 22.3749 491.043 22.2665L492.015 21.2944C492.124 21.1859 492.193 21.0443 492.211 20.8921C492.23 20.7398 492.197 20.5857 492.118 20.4543L490.804 18.2625C491.234 17.552 491.553 16.7806 491.752 15.9745L494.227 15.3544C494.377 15.3175 494.509 15.2318 494.604 15.111C494.698 14.9901 494.75 14.841 494.75 14.6875V13.3125C494.75 13.1591 494.699 13.0102 494.604 12.8894C494.51 12.7685 494.378 12.6827 494.229 12.6456ZM483.75 18.125C482.934 18.125 482.137 17.8831 481.458 17.4298C480.78 16.9766 480.251 16.3323 479.939 15.5786C479.627 14.8248 479.545 13.9954 479.704 13.1953C479.863 12.3951 480.256 11.6601 480.833 11.0832C481.41 10.5063 482.145 10.1134 482.945 9.95426C483.745 9.7951 484.575 9.87679 485.329 10.189C486.082 10.5012 486.727 11.0299 487.18 11.7083C487.633 12.3866 487.875 13.1842 487.875 14C487.875 15.094 487.44 16.1432 486.667 16.9168C485.893 17.6904 484.844 18.125 483.75 18.125Z" fill="white"/>
</g>
<g opacity="0.15">
<rect y="467" width="496" height="48" rx="8" fill="#17181D"/>
<path d="M184.873 491.4C184.873 490.301 185.118 489.32 185.609 488.456C186.11 487.581 186.787 486.904 187.641 486.424C188.505 485.933 189.47 485.688 190.537 485.688C191.785 485.688 192.878 486.008 193.817 486.648C194.755 487.288 195.411 488.173 195.785 489.304H193.209C192.953 488.771 192.59 488.371 192.121 488.104C191.662 487.837 191.129 487.704 190.521 487.704C189.87 487.704 189.289 487.859 188.777 488.168C188.275 488.467 187.881 488.893 187.593 489.448C187.315 490.003 187.177 490.653 187.177 491.4C187.177 492.136 187.315 492.787 187.593 493.352C187.881 493.907 188.275 494.339 188.777 494.648C189.289 494.947 189.87 495.096 190.521 495.096C191.129 495.096 191.662 494.963 192.121 494.696C192.59 494.419 192.953 494.013 193.209 493.48H195.785C195.411 494.621 194.755 495.512 193.817 496.152C192.889 496.781 191.795 497.096 190.537 497.096C189.47 497.096 188.505 496.856 187.641 496.376C186.787 495.885 186.11 495.208 185.609 494.344C185.118 493.48 184.873 492.499 184.873 491.4ZM201.634 497.144C200.78 497.144 200.012 496.957 199.33 496.584C198.647 496.2 198.108 495.661 197.714 494.968C197.33 494.275 197.138 493.475 197.138 492.568C197.138 491.661 197.335 490.861 197.73 490.168C198.135 489.475 198.684 488.941 199.378 488.568C200.071 488.184 200.844 487.992 201.698 487.992C202.551 487.992 203.324 488.184 204.018 488.568C204.711 488.941 205.255 489.475 205.65 490.168C206.055 490.861 206.258 491.661 206.258 492.568C206.258 493.475 206.05 494.275 205.634 494.968C205.228 495.661 204.674 496.2 203.97 496.584C203.276 496.957 202.498 497.144 201.634 497.144ZM201.634 495.192C202.039 495.192 202.418 495.096 202.77 494.904C203.132 494.701 203.42 494.403 203.634 494.008C203.847 493.613 203.954 493.133 203.954 492.568C203.954 491.725 203.73 491.08 203.282 490.632C202.844 490.173 202.306 489.944 201.666 489.944C201.026 489.944 200.487 490.173 200.05 490.632C199.623 491.08 199.41 491.725 199.41 492.568C199.41 493.411 199.618 494.061 200.034 494.52C200.46 494.968 200.994 495.192 201.634 495.192ZM212.813 488.008C213.869 488.008 214.722 488.344 215.373 489.016C216.024 489.677 216.349 490.605 216.349 491.8V497H214.109V492.104C214.109 491.4 213.933 490.861 213.581 490.488C213.229 490.104 212.749 489.912 212.141 489.912C211.522 489.912 211.032 490.104 210.669 490.488C210.317 490.861 210.141 491.4 210.141 492.104V497H207.901V488.136H210.141V489.24C210.44 488.856 210.818 488.557 211.277 488.344C211.746 488.12 212.258 488.008 212.813 488.008ZM223.391 488.008C224.447 488.008 225.3 488.344 225.951 489.016C226.602 489.677 226.927 490.605 226.927 491.8V497H224.687V492.104C224.687 491.4 224.511 490.861 224.159 490.488C223.807 490.104 223.327 489.912 222.719 489.912C222.1 489.912 221.61 490.104 221.247 490.488C220.895 490.861 220.719 491.4 220.719 492.104V497H218.479V488.136H220.719V489.24C221.018 488.856 221.396 488.557 221.855 488.344C222.324 488.12 222.836 488.008 223.391 488.008ZM237.297 492.376C237.297 492.696 237.276 492.984 237.233 493.24H230.753C230.806 493.88 231.03 494.381 231.425 494.744C231.82 495.107 232.305 495.288 232.881 495.288C233.713 495.288 234.305 494.931 234.657 494.216H237.073C236.817 495.069 236.326 495.773 235.601 496.328C234.876 496.872 233.985 497.144 232.929 497.144C232.076 497.144 231.308 496.957 230.625 496.584C229.953 496.2 229.425 495.661 229.041 494.968C228.668 494.275 228.481 493.475 228.481 492.568C228.481 491.651 228.668 490.845 229.041 490.152C229.414 489.459 229.937 488.925 230.609 488.552C231.281 488.179 232.054 487.992 232.929 487.992C233.772 487.992 234.524 488.173 235.185 488.536C235.857 488.899 236.374 489.416 236.737 490.088C237.11 490.749 237.297 491.512 237.297 492.376ZM234.977 491.736C234.966 491.16 234.758 490.701 234.353 490.36C233.948 490.008 233.452 489.832 232.865 489.832C232.31 489.832 231.841 490.003 231.457 490.344C231.084 490.675 230.854 491.139 230.769 491.736H234.977ZM238.356 492.568C238.356 491.651 238.543 490.851 238.916 490.168C239.289 489.475 239.807 488.941 240.468 488.568C241.129 488.184 241.887 487.992 242.74 487.992C243.839 487.992 244.745 488.269 245.46 488.824C246.185 489.368 246.671 490.136 246.916 491.128H244.5C244.372 490.744 244.153 490.445 243.844 490.232C243.545 490.008 243.172 489.896 242.724 489.896C242.084 489.896 241.577 490.131 241.204 490.6C240.831 491.059 240.644 491.715 240.644 492.568C240.644 493.411 240.831 494.067 241.204 494.536C241.577 494.995 242.084 495.224 242.724 495.224C243.631 495.224 244.223 494.819 244.5 494.008H246.916C246.671 494.968 246.185 495.731 245.46 496.296C244.735 496.861 243.828 497.144 242.74 497.144C241.887 497.144 241.129 496.957 240.468 496.584C239.807 496.2 239.289 495.667 238.916 494.984C238.543 494.291 238.356 493.485 238.356 492.568ZM251.165 489.976V494.264C251.165 494.563 251.234 494.781 251.373 494.92C251.522 495.048 251.768 495.112 252.109 495.112H253.149V497H251.741C249.853 497 248.909 496.083 248.909 494.248V489.976H247.853V488.136H248.909V485.944H251.165V488.136H253.149V489.976H251.165ZM273.501 485.832L270.381 497H267.741L265.645 489.048L263.453 497L260.829 497.016L257.821 485.832H260.221L262.189 494.504L264.461 485.832H266.957L269.101 494.456L271.085 485.832H273.501ZM274.387 492.536C274.387 491.64 274.563 490.845 274.915 490.152C275.278 489.459 275.763 488.925 276.371 488.552C276.99 488.179 277.678 487.992 278.435 487.992C279.097 487.992 279.673 488.125 280.163 488.392C280.665 488.659 281.065 488.995 281.363 489.4V488.136H283.619V497H281.363V495.704C281.075 496.12 280.675 496.467 280.163 496.744C279.662 497.011 279.081 497.144 278.419 497.144C277.673 497.144 276.99 496.952 276.371 496.568C275.763 496.184 275.278 495.645 274.915 494.952C274.563 494.248 274.387 493.443 274.387 492.536ZM281.363 492.568C281.363 492.024 281.257 491.56 281.043 491.176C280.83 490.781 280.542 490.483 280.179 490.28C279.817 490.067 279.427 489.96 279.011 489.96C278.595 489.96 278.211 490.061 277.859 490.264C277.507 490.467 277.219 490.765 276.995 491.16C276.782 491.544 276.675 492.003 276.675 492.536C276.675 493.069 276.782 493.539 276.995 493.944C277.219 494.339 277.507 494.643 277.859 494.856C278.222 495.069 278.606 495.176 279.011 495.176C279.427 495.176 279.817 495.075 280.179 494.872C280.542 494.659 280.83 494.36 281.043 493.976C281.257 493.581 281.363 493.112 281.363 492.568ZM288.047 485.16V497H285.807V485.16H288.047ZM292.5 485.16V497H290.26V485.16H292.5ZM302.953 492.376C302.953 492.696 302.932 492.984 302.889 493.24H296.409C296.463 493.88 296.687 494.381 297.081 494.744C297.476 495.107 297.961 495.288 298.537 495.288C299.369 495.288 299.961 494.931 300.313 494.216H302.729C302.473 495.069 301.983 495.773 301.257 496.328C300.532 496.872 299.641 497.144 298.585 497.144C297.732 497.144 296.964 496.957 296.281 496.584C295.609 496.2 295.081 495.661 294.697 494.968C294.324 494.275 294.137 493.475 294.137 492.568C294.137 491.651 294.324 490.845 294.697 490.152C295.071 489.459 295.593 488.925 296.265 488.552C296.937 488.179 297.711 487.992 298.585 487.992C299.428 487.992 300.18 488.173 300.841 488.536C301.513 488.899 302.031 489.416 302.393 490.088C302.767 490.749 302.953 491.512 302.953 492.376ZM300.633 491.736C300.623 491.16 300.415 490.701 300.009 490.36C299.604 490.008 299.108 489.832 298.521 489.832C297.967 489.832 297.497 490.003 297.113 490.344C296.74 490.675 296.511 491.139 296.425 491.736H300.633ZM307.196 489.976V494.264C307.196 494.563 307.266 494.781 307.404 494.92C307.554 495.048 307.799 495.112 308.14 495.112H309.18V497H307.772C305.884 497 304.94 496.083 304.94 494.248V489.976H303.884V488.136H304.94V485.944H307.196V488.136H309.18V489.976H307.196Z" fill="#8E8E92"/>
</g>
<defs>
<clipPath id="clip0_1419_24783">
<rect x="12" y="114" width="200" height="248" rx="16" fill="white"/>
</clipPath>
<clipPath id="clip1_1419_24783">
<rect width="8.732" height="15" fill="white" transform="translate(25.625 78.5)"/>
</clipPath>
<clipPath id="clip2_1419_24783">
<rect x="284" y="114" width="200" height="248" rx="16" fill="white"/>
</clipPath>
<clipPath id="clip3_1419_24783">
<rect width="8.732" height="15" fill="white" transform="translate(297.625 78.5)"/>
</clipPath>
</defs>
</svg>