<svg width="496" height="385" viewBox="0 0 496 385" fill="none" xmlns="http://www.w3.org/2000/svg">
<rect x="0.5" y="0.5" width="223" height="384" rx="7.5" fill="#0F0F12"/>
<rect x="0.5" y="0.5" width="223" height="384" rx="7.5" stroke="#1F2128"/>
<rect x="0.5" y="0.5" width="223" height="384" rx="7.5" stroke="#1F2128"/>
<g clip-path="url(#clip0_1623_27119)">
<rect x="12.5" y="60.5" width="199" height="247" rx="15.5" stroke="#313442" stroke-dasharray="6 6"/>
<path d="M117.875 209.125C119 207.625 119.625 205.875 119.625 203.875C119.625 199 115.75 195 110.875 195C106 195 102 199 102 203.875C102 208.75 106 212.75 110.875 212.75C112.875 212.75 114.75 212.125 116.125 211L119.875 214.75C120.125 215 120.5 215.125 120.75 215.125C121 215.125 121.375 215 121.625 214.75C122.125 214.25 122.125 213.5 121.625 213L117.875 209.125ZM110.875 210.125C107.375 210.125 104.5 207.375 104.5 203.875C104.5 200.375 107.375 197.5 110.875 197.5C114.375 197.5 117.25 200.375 117.25 203.875C117.25 207.375 114.375 210.125 110.875 210.125Z" fill="white"/>
<path d="M51.8431 173.126C51.0031 173.126 50.2471 172.982 49.5751 172.694C48.9031 172.394 48.3751 171.974 47.9911 171.434C47.6071 170.894 47.4151 170.264 47.4151 169.544H49.6111C49.6591 170.084 49.8691 170.528 50.2411 170.876C50.6251 171.224 51.1591 171.398 51.8431 171.398C52.5511 171.398 53.1031 171.23 53.4991 170.894C53.8951 170.546 54.0931 170.102 54.0931 169.562C54.0931 169.142 53.9671 168.8 53.7151 168.536C53.4751 168.272 53.1691 168.068 52.7971 167.924C52.4371 167.78 51.9331 167.624 51.2851 167.456C50.4691 167.24 49.8031 167.024 49.2871 166.808C48.7831 166.58 48.3511 166.232 47.9911 165.764C47.6311 165.296 47.4511 164.672 47.4511 163.892C47.4511 163.172 47.6311 162.542 47.9911 162.002C48.3511 161.462 48.8551 161.048 49.5031 160.76C50.1511 160.472 50.9011 160.328 51.7531 160.328C52.9651 160.328 53.9551 160.634 54.7231 161.246C55.5031 161.846 55.9351 162.674 56.0191 163.73H53.7511C53.7151 163.274 53.4991 162.884 53.1031 162.56C52.7071 162.236 52.1851 162.074 51.5371 162.074C50.9491 162.074 50.4691 162.224 50.0971 162.524C49.7251 162.824 49.5391 163.256 49.5391 163.82C49.5391 164.204 49.6531 164.522 49.8811 164.774C50.1211 165.014 50.4211 165.206 50.7811 165.35C51.1411 165.494 51.6331 165.65 52.2571 165.818C53.0851 166.046 53.7571 166.274 54.2731 166.502C54.8011 166.73 55.2451 167.084 55.6051 167.564C55.9771 168.032 56.1631 168.662 56.1631 169.454C56.1631 170.09 55.9891 170.69 55.6411 171.254C55.3051 171.818 54.8071 172.274 54.1471 172.622C53.4991 172.958 52.7311 173.126 51.8431 173.126ZM67.6744 167.798C67.6744 168.17 67.6504 168.506 67.6024 168.806H60.0244C60.0844 169.598 60.3784 170.234 60.9064 170.714C61.4344 171.194 62.0824 171.434 62.8504 171.434C63.9544 171.434 64.7344 170.972 65.1904 170.048H67.4044C67.1044 170.96 66.5584 171.71 65.7664 172.298C64.9864 172.874 64.0144 173.162 62.8504 173.162C61.9024 173.162 61.0504 172.952 60.2944 172.532C59.5504 172.1 58.9624 171.5 58.5304 170.732C58.1104 169.952 57.9004 169.052 57.9004 168.032C57.9004 167.012 58.1044 166.118 58.5124 165.35C58.9324 164.57 59.5144 163.97 60.2584 163.55C61.0144 163.13 61.8784 162.92 62.8504 162.92C63.7864 162.92 64.6204 163.124 65.3524 163.532C66.0844 163.94 66.6544 164.516 67.0624 165.26C67.4704 165.992 67.6744 166.838 67.6744 167.798ZM65.5324 167.15C65.5204 166.394 65.2504 165.788 64.7224 165.332C64.1944 164.876 63.5404 164.648 62.7604 164.648C62.0524 164.648 61.4464 164.876 60.9424 165.332C60.4384 165.776 60.1384 166.382 60.0424 167.15H65.5324ZM69.0098 167.996C69.0098 167 69.2138 166.118 69.6218 165.35C70.0418 164.582 70.6058 163.988 71.3138 163.568C72.0338 163.136 72.8258 162.92 73.6898 162.92C74.4698 162.92 75.1478 163.076 75.7238 163.388C76.3118 163.688 76.7798 164.066 77.1278 164.522V163.082H79.1978V173H77.1278V171.524C76.7798 171.992 76.3058 172.382 75.7058 172.694C75.1058 173.006 74.4218 173.162 73.6538 173.162C72.8018 173.162 72.0218 172.946 71.3138 172.514C70.6058 172.07 70.0418 171.458 69.6218 170.678C69.2138 169.886 69.0098 168.992 69.0098 167.996ZM77.1278 168.032C77.1278 167.348 76.9838 166.754 76.6958 166.25C76.4198 165.746 76.0538 165.362 75.5978 165.098C75.1418 164.834 74.6498 164.702 74.1218 164.702C73.5938 164.702 73.1018 164.834 72.6458 165.098C72.1898 165.35 71.8178 165.728 71.5298 166.232C71.2538 166.724 71.1158 167.312 71.1158 167.996C71.1158 168.68 71.2538 169.28 71.5298 169.796C71.8178 170.312 72.1898 170.708 72.6458 170.984C73.1138 171.248 73.6058 171.38 74.1218 171.38C74.6498 171.38 75.1418 171.248 75.5978 170.984C76.0538 170.72 76.4198 170.336 76.6958 169.832C76.9838 169.316 77.1278 168.716 77.1278 168.032ZM83.945 164.522C84.245 164.018 84.641 163.628 85.133 163.352C85.637 163.064 86.231 162.92 86.915 162.92V165.044H86.393C85.589 165.044 84.977 165.248 84.557 165.656C84.149 166.064 83.945 166.772 83.945 167.78V173H81.893V163.082H83.945V164.522ZM88.1172 168.032C88.1172 167.012 88.3212 166.118 88.7292 165.35C89.1492 164.57 89.7252 163.97 90.4572 163.55C91.1892 163.13 92.0292 162.92 92.9772 162.92C94.1772 162.92 95.1672 163.208 95.9472 163.784C96.7392 164.348 97.2732 165.158 97.5492 166.214H95.3352C95.1552 165.722 94.8672 165.338 94.4712 165.062C94.0752 164.786 93.5772 164.648 92.9772 164.648C92.1372 164.648 91.4652 164.948 90.9612 165.548C90.4692 166.136 90.2232 166.964 90.2232 168.032C90.2232 169.1 90.4692 169.934 90.9612 170.534C91.4652 171.134 92.1372 171.434 92.9772 171.434C94.1652 171.434 94.9512 170.912 95.3352 169.868H97.5492C97.2612 170.876 96.7212 171.68 95.9292 172.28C95.1372 172.868 94.1532 173.162 92.9772 173.162C92.0292 173.162 91.1892 172.952 90.4572 172.532C89.7252 172.1 89.1492 171.5 88.7292 170.732C88.3212 169.952 88.1172 169.052 88.1172 168.032ZM104.724 162.92C105.48 162.92 106.152 163.082 106.74 163.406C107.34 163.73 107.808 164.21 108.144 164.846C108.492 165.482 108.666 166.25 108.666 167.15V173H106.632V167.456C106.632 166.568 106.41 165.89 105.966 165.422C105.522 164.942 104.916 164.702 104.148 164.702C103.38 164.702 102.768 164.942 102.312 165.422C101.868 165.89 101.646 166.568 101.646 167.456V173H99.5941V159.68H101.646V164.234C101.994 163.814 102.432 163.49 102.96 163.262C103.5 163.034 104.088 162.92 104.724 162.92ZM124.041 160.49V162.164H120.711V173H118.659V162.164H115.311V160.49H124.041ZM130.422 173.162C129.486 173.162 128.64 172.952 127.884 172.532C127.128 172.1 126.534 171.5 126.102 170.732C125.67 169.952 125.454 169.052 125.454 168.032C125.454 167.024 125.676 166.13 126.12 165.35C126.564 164.57 127.17 163.97 127.938 163.55C128.706 163.13 129.564 162.92 130.512 162.92C131.46 162.92 132.318 163.13 133.086 163.55C133.854 163.97 134.46 164.57 134.904 165.35C135.348 166.13 135.57 167.024 135.57 168.032C135.57 169.04 135.342 169.934 134.886 170.714C134.43 171.494 133.806 172.1 133.014 172.532C132.234 172.952 131.37 173.162 130.422 173.162ZM130.422 171.38C130.95 171.38 131.442 171.254 131.898 171.002C132.366 170.75 132.744 170.372 133.032 169.868C133.32 169.364 133.464 168.752 133.464 168.032C133.464 167.312 133.326 166.706 133.05 166.214C132.774 165.71 132.408 165.332 131.952 165.08C131.496 164.828 131.004 164.702 130.476 164.702C129.948 164.702 129.456 164.828 129 165.08C128.556 165.332 128.202 165.71 127.938 166.214C127.674 166.706 127.542 167.312 127.542 168.032C127.542 169.1 127.812 169.928 128.352 170.516C128.904 171.092 129.594 171.38 130.422 171.38ZM141.522 168.05L146.094 173H143.322L139.65 168.734V173H137.598V159.68H139.65V167.42L143.25 163.082H146.094L141.522 168.05ZM156.655 167.798C156.655 168.17 156.631 168.506 156.583 168.806H149.005C149.065 169.598 149.359 170.234 149.887 170.714C150.415 171.194 151.063 171.434 151.831 171.434C152.935 171.434 153.715 170.972 154.171 170.048H156.385C156.085 170.96 155.539 171.71 154.747 172.298C153.967 172.874 152.995 173.162 151.831 173.162C150.883 173.162 150.031 172.952 149.275 172.532C148.531 172.1 147.943 171.5 147.511 170.732C147.091 169.952 146.881 169.052 146.881 168.032C146.881 167.012 147.085 166.118 147.493 165.35C147.913 164.57 148.495 163.97 149.239 163.55C149.995 163.13 150.859 162.92 151.831 162.92C152.767 162.92 153.601 163.124 154.333 163.532C155.065 163.94 155.635 164.516 156.043 165.26C156.451 165.992 156.655 166.838 156.655 167.798ZM154.513 167.15C154.501 166.394 154.231 165.788 153.703 165.332C153.175 164.876 152.521 164.648 151.741 164.648C151.033 164.648 150.427 164.876 149.923 165.332C149.419 165.776 149.119 166.382 149.023 167.15H154.513ZM163.678 162.92C164.458 162.92 165.154 163.082 165.766 163.406C166.39 163.73 166.876 164.21 167.224 164.846C167.572 165.482 167.746 166.25 167.746 167.15V173H165.712V167.456C165.712 166.568 165.49 165.89 165.046 165.422C164.602 164.942 163.996 164.702 163.228 164.702C162.46 164.702 161.848 164.942 161.392 165.422C160.948 165.89 160.726 166.568 160.726 167.456V173H158.674V163.082H160.726V164.216C161.062 163.808 161.488 163.49 162.004 163.262C162.532 163.034 163.09 162.92 163.678 162.92ZM173.964 173.162C173.184 173.162 172.482 173.024 171.858 172.748C171.246 172.46 170.76 172.076 170.4 171.596C170.04 171.104 169.848 170.558 169.824 169.958H171.948C171.984 170.378 172.182 170.732 172.542 171.02C172.914 171.296 173.376 171.434 173.928 171.434C174.504 171.434 174.948 171.326 175.26 171.11C175.584 170.882 175.746 170.594 175.746 170.246C175.746 169.874 175.566 169.598 175.206 169.418C174.858 169.238 174.3 169.04 173.532 168.824C172.788 168.62 172.182 168.422 171.714 168.23C171.246 168.038 170.838 167.744 170.49 167.348C170.154 166.952 169.986 166.43 169.986 165.782C169.986 165.254 170.142 164.774 170.454 164.342C170.766 163.898 171.21 163.55 171.786 163.298C172.374 163.046 173.046 162.92 173.802 162.92C174.93 162.92 175.836 163.208 176.52 163.784C177.216 164.348 177.588 165.122 177.636 166.106H175.584C175.548 165.662 175.368 165.308 175.044 165.044C174.72 164.78 174.282 164.648 173.73 164.648C173.19 164.648 172.776 164.75 172.488 164.954C172.2 165.158 172.056 165.428 172.056 165.764C172.056 166.028 172.152 166.25 172.344 166.43C172.536 166.61 172.77 166.754 173.046 166.862C173.322 166.958 173.73 167.084 174.27 167.24C174.99 167.432 175.578 167.63 176.034 167.834C176.502 168.026 176.904 168.314 177.24 168.698C177.576 169.082 177.75 169.592 177.762 170.228C177.762 170.792 177.606 171.296 177.294 171.74C176.982 172.184 176.538 172.532 175.962 172.784C175.398 173.036 174.732 173.162 173.964 173.162Z" fill="white"/>
</g>
<rect x="12" y="16" width="200" height="32" rx="6" fill="#1F2128"/>
<rect x="20" y="22" width="20" height="20" rx="10" fill="#383736"/>
<g clip-path="url(#clip1_1623_27119)">
<path fill-rule="evenodd" clip-rule="evenodd" d="M29.9836 35.7745L25.6256 33.4805L29.9836 24.503V24.5L34.3571 33.4805L29.9836 35.7745Z" fill="white"/>
<path fill-rule="evenodd" clip-rule="evenodd" d="M29.9834 39.4996L25.6254 33.8086L29.9834 36.2001L34.3569 33.8086L29.9834 39.4996Z" fill="white"/>
</g>
<path fill-rule="evenodd" clip-rule="evenodd" d="M198.448 34.5729C198.142 34.2678 198.142 33.7732 198.448 33.4681L201.718 30.1979C202.023 29.8928 202.517 29.8928 202.823 30.1979C203.128 30.503 203.128 30.9977 202.823 31.3028L199.552 34.5729C199.247 34.878 198.753 34.878 198.448 34.5729Z" fill="white"/>
<path fill-rule="evenodd" clip-rule="evenodd" d="M195.177 30.1979C195.483 29.8928 195.977 29.8928 196.282 30.1979L199.552 33.4681C199.858 33.7732 199.858 34.2678 199.552 34.5729C199.247 34.878 198.753 34.878 198.448 34.5729L195.177 31.3028C194.872 30.9977 194.872 30.503 195.177 30.1979Z" fill="white"/>
<path d="M48.646 28.558V31.414H52.006V32.716H48.646V35.698H52.426V37H47.05V27.256H52.426V28.558H48.646ZM56.2538 30.588V34.858C56.2538 35.1473 56.3191 35.3573 56.4498 35.488C56.5898 35.6093 56.8231 35.67 57.1498 35.67H58.1298V37H56.8698C56.1511 37 55.6005 36.832 55.2178 36.496C54.8351 36.16 54.6438 35.614 54.6438 34.858V30.588H53.7338V29.286H54.6438V27.368H56.2538V29.286H58.1298V30.588H56.2538ZM63.5908 29.16C64.1788 29.16 64.7014 29.286 65.1588 29.538C65.6254 29.79 65.9894 30.1633 66.2508 30.658C66.5214 31.1527 66.6568 31.75 66.6568 32.45V37H65.0748V32.688C65.0748 31.9973 64.9021 31.47 64.5568 31.106C64.2114 30.7327 63.7401 30.546 63.1428 30.546C62.5454 30.546 62.0694 30.7327 61.7148 31.106C61.3694 31.47 61.1968 31.9973 61.1968 32.688V37H59.6008V26.64H61.1968V30.182C61.4674 29.8553 61.8081 29.6033 62.2188 29.426C62.6388 29.2487 63.0961 29.16 63.5908 29.16ZM75.7626 32.954C75.7626 33.2433 75.7439 33.5047 75.7066 33.738H69.8126C69.8592 34.354 70.0879 34.8487 70.4986 35.222C70.9092 35.5953 71.4132 35.782 72.0106 35.782C72.8692 35.782 73.4759 35.4227 73.8306 34.704H75.5526C75.3192 35.4133 74.8946 35.9967 74.2786 36.454C73.6719 36.902 72.9159 37.126 72.0106 37.126C71.2732 37.126 70.6106 36.9627 70.0226 36.636C69.4439 36.3 68.9866 35.8333 68.6506 35.236C68.3239 34.6293 68.1606 33.9293 68.1606 33.136C68.1606 32.3427 68.3192 31.6473 68.6366 31.05C68.9632 30.4433 69.4159 29.9767 69.9946 29.65C70.5826 29.3233 71.2546 29.16 72.0106 29.16C72.7386 29.16 73.3872 29.3187 73.9566 29.636C74.5259 29.9533 74.9692 30.4013 75.2866 30.98C75.6039 31.5493 75.7626 32.2073 75.7626 32.954ZM74.0966 32.45C74.0872 31.862 73.8772 31.3907 73.4666 31.036C73.0559 30.6813 72.5472 30.504 71.9406 30.504C71.3899 30.504 70.9186 30.6813 70.5266 31.036C70.1346 31.3813 69.9012 31.8527 69.8266 32.45H74.0966ZM78.9292 30.406C79.1625 30.014 79.4705 29.7107 79.8532 29.496C80.2452 29.272 80.7072 29.16 81.2392 29.16V30.812H80.8332C80.2079 30.812 79.7319 30.9707 79.4052 31.288C79.0879 31.6053 78.9292 32.156 78.9292 32.94V37H77.3332V29.286H78.9292V30.406ZM89.7763 32.954C89.7763 33.2433 89.7576 33.5047 89.7203 33.738H83.8263C83.8729 34.354 84.1016 34.8487 84.5123 35.222C84.9229 35.5953 85.4269 35.782 86.0243 35.782C86.8829 35.782 87.4896 35.4227 87.8443 34.704H89.5662C89.3329 35.4133 88.9083 35.9967 88.2923 36.454C87.6856 36.902 86.9296 37.126 86.0243 37.126C85.2869 37.126 84.6243 36.9627 84.0363 36.636C83.4576 36.3 83.0003 35.8333 82.6643 35.236C82.3376 34.6293 82.1743 33.9293 82.1743 33.136C82.1743 32.3427 82.3329 31.6473 82.6503 31.05C82.9769 30.4433 83.4296 29.9767 84.0083 29.65C84.5963 29.3233 85.2683 29.16 86.0243 29.16C86.7523 29.16 87.4009 29.3187 87.9703 29.636C88.5396 29.9533 88.9829 30.4013 89.3003 30.98C89.6176 31.5493 89.7763 32.2073 89.7763 32.954ZM88.1103 32.45C88.1009 31.862 87.8909 31.3907 87.4803 31.036C87.0696 30.6813 86.5609 30.504 85.9543 30.504C85.4036 30.504 84.9323 30.6813 84.5403 31.036C84.1483 31.3813 83.9149 31.8527 83.8403 32.45H88.1103ZM98.3329 29.286V37H96.7369V36.09C96.4849 36.4073 96.1535 36.6593 95.7429 36.846C95.3415 37.0233 94.9122 37.112 94.4549 37.112C93.8482 37.112 93.3022 36.986 92.8169 36.734C92.3409 36.482 91.9629 36.1087 91.6829 35.614C91.4122 35.1193 91.2769 34.522 91.2769 33.822V29.286H92.8589V33.584C92.8589 34.2747 93.0315 34.8067 93.3769 35.18C93.7222 35.544 94.1935 35.726 94.7909 35.726C95.3882 35.726 95.8595 35.544 96.2049 35.18C96.5595 34.8067 96.7369 34.2747 96.7369 33.584V29.286H98.3329ZM109.777 29.16C110.383 29.16 110.925 29.286 111.401 29.538C111.886 29.79 112.264 30.1633 112.535 30.658C112.815 31.1527 112.955 31.75 112.955 32.45V37H111.373V32.688C111.373 31.9973 111.2 31.47 110.855 31.106C110.509 30.7327 110.038 30.546 109.441 30.546C108.843 30.546 108.367 30.7327 108.013 31.106C107.667 31.47 107.495 31.9973 107.495 32.688V37H105.913V32.688C105.913 31.9973 105.74 31.47 105.395 31.106C105.049 30.7327 104.578 30.546 103.981 30.546C103.383 30.546 102.907 30.7327 102.553 31.106C102.207 31.47 102.035 31.9973 102.035 32.688V37H100.439V29.286H102.035V30.168C102.296 29.8507 102.627 29.6033 103.029 29.426C103.43 29.2487 103.859 29.16 104.317 29.16C104.933 29.16 105.483 29.2907 105.969 29.552C106.454 29.8133 106.827 30.1913 107.089 30.686C107.322 30.2193 107.686 29.8507 108.181 29.58C108.675 29.3 109.207 29.16 109.777 29.16Z" fill="white"/>
<path fill-rule="evenodd" clip-rule="evenodd" d="M251.065 185.096C250.476 184.466 249.511 184.468 248.925 185.102C248.353 185.719 248.355 186.708 248.93 187.323L252.287 190.915H240.125C239.271 190.915 238.625 191.651 238.625 192.5C238.625 193.349 239.271 194.085 240.125 194.085H252.287L248.93 197.677C248.355 198.292 248.353 199.281 248.925 199.898C249.511 200.532 250.476 200.534 251.065 199.904L256.944 193.613C257.519 192.996 257.518 192.003 256.945 191.388L251.065 185.096Z" fill="white"/>
<rect x="272.5" y="0.5" width="223" height="384" rx="7.5" fill="#0F0F12"/>
<rect x="272.5" y="0.5" width="223" height="384" rx="7.5" stroke="#1F2128"/>
<rect x="272.5" y="0.5" width="223" height="384" rx="7.5" stroke="#1F2128"/>
<g clip-path="url(#clip2_1623_27119)">
<rect x="288.5" y="64.5" width="191" height="239" rx="15.5" stroke="#313442" stroke-opacity="0.6"/>
<rect x="284.5" y="68.5" width="191" height="239" rx="15.5" stroke="#313442" stroke-opacity="0.6"/>
<rect x="292.5" y="60.5" width="191" height="239" rx="15.5" fill="#0F0F12" stroke="#313442"/>
<path d="M326.482 187.126C325.642 187.126 324.886 186.982 324.214 186.694C323.542 186.394 323.014 185.974 322.63 185.434C322.246 184.894 322.054 184.264 322.054 183.544H324.25C324.298 184.084 324.508 184.528 324.88 184.876C325.264 185.224 325.798 185.398 326.482 185.398C327.19 185.398 327.742 185.23 328.138 184.894C328.534 184.546 328.732 184.102 328.732 183.562C328.732 183.142 328.606 182.8 328.354 182.536C328.114 182.272 327.808 182.068 327.436 181.924C327.076 181.78 326.572 181.624 325.924 181.456C325.108 181.24 324.442 181.024 323.926 180.808C323.422 180.58 322.99 180.232 322.63 179.764C322.27 179.296 322.09 178.672 322.09 177.892C322.09 177.172 322.27 176.542 322.63 176.002C322.99 175.462 323.494 175.048 324.142 174.76C324.79 174.472 325.54 174.328 326.392 174.328C327.604 174.328 328.594 174.634 329.362 175.246C330.142 175.846 330.574 176.674 330.658 177.73H328.39C328.354 177.274 328.138 176.884 327.742 176.56C327.346 176.236 326.824 176.074 326.176 176.074C325.588 176.074 325.108 176.224 324.736 176.524C324.364 176.824 324.178 177.256 324.178 177.82C324.178 178.204 324.292 178.522 324.52 178.774C324.76 179.014 325.06 179.206 325.42 179.35C325.78 179.494 326.272 179.65 326.896 179.818C327.724 180.046 328.396 180.274 328.912 180.502C329.44 180.73 329.884 181.084 330.244 181.564C330.616 182.032 330.802 182.662 330.802 183.454C330.802 184.09 330.628 184.69 330.28 185.254C329.944 185.818 329.446 186.274 328.786 186.622C328.138 186.958 327.37 187.126 326.482 187.126ZM342.313 181.798C342.313 182.17 342.289 182.506 342.241 182.806H334.663C334.723 183.598 335.017 184.234 335.545 184.714C336.073 185.194 336.721 185.434 337.489 185.434C338.593 185.434 339.373 184.972 339.829 184.048H342.043C341.743 184.96 341.197 185.71 340.405 186.298C339.625 186.874 338.653 187.162 337.489 187.162C336.541 187.162 335.689 186.952 334.933 186.532C334.189 186.1 333.601 185.5 333.169 184.732C332.749 183.952 332.539 183.052 332.539 182.032C332.539 181.012 332.743 180.118 333.151 179.35C333.571 178.57 334.153 177.97 334.897 177.55C335.653 177.13 336.517 176.92 337.489 176.92C338.425 176.92 339.259 177.124 339.991 177.532C340.723 177.94 341.293 178.516 341.701 179.26C342.109 179.992 342.313 180.838 342.313 181.798ZM340.171 181.15C340.159 180.394 339.889 179.788 339.361 179.332C338.833 178.876 338.179 178.648 337.399 178.648C336.691 178.648 336.085 178.876 335.581 179.332C335.077 179.776 334.777 180.382 334.681 181.15H340.171ZM346.384 173.68V187H344.332V173.68H346.384ZM358.169 181.798C358.169 182.17 358.145 182.506 358.097 182.806H350.519C350.579 183.598 350.873 184.234 351.401 184.714C351.929 185.194 352.577 185.434 353.345 185.434C354.449 185.434 355.229 184.972 355.685 184.048H357.899C357.599 184.96 357.053 185.71 356.261 186.298C355.481 186.874 354.509 187.162 353.345 187.162C352.397 187.162 351.545 186.952 350.789 186.532C350.045 186.1 349.457 185.5 349.025 184.732C348.605 183.952 348.395 183.052 348.395 182.032C348.395 181.012 348.599 180.118 349.007 179.35C349.427 178.57 350.009 177.97 350.753 177.55C351.509 177.13 352.373 176.92 353.345 176.92C354.281 176.92 355.115 177.124 355.847 177.532C356.579 177.94 357.149 178.516 357.557 179.26C357.965 179.992 358.169 180.838 358.169 181.798ZM356.027 181.15C356.015 180.394 355.745 179.788 355.217 179.332C354.689 178.876 354.035 178.648 353.255 178.648C352.547 178.648 351.941 178.876 351.437 179.332C350.933 179.776 350.633 180.382 350.537 181.15H356.027ZM359.504 182.032C359.504 181.012 359.708 180.118 360.116 179.35C360.536 178.57 361.112 177.97 361.844 177.55C362.576 177.13 363.416 176.92 364.364 176.92C365.564 176.92 366.554 177.208 367.334 177.784C368.126 178.348 368.66 179.158 368.936 180.214H366.722C366.542 179.722 366.254 179.338 365.858 179.062C365.462 178.786 364.964 178.648 364.364 178.648C363.524 178.648 362.852 178.948 362.348 179.548C361.856 180.136 361.61 180.964 361.61 182.032C361.61 183.1 361.856 183.934 362.348 184.534C362.852 185.134 363.524 185.434 364.364 185.434C365.552 185.434 366.338 184.912 366.722 183.868H368.936C368.648 184.876 368.108 185.68 367.316 186.28C366.524 186.868 365.54 187.162 364.364 187.162C363.416 187.162 362.576 186.952 361.844 186.532C361.112 186.1 360.536 185.5 360.116 184.732C359.708 183.952 359.504 183.052 359.504 182.032ZM373.375 178.756V184.246C373.375 184.618 373.459 184.888 373.627 185.056C373.807 185.212 374.107 185.29 374.527 185.29H375.787V187H374.167C373.243 187 372.535 186.784 372.043 186.352C371.551 185.92 371.305 185.218 371.305 184.246V178.756H370.135V177.082H371.305V174.616H373.375V177.082H375.787V178.756H373.375ZM392.632 187H390.58L384.406 177.658V187H382.354V174.472H384.406L390.58 183.796V174.472H392.632V187ZM404.417 181.798C404.417 182.17 404.393 182.506 404.345 182.806H396.767C396.827 183.598 397.121 184.234 397.649 184.714C398.177 185.194 398.825 185.434 399.593 185.434C400.697 185.434 401.477 184.972 401.933 184.048H404.147C403.847 184.96 403.301 185.71 402.509 186.298C401.729 186.874 400.757 187.162 399.593 187.162C398.645 187.162 397.793 186.952 397.037 186.532C396.293 186.1 395.705 185.5 395.273 184.732C394.853 183.952 394.643 183.052 394.643 182.032C394.643 181.012 394.847 180.118 395.255 179.35C395.675 178.57 396.257 177.97 397.001 177.55C397.757 177.13 398.621 176.92 399.593 176.92C400.529 176.92 401.363 177.124 402.095 177.532C402.827 177.94 403.397 178.516 403.805 179.26C404.213 179.992 404.417 180.838 404.417 181.798ZM402.275 181.15C402.263 180.394 401.993 179.788 401.465 179.332C400.937 178.876 400.283 178.648 399.503 178.648C398.795 178.648 398.189 178.876 397.685 179.332C397.181 179.776 396.881 180.382 396.785 181.15H402.275ZM408.83 178.756V184.246C408.83 184.618 408.914 184.888 409.082 185.056C409.262 185.212 409.562 185.29 409.982 185.29H411.242V187H409.622C408.698 187 407.99 186.784 407.498 186.352C407.006 185.92 406.76 185.218 406.76 184.246V178.756H405.59V177.082H406.76V174.616H408.83V177.082H411.242V178.756H408.83ZM426.453 177.082L423.375 187H421.215L419.217 179.674L417.219 187H415.059L411.963 177.082H414.051L416.121 185.056L418.227 177.082H420.369L422.385 185.02L424.437 177.082H426.453ZM432.289 187.162C431.353 187.162 430.507 186.952 429.751 186.532C428.995 186.1 428.401 185.5 427.969 184.732C427.537 183.952 427.321 183.052 427.321 182.032C427.321 181.024 427.543 180.13 427.987 179.35C428.431 178.57 429.037 177.97 429.805 177.55C430.573 177.13 431.431 176.92 432.379 176.92C433.327 176.92 434.185 177.13 434.953 177.55C435.721 177.97 436.327 178.57 436.771 179.35C437.215 180.13 437.437 181.024 437.437 182.032C437.437 183.04 437.209 183.934 436.753 184.714C436.297 185.494 435.673 186.1 434.881 186.532C434.101 186.952 433.237 187.162 432.289 187.162ZM432.289 185.38C432.817 185.38 433.309 185.254 433.765 185.002C434.233 184.75 434.611 184.372 434.899 183.868C435.187 183.364 435.331 182.752 435.331 182.032C435.331 181.312 435.193 180.706 434.917 180.214C434.641 179.71 434.275 179.332 433.819 179.08C433.363 178.828 432.871 178.702 432.343 178.702C431.815 178.702 431.323 178.828 430.867 179.08C430.423 179.332 430.069 179.71 429.805 180.214C429.541 180.706 429.409 181.312 429.409 182.032C429.409 183.1 429.679 183.928 430.219 184.516C430.771 185.092 431.461 185.38 432.289 185.38ZM441.517 178.522C441.817 178.018 442.213 177.628 442.705 177.352C443.209 177.064 443.803 176.92 444.487 176.92V179.044H443.965C443.161 179.044 442.549 179.248 442.129 179.656C441.721 180.064 441.517 180.772 441.517 181.78V187H439.465V177.082H441.517V178.522ZM450.297 182.05L454.869 187H452.097L448.425 182.734V187H446.373V173.68H448.425V181.42L452.025 177.082H454.869L450.297 182.05Z" fill="white"/>
</g>
<rect x="284" y="16" width="200" height="32" rx="6" fill="#1F2128"/>
<rect x="293.5" y="23.5" width="17" height="17" rx="8.5" fill="#9E9E9E"/>
<rect x="293.5" y="23.5" width="17" height="17" rx="8.5" stroke="#9E9E9E" stroke-width="3"/>
<path fill-rule="evenodd" clip-rule="evenodd" d="M470.448 34.5729C470.142 34.2678 470.142 33.7732 470.448 33.4681L473.718 30.1979C474.023 29.8928 474.517 29.8928 474.823 30.1979C475.128 30.503 475.128 30.9977 474.823 31.3028L471.552 34.5729C471.247 34.878 470.753 34.878 470.448 34.5729Z" fill="white"/>
<path fill-rule="evenodd" clip-rule="evenodd" d="M467.177 30.1979C467.483 29.8928 467.977 29.8928 468.282 30.1979L471.552 33.4681C471.858 33.7732 471.858 34.2678 471.552 34.5729C471.247 34.878 470.753 34.878 470.448 34.5729L467.177 31.3028C466.872 30.9977 466.872 30.503 467.177 30.1979Z" fill="white"/>
<path d="M322.256 37.098C321.603 37.098 321.015 36.986 320.492 36.762C319.969 36.5287 319.559 36.202 319.26 35.782C318.961 35.362 318.812 34.872 318.812 34.312H320.52C320.557 34.732 320.721 35.0773 321.01 35.348C321.309 35.6187 321.724 35.754 322.256 35.754C322.807 35.754 323.236 35.6233 323.544 35.362C323.852 35.0913 324.006 34.746 324.006 34.326C324.006 33.9993 323.908 33.7333 323.712 33.528C323.525 33.3227 323.287 33.164 322.998 33.052C322.718 32.94 322.326 32.8187 321.822 32.688C321.187 32.52 320.669 32.352 320.268 32.184C319.876 32.0067 319.54 31.736 319.26 31.372C318.98 31.008 318.84 30.5227 318.84 29.916C318.84 29.356 318.98 28.866 319.26 28.446C319.54 28.026 319.932 27.704 320.436 27.48C320.94 27.256 321.523 27.144 322.186 27.144C323.129 27.144 323.899 27.382 324.496 27.858C325.103 28.3247 325.439 28.9687 325.504 29.79H323.74C323.712 29.4353 323.544 29.132 323.236 28.88C322.928 28.628 322.522 28.502 322.018 28.502C321.561 28.502 321.187 28.6187 320.898 28.852C320.609 29.0853 320.464 29.4213 320.464 29.86C320.464 30.1587 320.553 30.406 320.73 30.602C320.917 30.7887 321.15 30.938 321.43 31.05C321.71 31.162 322.093 31.2833 322.578 31.414C323.222 31.5913 323.745 31.7687 324.146 31.946C324.557 32.1233 324.902 32.3987 325.182 32.772C325.471 33.136 325.616 33.626 325.616 34.242C325.616 34.7367 325.481 35.2033 325.21 35.642C324.949 36.0807 324.561 36.4353 324.048 36.706C323.544 36.9673 322.947 37.098 322.256 37.098ZM334.569 32.954C334.569 33.2433 334.551 33.5047 334.513 33.738H328.619C328.666 34.354 328.895 34.8487 329.305 35.222C329.716 35.5953 330.22 35.782 330.817 35.782C331.676 35.782 332.283 35.4227 332.637 34.704H334.359C334.126 35.4133 333.701 35.9967 333.085 36.454C332.479 36.902 331.723 37.126 330.817 37.126C330.08 37.126 329.417 36.9627 328.829 36.636C328.251 36.3 327.793 35.8333 327.457 35.236C327.131 34.6293 326.967 33.9293 326.967 33.136C326.967 32.3427 327.126 31.6473 327.443 31.05C327.77 30.4433 328.223 29.9767 328.801 29.65C329.389 29.3233 330.061 29.16 330.817 29.16C331.545 29.16 332.194 29.3187 332.763 29.636C333.333 29.9533 333.776 30.4013 334.093 30.98C334.411 31.5493 334.569 32.2073 334.569 32.954ZM332.903 32.45C332.894 31.862 332.684 31.3907 332.273 31.036C331.863 30.6813 331.354 30.504 330.747 30.504C330.197 30.504 329.725 30.6813 329.333 31.036C328.941 31.3813 328.708 31.8527 328.633 32.45H332.903ZM337.736 26.64V37H336.14V26.64H337.736ZM346.901 32.954C346.901 33.2433 346.883 33.5047 346.845 33.738H340.951C340.998 34.354 341.227 34.8487 341.637 35.222C342.048 35.5953 342.552 35.782 343.149 35.782C344.008 35.782 344.615 35.4227 344.969 34.704H346.691C346.458 35.4133 346.033 35.9967 345.417 36.454C344.811 36.902 344.055 37.126 343.149 37.126C342.412 37.126 341.749 36.9627 341.161 36.636C340.583 36.3 340.125 35.8333 339.789 35.236C339.463 34.6293 339.299 33.9293 339.299 33.136C339.299 32.3427 339.458 31.6473 339.775 31.05C340.102 30.4433 340.555 29.9767 341.133 29.65C341.721 29.3233 342.393 29.16 343.149 29.16C343.877 29.16 344.526 29.3187 345.095 29.636C345.665 29.9533 346.108 30.4013 346.425 30.98C346.743 31.5493 346.901 32.2073 346.901 32.954ZM345.235 32.45C345.226 31.862 345.016 31.3907 344.605 31.036C344.195 30.6813 343.686 30.504 343.079 30.504C342.529 30.504 342.057 30.6813 341.665 31.036C341.273 31.3813 341.04 31.8527 340.965 32.45H345.235ZM347.94 33.136C347.94 32.3427 348.099 31.6473 348.416 31.05C348.743 30.4433 349.191 29.9767 349.76 29.65C350.329 29.3233 350.983 29.16 351.72 29.16C352.653 29.16 353.423 29.384 354.03 29.832C354.646 30.2707 355.061 30.9007 355.276 31.722H353.554C353.414 31.3393 353.19 31.0407 352.882 30.826C352.574 30.6113 352.187 30.504 351.72 30.504C351.067 30.504 350.544 30.7373 350.152 31.204C349.769 31.6613 349.578 32.3053 349.578 33.136C349.578 33.9667 349.769 34.6153 350.152 35.082C350.544 35.5487 351.067 35.782 351.72 35.782C352.644 35.782 353.255 35.376 353.554 34.564H355.276C355.052 35.348 354.632 35.9733 354.016 36.44C353.4 36.8973 352.635 37.126 351.72 37.126C350.983 37.126 350.329 36.9627 349.76 36.636C349.191 36.3 348.743 35.8333 348.416 35.236C348.099 34.6293 347.94 33.9293 347.94 33.136ZM358.728 30.588V34.858C358.728 35.1473 358.794 35.3573 358.924 35.488C359.064 35.6093 359.298 35.67 359.624 35.67H360.604V37H359.344C358.626 37 358.075 36.832 357.692 36.496C357.31 36.16 357.118 35.614 357.118 34.858V30.588H356.208V29.286H357.118V27.368H358.728V29.286H360.604V30.588H358.728ZM373.706 37H372.11L367.308 29.734V37H365.712V27.256H367.308L372.11 34.508V27.256H373.706V37ZM382.872 32.954C382.872 33.2433 382.853 33.5047 382.816 33.738H376.922C376.969 34.354 377.197 34.8487 377.608 35.222C378.019 35.5953 378.523 35.782 379.12 35.782C379.979 35.782 380.585 35.4227 380.94 34.704H382.662C382.429 35.4133 382.004 35.9967 381.388 36.454C380.781 36.902 380.025 37.126 379.12 37.126C378.383 37.126 377.72 36.9627 377.132 36.636C376.553 36.3 376.096 35.8333 375.76 35.236C375.433 34.6293 375.27 33.9293 375.27 33.136C375.27 32.3427 375.429 31.6473 375.746 31.05C376.073 30.4433 376.525 29.9767 377.104 29.65C377.692 29.3233 378.364 29.16 379.12 29.16C379.848 29.16 380.497 29.3187 381.066 29.636C381.635 29.9533 382.079 30.4013 382.396 30.98C382.713 31.5493 382.872 32.2073 382.872 32.954ZM381.206 32.45C381.197 31.862 380.987 31.3907 380.576 31.036C380.165 30.6813 379.657 30.504 379.05 30.504C378.499 30.504 378.028 30.6813 377.636 31.036C377.244 31.3813 377.011 31.8527 376.936 32.45H381.206ZM386.305 30.588V34.858C386.305 35.1473 386.37 35.3573 386.501 35.488C386.641 35.6093 386.874 35.67 387.201 35.67H388.181V37H386.921C386.202 37 385.651 36.832 385.269 36.496C384.886 36.16 384.695 35.614 384.695 34.858V30.588H383.785V29.286H384.695V27.368H386.305V29.286H388.181V30.588H386.305ZM400.012 29.286L397.618 37H395.938L394.384 31.302L392.83 37H391.15L388.742 29.286H390.366L391.976 35.488L393.614 29.286H395.28L396.848 35.46L398.444 29.286H400.012ZM404.55 37.126C403.822 37.126 403.164 36.9627 402.576 36.636C401.988 36.3 401.526 35.8333 401.19 35.236C400.854 34.6293 400.686 33.9293 400.686 33.136C400.686 32.352 400.859 31.6567 401.204 31.05C401.55 30.4433 402.021 29.9767 402.618 29.65C403.216 29.3233 403.883 29.16 404.62 29.16C405.358 29.16 406.025 29.3233 406.622 29.65C407.22 29.9767 407.691 30.4433 408.036 31.05C408.382 31.6567 408.554 32.352 408.554 33.136C408.554 33.92 408.377 34.6153 408.022 35.222C407.668 35.8287 407.182 36.3 406.566 36.636C405.96 36.9627 405.288 37.126 404.55 37.126ZM404.55 35.74C404.961 35.74 405.344 35.642 405.698 35.446C406.062 35.25 406.356 34.956 406.58 34.564C406.804 34.172 406.916 33.696 406.916 33.136C406.916 32.576 406.809 32.1047 406.594 31.722C406.38 31.33 406.095 31.036 405.74 30.84C405.386 30.644 405.003 30.546 404.592 30.546C404.182 30.546 403.799 30.644 403.444 30.84C403.099 31.036 402.824 31.33 402.618 31.722C402.413 32.1047 402.31 32.576 402.31 33.136C402.31 33.9667 402.52 34.6107 402.94 35.068C403.37 35.516 403.906 35.74 404.55 35.74ZM411.728 30.406C411.961 30.014 412.269 29.7107 412.652 29.496C413.044 29.272 413.506 29.16 414.038 29.16V30.812H413.632C413.007 30.812 412.531 30.9707 412.204 31.288C411.887 31.6053 411.728 32.156 411.728 32.94V37H410.132V29.286H411.728V30.406ZM418.557 33.15L422.113 37H419.957L417.101 33.682V37H415.505V26.64H417.101V32.66L419.901 29.286H422.113L418.557 33.15Z" fill="white"/>
<path d="M292.596 344.28C290.991 344.28 289.628 343.86 288.508 343.02C287.407 342.161 286.567 340.976 285.988 339.464C285.409 337.933 285.12 336.179 285.12 334.2C285.12 332.203 285.409 330.448 285.988 328.936C286.567 327.424 287.407 326.248 288.508 325.408C289.628 324.549 290.991 324.12 292.596 324.12C294.201 324.12 295.555 324.549 296.656 325.408C297.776 326.248 298.625 327.424 299.204 328.936C299.783 330.448 300.072 332.203 300.072 334.2C300.072 336.179 299.783 337.933 299.204 339.464C298.625 340.976 297.776 342.161 296.656 343.02C295.555 343.86 294.201 344.28 292.596 344.28ZM292.596 340.92C293.38 340.92 294.052 340.677 294.612 340.192C295.191 339.688 295.639 338.941 295.956 337.952C296.273 336.944 296.432 335.693 296.432 334.2C296.432 332.688 296.273 331.437 295.956 330.448C295.639 329.459 295.191 328.721 294.612 328.236C294.052 327.732 293.38 327.48 292.596 327.48C291.831 327.48 291.159 327.732 290.58 328.236C290.001 328.721 289.553 329.459 289.236 330.448C288.919 331.437 288.76 332.688 288.76 334.2C288.76 335.693 288.919 336.944 289.236 337.952C289.553 338.941 290.001 339.688 290.58 340.192C291.159 340.677 291.831 340.92 292.596 340.92Z" fill="#C6C6D1"/>
<defs>
<clipPath id="clip0_1623_27119">
<rect x="12" y="60" width="200" height="248" rx="16" fill="white"/>
</clipPath>
<clipPath id="clip1_1623_27119">
<rect width="8.732" height="15" fill="white" transform="translate(25.625 24.5)"/>
</clipPath>
<clipPath id="clip2_1623_27119">
<rect x="284" y="60" width="200" height="248" rx="16" fill="white"/>
</clipPath>
</defs>
</svg>
