<svg width="496" height="457" viewBox="0 2 496 464" fill="none" xmlns="http://www.w3.org/2000/svg">
<rect x="1" y="1.5" width="223" height="384" rx="7.5" fill="#0F0F12"/>
<rect x="1" y="1.5" width="223" height="384" rx="7.5" stroke="#1F2128"/>
<rect x="1" y="1.5" width="223" height="384" rx="7.5" stroke="#1F2128"/>
<g clip-path="url(#clip0_2054_29056)">
<rect x="12.5" y="60.5" width="199" height="247" rx="15.5" stroke="#313442" stroke-dasharray="6 6"/>
<path d="M117.875 200.98C119 199.48 119.625 197.73 119.625 195.73C119.625 190.855 115.75 186.855 110.875 186.855C106 186.855 102 190.855 102 195.73C102 200.605 106 204.605 110.875 204.605C112.875 204.605 114.75 203.98 116.125 202.855L119.875 206.605C120.125 206.855 120.5 206.98 120.75 206.98C121 206.98 121.375 206.855 121.625 206.605C122.125 206.105 122.125 205.355 121.625 204.855L117.875 200.98ZM110.875 201.98C107.375 201.98 104.5 199.23 104.5 195.73C104.5 192.23 107.375 189.355 110.875 189.355C114.375 189.355 117.25 192.23 117.25 195.73C117.25 199.23 114.375 201.98 110.875 201.98Z" fill="white"/>
<path d="M51.4329 172.981C50.5929 172.981 49.8369 172.837 49.1649 172.549C48.4929 172.249 47.9649 171.829 47.5809 171.289C47.1969 170.749 47.0049 170.119 47.0049 169.399H49.2009C49.2489 169.939 49.4589 170.383 49.8309 170.731C50.2149 171.079 50.7489 171.253 51.4329 171.253C52.1409 171.253 52.6929 171.085 53.0889 170.749C53.4849 170.401 53.6829 169.957 53.6829 169.417C53.6829 168.997 53.5569 168.655 53.3049 168.391C53.0649 168.127 52.7589 167.923 52.3869 167.779C52.0269 167.635 51.5229 167.479 50.8749 167.311C50.0589 167.095 49.3929 166.879 48.8769 166.663C48.3729 166.435 47.9409 166.087 47.5809 165.619C47.2209 165.151 47.0409 164.527 47.0409 163.747C47.0409 163.027 47.2209 162.397 47.5809 161.857C47.9409 161.317 48.4449 160.903 49.0929 160.615C49.7409 160.327 50.4909 160.183 51.3429 160.183C52.5549 160.183 53.5449 160.489 54.3129 161.101C55.0929 161.701 55.5249 162.529 55.6089 163.585H53.3409C53.3049 163.129 53.0889 162.739 52.6929 162.415C52.2969 162.091 51.7749 161.929 51.1269 161.929C50.5389 161.929 50.0589 162.079 49.6869 162.379C49.3149 162.679 49.1289 163.111 49.1289 163.675C49.1289 164.059 49.2429 164.377 49.4709 164.629C49.7109 164.869 50.0109 165.061 50.3709 165.205C50.7309 165.349 51.2229 165.505 51.8469 165.673C52.6749 165.901 53.3469 166.129 53.8629 166.357C54.3909 166.585 54.8349 166.939 55.1949 167.419C55.5669 167.887 55.7529 168.517 55.7529 169.309C55.7529 169.945 55.5789 170.545 55.2309 171.109C54.8949 171.673 54.3969 172.129 53.7369 172.477C53.0889 172.813 52.3209 172.981 51.4329 172.981ZM67.2642 167.653C67.2642 168.025 67.2402 168.361 67.1922 168.661H59.6142C59.6742 169.453 59.9682 170.089 60.4962 170.569C61.0242 171.049 61.6722 171.289 62.4402 171.289C63.5442 171.289 64.3242 170.827 64.7802 169.903H66.9942C66.6942 170.815 66.1482 171.565 65.3562 172.153C64.5762 172.729 63.6042 173.017 62.4402 173.017C61.4922 173.017 60.6402 172.807 59.8842 172.387C59.1402 171.955 58.5522 171.355 58.1202 170.587C57.7002 169.807 57.4902 168.907 57.4902 167.887C57.4902 166.867 57.6942 165.973 58.1022 165.205C58.5222 164.425 59.1042 163.825 59.8482 163.405C60.6042 162.985 61.4682 162.775 62.4402 162.775C63.3762 162.775 64.2102 162.979 64.9422 163.387C65.6742 163.795 66.2442 164.371 66.6522 165.115C67.0602 165.847 67.2642 166.693 67.2642 167.653ZM65.1222 167.005C65.1102 166.249 64.8402 165.643 64.3122 165.187C63.7842 164.731 63.1302 164.503 62.3502 164.503C61.6422 164.503 61.0362 164.731 60.5322 165.187C60.0282 165.631 59.7282 166.237 59.6322 167.005H65.1222ZM68.5996 167.851C68.5996 166.855 68.8036 165.973 69.2116 165.205C69.6316 164.437 70.1956 163.843 70.9036 163.423C71.6236 162.991 72.4156 162.775 73.2796 162.775C74.0596 162.775 74.7376 162.931 75.3136 163.243C75.9016 163.543 76.3696 163.921 76.7176 164.377V162.937H78.7876V172.855H76.7176V171.379C76.3696 171.847 75.8956 172.237 75.2956 172.549C74.6956 172.861 74.0116 173.017 73.2436 173.017C72.3916 173.017 71.6116 172.801 70.9036 172.369C70.1956 171.925 69.6316 171.313 69.2116 170.533C68.8036 169.741 68.5996 168.847 68.5996 167.851ZM76.7176 167.887C76.7176 167.203 76.5736 166.609 76.2856 166.105C76.0096 165.601 75.6436 165.217 75.1876 164.953C74.7316 164.689 74.2396 164.557 73.7116 164.557C73.1836 164.557 72.6916 164.689 72.2356 164.953C71.7796 165.205 71.4076 165.583 71.1196 166.087C70.8436 166.579 70.7056 167.167 70.7056 167.851C70.7056 168.535 70.8436 169.135 71.1196 169.651C71.4076 170.167 71.7796 170.563 72.2356 170.839C72.7036 171.103 73.1956 171.235 73.7116 171.235C74.2396 171.235 74.7316 171.103 75.1876 170.839C75.6436 170.575 76.0096 170.191 76.2856 169.687C76.5736 169.171 76.7176 168.571 76.7176 167.887ZM83.5348 164.377C83.8348 163.873 84.2308 163.483 84.7228 163.207C85.2268 162.919 85.8208 162.775 86.5048 162.775V164.899H85.9828C85.1788 164.899 84.5668 165.103 84.1468 165.511C83.7388 165.919 83.5348 166.627 83.5348 167.635V172.855H81.4828V162.937H83.5348V164.377ZM87.707 167.887C87.707 166.867 87.911 165.973 88.319 165.205C88.739 164.425 89.315 163.825 90.047 163.405C90.779 162.985 91.619 162.775 92.567 162.775C93.767 162.775 94.757 163.063 95.537 163.639C96.329 164.203 96.863 165.013 97.139 166.069H94.925C94.745 165.577 94.457 165.193 94.061 164.917C93.665 164.641 93.167 164.503 92.567 164.503C91.727 164.503 91.055 164.803 90.551 165.403C90.059 165.991 89.813 166.819 89.813 167.887C89.813 168.955 90.059 169.789 90.551 170.389C91.055 170.989 91.727 171.289 92.567 171.289C93.755 171.289 94.541 170.767 94.925 169.723H97.139C96.851 170.731 96.311 171.535 95.519 172.135C94.727 172.723 93.743 173.017 92.567 173.017C91.619 173.017 90.779 172.807 90.047 172.387C89.315 171.955 88.739 171.355 88.319 170.587C87.911 169.807 87.707 168.907 87.707 167.887ZM104.314 162.775C105.07 162.775 105.742 162.937 106.33 163.261C106.93 163.585 107.398 164.065 107.734 164.701C108.082 165.337 108.256 166.105 108.256 167.005V172.855H106.222V167.311C106.222 166.423 106 165.745 105.556 165.277C105.112 164.797 104.506 164.557 103.738 164.557C102.97 164.557 102.358 164.797 101.902 165.277C101.458 165.745 101.236 166.423 101.236 167.311V172.855H99.184V159.535H101.236V164.089C101.584 163.669 102.022 163.345 102.55 163.117C103.09 162.889 103.678 162.775 104.314 162.775ZM123.631 160.345V162.019H120.301V172.855H118.249V162.019H114.901V160.345H123.631ZM130.011 173.017C129.075 173.017 128.229 172.807 127.473 172.387C126.717 171.955 126.123 171.355 125.691 170.587C125.259 169.807 125.043 168.907 125.043 167.887C125.043 166.879 125.265 165.985 125.709 165.205C126.153 164.425 126.759 163.825 127.527 163.405C128.295 162.985 129.153 162.775 130.101 162.775C131.049 162.775 131.907 162.985 132.675 163.405C133.443 163.825 134.049 164.425 134.493 165.205C134.937 165.985 135.159 166.879 135.159 167.887C135.159 168.895 134.931 169.789 134.475 170.569C134.019 171.349 133.395 171.955 132.603 172.387C131.823 172.807 130.959 173.017 130.011 173.017ZM130.011 171.235C130.539 171.235 131.031 171.109 131.487 170.857C131.955 170.605 132.333 170.227 132.621 169.723C132.909 169.219 133.053 168.607 133.053 167.887C133.053 167.167 132.915 166.561 132.639 166.069C132.363 165.565 131.997 165.187 131.541 164.935C131.085 164.683 130.593 164.557 130.065 164.557C129.537 164.557 129.045 164.683 128.589 164.935C128.145 165.187 127.791 165.565 127.527 166.069C127.263 166.561 127.131 167.167 127.131 167.887C127.131 168.955 127.401 169.783 127.941 170.371C128.493 170.947 129.183 171.235 130.011 171.235ZM141.112 167.905L145.684 172.855H142.912L139.24 168.589V172.855H137.188V159.535H139.24V167.275L142.84 162.937H145.684L141.112 167.905ZM156.245 167.653C156.245 168.025 156.221 168.361 156.173 168.661H148.595C148.655 169.453 148.949 170.089 149.477 170.569C150.005 171.049 150.653 171.289 151.421 171.289C152.525 171.289 153.305 170.827 153.761 169.903H155.975C155.675 170.815 155.129 171.565 154.337 172.153C153.557 172.729 152.585 173.017 151.421 173.017C150.473 173.017 149.621 172.807 148.865 172.387C148.121 171.955 147.533 171.355 147.101 170.587C146.681 169.807 146.471 168.907 146.471 167.887C146.471 166.867 146.675 165.973 147.083 165.205C147.503 164.425 148.085 163.825 148.829 163.405C149.585 162.985 150.449 162.775 151.421 162.775C152.357 162.775 153.191 162.979 153.923 163.387C154.655 163.795 155.225 164.371 155.633 165.115C156.041 165.847 156.245 166.693 156.245 167.653ZM154.103 167.005C154.091 166.249 153.821 165.643 153.293 165.187C152.765 164.731 152.111 164.503 151.331 164.503C150.623 164.503 150.017 164.731 149.513 165.187C149.009 165.631 148.709 166.237 148.613 167.005H154.103ZM163.268 162.775C164.048 162.775 164.744 162.937 165.356 163.261C165.98 163.585 166.466 164.065 166.814 164.701C167.162 165.337 167.336 166.105 167.336 167.005V172.855H165.302V167.311C165.302 166.423 165.08 165.745 164.636 165.277C164.192 164.797 163.586 164.557 162.818 164.557C162.05 164.557 161.438 164.797 160.982 165.277C160.538 165.745 160.316 166.423 160.316 167.311V172.855H158.264V162.937H160.316V164.071C160.652 163.663 161.078 163.345 161.594 163.117C162.122 162.889 162.68 162.775 163.268 162.775ZM173.554 173.017C172.774 173.017 172.072 172.879 171.448 172.603C170.836 172.315 170.35 171.931 169.99 171.451C169.63 170.959 169.438 170.413 169.414 169.813H171.538C171.574 170.233 171.772 170.587 172.132 170.875C172.504 171.151 172.966 171.289 173.518 171.289C174.094 171.289 174.538 171.181 174.85 170.965C175.174 170.737 175.336 170.449 175.336 170.101C175.336 169.729 175.156 169.453 174.796 169.273C174.448 169.093 173.89 168.895 173.122 168.679C172.378 168.475 171.772 168.277 171.304 168.085C170.836 167.893 170.428 167.599 170.08 167.203C169.744 166.807 169.576 166.285 169.576 165.637C169.576 165.109 169.732 164.629 170.044 164.197C170.356 163.753 170.8 163.405 171.376 163.153C171.964 162.901 172.636 162.775 173.392 162.775C174.52 162.775 175.426 163.063 176.11 163.639C176.806 164.203 177.178 164.977 177.226 165.961H175.174C175.138 165.517 174.958 165.163 174.634 164.899C174.31 164.635 173.872 164.503 173.32 164.503C172.78 164.503 172.366 164.605 172.078 164.809C171.79 165.013 171.646 165.283 171.646 165.619C171.646 165.883 171.742 166.105 171.934 166.285C172.126 166.465 172.36 166.609 172.636 166.717C172.912 166.813 173.32 166.939 173.86 167.095C174.58 167.287 175.168 167.485 175.624 167.689C176.092 167.881 176.494 168.169 176.83 168.553C177.166 168.937 177.34 169.447 177.352 170.083C177.352 170.647 177.196 171.151 176.884 171.595C176.572 172.039 176.128 172.387 175.552 172.639C174.988 172.891 174.322 173.017 173.554 173.017Z" fill="white"/>
</g>
<rect x="12" y="16" width="200" height="32" rx="6" fill="#1F2128"/>
<rect x="20" y="22" width="20" height="20" rx="10" fill="#383736"/>
<g clip-path="url(#clip1_2054_29056)">
<path fill-rule="evenodd" clip-rule="evenodd" d="M29.9835 35.7745L25.6255 33.4805L29.9835 24.503V24.5L34.357 33.4805L29.9835 35.7745Z" fill="white"/>
<path fill-rule="evenodd" clip-rule="evenodd" d="M29.9835 39.4996L25.6255 33.8086L29.9835 36.2001L34.357 33.8086L29.9835 39.4996Z" fill="white"/>
</g>
<path fill-rule="evenodd" clip-rule="evenodd" d="M198.447 34.5727C198.142 34.2676 198.142 33.7729 198.447 33.4678L201.718 30.1977C202.023 29.8926 202.517 29.8926 202.822 30.1977C203.128 30.5028 203.128 30.9974 202.822 31.3025L199.552 34.5727C199.247 34.8778 198.753 34.8778 198.447 34.5727Z" fill="white"/>
<path fill-rule="evenodd" clip-rule="evenodd" d="M195.178 30.1977C195.483 29.8926 195.977 29.8926 196.282 30.1977L199.553 33.4678C199.858 33.7729 199.858 34.2676 199.553 34.5727C199.247 34.8778 198.753 34.8778 198.448 34.5727L195.178 31.3025C194.872 30.9974 194.872 30.5028 195.178 30.1977Z" fill="white"/>
<path d="M48.646 28.558V31.414H52.006V32.716H48.646V35.698H52.426V37H47.05V27.256H52.426V28.558H48.646ZM56.2538 30.588V34.858C56.2538 35.1473 56.3191 35.3573 56.4498 35.488C56.5898 35.6093 56.8231 35.67 57.1498 35.67H58.1298V37H56.8698C56.1511 37 55.6005 36.832 55.2178 36.496C54.8351 36.16 54.6438 35.614 54.6438 34.858V30.588H53.7338V29.286H54.6438V27.368H56.2538V29.286H58.1298V30.588H56.2538ZM63.5908 29.16C64.1788 29.16 64.7014 29.286 65.1588 29.538C65.6254 29.79 65.9894 30.1633 66.2508 30.658C66.5214 31.1527 66.6568 31.75 66.6568 32.45V37H65.0748V32.688C65.0748 31.9973 64.9021 31.47 64.5568 31.106C64.2114 30.7327 63.7401 30.546 63.1428 30.546C62.5454 30.546 62.0694 30.7327 61.7148 31.106C61.3694 31.47 61.1968 31.9973 61.1968 32.688V37H59.6008V26.64H61.1968V30.182C61.4674 29.8553 61.8081 29.6033 62.2188 29.426C62.6388 29.2487 63.0961 29.16 63.5908 29.16ZM75.7626 32.954C75.7626 33.2433 75.7439 33.5047 75.7066 33.738H69.8126C69.8592 34.354 70.0879 34.8487 70.4986 35.222C70.9092 35.5953 71.4132 35.782 72.0106 35.782C72.8692 35.782 73.4759 35.4227 73.8306 34.704H75.5526C75.3192 35.4133 74.8946 35.9967 74.2786 36.454C73.6719 36.902 72.9159 37.126 72.0106 37.126C71.2732 37.126 70.6106 36.9627 70.0226 36.636C69.4439 36.3 68.9866 35.8333 68.6506 35.236C68.3239 34.6293 68.1606 33.9293 68.1606 33.136C68.1606 32.3427 68.3192 31.6473 68.6366 31.05C68.9632 30.4433 69.4159 29.9767 69.9946 29.65C70.5826 29.3233 71.2546 29.16 72.0106 29.16C72.7386 29.16 73.3872 29.3187 73.9566 29.636C74.5259 29.9533 74.9692 30.4013 75.2866 30.98C75.6039 31.5493 75.7626 32.2073 75.7626 32.954ZM74.0966 32.45C74.0872 31.862 73.8772 31.3907 73.4666 31.036C73.0559 30.6813 72.5472 30.504 71.9406 30.504C71.3899 30.504 70.9186 30.6813 70.5266 31.036C70.1346 31.3813 69.9012 31.8527 69.8266 32.45H74.0966ZM78.9292 30.406C79.1625 30.014 79.4705 29.7107 79.8532 29.496C80.2452 29.272 80.7072 29.16 81.2392 29.16V30.812H80.8332C80.2079 30.812 79.7319 30.9707 79.4052 31.288C79.0879 31.6053 78.9292 32.156 78.9292 32.94V37H77.3332V29.286H78.9292V30.406ZM89.7763 32.954C89.7763 33.2433 89.7576 33.5047 89.7203 33.738H83.8263C83.8729 34.354 84.1016 34.8487 84.5123 35.222C84.9229 35.5953 85.4269 35.782 86.0243 35.782C86.8829 35.782 87.4896 35.4227 87.8443 34.704H89.5662C89.3329 35.4133 88.9083 35.9967 88.2923 36.454C87.6856 36.902 86.9296 37.126 86.0243 37.126C85.2869 37.126 84.6243 36.9627 84.0363 36.636C83.4576 36.3 83.0003 35.8333 82.6643 35.236C82.3376 34.6293 82.1743 33.9293 82.1743 33.136C82.1743 32.3427 82.3329 31.6473 82.6503 31.05C82.9769 30.4433 83.4296 29.9767 84.0083 29.65C84.5963 29.3233 85.2683 29.16 86.0243 29.16C86.7523 29.16 87.4009 29.3187 87.9703 29.636C88.5396 29.9533 88.9829 30.4013 89.3003 30.98C89.6176 31.5493 89.7763 32.2073 89.7763 32.954ZM88.1103 32.45C88.1009 31.862 87.8909 31.3907 87.4803 31.036C87.0696 30.6813 86.5609 30.504 85.9543 30.504C85.4036 30.504 84.9323 30.6813 84.5403 31.036C84.1483 31.3813 83.9149 31.8527 83.8403 32.45H88.1103ZM98.3329 29.286V37H96.7369V36.09C96.4849 36.4073 96.1535 36.6593 95.7429 36.846C95.3415 37.0233 94.9122 37.112 94.4549 37.112C93.8482 37.112 93.3022 36.986 92.8169 36.734C92.3409 36.482 91.9629 36.1087 91.6829 35.614C91.4122 35.1193 91.2769 34.522 91.2769 33.822V29.286H92.8589V33.584C92.8589 34.2747 93.0315 34.8067 93.3769 35.18C93.7222 35.544 94.1935 35.726 94.7909 35.726C95.3882 35.726 95.8595 35.544 96.2049 35.18C96.5595 34.8067 96.7369 34.2747 96.7369 33.584V29.286H98.3329ZM109.777 29.16C110.383 29.16 110.925 29.286 111.401 29.538C111.886 29.79 112.264 30.1633 112.535 30.658C112.815 31.1527 112.955 31.75 112.955 32.45V37H111.373V32.688C111.373 31.9973 111.2 31.47 110.855 31.106C110.509 30.7327 110.038 30.546 109.441 30.546C108.843 30.546 108.367 30.7327 108.013 31.106C107.667 31.47 107.495 31.9973 107.495 32.688V37H105.913V32.688C105.913 31.9973 105.74 31.47 105.395 31.106C105.049 30.7327 104.578 30.546 103.981 30.546C103.383 30.546 102.907 30.7327 102.553 31.106C102.207 31.47 102.035 31.9973 102.035 32.688V37H100.439V29.286H102.035V30.168C102.296 29.8507 102.627 29.6033 103.029 29.426C103.43 29.2487 103.859 29.16 104.317 29.16C104.933 29.16 105.483 29.2907 105.969 29.552C106.454 29.8133 106.827 30.1913 107.089 30.686C107.322 30.2193 107.686 29.8507 108.181 29.58C108.675 29.3 109.207 29.16 109.777 29.16Z" fill="white"/>
<path fill-rule="evenodd" clip-rule="evenodd" d="M251.065 185.096C250.476 184.466 249.511 184.468 248.925 185.102C248.353 185.719 248.355 186.708 248.93 187.323L252.287 190.915H240.125C239.271 190.915 238.625 191.651 238.625 192.5C238.625 193.349 239.271 194.085 240.125 194.085H252.287L248.93 197.677C248.355 198.292 248.353 199.281 248.925 199.898C249.511 200.532 250.476 200.534 251.065 199.904L256.944 193.613C257.519 192.996 257.518 192.003 256.945 191.388L251.065 185.096Z" fill="white"/>
<rect x="272"  width="224" height="386" rx="7.5" fill="#0F0F12"/>
<rect x="272"  width="224" height="386" rx="7.5" stroke="#1F2128"/>
<rect x="272"  width="224" height="386" rx="7.5" stroke="#1F2128"/>
<g clip-path="url(#clip2_2054_29056)">
<rect x="284.925" y="60.3555" width="197" height="247" rx="15.5" stroke="#313442" stroke-dasharray="6 6"/>
<path d="M322.907 190.981C322.067 190.981 321.311 190.837 320.639 190.549C319.967 190.249 319.439 189.829 319.055 189.289C318.671 188.749 318.479 188.119 318.479 187.399H320.675C320.723 187.939 320.933 188.383 321.305 188.731C321.689 189.079 322.223 189.253 322.907 189.253C323.615 189.253 324.167 189.085 324.563 188.749C324.959 188.401 325.157 187.957 325.157 187.417C325.157 186.997 325.031 186.655 324.779 186.391C324.539 186.127 324.233 185.923 323.861 185.779C323.501 185.635 322.997 185.479 322.349 185.311C321.533 185.095 320.867 184.879 320.351 184.663C319.847 184.435 319.415 184.087 319.055 183.619C318.695 183.151 318.515 182.527 318.515 181.747C318.515 181.027 318.695 180.397 319.055 179.857C319.415 179.317 319.919 178.903 320.567 178.615C321.215 178.327 321.965 178.183 322.817 178.183C324.029 178.183 325.019 178.489 325.787 179.101C326.567 179.701 326.999 180.529 327.083 181.585H324.815C324.779 181.129 324.563 180.739 324.167 180.415C323.771 180.091 323.249 179.929 322.601 179.929C322.013 179.929 321.533 180.079 321.161 180.379C320.789 180.679 320.603 181.111 320.603 181.675C320.603 182.059 320.717 182.377 320.945 182.629C321.185 182.869 321.485 183.061 321.845 183.205C322.205 183.349 322.697 183.505 323.321 183.673C324.149 183.901 324.821 184.129 325.337 184.357C325.865 184.585 326.309 184.939 326.669 185.419C327.041 185.887 327.227 186.517 327.227 187.309C327.227 187.945 327.053 188.545 326.705 189.109C326.369 189.673 325.871 190.129 325.211 190.477C324.563 190.813 323.795 190.981 322.907 190.981ZM338.738 185.653C338.738 186.025 338.714 186.361 338.666 186.661H331.088C331.148 187.453 331.442 188.089 331.97 188.569C332.498 189.049 333.146 189.289 333.914 189.289C335.018 189.289 335.798 188.827 336.254 187.903H338.468C338.168 188.815 337.622 189.565 336.83 190.153C336.05 190.729 335.078 191.017 333.914 191.017C332.966 191.017 332.114 190.807 331.358 190.387C330.614 189.955 330.026 189.355 329.594 188.587C329.174 187.807 328.964 186.907 328.964 185.887C328.964 184.867 329.168 183.973 329.576 183.205C329.996 182.425 330.578 181.825 331.322 181.405C332.078 180.985 332.942 180.775 333.914 180.775C334.85 180.775 335.684 180.979 336.416 181.387C337.148 181.795 337.718 182.371 338.126 183.115C338.534 183.847 338.738 184.693 338.738 185.653ZM336.596 185.005C336.584 184.249 336.314 183.643 335.786 183.187C335.258 182.731 334.604 182.503 333.824 182.503C333.116 182.503 332.51 182.731 332.006 183.187C331.502 183.631 331.202 184.237 331.106 185.005H336.596ZM342.809 177.535V190.855H340.757V177.535H342.809ZM354.593 185.653C354.593 186.025 354.569 186.361 354.521 186.661H346.943C347.003 187.453 347.297 188.089 347.825 188.569C348.353 189.049 349.001 189.289 349.769 189.289C350.873 189.289 351.653 188.827 352.109 187.903H354.323C354.023 188.815 353.477 189.565 352.685 190.153C351.905 190.729 350.933 191.017 349.769 191.017C348.821 191.017 347.969 190.807 347.213 190.387C346.469 189.955 345.881 189.355 345.449 188.587C345.029 187.807 344.819 186.907 344.819 185.887C344.819 184.867 345.023 183.973 345.431 183.205C345.851 182.425 346.433 181.825 347.177 181.405C347.933 180.985 348.797 180.775 349.769 180.775C350.705 180.775 351.539 180.979 352.271 181.387C353.003 181.795 353.573 182.371 353.981 183.115C354.389 183.847 354.593 184.693 354.593 185.653ZM352.451 185.005C352.439 184.249 352.169 183.643 351.641 183.187C351.113 182.731 350.459 182.503 349.679 182.503C348.971 182.503 348.365 182.731 347.861 183.187C347.357 183.631 347.057 184.237 346.961 185.005H352.451ZM355.929 185.887C355.929 184.867 356.133 183.973 356.541 183.205C356.961 182.425 357.537 181.825 358.269 181.405C359.001 180.985 359.841 180.775 360.789 180.775C361.989 180.775 362.979 181.063 363.759 181.639C364.551 182.203 365.085 183.013 365.361 184.069H363.147C362.967 183.577 362.679 183.193 362.283 182.917C361.887 182.641 361.389 182.503 360.789 182.503C359.949 182.503 359.277 182.803 358.773 183.403C358.281 183.991 358.035 184.819 358.035 185.887C358.035 186.955 358.281 187.789 358.773 188.389C359.277 188.989 359.949 189.289 360.789 189.289C361.977 189.289 362.763 188.767 363.147 187.723H365.361C365.073 188.731 364.533 189.535 363.741 190.135C362.949 190.723 361.965 191.017 360.789 191.017C359.841 191.017 359.001 190.807 358.269 190.387C357.537 189.955 356.961 189.355 356.541 188.587C356.133 187.807 355.929 186.907 355.929 185.887ZM369.8 182.611V188.101C369.8 188.473 369.884 188.743 370.052 188.911C370.232 189.067 370.532 189.145 370.952 189.145H372.212V190.855H370.592C369.668 190.855 368.96 190.639 368.468 190.207C367.976 189.775 367.73 189.073 367.73 188.101V182.611H366.56V180.937H367.73V178.471H369.8V180.937H372.212V182.611H369.8ZM389.057 190.855H387.005L380.831 181.513V190.855H378.779V178.327H380.831L387.005 187.651V178.327H389.057V190.855ZM400.841 185.653C400.841 186.025 400.817 186.361 400.769 186.661H393.191C393.251 187.453 393.545 188.089 394.073 188.569C394.601 189.049 395.249 189.289 396.017 189.289C397.121 189.289 397.901 188.827 398.357 187.903H400.571C400.271 188.815 399.725 189.565 398.933 190.153C398.153 190.729 397.181 191.017 396.017 191.017C395.069 191.017 394.217 190.807 393.461 190.387C392.717 189.955 392.129 189.355 391.697 188.587C391.277 187.807 391.067 186.907 391.067 185.887C391.067 184.867 391.271 183.973 391.679 183.205C392.099 182.425 392.681 181.825 393.425 181.405C394.181 180.985 395.045 180.775 396.017 180.775C396.953 180.775 397.787 180.979 398.519 181.387C399.251 181.795 399.821 182.371 400.229 183.115C400.637 183.847 400.841 184.693 400.841 185.653ZM398.699 185.005C398.687 184.249 398.417 183.643 397.889 183.187C397.361 182.731 396.707 182.503 395.927 182.503C395.219 182.503 394.613 182.731 394.109 183.187C393.605 183.631 393.305 184.237 393.209 185.005H398.699ZM405.255 182.611V188.101C405.255 188.473 405.339 188.743 405.507 188.911C405.687 189.067 405.987 189.145 406.407 189.145H407.667V190.855H406.047C405.123 190.855 404.415 190.639 403.923 190.207C403.431 189.775 403.185 189.073 403.185 188.101V182.611H402.015V180.937H403.185V178.471H405.255V180.937H407.667V182.611H405.255ZM422.878 180.937L419.8 190.855H417.64L415.642 183.529L413.644 190.855H411.484L408.388 180.937H410.476L412.546 188.911L414.652 180.937H416.794L418.81 188.875L420.862 180.937H422.878ZM428.714 191.017C427.778 191.017 426.932 190.807 426.176 190.387C425.42 189.955 424.826 189.355 424.394 188.587C423.962 187.807 423.746 186.907 423.746 185.887C423.746 184.879 423.968 183.985 424.412 183.205C424.856 182.425 425.462 181.825 426.23 181.405C426.998 180.985 427.856 180.775 428.804 180.775C429.752 180.775 430.61 180.985 431.378 181.405C432.146 181.825 432.752 182.425 433.196 183.205C433.64 183.985 433.862 184.879 433.862 185.887C433.862 186.895 433.634 187.789 433.178 188.569C432.722 189.349 432.098 189.955 431.306 190.387C430.526 190.807 429.662 191.017 428.714 191.017ZM428.714 189.235C429.242 189.235 429.734 189.109 430.19 188.857C430.658 188.605 431.036 188.227 431.324 187.723C431.612 187.219 431.756 186.607 431.756 185.887C431.756 185.167 431.618 184.561 431.342 184.069C431.066 183.565 430.7 183.187 430.244 182.935C429.788 182.683 429.296 182.557 428.768 182.557C428.24 182.557 427.748 182.683 427.292 182.935C426.848 183.187 426.494 183.565 426.23 184.069C425.966 184.561 425.834 185.167 425.834 185.887C425.834 186.955 426.104 187.783 426.644 188.371C427.196 188.947 427.886 189.235 428.714 189.235ZM437.942 182.377C438.242 181.873 438.638 181.483 439.13 181.207C439.634 180.919 440.228 180.775 440.912 180.775V182.899H440.39C439.586 182.899 438.974 183.103 438.554 183.511C438.146 183.919 437.942 184.627 437.942 185.635V190.855H435.89V180.937H437.942V182.377ZM446.722 185.905L451.294 190.855H448.522L444.85 186.589V190.855H442.798V177.535H444.85V185.275L448.45 180.937H451.294L446.722 185.905Z" fill="white"/>
</g>
<rect x="284" y="16" width="200" height="32" rx="6" fill="#1F2128"/>
<rect x="293.5" y="23.5" width="17" height="17" rx="8.5" fill="#9E9E9E"/>
<rect x="293.5" y="23.5" width="17" height="17" rx="8.5" stroke="#9E9E9E" stroke-width="3"/>
<path d="M306.769 33.986C306.708 33.986 306.657 33.9604 306.615 33.9091L305.251 32.1701L305.564 31.8521L306.954 33.6321C306.985 33.6765 307 33.7227 307 33.7706C307 33.839 306.975 33.892 306.923 33.9296C306.875 33.9672 306.824 33.986 306.769 33.986ZM306.754 30.3799C306.809 30.3799 306.853 30.4021 306.887 30.4466C306.925 30.491 306.944 30.5372 306.944 30.5851C306.944 30.6329 306.923 30.6774 306.882 30.7184L304.615 32.8626L304.579 32.3856L306.59 30.4568C306.641 30.4055 306.696 30.3799 306.754 30.3799ZM304.446 33.9757C304.381 33.9757 304.329 33.9552 304.292 33.9142C304.254 33.8732 304.235 33.8236 304.235 33.7654V30.5953C304.235 30.5338 304.256 30.4842 304.297 30.4466C304.338 30.4055 304.389 30.385 304.451 30.385C304.516 30.385 304.567 30.4055 304.605 30.4466C304.642 30.4842 304.661 30.5338 304.661 30.5953V33.7654C304.661 33.8236 304.641 33.8732 304.6 33.9142C304.562 33.9552 304.511 33.9757 304.446 33.9757Z" fill="#9E9E9E"/>
<path d="M303.555 32.1802C303.555 32.4435 303.512 32.688 303.427 32.9137C303.341 33.136 303.222 33.3309 303.068 33.4985C302.914 33.666 302.731 33.796 302.519 33.8883C302.307 33.9807 302.076 34.0268 301.826 34.0268C301.573 34.0268 301.341 33.9807 301.129 33.8883C300.92 33.796 300.739 33.666 300.585 33.4985C300.431 33.3309 300.311 33.136 300.226 32.9137C300.14 32.688 300.098 32.4435 300.098 32.1802C300.098 31.9134 300.14 31.6689 300.226 31.4466C300.311 31.2209 300.431 31.026 300.585 30.8618C300.739 30.6943 300.92 30.5643 301.129 30.472C301.341 30.3797 301.573 30.3335 301.826 30.3335C302.076 30.3335 302.307 30.3797 302.519 30.472C302.731 30.5643 302.914 30.6943 303.068 30.8618C303.222 31.026 303.341 31.2209 303.427 31.4466C303.512 31.6689 303.555 31.9134 303.555 32.1802ZM303.114 32.1802C303.114 31.8997 303.057 31.6518 302.945 31.4364C302.835 31.2209 302.685 31.0516 302.493 30.9285C302.302 30.8054 302.079 30.7439 301.826 30.7439C301.573 30.7439 301.349 30.8054 301.154 30.9285C300.963 31.0516 300.812 31.2209 300.703 31.4364C300.594 31.6518 300.539 31.8997 300.539 32.1802C300.539 32.4572 300.594 32.7051 300.703 32.924C300.812 33.1394 300.963 33.3087 301.154 33.4318C301.349 33.5549 301.573 33.6165 301.826 33.6165C302.079 33.6165 302.302 33.5549 302.493 33.4318C302.685 33.3087 302.835 33.1394 302.945 32.924C303.057 32.7051 303.114 32.4572 303.114 32.1802Z" fill="#9E9E9E"/>
<path d="M298.395 33.9755C298.334 33.9755 298.282 33.955 298.241 33.9139C298.2 33.8729 298.18 33.8233 298.18 33.7652V30.5951H298.616V33.7652C298.616 33.8233 298.595 33.8729 298.554 33.9139C298.513 33.955 298.46 33.9755 298.395 33.9755ZM297.205 30.7746C297.147 30.7746 297.097 30.7575 297.056 30.7233C297.019 30.6857 297 30.6378 297 30.5797C297 30.5216 297.019 30.4754 297.056 30.4412C297.097 30.4036 297.147 30.3848 297.205 30.3848H299.59C299.649 30.3848 299.698 30.4036 299.739 30.4412C299.78 30.4754 299.801 30.5216 299.801 30.5797C299.801 30.6412 299.78 30.6891 299.739 30.7233C299.698 30.7575 299.649 30.7746 299.59 30.7746H297.205Z" fill="#9E9E9E"/>
<path fill-rule="evenodd" clip-rule="evenodd" d="M470.447 34.5727C470.142 34.2676 470.142 33.7729 470.447 33.4678L473.718 30.1977C474.023 29.8926 474.517 29.8926 474.822 30.1977C475.128 30.5028 475.128 30.9974 474.822 31.3025L471.552 34.5727C471.247 34.8778 470.753 34.8778 470.447 34.5727Z" fill="white"/>
<path fill-rule="evenodd" clip-rule="evenodd" d="M467.178 30.1977C467.483 29.8926 467.977 29.8926 468.282 30.1977L471.553 33.4678C471.858 33.7729 471.858 34.2676 471.553 34.5727C471.247 34.8778 470.753 34.8778 470.448 34.5727L467.178 31.3025C466.872 30.9974 466.872 30.5028 467.178 30.1977Z" fill="white"/>
<path d="M322.256 37.098C321.603 37.098 321.015 36.986 320.492 36.762C319.969 36.5287 319.559 36.202 319.26 35.782C318.961 35.362 318.812 34.872 318.812 34.312H320.52C320.557 34.732 320.721 35.0773 321.01 35.348C321.309 35.6187 321.724 35.754 322.256 35.754C322.807 35.754 323.236 35.6233 323.544 35.362C323.852 35.0913 324.006 34.746 324.006 34.326C324.006 33.9993 323.908 33.7333 323.712 33.528C323.525 33.3227 323.287 33.164 322.998 33.052C322.718 32.94 322.326 32.8187 321.822 32.688C321.187 32.52 320.669 32.352 320.268 32.184C319.876 32.0067 319.54 31.736 319.26 31.372C318.98 31.008 318.84 30.5227 318.84 29.916C318.84 29.356 318.98 28.866 319.26 28.446C319.54 28.026 319.932 27.704 320.436 27.48C320.94 27.256 321.523 27.144 322.186 27.144C323.129 27.144 323.899 27.382 324.496 27.858C325.103 28.3247 325.439 28.9687 325.504 29.79H323.74C323.712 29.4353 323.544 29.132 323.236 28.88C322.928 28.628 322.522 28.502 322.018 28.502C321.561 28.502 321.187 28.6187 320.898 28.852C320.609 29.0853 320.464 29.4213 320.464 29.86C320.464 30.1587 320.553 30.406 320.73 30.602C320.917 30.7887 321.15 30.938 321.43 31.05C321.71 31.162 322.093 31.2833 322.578 31.414C323.222 31.5913 323.745 31.7687 324.146 31.946C324.557 32.1233 324.902 32.3987 325.182 32.772C325.471 33.136 325.616 33.626 325.616 34.242C325.616 34.7367 325.481 35.2033 325.21 35.642C324.949 36.0807 324.561 36.4353 324.048 36.706C323.544 36.9673 322.947 37.098 322.256 37.098ZM334.569 32.954C334.569 33.2433 334.551 33.5047 334.513 33.738H328.619C328.666 34.354 328.895 34.8487 329.305 35.222C329.716 35.5953 330.22 35.782 330.817 35.782C331.676 35.782 332.283 35.4227 332.637 34.704H334.359C334.126 35.4133 333.701 35.9967 333.085 36.454C332.479 36.902 331.723 37.126 330.817 37.126C330.08 37.126 329.417 36.9627 328.829 36.636C328.251 36.3 327.793 35.8333 327.457 35.236C327.131 34.6293 326.967 33.9293 326.967 33.136C326.967 32.3427 327.126 31.6473 327.443 31.05C327.77 30.4433 328.223 29.9767 328.801 29.65C329.389 29.3233 330.061 29.16 330.817 29.16C331.545 29.16 332.194 29.3187 332.763 29.636C333.333 29.9533 333.776 30.4013 334.093 30.98C334.411 31.5493 334.569 32.2073 334.569 32.954ZM332.903 32.45C332.894 31.862 332.684 31.3907 332.273 31.036C331.863 30.6813 331.354 30.504 330.747 30.504C330.197 30.504 329.725 30.6813 329.333 31.036C328.941 31.3813 328.708 31.8527 328.633 32.45H332.903ZM337.736 26.64V37H336.14V26.64H337.736ZM346.901 32.954C346.901 33.2433 346.883 33.5047 346.845 33.738H340.951C340.998 34.354 341.227 34.8487 341.637 35.222C342.048 35.5953 342.552 35.782 343.149 35.782C344.008 35.782 344.615 35.4227 344.969 34.704H346.691C346.458 35.4133 346.033 35.9967 345.417 36.454C344.811 36.902 344.055 37.126 343.149 37.126C342.412 37.126 341.749 36.9627 341.161 36.636C340.583 36.3 340.125 35.8333 339.789 35.236C339.463 34.6293 339.299 33.9293 339.299 33.136C339.299 32.3427 339.458 31.6473 339.775 31.05C340.102 30.4433 340.555 29.9767 341.133 29.65C341.721 29.3233 342.393 29.16 343.149 29.16C343.877 29.16 344.526 29.3187 345.095 29.636C345.665 29.9533 346.108 30.4013 346.425 30.98C346.743 31.5493 346.901 32.2073 346.901 32.954ZM345.235 32.45C345.226 31.862 345.016 31.3907 344.605 31.036C344.195 30.6813 343.686 30.504 343.079 30.504C342.529 30.504 342.057 30.6813 341.665 31.036C341.273 31.3813 341.04 31.8527 340.965 32.45H345.235ZM347.94 33.136C347.94 32.3427 348.099 31.6473 348.416 31.05C348.743 30.4433 349.191 29.9767 349.76 29.65C350.329 29.3233 350.983 29.16 351.72 29.16C352.653 29.16 353.423 29.384 354.03 29.832C354.646 30.2707 355.061 30.9007 355.276 31.722H353.554C353.414 31.3393 353.19 31.0407 352.882 30.826C352.574 30.6113 352.187 30.504 351.72 30.504C351.067 30.504 350.544 30.7373 350.152 31.204C349.769 31.6613 349.578 32.3053 349.578 33.136C349.578 33.9667 349.769 34.6153 350.152 35.082C350.544 35.5487 351.067 35.782 351.72 35.782C352.644 35.782 353.255 35.376 353.554 34.564H355.276C355.052 35.348 354.632 35.9733 354.016 36.44C353.4 36.8973 352.635 37.126 351.72 37.126C350.983 37.126 350.329 36.9627 349.76 36.636C349.191 36.3 348.743 35.8333 348.416 35.236C348.099 34.6293 347.94 33.9293 347.94 33.136ZM358.728 30.588V34.858C358.728 35.1473 358.794 35.3573 358.924 35.488C359.064 35.6093 359.298 35.67 359.624 35.67H360.604V37H359.344C358.626 37 358.075 36.832 357.692 36.496C357.31 36.16 357.118 35.614 357.118 34.858V30.588H356.208V29.286H357.118V27.368H358.728V29.286H360.604V30.588H358.728ZM373.706 37H372.11L367.308 29.734V37H365.712V27.256H367.308L372.11 34.508V27.256H373.706V37ZM382.872 32.954C382.872 33.2433 382.853 33.5047 382.816 33.738H376.922C376.969 34.354 377.197 34.8487 377.608 35.222C378.019 35.5953 378.523 35.782 379.12 35.782C379.979 35.782 380.585 35.4227 380.94 34.704H382.662C382.429 35.4133 382.004 35.9967 381.388 36.454C380.781 36.902 380.025 37.126 379.12 37.126C378.383 37.126 377.72 36.9627 377.132 36.636C376.553 36.3 376.096 35.8333 375.76 35.236C375.433 34.6293 375.27 33.9293 375.27 33.136C375.27 32.3427 375.429 31.6473 375.746 31.05C376.073 30.4433 376.525 29.9767 377.104 29.65C377.692 29.3233 378.364 29.16 379.12 29.16C379.848 29.16 380.497 29.3187 381.066 29.636C381.635 29.9533 382.079 30.4013 382.396 30.98C382.713 31.5493 382.872 32.2073 382.872 32.954ZM381.206 32.45C381.197 31.862 380.987 31.3907 380.576 31.036C380.165 30.6813 379.657 30.504 379.05 30.504C378.499 30.504 378.028 30.6813 377.636 31.036C377.244 31.3813 377.011 31.8527 376.936 32.45H381.206ZM386.305 30.588V34.858C386.305 35.1473 386.37 35.3573 386.501 35.488C386.641 35.6093 386.874 35.67 387.201 35.67H388.181V37H386.921C386.202 37 385.651 36.832 385.269 36.496C384.886 36.16 384.695 35.614 384.695 34.858V30.588H383.785V29.286H384.695V27.368H386.305V29.286H388.181V30.588H386.305ZM400.012 29.286L397.618 37H395.938L394.384 31.302L392.83 37H391.15L388.742 29.286H390.366L391.976 35.488L393.614 29.286H395.28L396.848 35.46L398.444 29.286H400.012ZM404.55 37.126C403.822 37.126 403.164 36.9627 402.576 36.636C401.988 36.3 401.526 35.8333 401.19 35.236C400.854 34.6293 400.686 33.9293 400.686 33.136C400.686 32.352 400.859 31.6567 401.204 31.05C401.55 30.4433 402.021 29.9767 402.618 29.65C403.216 29.3233 403.883 29.16 404.62 29.16C405.358 29.16 406.025 29.3233 406.622 29.65C407.22 29.9767 407.691 30.4433 408.036 31.05C408.382 31.6567 408.554 32.352 408.554 33.136C408.554 33.92 408.377 34.6153 408.022 35.222C407.668 35.8287 407.182 36.3 406.566 36.636C405.96 36.9627 405.288 37.126 404.55 37.126ZM404.55 35.74C404.961 35.74 405.344 35.642 405.698 35.446C406.062 35.25 406.356 34.956 406.58 34.564C406.804 34.172 406.916 33.696 406.916 33.136C406.916 32.576 406.809 32.1047 406.594 31.722C406.38 31.33 406.095 31.036 405.74 30.84C405.386 30.644 405.003 30.546 404.592 30.546C404.182 30.546 403.799 30.644 403.444 30.84C403.099 31.036 402.824 31.33 402.618 31.722C402.413 32.1047 402.31 32.576 402.31 33.136C402.31 33.9667 402.52 34.6107 402.94 35.068C403.37 35.516 403.906 35.74 404.55 35.74ZM411.728 30.406C411.961 30.014 412.269 29.7107 412.652 29.496C413.044 29.272 413.506 29.16 414.038 29.16V30.812H413.632C413.007 30.812 412.531 30.9707 412.204 31.288C411.887 31.6053 411.728 32.156 411.728 32.94V37H410.132V29.286H411.728V30.406ZM418.557 33.15L422.113 37H419.957L417.101 33.682V37H415.505V26.64H417.101V32.66L419.901 29.286H422.113L418.557 33.15Z" fill="white"/>
<rect y="409" width="496" height="48" rx="8" fill="#17181D"/>
<path d="M184.873 433.4C184.873 432.301 185.118 431.32 185.609 430.456C186.11 429.581 186.787 428.904 187.641 428.424C188.505 427.933 189.47 427.688 190.537 427.688C191.785 427.688 192.878 428.008 193.817 428.648C194.755 429.288 195.411 430.173 195.785 431.304H193.209C192.953 430.771 192.59 430.371 192.121 430.104C191.662 429.837 191.129 429.704 190.521 429.704C189.87 429.704 189.289 429.859 188.777 430.168C188.275 430.467 187.881 430.893 187.593 431.448C187.315 432.003 187.177 432.653 187.177 433.4C187.177 434.136 187.315 434.787 187.593 435.352C187.881 435.907 188.275 436.339 188.777 436.648C189.289 436.947 189.87 437.096 190.521 437.096C191.129 437.096 191.662 436.963 192.121 436.696C192.59 436.419 192.953 436.013 193.209 435.48H195.785C195.411 436.621 194.755 437.512 193.817 438.152C192.889 438.781 191.795 439.096 190.537 439.096C189.47 439.096 188.505 438.856 187.641 438.376C186.787 437.885 186.11 437.208 185.609 436.344C185.118 435.48 184.873 434.499 184.873 433.4ZM201.634 439.144C200.78 439.144 200.012 438.957 199.33 438.584C198.647 438.2 198.108 437.661 197.714 436.968C197.33 436.275 197.138 435.475 197.138 434.568C197.138 433.661 197.335 432.861 197.73 432.168C198.135 431.475 198.684 430.941 199.378 430.568C200.071 430.184 200.844 429.992 201.698 429.992C202.551 429.992 203.324 430.184 204.018 430.568C204.711 430.941 205.255 431.475 205.65 432.168C206.055 432.861 206.258 433.661 206.258 434.568C206.258 435.475 206.05 436.275 205.634 436.968C205.228 437.661 204.674 438.2 203.97 438.584C203.276 438.957 202.498 439.144 201.634 439.144ZM201.634 437.192C202.039 437.192 202.418 437.096 202.77 436.904C203.132 436.701 203.42 436.403 203.634 436.008C203.847 435.613 203.954 435.133 203.954 434.568C203.954 433.725 203.73 433.08 203.282 432.632C202.844 432.173 202.306 431.944 201.666 431.944C201.026 431.944 200.487 432.173 200.05 432.632C199.623 433.08 199.41 433.725 199.41 434.568C199.41 435.411 199.618 436.061 200.034 436.52C200.46 436.968 200.994 437.192 201.634 437.192ZM212.813 430.008C213.869 430.008 214.722 430.344 215.373 431.016C216.024 431.677 216.349 432.605 216.349 433.8V439H214.109V434.104C214.109 433.4 213.933 432.861 213.581 432.488C213.229 432.104 212.749 431.912 212.141 431.912C211.522 431.912 211.032 432.104 210.669 432.488C210.317 432.861 210.141 433.4 210.141 434.104V439H207.901V430.136H210.141V431.24C210.44 430.856 210.818 430.557 211.277 430.344C211.746 430.12 212.258 430.008 212.813 430.008ZM223.391 430.008C224.447 430.008 225.3 430.344 225.951 431.016C226.602 431.677 226.927 432.605 226.927 433.8V439H224.687V434.104C224.687 433.4 224.511 432.861 224.159 432.488C223.807 432.104 223.327 431.912 222.719 431.912C222.1 431.912 221.61 432.104 221.247 432.488C220.895 432.861 220.719 433.4 220.719 434.104V439H218.479V430.136H220.719V431.24C221.018 430.856 221.396 430.557 221.855 430.344C222.324 430.12 222.836 430.008 223.391 430.008ZM237.297 434.376C237.297 434.696 237.276 434.984 237.233 435.24H230.753C230.806 435.88 231.03 436.381 231.425 436.744C231.82 437.107 232.305 437.288 232.881 437.288C233.713 437.288 234.305 436.931 234.657 436.216H237.073C236.817 437.069 236.326 437.773 235.601 438.328C234.876 438.872 233.985 439.144 232.929 439.144C232.076 439.144 231.308 438.957 230.625 438.584C229.953 438.2 229.425 437.661 229.041 436.968C228.668 436.275 228.481 435.475 228.481 434.568C228.481 433.651 228.668 432.845 229.041 432.152C229.414 431.459 229.937 430.925 230.609 430.552C231.281 430.179 232.054 429.992 232.929 429.992C233.772 429.992 234.524 430.173 235.185 430.536C235.857 430.899 236.374 431.416 236.737 432.088C237.11 432.749 237.297 433.512 237.297 434.376ZM234.977 433.736C234.966 433.16 234.758 432.701 234.353 432.36C233.948 432.008 233.452 431.832 232.865 431.832C232.31 431.832 231.841 432.003 231.457 432.344C231.084 432.675 230.854 433.139 230.769 433.736H234.977ZM238.356 434.568C238.356 433.651 238.543 432.851 238.916 432.168C239.289 431.475 239.807 430.941 240.468 430.568C241.129 430.184 241.887 429.992 242.74 429.992C243.839 429.992 244.745 430.269 245.46 430.824C246.185 431.368 246.671 432.136 246.916 433.128H244.5C244.372 432.744 244.153 432.445 243.844 432.232C243.545 432.008 243.172 431.896 242.724 431.896C242.084 431.896 241.577 432.131 241.204 432.6C240.831 433.059 240.644 433.715 240.644 434.568C240.644 435.411 240.831 436.067 241.204 436.536C241.577 436.995 242.084 437.224 242.724 437.224C243.631 437.224 244.223 436.819 244.5 436.008H246.916C246.671 436.968 246.185 437.731 245.46 438.296C244.735 438.861 243.828 439.144 242.74 439.144C241.887 439.144 241.129 438.957 240.468 438.584C239.807 438.2 239.289 437.667 238.916 436.984C238.543 436.291 238.356 435.485 238.356 434.568ZM251.165 431.976V436.264C251.165 436.563 251.234 436.781 251.373 436.92C251.522 437.048 251.768 437.112 252.109 437.112H253.149V439H251.741C249.853 439 248.909 438.083 248.909 436.248V431.976H247.853V430.136H248.909V427.944H251.165V430.136H253.149V431.976H251.165ZM273.501 427.832L270.381 439H267.741L265.645 431.048L263.453 439L260.829 439.016L257.821 427.832H260.221L262.189 436.504L264.461 427.832H266.957L269.101 436.456L271.085 427.832H273.501ZM274.387 434.536C274.387 433.64 274.563 432.845 274.915 432.152C275.278 431.459 275.763 430.925 276.371 430.552C276.99 430.179 277.678 429.992 278.435 429.992C279.097 429.992 279.673 430.125 280.163 430.392C280.665 430.659 281.065 430.995 281.363 431.4V430.136H283.619V439H281.363V437.704C281.075 438.12 280.675 438.467 280.163 438.744C279.662 439.011 279.081 439.144 278.419 439.144C277.673 439.144 276.99 438.952 276.371 438.568C275.763 438.184 275.278 437.645 274.915 436.952C274.563 436.248 274.387 435.443 274.387 434.536ZM281.363 434.568C281.363 434.024 281.257 433.56 281.043 433.176C280.83 432.781 280.542 432.483 280.179 432.28C279.817 432.067 279.427 431.96 279.011 431.96C278.595 431.96 278.211 432.061 277.859 432.264C277.507 432.467 277.219 432.765 276.995 433.16C276.782 433.544 276.675 434.003 276.675 434.536C276.675 435.069 276.782 435.539 276.995 435.944C277.219 436.339 277.507 436.643 277.859 436.856C278.222 437.069 278.606 437.176 279.011 437.176C279.427 437.176 279.817 437.075 280.179 436.872C280.542 436.659 280.83 436.36 281.043 435.976C281.257 435.581 281.363 435.112 281.363 434.568ZM288.047 427.16V439H285.807V427.16H288.047ZM292.5 427.16V439H290.26V427.16H292.5ZM302.953 434.376C302.953 434.696 302.932 434.984 302.889 435.24H296.409C296.463 435.88 296.687 436.381 297.081 436.744C297.476 437.107 297.961 437.288 298.537 437.288C299.369 437.288 299.961 436.931 300.313 436.216H302.729C302.473 437.069 301.983 437.773 301.257 438.328C300.532 438.872 299.641 439.144 298.585 439.144C297.732 439.144 296.964 438.957 296.281 438.584C295.609 438.2 295.081 437.661 294.697 436.968C294.324 436.275 294.137 435.475 294.137 434.568C294.137 433.651 294.324 432.845 294.697 432.152C295.071 431.459 295.593 430.925 296.265 430.552C296.937 430.179 297.711 429.992 298.585 429.992C299.428 429.992 300.18 430.173 300.841 430.536C301.513 430.899 302.031 431.416 302.393 432.088C302.767 432.749 302.953 433.512 302.953 434.376ZM300.633 433.736C300.623 433.16 300.415 432.701 300.009 432.36C299.604 432.008 299.108 431.832 298.521 431.832C297.967 431.832 297.497 432.003 297.113 432.344C296.74 432.675 296.511 433.139 296.425 433.736H300.633ZM307.196 431.976V436.264C307.196 436.563 307.266 436.781 307.404 436.92C307.554 437.048 307.799 437.112 308.14 437.112H309.18V439H307.772C305.884 439 304.94 438.083 304.94 436.248V431.976H303.884V430.136H304.94V427.944H307.196V430.136H309.18V431.976H307.196Z" fill="white"/>
<defs>
<clipPath id="clip0_2054_29056">
<rect x="12" y="60" width="200" height="248" rx="16" fill="white"/>
</clipPath>
<clipPath id="clip1_2054_29056">
<rect width="8.732" height="15" fill="white" transform="translate(25.625 24.5)"/>
</clipPath>
<clipPath id="clip2_2054_29056">
<rect x="284" y="60" width="200" height="248" rx="16" fill="white"/>
</clipPath>
</defs>
</svg>
