<svg width="496" height="517" viewBox="0 5 496 517" fill="none" xmlns="http://www.w3.org/2000/svg">
<rect x="0.5" y="56.5" width="224" height="385" rx="7.5" fill="#0F0F12"/>
<rect x="0.5" y="56.5" width="224" height="385" rx="7.5" stroke="#1F2128"/>
<rect x="0.5" y="56.5" width="224" height="385" rx="7.5" stroke="#1F2128"/>
<g opacity="0.15">
<g clip-path="url(#clip0_1419_24996)">
<rect x="12.5" y="116.5" width="199" height="247" rx="15.5" stroke="#313442" stroke-dasharray="6 6"/>
<path d="M117.875 265.125C119 263.625 119.625 261.875 119.625 259.875C119.625 255 115.75 251 110.875 251C106 251 102 255 102 259.875C102 264.75 106 268.75 110.875 268.75C112.875 268.75 114.75 268.125 116.125 267L119.875 270.75C120.125 271 120.5 271.125 120.75 271.125C121 271.125 121.375 271 121.625 270.75C122.125 270.25 122.125 269.5 121.625 269L117.875 265.125ZM110.875 266.125C107.375 266.125 104.5 263.375 104.5 259.875C104.5 256.375 107.375 253.5 110.875 253.5C114.375 253.5 117.25 256.375 117.25 259.875C117.25 263.375 114.375 266.125 110.875 266.125Z" fill="white"/>
<path d="M51.8431 229.126C51.0031 229.126 50.2471 228.982 49.5751 228.694C48.9031 228.394 48.3751 227.974 47.9911 227.434C47.6071 226.894 47.4151 226.264 47.4151 225.544H49.6111C49.6591 226.084 49.8691 226.528 50.2411 226.876C50.6251 227.224 51.1591 227.398 51.8431 227.398C52.5511 227.398 53.1031 227.23 53.4991 226.894C53.8951 226.546 54.0931 226.102 54.0931 225.562C54.0931 225.142 53.9671 224.8 53.7151 224.536C53.4751 224.272 53.1691 224.068 52.7971 223.924C52.4371 223.78 51.9331 223.624 51.2851 223.456C50.4691 223.24 49.8031 223.024 49.2871 222.808C48.7831 222.58 48.3511 222.232 47.9911 221.764C47.6311 221.296 47.4511 220.672 47.4511 219.892C47.4511 219.172 47.6311 218.542 47.9911 218.002C48.3511 217.462 48.8551 217.048 49.5031 216.76C50.1511 216.472 50.9011 216.328 51.7531 216.328C52.9651 216.328 53.9551 216.634 54.7231 217.246C55.5031 217.846 55.9351 218.674 56.0191 219.73H53.7511C53.7151 219.274 53.4991 218.884 53.1031 218.56C52.7071 218.236 52.1851 218.074 51.5371 218.074C50.9491 218.074 50.4691 218.224 50.0971 218.524C49.7251 218.824 49.5391 219.256 49.5391 219.82C49.5391 220.204 49.6531 220.522 49.8811 220.774C50.1211 221.014 50.4211 221.206 50.7811 221.35C51.1411 221.494 51.6331 221.65 52.2571 221.818C53.0851 222.046 53.7571 222.274 54.2731 222.502C54.8011 222.73 55.2451 223.084 55.6051 223.564C55.9771 224.032 56.1631 224.662 56.1631 225.454C56.1631 226.09 55.9891 226.69 55.6411 227.254C55.3051 227.818 54.8071 228.274 54.1471 228.622C53.4991 228.958 52.7311 229.126 51.8431 229.126ZM67.6744 223.798C67.6744 224.17 67.6504 224.506 67.6024 224.806H60.0244C60.0844 225.598 60.3784 226.234 60.9064 226.714C61.4344 227.194 62.0824 227.434 62.8504 227.434C63.9544 227.434 64.7344 226.972 65.1904 226.048H67.4044C67.1044 226.96 66.5584 227.71 65.7664 228.298C64.9864 228.874 64.0144 229.162 62.8504 229.162C61.9024 229.162 61.0504 228.952 60.2944 228.532C59.5504 228.1 58.9624 227.5 58.5304 226.732C58.1104 225.952 57.9004 225.052 57.9004 224.032C57.9004 223.012 58.1044 222.118 58.5124 221.35C58.9324 220.57 59.5144 219.97 60.2584 219.55C61.0144 219.13 61.8784 218.92 62.8504 218.92C63.7864 218.92 64.6204 219.124 65.3524 219.532C66.0844 219.94 66.6544 220.516 67.0624 221.26C67.4704 221.992 67.6744 222.838 67.6744 223.798ZM65.5324 223.15C65.5204 222.394 65.2504 221.788 64.7224 221.332C64.1944 220.876 63.5404 220.648 62.7604 220.648C62.0524 220.648 61.4464 220.876 60.9424 221.332C60.4384 221.776 60.1384 222.382 60.0424 223.15H65.5324ZM69.0098 223.996C69.0098 223 69.2138 222.118 69.6218 221.35C70.0418 220.582 70.6058 219.988 71.3138 219.568C72.0338 219.136 72.8258 218.92 73.6898 218.92C74.4698 218.92 75.1478 219.076 75.7238 219.388C76.3118 219.688 76.7798 220.066 77.1278 220.522V219.082H79.1978V229H77.1278V227.524C76.7798 227.992 76.3058 228.382 75.7058 228.694C75.1058 229.006 74.4218 229.162 73.6538 229.162C72.8018 229.162 72.0218 228.946 71.3138 228.514C70.6058 228.07 70.0418 227.458 69.6218 226.678C69.2138 225.886 69.0098 224.992 69.0098 223.996ZM77.1278 224.032C77.1278 223.348 76.9838 222.754 76.6958 222.25C76.4198 221.746 76.0538 221.362 75.5978 221.098C75.1418 220.834 74.6498 220.702 74.1218 220.702C73.5938 220.702 73.1018 220.834 72.6458 221.098C72.1898 221.35 71.8178 221.728 71.5298 222.232C71.2538 222.724 71.1158 223.312 71.1158 223.996C71.1158 224.68 71.2538 225.28 71.5298 225.796C71.8178 226.312 72.1898 226.708 72.6458 226.984C73.1138 227.248 73.6058 227.38 74.1218 227.38C74.6498 227.38 75.1418 227.248 75.5978 226.984C76.0538 226.72 76.4198 226.336 76.6958 225.832C76.9838 225.316 77.1278 224.716 77.1278 224.032ZM83.945 220.522C84.245 220.018 84.641 219.628 85.133 219.352C85.637 219.064 86.231 218.92 86.915 218.92V221.044H86.393C85.589 221.044 84.977 221.248 84.557 221.656C84.149 222.064 83.945 222.772 83.945 223.78V229H81.893V219.082H83.945V220.522ZM88.1172 224.032C88.1172 223.012 88.3212 222.118 88.7292 221.35C89.1492 220.57 89.7252 219.97 90.4572 219.55C91.1892 219.13 92.0292 218.92 92.9772 218.92C94.1772 218.92 95.1672 219.208 95.9472 219.784C96.7392 220.348 97.2732 221.158 97.5492 222.214H95.3352C95.1552 221.722 94.8672 221.338 94.4712 221.062C94.0752 220.786 93.5772 220.648 92.9772 220.648C92.1372 220.648 91.4652 220.948 90.9612 221.548C90.4692 222.136 90.2232 222.964 90.2232 224.032C90.2232 225.1 90.4692 225.934 90.9612 226.534C91.4652 227.134 92.1372 227.434 92.9772 227.434C94.1652 227.434 94.9512 226.912 95.3352 225.868H97.5492C97.2612 226.876 96.7212 227.68 95.9292 228.28C95.1372 228.868 94.1532 229.162 92.9772 229.162C92.0292 229.162 91.1892 228.952 90.4572 228.532C89.7252 228.1 89.1492 227.5 88.7292 226.732C88.3212 225.952 88.1172 225.052 88.1172 224.032ZM104.724 218.92C105.48 218.92 106.152 219.082 106.74 219.406C107.34 219.73 107.808 220.21 108.144 220.846C108.492 221.482 108.666 222.25 108.666 223.15V229H106.632V223.456C106.632 222.568 106.41 221.89 105.966 221.422C105.522 220.942 104.916 220.702 104.148 220.702C103.38 220.702 102.768 220.942 102.312 221.422C101.868 221.89 101.646 222.568 101.646 223.456V229H99.5941V215.68H101.646V220.234C101.994 219.814 102.432 219.49 102.96 219.262C103.5 219.034 104.088 218.92 104.724 218.92ZM124.041 216.49V218.164H120.711V229H118.659V218.164H115.311V216.49H124.041ZM130.422 229.162C129.486 229.162 128.64 228.952 127.884 228.532C127.128 228.1 126.534 227.5 126.102 226.732C125.67 225.952 125.454 225.052 125.454 224.032C125.454 223.024 125.676 222.13 126.12 221.35C126.564 220.57 127.17 219.97 127.938 219.55C128.706 219.13 129.564 218.92 130.512 218.92C131.46 218.92 132.318 219.13 133.086 219.55C133.854 219.97 134.46 220.57 134.904 221.35C135.348 222.13 135.57 223.024 135.57 224.032C135.57 225.04 135.342 225.934 134.886 226.714C134.43 227.494 133.806 228.1 133.014 228.532C132.234 228.952 131.37 229.162 130.422 229.162ZM130.422 227.38C130.95 227.38 131.442 227.254 131.898 227.002C132.366 226.75 132.744 226.372 133.032 225.868C133.32 225.364 133.464 224.752 133.464 224.032C133.464 223.312 133.326 222.706 133.05 222.214C132.774 221.71 132.408 221.332 131.952 221.08C131.496 220.828 131.004 220.702 130.476 220.702C129.948 220.702 129.456 220.828 129 221.08C128.556 221.332 128.202 221.71 127.938 222.214C127.674 222.706 127.542 223.312 127.542 224.032C127.542 225.1 127.812 225.928 128.352 226.516C128.904 227.092 129.594 227.38 130.422 227.38ZM141.522 224.05L146.094 229H143.322L139.65 224.734V229H137.598V215.68H139.65V223.42L143.25 219.082H146.094L141.522 224.05ZM156.655 223.798C156.655 224.17 156.631 224.506 156.583 224.806H149.005C149.065 225.598 149.359 226.234 149.887 226.714C150.415 227.194 151.063 227.434 151.831 227.434C152.935 227.434 153.715 226.972 154.171 226.048H156.385C156.085 226.96 155.539 227.71 154.747 228.298C153.967 228.874 152.995 229.162 151.831 229.162C150.883 229.162 150.031 228.952 149.275 228.532C148.531 228.1 147.943 227.5 147.511 226.732C147.091 225.952 146.881 225.052 146.881 224.032C146.881 223.012 147.085 222.118 147.493 221.35C147.913 220.57 148.495 219.97 149.239 219.55C149.995 219.13 150.859 218.92 151.831 218.92C152.767 218.92 153.601 219.124 154.333 219.532C155.065 219.94 155.635 220.516 156.043 221.26C156.451 221.992 156.655 222.838 156.655 223.798ZM154.513 223.15C154.501 222.394 154.231 221.788 153.703 221.332C153.175 220.876 152.521 220.648 151.741 220.648C151.033 220.648 150.427 220.876 149.923 221.332C149.419 221.776 149.119 222.382 149.023 223.15H154.513ZM163.678 218.92C164.458 218.92 165.154 219.082 165.766 219.406C166.39 219.73 166.876 220.21 167.224 220.846C167.572 221.482 167.746 222.25 167.746 223.15V229H165.712V223.456C165.712 222.568 165.49 221.89 165.046 221.422C164.602 220.942 163.996 220.702 163.228 220.702C162.46 220.702 161.848 220.942 161.392 221.422C160.948 221.89 160.726 222.568 160.726 223.456V229H158.674V219.082H160.726V220.216C161.062 219.808 161.488 219.49 162.004 219.262C162.532 219.034 163.09 218.92 163.678 218.92ZM173.964 229.162C173.184 229.162 172.482 229.024 171.858 228.748C171.246 228.46 170.76 228.076 170.4 227.596C170.04 227.104 169.848 226.558 169.824 225.958H171.948C171.984 226.378 172.182 226.732 172.542 227.02C172.914 227.296 173.376 227.434 173.928 227.434C174.504 227.434 174.948 227.326 175.26 227.11C175.584 226.882 175.746 226.594 175.746 226.246C175.746 225.874 175.566 225.598 175.206 225.418C174.858 225.238 174.3 225.04 173.532 224.824C172.788 224.62 172.182 224.422 171.714 224.23C171.246 224.038 170.838 223.744 170.49 223.348C170.154 222.952 169.986 222.43 169.986 221.782C169.986 221.254 170.142 220.774 170.454 220.342C170.766 219.898 171.21 219.55 171.786 219.298C172.374 219.046 173.046 218.92 173.802 218.92C174.93 218.92 175.836 219.208 176.52 219.784C177.216 220.348 177.588 221.122 177.636 222.106H175.584C175.548 221.662 175.368 221.308 175.044 221.044C174.72 220.78 174.282 220.648 173.73 220.648C173.19 220.648 172.776 220.75 172.488 220.954C172.2 221.158 172.056 221.428 172.056 221.764C172.056 222.028 172.152 222.25 172.344 222.43C172.536 222.61 172.77 222.754 173.046 222.862C173.322 222.958 173.73 223.084 174.27 223.24C174.99 223.432 175.578 223.63 176.034 223.834C176.502 224.026 176.904 224.314 177.24 224.698C177.576 225.082 177.75 225.592 177.762 226.228C177.762 226.792 177.606 227.296 177.294 227.74C176.982 228.184 176.538 228.532 175.962 228.784C175.398 229.036 174.732 229.162 173.964 229.162Z" fill="white"/>
</g>
</g>
<rect x="12" y="72" width="200" height="32" rx="6" fill="#1F2128"/>
<rect x="20" y="78" width="20" height="20" rx="10" fill="#05274C"/>
<g clip-path="url(#clip1_1419_24996)">
<path d="M25.1042 79.458L24.8862 79.8378L20.2083 87.9725L23.3268 93.3958L24.8862 96.1077L25.1042 96.487H34.8958L38.0143 91.0641L39.5733 88.3522L39.7917 87.9725L39.5733 87.5932L34.8958 79.458H25.1042Z" fill="#1C1C1C"/>
<path d="M25.1042 79.458L24.8862 79.8378L20.2083 87.9725L23.3268 93.3958L24.8862 96.1077L25.1042 96.487H34.8958L38.0143 91.0641L39.5733 88.3522L39.7917 87.9725L39.5733 87.5932L34.8958 79.458H25.1042Z" fill="#05274C"/>
<path d="M38.7005 88.3516L37.5779 90.3039H29.0958L30.2167 88.3516H38.7005ZM32.2057 93.0158H27.5346L28.6573 91.0634H33.3283L32.2057 93.0158Z" fill="#85BCFA"/>
<path d="M28.0042 85.261L25.1042 90.3045L23.9815 88.3522L26.8816 83.3086L28.0042 85.261Z" fill="#2470ED"/>
<path d="M29.5637 87.9728L25.3205 95.348L24.1978 93.3956L28.4389 86.0195L29.5637 87.9728Z" fill="#2470ED"/>
<path d="M30.2181 87.5925L25.977 80.2168H28.2223L32.4633 87.5925H30.2181ZM33.3361 87.5925L30.8724 83.3084H33.1177L35.5818 87.5925H33.3361Z" fill="white"/>
</g>
<path fill-rule="evenodd" clip-rule="evenodd" d="M198.448 90.5729C198.142 90.2678 198.142 89.7732 198.448 89.4681L201.718 86.1979C202.023 85.8928 202.517 85.8928 202.823 86.1979C203.128 86.503 203.128 86.9977 202.823 87.3028L199.552 90.5729C199.247 90.878 198.753 90.878 198.448 90.5729Z" fill="white"/>
<path fill-rule="evenodd" clip-rule="evenodd" d="M195.177 86.1979C195.483 85.8928 195.977 85.8928 196.282 86.1979L199.552 89.4681C199.858 89.7732 199.858 90.2678 199.552 90.5729C199.247 90.878 198.753 90.878 198.448 90.5729L195.177 87.3028C194.872 86.9977 194.872 86.503 195.177 86.1979Z" fill="white"/>
<path d="M53.336 83.27V84.572H50.746V93H49.15V84.572H46.546V83.27H53.336ZM55.7643 84.264C55.475 84.264 55.2323 84.166 55.0363 83.97C54.8403 83.774 54.7423 83.5313 54.7423 83.242C54.7423 82.9527 54.8403 82.71 55.0363 82.514C55.2323 82.318 55.475 82.22 55.7643 82.22C56.0443 82.22 56.2823 82.318 56.4783 82.514C56.6743 82.71 56.7723 82.9527 56.7723 83.242C56.7723 83.5313 56.6743 83.774 56.4783 83.97C56.2823 84.166 56.0443 84.264 55.7643 84.264ZM56.5483 85.286V93H54.9523V85.286H56.5483ZM60.5058 86.588V90.858C60.5058 91.1473 60.5711 91.3573 60.7018 91.488C60.8418 91.6093 61.0751 91.67 61.4018 91.67H62.3818V93H61.1218C60.4031 93 59.8524 92.832 59.4698 92.496C59.0871 92.16 58.8958 91.614 58.8958 90.858V86.588H57.9858V85.286H58.8958V83.368H60.5058V85.286H62.3818V86.588H60.5058ZM63.3207 89.108C63.3207 88.3333 63.4794 87.6473 63.7967 87.05C64.1234 86.4527 64.5621 85.9907 65.1127 85.664C65.6727 85.328 66.2887 85.16 66.9607 85.16C67.5674 85.16 68.0947 85.2813 68.5427 85.524C69.0001 85.7573 69.3641 86.0513 69.6347 86.406V85.286H71.2447V93H69.6347V91.852C69.3641 92.216 68.9954 92.5193 68.5287 92.762C68.0621 93.0047 67.5301 93.126 66.9327 93.126C66.2701 93.126 65.6634 92.958 65.1127 92.622C64.5621 92.2767 64.1234 91.8007 63.7967 91.194C63.4794 90.578 63.3207 89.8827 63.3207 89.108ZM69.6347 89.136C69.6347 88.604 69.5227 88.142 69.2987 87.75C69.0841 87.358 68.7994 87.0593 68.4447 86.854C68.0901 86.6487 67.7074 86.546 67.2967 86.546C66.8861 86.546 66.5034 86.6487 66.1487 86.854C65.7941 87.05 65.5047 87.344 65.2807 87.736C65.0661 88.1187 64.9587 88.576 64.9587 89.108C64.9587 89.64 65.0661 90.1067 65.2807 90.508C65.5047 90.9093 65.7941 91.2173 66.1487 91.432C66.5127 91.6373 66.8954 91.74 67.2967 91.74C67.7074 91.74 68.0901 91.6373 68.4447 91.432C68.7994 91.2267 69.0841 90.928 69.2987 90.536C69.5227 90.1347 69.6347 89.668 69.6347 89.136ZM77.233 85.16C77.8397 85.16 78.381 85.286 78.857 85.538C79.3423 85.79 79.7203 86.1633 79.991 86.658C80.2617 87.1527 80.397 87.75 80.397 88.45V93H78.815V88.688C78.815 87.9973 78.6423 87.47 78.297 87.106C77.9517 86.7327 77.4803 86.546 76.883 86.546C76.2857 86.546 75.8097 86.7327 75.455 87.106C75.1097 87.47 74.937 87.9973 74.937 88.688V93H73.341V85.286H74.937V86.168C75.1983 85.8507 75.5297 85.6033 75.931 85.426C76.3417 85.2487 76.7757 85.16 77.233 85.16Z" fill="white"/>
<path fill-rule="evenodd" clip-rule="evenodd" d="M251.065 241.096C250.476 240.466 249.511 240.468 248.925 241.102C248.353 241.719 248.355 242.708 248.93 243.323L252.287 246.915H240.125C239.271 246.915 238.625 247.651 238.625 248.5C238.625 249.349 239.271 250.085 240.125 250.085H252.287L248.93 253.677C248.355 254.292 248.353 255.281 248.925 255.898C249.511 256.532 250.476 256.534 251.065 255.904L256.944 249.613C257.519 248.996 257.518 248.003 256.945 247.388L251.065 241.096Z" fill="white"/>
<rect x="271.5" y="53" width="225" height="388" rx="7.5" fill="#0F0F12"/>
<rect x="271.5" y="53" width="225" height="388" rx="7.5" stroke="#1F2128"/>
<rect x="271.5" y="53" width="225" height="388" rx="7.5" stroke="#1F2128"/>
<g opacity="0.15">
<g clip-path="url(#clip2_1419_24996)">
<rect x="288.5" y="120.5" width="191" height="239" rx="15.5" stroke="#313442" stroke-opacity="0.6"/>
<rect x="284.5" y="124.5" width="191" height="239" rx="15.5" stroke="#313442" stroke-opacity="0.6"/>
<rect x="292.5" y="116.5" width="191" height="239" rx="15.5" fill="#0F0F12" stroke="#313442"/>
<path d="M393.875 257.125C395 255.625 395.625 253.875 395.625 251.875C395.625 247 391.75 243 386.875 243C382 243 378 247 378 251.875C378 256.75 382 260.75 386.875 260.75C388.875 260.75 390.75 260.125 392.125 259L395.875 262.75C396.125 263 396.5 263.125 396.75 263.125C397 263.125 397.375 263 397.625 262.75C398.125 262.25 398.125 261.5 397.625 261L393.875 257.125ZM386.875 258.125C383.375 258.125 380.5 255.375 380.5 251.875C380.5 248.375 383.375 245.5 386.875 245.5C390.375 245.5 393.25 248.375 393.25 251.875C393.25 255.375 390.375 258.125 386.875 258.125Z" fill="white"/>
<path d="M326.843 221.126C326.003 221.126 325.247 220.982 324.575 220.694C323.903 220.394 323.375 219.974 322.991 219.434C322.607 218.894 322.415 218.264 322.415 217.544H324.611C324.659 218.084 324.869 218.528 325.241 218.876C325.625 219.224 326.159 219.398 326.843 219.398C327.551 219.398 328.103 219.23 328.499 218.894C328.895 218.546 329.093 218.102 329.093 217.562C329.093 217.142 328.967 216.8 328.715 216.536C328.475 216.272 328.169 216.068 327.797 215.924C327.437 215.78 326.933 215.624 326.285 215.456C325.469 215.24 324.803 215.024 324.287 214.808C323.783 214.58 323.351 214.232 322.991 213.764C322.631 213.296 322.451 212.672 322.451 211.892C322.451 211.172 322.631 210.542 322.991 210.002C323.351 209.462 323.855 209.048 324.503 208.76C325.151 208.472 325.901 208.328 326.753 208.328C327.965 208.328 328.955 208.634 329.723 209.246C330.503 209.846 330.935 210.674 331.019 211.73H328.751C328.715 211.274 328.499 210.884 328.103 210.56C327.707 210.236 327.185 210.074 326.537 210.074C325.949 210.074 325.469 210.224 325.097 210.524C324.725 210.824 324.539 211.256 324.539 211.82C324.539 212.204 324.653 212.522 324.881 212.774C325.121 213.014 325.421 213.206 325.781 213.35C326.141 213.494 326.633 213.65 327.257 213.818C328.085 214.046 328.757 214.274 329.273 214.502C329.801 214.73 330.245 215.084 330.605 215.564C330.977 216.032 331.163 216.662 331.163 217.454C331.163 218.09 330.989 218.69 330.641 219.254C330.305 219.818 329.807 220.274 329.147 220.622C328.499 220.958 327.731 221.126 326.843 221.126ZM342.674 215.798C342.674 216.17 342.65 216.506 342.602 216.806H335.024C335.084 217.598 335.378 218.234 335.906 218.714C336.434 219.194 337.082 219.434 337.85 219.434C338.954 219.434 339.734 218.972 340.19 218.048H342.404C342.104 218.96 341.558 219.71 340.766 220.298C339.986 220.874 339.014 221.162 337.85 221.162C336.902 221.162 336.05 220.952 335.294 220.532C334.55 220.1 333.962 219.5 333.53 218.732C333.11 217.952 332.9 217.052 332.9 216.032C332.9 215.012 333.104 214.118 333.512 213.35C333.932 212.57 334.514 211.97 335.258 211.55C336.014 211.13 336.878 210.92 337.85 210.92C338.786 210.92 339.62 211.124 340.352 211.532C341.084 211.94 341.654 212.516 342.062 213.26C342.47 213.992 342.674 214.838 342.674 215.798ZM340.532 215.15C340.52 214.394 340.25 213.788 339.722 213.332C339.194 212.876 338.54 212.648 337.76 212.648C337.052 212.648 336.446 212.876 335.942 213.332C335.438 213.776 335.138 214.382 335.042 215.15H340.532ZM344.01 215.996C344.01 215 344.214 214.118 344.622 213.35C345.042 212.582 345.606 211.988 346.314 211.568C347.034 211.136 347.826 210.92 348.69 210.92C349.47 210.92 350.148 211.076 350.724 211.388C351.312 211.688 351.78 212.066 352.128 212.522V211.082H354.198V221H352.128V219.524C351.78 219.992 351.306 220.382 350.706 220.694C350.106 221.006 349.422 221.162 348.654 221.162C347.802 221.162 347.022 220.946 346.314 220.514C345.606 220.07 345.042 219.458 344.622 218.678C344.214 217.886 344.01 216.992 344.01 215.996ZM352.128 216.032C352.128 215.348 351.984 214.754 351.696 214.25C351.42 213.746 351.054 213.362 350.598 213.098C350.142 212.834 349.65 212.702 349.122 212.702C348.594 212.702 348.102 212.834 347.646 213.098C347.19 213.35 346.818 213.728 346.53 214.232C346.254 214.724 346.116 215.312 346.116 215.996C346.116 216.68 346.254 217.28 346.53 217.796C346.818 218.312 347.19 218.708 347.646 218.984C348.114 219.248 348.606 219.38 349.122 219.38C349.65 219.38 350.142 219.248 350.598 218.984C351.054 218.72 351.42 218.336 351.696 217.832C351.984 217.316 352.128 216.716 352.128 216.032ZM358.945 212.522C359.245 212.018 359.641 211.628 360.133 211.352C360.637 211.064 361.231 210.92 361.915 210.92V213.044H361.393C360.589 213.044 359.977 213.248 359.557 213.656C359.149 214.064 358.945 214.772 358.945 215.78V221H356.893V211.082H358.945V212.522ZM363.117 216.032C363.117 215.012 363.321 214.118 363.729 213.35C364.149 212.57 364.725 211.97 365.457 211.55C366.189 211.13 367.029 210.92 367.977 210.92C369.177 210.92 370.167 211.208 370.947 211.784C371.739 212.348 372.273 213.158 372.549 214.214H370.335C370.155 213.722 369.867 213.338 369.471 213.062C369.075 212.786 368.577 212.648 367.977 212.648C367.137 212.648 366.465 212.948 365.961 213.548C365.469 214.136 365.223 214.964 365.223 216.032C365.223 217.1 365.469 217.934 365.961 218.534C366.465 219.134 367.137 219.434 367.977 219.434C369.165 219.434 369.951 218.912 370.335 217.868H372.549C372.261 218.876 371.721 219.68 370.929 220.28C370.137 220.868 369.153 221.162 367.977 221.162C367.029 221.162 366.189 220.952 365.457 220.532C364.725 220.1 364.149 219.5 363.729 218.732C363.321 217.952 363.117 217.052 363.117 216.032ZM379.724 210.92C380.48 210.92 381.152 211.082 381.74 211.406C382.34 211.73 382.808 212.21 383.144 212.846C383.492 213.482 383.666 214.25 383.666 215.15V221H381.632V215.456C381.632 214.568 381.41 213.89 380.966 213.422C380.522 212.942 379.916 212.702 379.148 212.702C378.38 212.702 377.768 212.942 377.312 213.422C376.868 213.89 376.646 214.568 376.646 215.456V221H374.594V207.68H376.646V212.234C376.994 211.814 377.432 211.49 377.96 211.262C378.5 211.034 379.088 210.92 379.724 210.92ZM399.041 208.49V210.164H395.711V221H393.659V210.164H390.311V208.49H399.041ZM405.422 221.162C404.486 221.162 403.64 220.952 402.884 220.532C402.128 220.1 401.534 219.5 401.102 218.732C400.67 217.952 400.454 217.052 400.454 216.032C400.454 215.024 400.676 214.13 401.12 213.35C401.564 212.57 402.17 211.97 402.938 211.55C403.706 211.13 404.564 210.92 405.512 210.92C406.46 210.92 407.318 211.13 408.086 211.55C408.854 211.97 409.46 212.57 409.904 213.35C410.348 214.13 410.57 215.024 410.57 216.032C410.57 217.04 410.342 217.934 409.886 218.714C409.43 219.494 408.806 220.1 408.014 220.532C407.234 220.952 406.37 221.162 405.422 221.162ZM405.422 219.38C405.95 219.38 406.442 219.254 406.898 219.002C407.366 218.75 407.744 218.372 408.032 217.868C408.32 217.364 408.464 216.752 408.464 216.032C408.464 215.312 408.326 214.706 408.05 214.214C407.774 213.71 407.408 213.332 406.952 213.08C406.496 212.828 406.004 212.702 405.476 212.702C404.948 212.702 404.456 212.828 404 213.08C403.556 213.332 403.202 213.71 402.938 214.214C402.674 214.706 402.542 215.312 402.542 216.032C402.542 217.1 402.812 217.928 403.352 218.516C403.904 219.092 404.594 219.38 405.422 219.38ZM416.522 216.05L421.094 221H418.322L414.65 216.734V221H412.598V207.68H414.65V215.42L418.25 211.082H421.094L416.522 216.05ZM431.655 215.798C431.655 216.17 431.631 216.506 431.583 216.806H424.005C424.065 217.598 424.359 218.234 424.887 218.714C425.415 219.194 426.063 219.434 426.831 219.434C427.935 219.434 428.715 218.972 429.171 218.048H431.385C431.085 218.96 430.539 219.71 429.747 220.298C428.967 220.874 427.995 221.162 426.831 221.162C425.883 221.162 425.031 220.952 424.275 220.532C423.531 220.1 422.943 219.5 422.511 218.732C422.091 217.952 421.881 217.052 421.881 216.032C421.881 215.012 422.085 214.118 422.493 213.35C422.913 212.57 423.495 211.97 424.239 211.55C424.995 211.13 425.859 210.92 426.831 210.92C427.767 210.92 428.601 211.124 429.333 211.532C430.065 211.94 430.635 212.516 431.043 213.26C431.451 213.992 431.655 214.838 431.655 215.798ZM429.513 215.15C429.501 214.394 429.231 213.788 428.703 213.332C428.175 212.876 427.521 212.648 426.741 212.648C426.033 212.648 425.427 212.876 424.923 213.332C424.419 213.776 424.119 214.382 424.023 215.15H429.513ZM438.678 210.92C439.458 210.92 440.154 211.082 440.766 211.406C441.39 211.73 441.876 212.21 442.224 212.846C442.572 213.482 442.746 214.25 442.746 215.15V221H440.712V215.456C440.712 214.568 440.49 213.89 440.046 213.422C439.602 212.942 438.996 212.702 438.228 212.702C437.46 212.702 436.848 212.942 436.392 213.422C435.948 213.89 435.726 214.568 435.726 215.456V221H433.674V211.082H435.726V212.216C436.062 211.808 436.488 211.49 437.004 211.262C437.532 211.034 438.09 210.92 438.678 210.92ZM448.964 221.162C448.184 221.162 447.482 221.024 446.858 220.748C446.246 220.46 445.76 220.076 445.4 219.596C445.04 219.104 444.848 218.558 444.824 217.958H446.948C446.984 218.378 447.182 218.732 447.542 219.02C447.914 219.296 448.376 219.434 448.928 219.434C449.504 219.434 449.948 219.326 450.26 219.11C450.584 218.882 450.746 218.594 450.746 218.246C450.746 217.874 450.566 217.598 450.206 217.418C449.858 217.238 449.3 217.04 448.532 216.824C447.788 216.62 447.182 216.422 446.714 216.23C446.246 216.038 445.838 215.744 445.49 215.348C445.154 214.952 444.986 214.43 444.986 213.782C444.986 213.254 445.142 212.774 445.454 212.342C445.766 211.898 446.21 211.55 446.786 211.298C447.374 211.046 448.046 210.92 448.802 210.92C449.93 210.92 450.836 211.208 451.52 211.784C452.216 212.348 452.588 213.122 452.636 214.106H450.584C450.548 213.662 450.368 213.308 450.044 213.044C449.72 212.78 449.282 212.648 448.73 212.648C448.19 212.648 447.776 212.75 447.488 212.954C447.2 213.158 447.056 213.428 447.056 213.764C447.056 214.028 447.152 214.25 447.344 214.43C447.536 214.61 447.77 214.754 448.046 214.862C448.322 214.958 448.73 215.084 449.27 215.24C449.99 215.432 450.578 215.63 451.034 215.834C451.502 216.026 451.904 216.314 452.24 216.698C452.576 217.082 452.75 217.592 452.762 218.228C452.762 218.792 452.606 219.296 452.294 219.74C451.982 220.184 451.538 220.532 450.962 220.784C450.398 221.036 449.732 221.162 448.964 221.162Z" fill="white"/>
</g>
</g>
<rect x="284" y="72" width="200" height="32" rx="6" fill="#1F2128"/>
<rect x="292" y="78" width="20" height="20" rx="10" fill="#383736"/>
<g clip-path="url(#clip3_1419_24996)">
<path fill-rule="evenodd" clip-rule="evenodd" d="M301.984 91.7745L297.626 89.4805L301.984 80.503V80.5L306.357 89.4805L301.984 91.7745Z" fill="white"/>
<path fill-rule="evenodd" clip-rule="evenodd" d="M301.983 95.4996L297.625 89.8086L301.983 92.2001L306.357 89.8086L301.983 95.4996Z" fill="white"/>
</g>
<path fill-rule="evenodd" clip-rule="evenodd" d="M470.448 90.5729C470.142 90.2678 470.142 89.7732 470.448 89.4681L473.718 86.1979C474.023 85.8928 474.517 85.8928 474.823 86.1979C475.128 86.503 475.128 86.9977 474.823 87.3028L471.552 90.5729C471.247 90.878 470.753 90.878 470.448 90.5729Z" fill="white"/>
<path fill-rule="evenodd" clip-rule="evenodd" d="M467.177 86.1979C467.483 85.8928 467.977 85.8928 468.282 86.1979L471.552 89.4681C471.858 89.7732 471.858 90.2678 471.552 90.5729C471.247 90.878 470.753 90.878 470.448 90.5729L467.177 87.3028C466.872 86.9977 466.872 86.503 467.177 86.1979Z" fill="white"/>
<path d="M320.646 84.558V87.414H324.006V88.716H320.646V91.698H324.426V93H319.05V83.256H324.426V84.558H320.646ZM328.254 86.588V90.858C328.254 91.1473 328.319 91.3573 328.45 91.488C328.59 91.6093 328.823 91.67 329.15 91.67H330.13V93H328.87C328.151 93 327.6 92.832 327.218 92.496C326.835 92.16 326.644 91.614 326.644 90.858V86.588H325.734V85.286H326.644V83.368H328.254V85.286H330.13V86.588H328.254ZM335.591 85.16C336.179 85.16 336.701 85.286 337.159 85.538C337.625 85.79 337.989 86.1633 338.251 86.658C338.521 87.1527 338.657 87.75 338.657 88.45V93H337.075V88.688C337.075 87.9973 336.902 87.47 336.557 87.106C336.211 86.7327 335.74 86.546 335.143 86.546C334.545 86.546 334.069 86.7327 333.715 87.106C333.369 87.47 333.197 87.9973 333.197 88.688V93H331.601V82.64H333.197V86.182C333.467 85.8553 333.808 85.6033 334.219 85.426C334.639 85.2487 335.096 85.16 335.591 85.16ZM347.763 88.954C347.763 89.2433 347.744 89.5047 347.707 89.738H341.813C341.859 90.354 342.088 90.8487 342.499 91.222C342.909 91.5953 343.413 91.782 344.011 91.782C344.869 91.782 345.476 91.4227 345.831 90.704H347.553C347.319 91.4133 346.895 91.9967 346.279 92.454C345.672 92.902 344.916 93.126 344.011 93.126C343.273 93.126 342.611 92.9627 342.023 92.636C341.444 92.3 340.987 91.8333 340.651 91.236C340.324 90.6293 340.161 89.9293 340.161 89.136C340.161 88.3427 340.319 87.6473 340.637 87.05C340.963 86.4433 341.416 85.9767 341.995 85.65C342.583 85.3233 343.255 85.16 344.011 85.16C344.739 85.16 345.387 85.3187 345.957 85.636C346.526 85.9533 346.969 86.4013 347.287 86.98C347.604 87.5493 347.763 88.2073 347.763 88.954ZM346.097 88.45C346.087 87.862 345.877 87.3907 345.467 87.036C345.056 86.6813 344.547 86.504 343.941 86.504C343.39 86.504 342.919 86.6813 342.527 87.036C342.135 87.3813 341.901 87.8527 341.827 88.45H346.097ZM350.929 86.406C351.163 86.014 351.471 85.7107 351.853 85.496C352.245 85.272 352.707 85.16 353.239 85.16V86.812H352.833C352.208 86.812 351.732 86.9707 351.405 87.288C351.088 87.6053 350.929 88.156 350.929 88.94V93H349.333V85.286H350.929V86.406ZM361.776 88.954C361.776 89.2433 361.758 89.5047 361.72 89.738H355.826C355.873 90.354 356.102 90.8487 356.512 91.222C356.923 91.5953 357.427 91.782 358.024 91.782C358.883 91.782 359.49 91.4227 359.844 90.704H361.566C361.333 91.4133 360.908 91.9967 360.292 92.454C359.686 92.902 358.93 93.126 358.024 93.126C357.287 93.126 356.624 92.9627 356.036 92.636C355.458 92.3 355 91.8333 354.664 91.236C354.338 90.6293 354.174 89.9293 354.174 89.136C354.174 88.3427 354.333 87.6473 354.65 87.05C354.977 86.4433 355.43 85.9767 356.008 85.65C356.596 85.3233 357.268 85.16 358.024 85.16C358.752 85.16 359.401 85.3187 359.97 85.636C360.54 85.9533 360.983 86.4013 361.3 86.98C361.618 87.5493 361.776 88.2073 361.776 88.954ZM360.11 88.45C360.101 87.862 359.891 87.3907 359.48 87.036C359.07 86.6813 358.561 86.504 357.954 86.504C357.404 86.504 356.932 86.6813 356.54 87.036C356.148 87.3813 355.915 87.8527 355.84 88.45H360.11ZM370.333 85.286V93H368.737V92.09C368.485 92.4073 368.154 92.6593 367.743 92.846C367.342 93.0233 366.912 93.112 366.455 93.112C365.848 93.112 365.302 92.986 364.817 92.734C364.341 92.482 363.963 92.1087 363.683 91.614C363.412 91.1193 363.277 90.522 363.277 89.822V85.286H364.859V89.584C364.859 90.2747 365.032 90.8067 365.377 91.18C365.722 91.544 366.194 91.726 366.791 91.726C367.388 91.726 367.86 91.544 368.205 91.18C368.56 90.8067 368.737 90.2747 368.737 89.584V85.286H370.333ZM381.777 85.16C382.383 85.16 382.925 85.286 383.401 85.538C383.886 85.79 384.264 86.1633 384.535 86.658C384.815 87.1527 384.955 87.75 384.955 88.45V93H383.373V88.688C383.373 87.9973 383.2 87.47 382.855 87.106C382.509 86.7327 382.038 86.546 381.441 86.546C380.843 86.546 380.367 86.7327 380.013 87.106C379.667 87.47 379.495 87.9973 379.495 88.688V93H377.913V88.688C377.913 87.9973 377.74 87.47 377.395 87.106C377.049 86.7327 376.578 86.546 375.981 86.546C375.383 86.546 374.907 86.7327 374.553 87.106C374.207 87.47 374.035 87.9973 374.035 88.688V93H372.439V85.286H374.035V86.168C374.296 85.8507 374.627 85.6033 375.029 85.426C375.43 85.2487 375.859 85.16 376.317 85.16C376.933 85.16 377.483 85.2907 377.969 85.552C378.454 85.8133 378.827 86.1913 379.089 86.686C379.322 86.2193 379.686 85.8507 380.181 85.58C380.675 85.3 381.207 85.16 381.777 85.16Z" fill="white"/>
<path d="M292.596 400.28C290.991 400.28 289.628 399.86 288.508 399.02C287.407 398.161 286.567 396.976 285.988 395.464C285.409 393.933 285.12 392.179 285.12 390.2C285.12 388.203 285.409 386.448 285.988 384.936C286.567 383.424 287.407 382.248 288.508 381.408C289.628 380.549 290.991 380.12 292.596 380.12C294.201 380.12 295.555 380.549 296.656 381.408C297.776 382.248 298.625 383.424 299.204 384.936C299.783 386.448 300.072 388.203 300.072 390.2C300.072 392.179 299.783 393.933 299.204 395.464C298.625 396.976 297.776 398.161 296.656 399.02C295.555 399.86 294.201 400.28 292.596 400.28ZM292.596 396.92C293.38 396.92 294.052 396.677 294.612 396.192C295.191 395.688 295.639 394.941 295.956 393.952C296.273 392.944 296.432 391.693 296.432 390.2C296.432 388.688 296.273 387.437 295.956 386.448C295.639 385.459 295.191 384.721 294.612 384.236C294.052 383.732 293.38 383.48 292.596 383.48C291.831 383.48 291.159 383.732 290.58 384.236C290.001 384.721 289.553 385.459 289.236 386.448C288.919 387.437 288.76 388.688 288.76 390.2C288.76 391.693 288.919 392.944 289.236 393.952C289.553 394.941 290.001 395.688 290.58 396.192C291.159 396.677 291.831 396.92 292.596 396.92Z" fill="#C6C6D1"/>
<g opacity="0.96">
<path d="M35.28 2.98L27.864 28H23.22L17.964 9.064L12.384 28L7.776 28.036L0.684 2.98H5.04L10.224 23.356L15.84 2.98H20.448L25.668 23.248L30.888 2.98H35.28ZM40.7528 5.536C40.0088 5.536 39.3848 5.284 38.8808 4.78C38.3768 4.276 38.1248 3.652 38.1248 2.908C38.1248 2.164 38.3768 1.54 38.8808 1.036C39.3848 0.531999 40.0088 0.279999 40.7528 0.279999C41.4728 0.279999 42.0848 0.531999 42.5888 1.036C43.0928 1.54 43.3448 2.164 43.3448 2.908C43.3448 3.652 43.0928 4.276 42.5888 4.78C42.0848 5.284 41.4728 5.536 40.7528 5.536ZM42.7688 8.164V28H38.6648V8.164H42.7688ZM52.945 11.512V22.492C52.945 23.236 53.113 23.776 53.449 24.112C53.809 24.424 54.409 24.58 55.249 24.58H57.769V28H54.529C52.681 28 51.265 27.568 50.281 26.704C49.297 25.84 48.805 24.436 48.805 22.492V11.512H46.465V8.164H48.805V3.232H52.945V8.164H57.769V11.512H52.945ZM71.8116 7.84C73.3236 7.84 74.6676 8.164 75.8436 8.812C77.0436 9.46 77.9796 10.42 78.6516 11.692C79.3476 12.964 79.6956 14.5 79.6956 16.3V28H75.6276V16.912C75.6276 15.136 75.1836 13.78 74.2956 12.844C73.4076 11.884 72.1956 11.404 70.6596 11.404C69.1236 11.404 67.8996 11.884 66.9876 12.844C66.0996 13.78 65.6556 15.136 65.6556 16.912V28H61.5516V1.36H65.6556V10.468C66.3516 9.628 67.2276 8.98 68.2836 8.524C69.3636 8.068 70.5396 7.84 71.8116 7.84ZM83.5625 17.992C83.5625 16 83.9705 14.236 84.7865 12.7C85.6265 11.164 86.7545 9.976 88.1705 9.136C89.6105 8.272 91.2065 7.84 92.9585 7.84C94.2545 7.84 95.5265 8.128 96.7745 8.704C98.0465 9.256 99.0545 10 99.7985 10.936V1.36H103.938V28H99.7985V25.012C99.1265 25.972 98.1905 26.764 96.9905 27.388C95.8145 28.012 94.4585 28.324 92.9225 28.324C91.1945 28.324 89.6105 27.892 88.1705 27.028C86.7545 26.14 85.6265 24.916 84.7865 23.356C83.9705 21.772 83.5625 19.984 83.5625 17.992ZM99.7985 18.064C99.7985 16.696 99.5105 15.508 98.9345 14.5C98.3825 13.492 97.6505 12.724 96.7385 12.196C95.8265 11.668 94.8425 11.404 93.7865 11.404C92.7305 11.404 91.7465 11.668 90.8345 12.196C89.9225 12.7 89.1785 13.456 88.6025 14.464C88.0505 15.448 87.7745 16.624 87.7745 17.992C87.7745 19.36 88.0505 20.56 88.6025 21.592C89.1785 22.624 89.9225 23.416 90.8345 23.968C91.7705 24.496 92.7545 24.76 93.7865 24.76C94.8425 24.76 95.8265 24.496 96.7385 23.968C97.6505 23.44 98.3825 22.672 98.9345 21.664C99.5105 20.632 99.7985 19.432 99.7985 18.064ZM113.433 11.044C114.033 10.036 114.825 9.256 115.809 8.704C116.817 8.128 118.005 7.84 119.373 7.84V12.088H118.329C116.721 12.088 115.497 12.496 114.657 13.312C113.841 14.128 113.433 15.544 113.433 17.56V28H109.329V8.164H113.433V11.044ZM121.777 17.992C121.777 16 122.185 14.236 123.001 12.7C123.841 11.164 124.969 9.976 126.385 9.136C127.825 8.272 129.409 7.84 131.137 7.84C132.697 7.84 134.053 8.152 135.205 8.776C136.381 9.376 137.317 10.132 138.013 11.044V8.164H142.153V28H138.013V25.048C137.317 25.984 136.369 26.764 135.169 27.388C133.969 28.012 132.601 28.324 131.065 28.324C129.361 28.324 127.801 27.892 126.385 27.028C124.969 26.14 123.841 24.916 123.001 23.356C122.185 21.772 121.777 19.984 121.777 17.992ZM138.013 18.064C138.013 16.696 137.725 15.508 137.149 14.5C136.597 13.492 135.865 12.724 134.953 12.196C134.041 11.668 133.057 11.404 132.001 11.404C130.945 11.404 129.961 11.668 129.049 12.196C128.137 12.7 127.393 13.456 126.817 14.464C126.265 15.448 125.989 16.624 125.989 17.992C125.989 19.36 126.265 20.56 126.817 21.592C127.393 22.624 128.137 23.416 129.049 23.968C129.985 24.496 130.969 24.76 132.001 24.76C133.057 24.76 134.041 24.496 134.953 23.968C135.865 23.44 136.597 22.672 137.149 21.664C137.725 20.632 138.013 19.432 138.013 18.064ZM174.184 8.164L168.028 28H163.708L159.712 13.348L155.716 28H151.396L145.204 8.164H149.38L153.52 24.112L157.732 8.164H162.016L166.048 24.04L170.152 8.164H174.184Z" fill="white"/>
<path d="M290.864 2.98V6.328H284.204V28H280.1V6.328H273.404V2.98H290.864ZM303.624 28.324C301.752 28.324 300.06 27.904 298.548 27.064C297.036 26.2 295.848 25 294.984 23.464C294.12 21.904 293.688 20.104 293.688 18.064C293.688 16.048 294.132 14.26 295.02 12.7C295.908 11.14 297.12 9.94 298.656 9.1C300.192 8.26 301.908 7.84 303.804 7.84C305.7 7.84 307.416 8.26 308.952 9.1C310.488 9.94 311.7 11.14 312.588 12.7C313.476 14.26 313.92 16.048 313.92 18.064C313.92 20.08 313.464 21.868 312.552 23.428C311.64 24.988 310.392 26.2 308.808 27.064C307.248 27.904 305.52 28.324 303.624 28.324ZM303.624 24.76C304.68 24.76 305.664 24.508 306.576 24.004C307.512 23.5 308.268 22.744 308.844 21.736C309.42 20.728 309.708 19.504 309.708 18.064C309.708 16.624 309.432 15.412 308.88 14.428C308.328 13.42 307.596 12.664 306.684 12.16C305.772 11.656 304.788 11.404 303.732 11.404C302.676 11.404 301.692 11.656 300.78 12.16C299.892 12.664 299.184 13.42 298.656 14.428C298.128 15.412 297.864 16.624 297.864 18.064C297.864 20.2 298.404 21.856 299.484 23.032C300.588 24.184 301.968 24.76 303.624 24.76Z" fill="white"/>
</g>
<g opacity="0.15">
<rect y="469" width="496" height="48" rx="8" fill="#17181D"/>
<path d="M184.873 493.4C184.873 492.301 185.118 491.32 185.609 490.456C186.11 489.581 186.787 488.904 187.641 488.424C188.505 487.933 189.47 487.688 190.537 487.688C191.785 487.688 192.878 488.008 193.817 488.648C194.755 489.288 195.411 490.173 195.785 491.304H193.209C192.953 490.771 192.59 490.371 192.121 490.104C191.662 489.837 191.129 489.704 190.521 489.704C189.87 489.704 189.289 489.859 188.777 490.168C188.275 490.467 187.881 490.893 187.593 491.448C187.315 492.003 187.177 492.653 187.177 493.4C187.177 494.136 187.315 494.787 187.593 495.352C187.881 495.907 188.275 496.339 188.777 496.648C189.289 496.947 189.87 497.096 190.521 497.096C191.129 497.096 191.662 496.963 192.121 496.696C192.59 496.419 192.953 496.013 193.209 495.48H195.785C195.411 496.621 194.755 497.512 193.817 498.152C192.889 498.781 191.795 499.096 190.537 499.096C189.47 499.096 188.505 498.856 187.641 498.376C186.787 497.885 186.11 497.208 185.609 496.344C185.118 495.48 184.873 494.499 184.873 493.4ZM201.634 499.144C200.78 499.144 200.012 498.957 199.33 498.584C198.647 498.2 198.108 497.661 197.714 496.968C197.33 496.275 197.138 495.475 197.138 494.568C197.138 493.661 197.335 492.861 197.73 492.168C198.135 491.475 198.684 490.941 199.378 490.568C200.071 490.184 200.844 489.992 201.698 489.992C202.551 489.992 203.324 490.184 204.018 490.568C204.711 490.941 205.255 491.475 205.65 492.168C206.055 492.861 206.258 493.661 206.258 494.568C206.258 495.475 206.05 496.275 205.634 496.968C205.228 497.661 204.674 498.2 203.97 498.584C203.276 498.957 202.498 499.144 201.634 499.144ZM201.634 497.192C202.039 497.192 202.418 497.096 202.77 496.904C203.132 496.701 203.42 496.403 203.634 496.008C203.847 495.613 203.954 495.133 203.954 494.568C203.954 493.725 203.73 493.08 203.282 492.632C202.844 492.173 202.306 491.944 201.666 491.944C201.026 491.944 200.487 492.173 200.05 492.632C199.623 493.08 199.41 493.725 199.41 494.568C199.41 495.411 199.618 496.061 200.034 496.52C200.46 496.968 200.994 497.192 201.634 497.192ZM212.813 490.008C213.869 490.008 214.722 490.344 215.373 491.016C216.024 491.677 216.349 492.605 216.349 493.8V499H214.109V494.104C214.109 493.4 213.933 492.861 213.581 492.488C213.229 492.104 212.749 491.912 212.141 491.912C211.522 491.912 211.032 492.104 210.669 492.488C210.317 492.861 210.141 493.4 210.141 494.104V499H207.901V490.136H210.141V491.24C210.44 490.856 210.818 490.557 211.277 490.344C211.746 490.12 212.258 490.008 212.813 490.008ZM223.391 490.008C224.447 490.008 225.3 490.344 225.951 491.016C226.602 491.677 226.927 492.605 226.927 493.8V499H224.687V494.104C224.687 493.4 224.511 492.861 224.159 492.488C223.807 492.104 223.327 491.912 222.719 491.912C222.1 491.912 221.61 492.104 221.247 492.488C220.895 492.861 220.719 493.4 220.719 494.104V499H218.479V490.136H220.719V491.24C221.018 490.856 221.396 490.557 221.855 490.344C222.324 490.12 222.836 490.008 223.391 490.008ZM237.297 494.376C237.297 494.696 237.276 494.984 237.233 495.24H230.753C230.806 495.88 231.03 496.381 231.425 496.744C231.82 497.107 232.305 497.288 232.881 497.288C233.713 497.288 234.305 496.931 234.657 496.216H237.073C236.817 497.069 236.326 497.773 235.601 498.328C234.876 498.872 233.985 499.144 232.929 499.144C232.076 499.144 231.308 498.957 230.625 498.584C229.953 498.2 229.425 497.661 229.041 496.968C228.668 496.275 228.481 495.475 228.481 494.568C228.481 493.651 228.668 492.845 229.041 492.152C229.414 491.459 229.937 490.925 230.609 490.552C231.281 490.179 232.054 489.992 232.929 489.992C233.772 489.992 234.524 490.173 235.185 490.536C235.857 490.899 236.374 491.416 236.737 492.088C237.11 492.749 237.297 493.512 237.297 494.376ZM234.977 493.736C234.966 493.16 234.758 492.701 234.353 492.36C233.948 492.008 233.452 491.832 232.865 491.832C232.31 491.832 231.841 492.003 231.457 492.344C231.084 492.675 230.854 493.139 230.769 493.736H234.977ZM238.356 494.568C238.356 493.651 238.543 492.851 238.916 492.168C239.289 491.475 239.807 490.941 240.468 490.568C241.129 490.184 241.887 489.992 242.74 489.992C243.839 489.992 244.745 490.269 245.46 490.824C246.185 491.368 246.671 492.136 246.916 493.128H244.5C244.372 492.744 244.153 492.445 243.844 492.232C243.545 492.008 243.172 491.896 242.724 491.896C242.084 491.896 241.577 492.131 241.204 492.6C240.831 493.059 240.644 493.715 240.644 494.568C240.644 495.411 240.831 496.067 241.204 496.536C241.577 496.995 242.084 497.224 242.724 497.224C243.631 497.224 244.223 496.819 244.5 496.008H246.916C246.671 496.968 246.185 497.731 245.46 498.296C244.735 498.861 243.828 499.144 242.74 499.144C241.887 499.144 241.129 498.957 240.468 498.584C239.807 498.2 239.289 497.667 238.916 496.984C238.543 496.291 238.356 495.485 238.356 494.568ZM251.165 491.976V496.264C251.165 496.563 251.234 496.781 251.373 496.92C251.522 497.048 251.768 497.112 252.109 497.112H253.149V499H251.741C249.853 499 248.909 498.083 248.909 496.248V491.976H247.853V490.136H248.909V487.944H251.165V490.136H253.149V491.976H251.165ZM273.501 487.832L270.381 499H267.741L265.645 491.048L263.453 499L260.829 499.016L257.821 487.832H260.221L262.189 496.504L264.461 487.832H266.957L269.101 496.456L271.085 487.832H273.501ZM274.387 494.536C274.387 493.64 274.563 492.845 274.915 492.152C275.278 491.459 275.763 490.925 276.371 490.552C276.99 490.179 277.678 489.992 278.435 489.992C279.097 489.992 279.673 490.125 280.163 490.392C280.665 490.659 281.065 490.995 281.363 491.4V490.136H283.619V499H281.363V497.704C281.075 498.12 280.675 498.467 280.163 498.744C279.662 499.011 279.081 499.144 278.419 499.144C277.673 499.144 276.99 498.952 276.371 498.568C275.763 498.184 275.278 497.645 274.915 496.952C274.563 496.248 274.387 495.443 274.387 494.536ZM281.363 494.568C281.363 494.024 281.257 493.56 281.043 493.176C280.83 492.781 280.542 492.483 280.179 492.28C279.817 492.067 279.427 491.96 279.011 491.96C278.595 491.96 278.211 492.061 277.859 492.264C277.507 492.467 277.219 492.765 276.995 493.16C276.782 493.544 276.675 494.003 276.675 494.536C276.675 495.069 276.782 495.539 276.995 495.944C277.219 496.339 277.507 496.643 277.859 496.856C278.222 497.069 278.606 497.176 279.011 497.176C279.427 497.176 279.817 497.075 280.179 496.872C280.542 496.659 280.83 496.36 281.043 495.976C281.257 495.581 281.363 495.112 281.363 494.568ZM288.047 487.16V499H285.807V487.16H288.047ZM292.5 487.16V499H290.26V487.16H292.5ZM302.953 494.376C302.953 494.696 302.932 494.984 302.889 495.24H296.409C296.463 495.88 296.687 496.381 297.081 496.744C297.476 497.107 297.961 497.288 298.537 497.288C299.369 497.288 299.961 496.931 300.313 496.216H302.729C302.473 497.069 301.983 497.773 301.257 498.328C300.532 498.872 299.641 499.144 298.585 499.144C297.732 499.144 296.964 498.957 296.281 498.584C295.609 498.2 295.081 497.661 294.697 496.968C294.324 496.275 294.137 495.475 294.137 494.568C294.137 493.651 294.324 492.845 294.697 492.152C295.071 491.459 295.593 490.925 296.265 490.552C296.937 490.179 297.711 489.992 298.585 489.992C299.428 489.992 300.18 490.173 300.841 490.536C301.513 490.899 302.031 491.416 302.393 492.088C302.767 492.749 302.953 493.512 302.953 494.376ZM300.633 493.736C300.623 493.16 300.415 492.701 300.009 492.36C299.604 492.008 299.108 491.832 298.521 491.832C297.967 491.832 297.497 492.003 297.113 492.344C296.74 492.675 296.511 493.139 296.425 493.736H300.633ZM307.196 491.976V496.264C307.196 496.563 307.266 496.781 307.404 496.92C307.554 497.048 307.799 497.112 308.14 497.112H309.18V499H307.772C305.884 499 304.94 498.083 304.94 496.248V491.976H303.884V490.136H304.94V487.944H307.196V490.136H309.18V491.976H307.196Z" fill="#8E8E92"/>
</g>
<defs>
<clipPath id="clip0_1419_24996">
<rect x="12" y="116" width="200" height="248" rx="16" fill="white"/>
</clipPath>
<clipPath id="clip1_1419_24996">
<rect width="19.5833" height="17.029" fill="white" transform="translate(20.2083 79.458)"/>
</clipPath>
<clipPath id="clip2_1419_24996">
<rect x="284" y="116" width="200" height="248" rx="16" fill="white"/>
</clipPath>
<clipPath id="clip3_1419_24996">
<rect width="8.732" height="15" fill="white" transform="translate(297.625 80.5)"/>
</clipPath>
</defs>
</svg>
