<svg width="16" height="16" viewBox="0 0 16 16" fill="none" xmlns="http://www.w3.org/2000/svg">
<g clip-path="url(#clip0_2668_7352)">
<path fill-rule="evenodd" clip-rule="evenodd" d="M12.9359 10.0433C13.3562 9.65053 13.3545 9.00731 12.9322 8.61648C12.5204 8.2353 11.8612 8.23669 11.4512 8.61981L9.05645 10.8579L9.05645 2.75002C9.05645 2.18094 8.56609 1.75 8 1.75C7.43391 1.75 6.94355 2.18094 6.94355 2.75002L6.94355 10.8578L4.54875 8.61984C4.13876 8.23672 3.47957 8.23534 3.06777 8.61651C2.64546 9.00736 2.64392 9.65063 3.06414 10.0434L7.25796 13.9626C7.66912 14.3457 8.33124 14.3454 8.74154 13.963L12.9359 10.0433Z" fill="white"/>
</g>
<defs>
<clipPath id="clip0_2668_7352">
<rect x="16" width="16" height="16" rx="2.22222" transform="rotate(90 16 0)" fill="white"/>
</clipPath>
</defs>
</svg>
