<svg width="14" height="16" viewBox="0 0 14 16" fill="none" xmlns="http://www.w3.org/2000/svg">
<path fill-rule="evenodd" clip-rule="evenodd" d="M7.25936 2.01268C9.18624 2.01268 10.9018 2.91872 12.0002 4.32866L9.75424 4.16172C9.41952 4.13685 9.128 4.38738 9.10312 4.72132C9.07816 5.05526 9.32928 5.34613 9.66392 5.37101L13.1123 5.62731C13.275 5.6394 13.4356 5.58578 13.5582 5.47851C13.6808 5.37125 13.755 5.21933 13.7642 5.0569L13.962 1.5669C13.981 1.23258 13.7246 0.946233 13.3896 0.927329C13.0545 0.908425 12.7675 1.16413 12.7486 1.49846L12.6513 3.21482C11.3299 1.73378 9.40424 0.800049 7.25936 0.800049C3.27385 0.800049 0.0429688 4.0236 0.0429688 8.00005C0.0429688 11.9765 3.27385 15.2 7.25936 15.2C9.01568 15.2 10.6269 14.5732 11.8782 13.5323C12.1359 13.3178 12.1706 12.9355 11.9557 12.6783C11.7408 12.4212 11.3576 12.3865 11.0998 12.6009C10.0589 13.4669 8.7208 13.9874 7.25936 13.9874C3.94509 13.9874 1.25836 11.3068 1.25836 8.00005C1.25836 4.69331 3.94509 2.01268 7.25936 2.01268Z" fill="#DB00FF"/>
</svg>
