<svg width="20" height="20" viewBox="0 0 20 20" fill="none" xmlns="http://www.w3.org/2000/svg">
<g clip-path="url(#clip0_2668_13745)">
<rect width="20" height="20" rx="10" fill="#2775CA"/>
<path d="M10 20C15.5417 20 20 15.5417 20 10C20 4.4583 15.5417 0 10 0C4.4583 0 0 4.4583 0 10C0 15.5417 4.4583 20 10 20Z" fill="#2775CA"/>
<path d="M12.7503 11.5833C12.7503 10.125 11.8753 9.62495 10.1253 9.41665C8.87529 9.24995 8.62529 8.91665 8.62529 8.33325C8.62529 7.74985 9.04199 7.37495 9.87529 7.37495C10.6253 7.37495 11.042 7.62495 11.2503 8.24995C11.292 8.37495 11.417 8.45825 11.542 8.45825H12.2086C12.3753 8.45825 12.5003 8.33325 12.5003 8.16665V8.12495C12.3336 7.20825 11.5836 6.49995 10.6253 6.41665V5.41665C10.6253 5.24995 10.5003 5.12495 10.292 5.08325H9.66699C9.50029 5.08325 9.37529 5.20825 9.33359 5.41665V6.37495C8.08359 6.54165 7.29199 7.37495 7.29199 8.41665C7.29199 9.79165 8.12529 10.3333 9.87529 10.5417C11.042 10.75 11.417 11 11.417 11.6667C11.417 12.3334 10.8336 12.7917 10.042 12.7917C8.95859 12.7917 8.58359 12.3333 8.45859 11.7083C8.41699 11.5417 8.29199 11.4583 8.16699 11.4583H7.45859C7.29199 11.4583 7.16699 11.5833 7.16699 11.75V11.7917C7.33359 12.8333 8.00029 13.5833 9.37529 13.7917V14.7917C9.37529 14.9583 9.50029 15.0833 9.70859 15.125H10.3336C10.5003 15.125 10.6253 15 10.667 14.7917V13.7917C11.917 13.5833 12.7503 12.7083 12.7503 11.5833Z" fill="white"/>
<path d="M7.87484 15.9583C4.62484 14.7917 2.95814 11.1667 4.16654 7.95835C4.79154 6.20835 6.16654 4.87505 7.87484 4.25005C8.04154 4.16675 8.12484 4.04175 8.12484 3.83335V3.25005C8.12484 3.08335 8.04154 2.95835 7.87484 2.91675C7.83314 2.91675 7.74984 2.91675 7.70814 2.95835C3.74984 4.20835 1.58314 8.41675 2.83314 12.375C3.58314 14.7083 5.37484 16.5 7.70814 17.25C7.87484 17.3333 8.04154 17.25 8.08314 17.0833C8.12484 17.0417 8.12484 17 8.12484 16.9167V16.3333C8.12484 16.2083 7.99984 16.0417 7.87484 15.9583ZM12.2915 2.95835C12.1248 2.87505 11.9581 2.95835 11.9165 3.12505C11.8748 3.16675 11.8748 3.20835 11.8748 3.29175V3.87505C11.8748 4.04175 11.9998 4.20835 12.1248 4.29175C15.3748 5.45835 17.0415 9.08335 15.8331 12.2917C15.2081 14.0417 13.8331 15.375 12.1248 16C11.9581 16.0833 11.8748 16.2083 11.8748 16.4167V17C11.8748 17.1667 11.9581 17.2917 12.1248 17.3333C12.1665 17.3333 12.2498 17.3333 12.2915 17.2917C16.2498 16.0417 18.4165 11.8333 17.1665 7.87505C16.4165 5.50005 14.5831 3.70835 12.2915 2.95835Z" fill="white"/>
</g>
<defs>
<clipPath id="clip0_2668_13745">
<rect width="20" height="20" rx="10" fill="white"/>
</clipPath>
</defs>
</svg>
