<svg width="14" height="14" viewBox="0 0 14 14" fill="none" xmlns="http://www.w3.org/2000/svg">
<g clip-path="url(#clip0_2453_4454)">
<path d="M12.8658 11.9792H8.56429V7.87278H8.98264C9.36248 7.87278 9.67046 8.18333 9.6679 8.56318C9.6679 8.56574 9.6679 8.56574 9.6679 8.56831V9.27924C9.6679 10.0312 10.2762 10.6395 11.0282 10.6395C11.7801 10.6395 12.3884 10.0312 12.3884 9.27924V5.219C12.3884 4.79809 12.2319 4.39258 11.9444 4.08203L9.93738 1.79526L9.5524 2.13404L11.1077 3.90751C10.5456 4.00247 10.1658 4.53374 10.2608 5.09581C10.3429 5.59371 10.7741 5.95816 11.2797 5.95816C11.4927 5.95559 11.7006 5.89143 11.8751 5.76824V9.27924C11.8751 9.74634 11.4953 10.1262 11.0282 10.1262C10.561 10.1262 10.1812 9.74634 10.1812 9.27924V8.56831C10.1838 7.90358 9.64737 7.36204 8.9852 7.35948H8.98264H8.56429V2.57805C8.56429 1.99288 8.09205 1.50781 7.50689 1.50781H2.73829C2.15313 1.50781 1.68602 1.99545 1.68602 2.57805V11.9792H1.13165C0.990493 11.9792 0.875 12.0947 0.875 12.2359C0.875 12.377 0.990493 12.4925 1.13165 12.4925H12.8683C13.0095 12.4925 13.125 12.377 13.125 12.2359C13.125 12.0947 13.0095 11.9792 12.8658 11.9792ZM11.2797 5.44229C10.9922 5.44229 10.7612 5.20873 10.7612 4.92385C10.7612 4.63897 10.9948 4.40541 11.2797 4.40541C11.5671 4.40541 11.7981 4.63897 11.7981 4.92385C11.7981 5.20873 11.5646 5.44229 11.2797 5.44229Z" fill="#A0A3AD"/>
<path d="M7.43611 2.76562H2.89337C2.75221 2.76562 2.63672 2.88112 2.63672 3.02228V6.0251C2.63672 6.16626 2.75221 6.28176 2.89337 6.28176H7.43611C7.57727 6.28176 7.69276 6.16626 7.69276 6.0251V3.02228C7.69276 2.88112 7.57727 2.76562 7.43611 2.76562Z" fill="#15161D"/>
</g>
<defs>
<clipPath id="clip0_2453_4454">
<rect width="12.25" height="12.25" fill="white" transform="translate(0.875 0.875)"/>
</clipPath>
</defs>
</svg>
