<svg width="17" height="16" viewBox="0 0 17 16" fill="none"
  xmlns="http://www.w3.org/2000/svg">
  <g clip-path="url(#clip0_4962_225097)">
    <path d="M8.61328 2C5.29709 2 2.61328 4.6835 2.61328 8C2.61328 11.3161 5.29678 14 8.61328 14C11.9295 14 14.6133 11.3165 14.6133 8C14.6133 4.6838 11.9298 2 8.61328 2ZM8.61328 13.1628C5.76652 13.1628 3.45049 10.8468 3.45049 8C3.45049 5.15321 5.76652 2.83721 8.61328 2.83721C11.4601 2.83721 13.7761 5.15321 13.7761 8C13.7761 10.8468 11.4601 13.1628 8.61328 13.1628Z" fill="#007AFF"/>
    <path d="M8.43617 9.5918C8.10446 9.5918 7.83594 9.86822 7.83594 10.1999C7.83594 10.5237 8.09656 10.8081 8.43617 10.8081C8.77578 10.8081 9.04428 10.5237 9.04428 10.1999C9.04428 9.86822 8.76786 9.5918 8.43617 9.5918Z" fill="#007AFF"/>
    <path d="M8.54025 4.9873C7.47403 4.9873 6.98438 5.61916 6.98438 6.04562C6.98438 6.35364 7.245 6.49581 7.45823 6.49581C7.88473 6.49581 7.71098 5.88766 8.51655 5.88766C8.91143 5.88766 9.22737 6.06142 9.22737 6.42473C9.22737 6.8512 8.78508 7.09602 8.52445 7.31716C8.2954 7.51457 7.9953 7.83841 7.9953 8.51763C7.9953 8.9283 8.10588 9.04677 8.42967 9.04677C8.81665 9.04677 8.89563 8.87303 8.89563 8.72294C8.89563 8.31227 8.90353 8.07534 9.33792 7.73573C9.55116 7.56988 10.2225 7.03281 10.2225 6.29043C10.2225 5.54805 9.55116 4.9873 8.54025 4.9873Z" fill="#007AFF"/>
  </g>
  <defs>
    <clipPath id="clip0_4962_225097">
      <rect width="12" height="12" fill="white" transform="translate(2.61328 2)"/>
    </clipPath>
  </defs>
</svg>
