<svg width="18" height="18" viewBox="0 0 18 18" fill="none" xmlns="http://www.w3.org/2000/svg">
<g clip-path="url(#clip0_3262_101397)">
<path d="M13.7365 4.26322L9.47337 3.78955L4.26282 4.26322L3.78906 9.0001L4.26273 13.737L8.99961 14.3291L13.7365 13.737L14.2102 8.88175L13.7365 4.26322Z" fill="white"/>
<path d="M6.20571 11.6121C5.85165 11.3729 5.60649 11.0236 5.47266 10.5617L6.29454 10.223C6.36915 10.5073 6.49938 10.7275 6.68532 10.8838C6.87009 11.0401 7.09509 11.1171 7.35798 11.1171C7.62681 11.1171 7.85775 11.0354 8.05071 10.8719C8.24367 10.7085 8.34087 10.5001 8.34087 10.2479C8.34087 9.98976 8.23899 9.77889 8.03532 9.61554C7.83165 9.45219 7.57587 9.37038 7.27032 9.37038H6.79548V8.55687H7.22172C7.48461 8.55687 7.7061 8.48586 7.8861 8.34375C8.0661 8.20164 8.1561 8.00742 8.1561 7.75992C8.1561 7.53969 8.07555 7.36437 7.91454 7.23297C7.75353 7.10157 7.54977 7.03524 7.30227 7.03524C7.06071 7.03524 6.86883 7.09923 6.72672 7.22829C6.58461 7.35735 6.48156 7.51602 6.41649 7.70313L5.60298 7.36446C5.71071 7.05891 5.90853 6.78891 6.1986 6.55563C6.48876 6.32235 6.85938 6.20508 7.30938 6.20508C7.64211 6.20508 7.94172 6.26907 8.20704 6.39813C8.47227 6.52719 8.68071 6.70602 8.8311 6.93336C8.98149 7.16187 9.0561 7.41774 9.0561 7.70187C9.0561 7.99203 8.98626 8.2371 8.84649 8.43843C8.70672 8.63976 8.535 8.79366 8.33133 8.90148V8.94999C8.60016 9.06249 8.81922 9.23421 8.99211 9.46515C9.16383 9.69609 9.25023 9.97203 9.25023 10.2941C9.25023 10.6162 9.16851 10.904 9.00507 11.1562C8.84163 11.4085 8.61546 11.6074 8.3289 11.7519C8.04117 11.8963 7.71789 11.9698 7.35906 11.9698C6.94344 11.9709 6.55977 11.8513 6.20571 11.6121Z" fill="#1A73E8"/>
<path d="M11.2492 7.53408L10.3516 8.18658L9.90039 7.50213L11.5192 6.33447H12.1398V11.8422H11.2492V7.53408Z" fill="#1A73E8"/>
<path d="M13.7364 18L17.9995 13.7369L15.868 12.7896L13.7364 13.7369L12.7891 15.8684L13.7364 18Z" fill="#EA4335"/>
<path d="M3.31641 15.8684L4.26375 17.9999H13.7374V13.7368H4.26375L3.31641 15.8684Z" fill="#34A853"/>
<path d="M1.42101 0C0.63594 0 0 0.63594 0 1.42101V13.7368L2.13156 14.6841L4.26312 13.7368V4.26312H13.7368L14.6841 2.13156L13.7369 0H1.42101Z" fill="#4285F4"/>
<path d="M0 13.7368V16.5789C0 17.3641 0.63594 17.9999 1.42101 17.9999H4.26312V13.7368H0Z" fill="#188038"/>
<path d="M13.7363 4.26326V13.7369H17.9994V4.26326L15.8679 3.31592L13.7363 4.26326Z" fill="#FBBC04"/>
<path d="M17.9994 4.26312V1.42101C17.9994 0.63585 17.3635 0 16.5784 0H13.7363V4.26312H17.9994Z" fill="#1967D2"/>
</g>
<defs>
<clipPath id="clip0_3262_101397">
<rect width="18" height="18" fill="white"/>
</clipPath>
</defs>
</svg>
