<svg width="18" height="18" viewBox="0 0 18 18" fill="none" xmlns="http://www.w3.org/2000/svg">
<path d="M11.7073 10.6636L11.5 10.8133V11.0689V12.7939C11.5 12.8512 11.4755 12.9177 11.4282 12.9684C11.3856 13.0141 11.3279 13.0439 11.25 13.0439H6.75C6.67209 13.0439 6.61442 13.0141 6.57178 12.9684C6.52446 12.9177 6.5 12.8512 6.5 12.7939V11.0689V10.8014L6.27735 10.6529C5.06484 9.84458 4.25 8.42485 4.25 6.79395C4.25 4.14509 6.35114 2.04395 9 2.04395C11.6489 2.04395 13.75 4.14509 13.75 6.79395C13.75 8.34279 12.9403 9.77308 11.7073 10.6636Z" stroke="#DD3A44"/>
<mask id="path-2-inside-1_3256_181314" fill="white">
<path d="M6.75 15.7939C6.75 16.1689 7.05 16.5439 7.5 16.5439H10.5C10.95 16.5439 11.25 16.1689 11.25 15.7939V15.0439H6.75V15.7939Z"/>
</mask>
<path d="M11.25 15.0439H15.25V11.0439H11.25V15.0439ZM6.75 15.0439V11.0439H2.75V15.0439H6.75ZM2.75 15.7939C2.75 18.1137 4.58541 20.5439 7.5 20.5439V12.5439C9.51459 12.5439 10.75 14.2242 10.75 15.7939H2.75ZM7.5 20.5439H10.5V12.5439H7.5V20.5439ZM10.5 20.5439C13.4146 20.5439 15.25 18.1137 15.25 15.7939H7.25C7.25 14.2242 8.48541 12.5439 10.5 12.5439V20.5439ZM15.25 15.7939V15.0439H7.25V15.7939H15.25ZM11.25 11.0439H6.75V19.0439H11.25V11.0439ZM2.75 15.0439V15.7939H10.75V15.0439H2.75Z" fill="#DD3A44" mask="url(#path-2-inside-1_3256_181314)"/>
</svg>
