<svg width="12" height="12" viewBox="0 0 12 12" fill="none" xmlns="http://www.w3.org/2000/svg">
<g clip-path="url(#clip0_3016_2191)">
<path fill-rule="evenodd" clip-rule="evenodd" d="M7.53249 2.2981C7.2379 1.98289 6.75548 1.98415 6.46236 2.30082C6.17648 2.60967 6.17752 3.10407 6.46486 3.41157L8.1434 5.20766L2.06252 5.20766C1.63571 5.20766 1.3125 5.57544 1.3125 6C1.3125 6.42456 1.63571 6.79234 2.06252 6.79234L8.14338 6.79234L6.46488 8.58844C6.17754 8.89593 6.17651 9.39032 6.46238 9.69917C6.75552 10.0159 7.23798 10.0171 7.53252 9.70189L10.472 6.55653C10.7593 6.24816 10.7591 5.75157 10.4723 5.44384L7.53249 2.2981Z" fill="white"/>
</g>
<defs>
<clipPath id="clip0_3016_2191">
<rect width="12" height="12" rx="2.22222" fill="white"/>
</clipPath>
</defs>
</svg>
