<svg width="14" height="14" viewBox="0 0 14 14" fill="none" xmlns="http://www.w3.org/2000/svg">
<g clip-path="url(#clip0_3735_173118)">
<rect width="14" height="14" rx="2" fill="white"/>
<g clip-path="url(#clip1_3735_173118)">
<path d="M6.94894 1.16699L3.8125 5.20862L5.38108 9.02114L8.51752 4.97937L6.94894 1.16699Z" fill="#2470ED"/>
<path d="M6.89979 1.53012L8.30708 4.95093L5.43037 8.65787L4.02294 5.2372L6.89979 1.53012ZM6.94894 1.16699L3.8125 5.20862L5.38108 9.02114L8.51752 4.97951L6.94894 1.16699Z" fill="#05274C"/>
<path d="M5.98438 4.63184L7.91638 9.36894L12.0023 9.91669L10.0703 5.17959L5.98438 4.63184Z" fill="white"/>
<path d="M6.27429 4.85613L9.9404 5.34773L11.7124 9.6924L8.04631 9.20094L6.27429 4.85613ZM5.98438 4.63184L7.91638 9.36894L12.0023 9.91669L10.0703 5.17959L5.98438 4.63184Z" fill="#05274C"/>
<path d="M11.9994 4.08303L6.931 3.3877L4.41406 6.65232L9.48206 7.34824L11.9994 4.08303Z" fill="#85BCFA"/>
<path d="M7.0115 3.58413L11.6602 4.22186L9.40156 7.15122L4.75269 6.51349L7.0115 3.58413ZM6.931 3.3877L4.41406 6.65232L9.48206 7.34824L11.9993 4.08303L6.931 3.3877Z" fill="#05274C"/>
<path d="M9.48425 7.34709L4.41596 6.65234L1.89844 9.91697L6.96688 10.6123L9.48425 7.34709Z" fill="#85BCFA"/>
<path d="M4.49631 6.84878L9.1449 7.48666L6.88638 10.4159L2.23765 9.77814L4.49631 6.84878ZM4.41581 6.65234L1.89844 9.91697L6.96688 10.6123L9.48425 7.34709L4.41581 6.65234Z" fill="#05274C"/>
<path d="M8.5194 4.97949L5.38281 9.02112L6.95154 12.8336L10.0878 8.79201L8.5194 4.97949Z" fill="#2470ED"/>
<path d="M8.4701 5.34262L9.8774 8.76343L7.00069 12.4705L5.59325 9.04955L8.4701 5.34262ZM8.51925 4.97949L5.38281 9.02112L6.9514 12.8336L10.0878 8.79201L8.51925 4.97949Z" fill="#05274C"/>
<path d="M1.89844 4.08398L3.83102 8.82094L7.91698 9.36869L5.98498 4.63173L1.89844 4.08398Z" fill="white"/>
<path d="M2.18894 4.30828L5.85504 4.79973L7.62706 9.14455L3.96096 8.65309L2.18894 4.30828ZM1.89844 4.08398L3.83102 8.82109L7.91698 9.36884L5.98498 4.63173L1.89844 4.08398Z" fill="#05274C"/>
<path d="M6.92896 6.98133L6.86406 6.80269L6.94354 6.81348L6.09435 4.77342L6.05848 4.81994L5.97229 4.6496L5.96354 4.64844L4.41406 6.65277L6.92896 6.98133Z" fill="#85BCFA"/>
<path d="M6.05833 4.82073L5.98133 4.63203L5.97258 4.63086L4.41406 6.65284L6.94792 7.0005L6.86742 6.80407L4.75283 6.51386L6.05833 4.82073Z" fill="#05274C"/>
</g>
</g>
<defs>
<clipPath id="clip0_3735_173118">
<rect width="14" height="14" rx="2" fill="white"/>
</clipPath>
<clipPath id="clip1_3735_173118">
<rect width="11.6667" height="11.6667" fill="white" transform="translate(1.16797 1.16699)"/>
</clipPath>
</defs>
</svg>
