<svg width="16" height="16" viewBox="0 0 16 16" fill="none" xmlns="http://www.w3.org/2000/svg">
<rect width="16" height="16" rx="2" fill="#282828"/>
<g clip-path="url(#clip0_6525_160686)">
<path d="M14.5167 7.68341L11.332 2.16675H4.66536L4.51686 2.42408L1.33203 7.94041L3.4552 11.6176L4.51686 13.4562L4.66536 13.7139H11.332L13.455 10.0364L14.5167 8.19775L14.6654 7.94041L14.5167 7.68341Z" fill="#282828"/>
<path d="M13.9221 8.19751L13.1578 9.52151H7.38265L8.14698 8.19751H13.9221ZM9.50015 11.3602H6.32031L7.08465 10.0362H10.2645L9.50015 11.3602Z" fill="#BFBFBF"/>
<path d="M6.64134 6.10134L4.66668 9.52134L3.90234 8.19734L5.87684 4.77734L6.64134 6.10134Z" fill="#888888"/>
<path d="M7.70261 7.93997L4.81511 12.9411L4.05078 11.6175L6.93811 6.61597L7.70261 7.93997Z" fill="#888888"/>
<path d="M8.14548 7.68281L5.25781 2.68164H6.78665L9.67331 7.68281H8.14548ZM10.2685 7.68281L8.59098 4.77781H10.1198L11.7973 7.68281H10.2685Z" fill="white"/>
</g>
<defs>
<clipPath id="clip0_6525_160686">
<rect width="13.3333" height="11.547" fill="white" transform="translate(1.33203 2.16675)"/>
</clipPath>
</defs>
</svg>
