<svg width="22" height="22" viewBox="0 0 22 22" fill="none" xmlns="http://www.w3.org/2000/svg">
<rect width="22" height="22" rx="2" fill="#05274C"/>
<g clip-path="url(#clip0_3016_2198)">
<path d="M5.61393 1.60425L5.37416 2.02197L0.228516 10.9702L3.65879 16.9358L5.37416 19.9189L5.61393 20.3361H16.3848L19.815 14.371L21.5299 11.3879L21.7702 10.9702L21.5299 10.5529L16.3848 1.60425L5.61393 1.60425Z" fill="#1C1C1C"/>
<path d="M5.61393 1.60425L5.37416 2.02197L0.228516 10.9702L3.65879 16.9358L5.37416 19.9189L5.61393 20.3361H16.3848L19.815 14.371L21.5299 11.3879L21.7702 10.9702L21.5299 10.5529L16.3848 1.60425L5.61393 1.60425Z" fill="#05274C"/>
<path d="M20.5696 11.3872L19.3347 13.5348H10.0044L11.2374 11.3872H20.5696ZM13.4253 16.5179H8.28711L9.52201 14.3703H14.6602L13.4253 16.5179Z" fill="#85BCFA"/>
<path d="M8.80385 7.9877L5.61381 13.5356L4.37891 11.388L7.56895 5.84009L8.80385 7.9877Z" fill="#2470ED"/>
<path d="M10.5196 10.9703L5.85209 19.0831L4.61719 16.9355L9.28236 8.82178L10.5196 10.9703Z" fill="#2470ED"/>
<path d="M11.2394 10.5525L6.57422 2.43921H9.04402L13.7092 10.5525H11.2394ZM14.6692 10.5525L11.9592 5.83998H14.429L17.1395 10.5525H14.6692Z" fill="white"/>
</g>
<defs>
<clipPath id="clip0_3016_2198">
<rect width="21.5417" height="18.7319" fill="white" transform="translate(0.228516 1.60425)"/>
</clipPath>
</defs>
</svg>
